<svg width="48" height="48" viewBox="0 0 48 48" fill="none" xmlns="http://www.w3.org/2000/svg">
<circle cx="24" cy="24" r="24" fill="#A9DEFF"/>
<path d="M21.4619 13.8948C21.7888 13.5504 22.1825 13.2762 22.6189 13.0887C23.0552 12.9013 23.5251 12.8047 24 12.8047C24.475 12.8047 24.9449 12.9013 25.3812 13.0887C25.8176 13.2762 26.2113 13.5504 26.5382 13.8948L34.0465 21.8048C34.7867 22.5848 35.1996 23.619 35.2001 24.6944V30.9986C35.2001 31.7412 34.9051 32.4534 34.3799 32.9785C33.8548 33.5036 33.1427 33.7986 32.4001 33.7986H26.3548C26.7259 33.2484 27.1305 32.6086 27.4608 31.9744C27.8025 31.3178 28.2001 30.426 28.2001 29.5986C28.2001 28.4847 27.7576 27.4164 26.9699 26.6288C26.1822 25.8411 25.114 25.3986 24 25.3986C22.8861 25.3986 21.8179 25.8411 21.0302 26.6288C20.2425 27.4164 19.8 28.4847 19.8 29.5986C19.8 30.4246 20.1976 31.3178 20.5406 31.9744C20.8696 32.6072 21.2743 33.2484 21.6466 33.7986H15.6C14.8574 33.7986 14.1453 33.5036 13.6201 32.9785C13.095 32.4534 12.8 31.7412 12.8 30.9986V24.6958C12.7998 23.6195 13.2127 22.5841 13.9536 21.8034L21.4619 13.8948ZM25.5218 14.8594C25.3257 14.6529 25.0895 14.4885 24.8278 14.3761C24.566 14.2637 24.2842 14.2058 23.9993 14.2058C23.7145 14.2058 23.4326 14.2637 23.1709 14.3761C22.9092 14.4885 22.673 14.6529 22.4768 14.8594L17.959 19.6194C19.0342 20.3264 19.9232 20.6092 20.703 20.6638C21.6158 20.7296 22.46 20.4916 23.3854 20.1136C23.7004 19.9848 24.0252 19.8364 24.3654 19.6824C25.6226 19.114 27.0674 18.4588 28.8398 18.3524L25.5218 14.8594ZM21.7488 31.2618C22.0946 31.9338 22.5497 32.645 22.9613 33.2414C23.0756 33.4123 23.2304 33.5525 23.4118 33.6494C23.5933 33.7463 23.7958 33.797 24.0015 33.797C24.2071 33.797 24.4096 33.7463 24.5911 33.6494C24.7725 33.5525 24.9273 33.4123 25.0416 33.2414C25.4532 32.645 25.9096 31.9352 26.254 31.2618C26.576 30.6332 26.8015 30.0368 26.8015 29.5986C26.8015 28.856 26.5065 28.1438 25.9813 27.6187C25.4562 27.0936 24.7441 26.7986 24.0015 26.7986C23.2588 26.7986 22.5467 27.0936 22.0216 27.6187C21.4964 28.1438 21.2015 28.856 21.2015 29.5986C21.2015 30.0368 21.4254 30.6332 21.7488 31.2618ZM25.0668 30.5072C24.9357 30.6618 24.7725 30.786 24.5885 30.8712C24.4045 30.9564 24.2042 31.0005 24.0015 31.0005C23.7987 31.0005 23.5984 30.9564 23.4144 30.8712C23.2304 30.786 23.0672 30.6618 22.936 30.5072C22.7626 30.3037 22.651 30.0547 22.6145 29.7898C22.5781 29.5249 22.6182 29.2551 22.7303 29.0122C22.8424 28.7694 23.0217 28.5638 23.2469 28.4197C23.4722 28.2755 23.734 28.1989 24.0015 28.1989C24.2689 28.1989 24.5307 28.2755 24.756 28.4197C24.9812 28.5638 25.1605 28.7694 25.2726 29.0122C25.3847 29.2551 25.4248 29.5249 25.3884 29.7898C25.3519 30.0547 25.2403 30.3037 25.0668 30.5072Z" fill="#3F99FF"/>
</svg>
