<svg xmlns="http://www.w3.org/2000/svg" width="20" height="20" viewBox="0 0 20 20" fill="none">
  <path d="M4.82373 8.48594H4.72373V8.58594V9.52711V9.62711H4.82373H8.58844H8.68844V9.52711V8.58594V8.48594H8.58844H4.82373Z" fill="#146DFF" stroke="#146DFF" stroke-width="0.2"/>
  <path d="M4.82373 10.3687H4.72373V10.4688V11.4099V11.5099H4.82373H10.4708H10.5708V11.4099V10.4688V10.3687H10.4708H4.82373Z" fill="#146DFF" stroke="#146DFF" stroke-width="0.2"/>
  <path d="M14.2626 10.4333L14.2629 10.4333C14.8916 10.4325 15.5109 10.5865 16.0662 10.8817C16.6214 11.1768 17.0955 11.6041 17.4467 12.1258C17.7978 12.6475 18.0152 13.2477 18.0798 13.8733C18.1443 14.4989 18.0539 15.1308 17.8167 15.7132C17.5794 16.2957 17.2025 16.8108 16.7192 17.2131C16.2359 17.6154 15.6611 17.8926 15.0454 18.0203C14.4297 18.1479 13.7921 18.122 13.1887 17.9449C12.5985 17.7717 12.0589 17.4589 11.6153 17.0333H2.53317C2.36524 17.0333 2.20418 16.9666 2.08544 16.8478C1.9667 16.7291 1.9 16.568 1.9 16.4V2.53334C1.9 2.36538 1.9667 2.20429 2.08544 2.08552C2.20418 1.96674 2.36524 1.90001 2.53317 1.90001H9.46416H9.46443V2.00001C9.5346 1.9996 9.60416 2.01306 9.66912 2.0396C9.73408 2.06614 9.79317 2.10525 9.84299 2.15468L14.2626 10.4333ZM14.2626 10.4333C14.1179 10.4339 13.9734 10.4432 13.8298 10.461V6.26691V6.26667H13.7298L14.2626 10.4333ZM4.66587 14.3667H10.4321C10.4452 14.8491 10.5507 15.3244 10.7427 15.7667H3.16635V3.16668H8.83126V6.26667C8.83126 6.43464 8.89796 6.59572 9.0167 6.7145C9.13544 6.83327 9.2965 6.90001 9.46443 6.90001H12.5635V10.8386C12.1019 11.0664 11.6908 11.385 11.3548 11.7755C11.0211 12.1632 10.7686 12.6136 10.6118 13.1H4.66587H4.56587V13.2V14.2667V14.3667H4.66587ZM10.0976 5.63334V4.06015L11.6703 5.63334H10.0976ZM14.263 16.8333C13.7555 16.8333 13.2594 16.6828 12.8375 16.4008C12.4155 16.1188 12.0867 15.7179 11.8924 15.2489C11.6982 14.7799 11.6474 14.2638 11.7464 13.7659C11.8454 13.268 12.0898 12.8107 12.4487 12.4518C12.8075 12.0928 13.2647 11.8484 13.7624 11.7493C14.2601 11.6503 14.7761 11.7011 15.2449 11.8954C15.7138 12.0896 16.1145 12.4186 16.3964 12.8407C16.6784 13.2628 16.8289 13.759 16.8289 14.2667C16.8289 14.9474 16.5585 15.6002 16.0773 16.0816C15.5961 16.5629 14.9435 16.8333 14.263 16.8333Z" fill="#146DFF" stroke="#146DFF" stroke-width="0.2"/>
  <path d="M15.3485 12.2809L15.2778 12.2101L15.2071 12.2809L14.2354 13.2526L13.2636 12.2809L13.1929 12.2101L13.1222 12.2809L12.2823 13.1208L12.2116 13.1915L12.2823 13.2622L13.254 14.2339L12.2823 15.2056L12.2116 15.2764L12.2823 15.3471L13.1222 16.187L13.1929 16.2577L13.2636 16.187L14.2354 15.2152L15.2071 16.187L15.2778 16.2577L15.3485 16.187L16.1884 15.3471L16.2592 15.2764L16.1884 15.2056L15.2167 14.2339L16.1884 13.2622L16.2592 13.1915L16.1884 13.1208L15.3485 12.2809Z" fill="#146DFF" stroke="#146DFF" stroke-width="0.2"/>
</svg>