<svg width="42" height="24" viewBox="0 0 42 24" fill="none" xmlns="http://www.w3.org/2000/svg">
<path id="Vector" d="M23.6732 4.14133L20.6893 9.53409C20.5685 9.74933 20.0249 10.6286 19.8376 10.7701C19.3424 11.3665 18.6598 11.7601 17.8988 11.8954C17.7176 11.9569 17.0048 11.9937 16.8055 11.9937H6.87538L0.273438 23.9353H10.1975C10.7713 23.9292 12.8612 23.8123 13.3807 23.6033C15.4404 23.179 17.2646 21.7831 18.3276 19.8585L21.3115 14.4657C21.4323 14.2505 21.9759 13.3711 22.1631 13.2297C22.6585 12.6333 23.347 12.2397 24.1081 12.0983C24.2893 12.0368 24.996 11.9999 25.1953 11.9999H35.1254L41.7274 0.0644531H31.8093C31.2355 0.0706023 29.1456 0.187435 28.6262 0.396506C26.5604 0.814646 24.7363 2.21664 23.6732 4.14133Z" fill="#FF9332"/>
</svg>
