<svg width="48" height="48" viewBox="0 0 48 48" fill="none" xmlns="http://www.w3.org/2000/svg">
<circle cx="24" cy="24" r="24" fill="#A9DEFF"/>
<path d="M26.6319 35.3667L23.9999 37.9987L21.3679 35.3667C16.1949 34.172 12.3333 29.5334 12.3333 23.9987C12.3333 17.5587 17.5599 12.332 23.9999 12.332C30.4399 12.332 35.6666 17.5587 35.6666 23.9987C35.6666 29.5334 31.8049 34.172 26.6319 35.3667ZM17.0268 27.984C18.7394 30.539 21.3108 32.1654 24.1866 32.1654C27.0613 32.1654 29.6338 30.5402 31.3453 27.984C29.4036 26.1694 26.8442 25.1616 24.1866 25.1654C21.5286 25.1613 18.9687 26.1691 17.0268 27.984ZM23.9999 22.832C24.9282 22.832 25.8184 22.4633 26.4748 21.8069C27.1312 21.1505 27.4999 20.2603 27.4999 19.332C27.4999 18.4038 27.1312 17.5135 26.4748 16.8572C25.8184 16.2008 24.9282 15.832 23.9999 15.832C23.0717 15.832 22.1814 16.2008 21.525 16.8572C20.8687 17.5135 20.4999 18.4038 20.4999 19.332C20.4999 20.2603 20.8687 21.1505 21.525 21.8069C22.1814 22.4633 23.0717 22.832 23.9999 22.832Z" fill="#3F99FF"/>
</svg>
