<svg width="32" height="32" viewBox="0 0 32 32" fill="none" xmlns="http://www.w3.org/2000/svg">
<g clip-path="url(#clip0_25270_98735)">
<path d="M16.0026 15.6667C16.6451 15.6667 17.1941 15.4379 17.6497 14.9804C18.1052 14.5229 18.333 13.9729 18.333 13.3304C18.333 12.6879 18.1042 12.1389 17.6467 11.6833C17.1892 11.2278 16.6392 11 15.9967 11C15.3542 11 14.8052 11.2288 14.3497 11.6863C13.8941 12.1438 13.6663 12.6938 13.6663 13.3363C13.6663 13.9788 13.8951 14.5278 14.3526 14.9833C14.8102 15.4389 15.3602 15.6667 16.0026 15.6667ZM15.9997 29.3333C12.4219 26.2889 9.74967 23.4611 7.98301 20.85C6.21634 18.2389 5.33301 15.8222 5.33301 13.6C5.33301 10.2667 6.40523 7.61111 8.54967 5.63333C10.6941 3.65556 13.1775 2.66667 15.9997 2.66667C16.4886 2.66667 16.9663 2.7 17.433 2.76667C17.8997 2.83333 18.3552 2.91757 18.7997 3.01937V7.6H23.0663V11.8667H26.5403C26.5799 12.1556 26.6108 12.4389 26.633 12.7167C26.6552 12.9944 26.6663 13.2889 26.6663 13.6C26.6663 15.8222 25.783 18.2389 24.0163 20.85C22.2497 23.4611 19.5775 26.2889 15.9997 29.3333ZM24.3997 10.5333V6.26667H20.133V4.26667H24.3997V0H26.3997V4.26667H30.6663V6.26667H26.3997V10.5333H24.3997Z" fill="white"/>
</g>
<defs>
<clipPath id="clip0_25270_98735">
<rect width="32" height="32" fill="white"/>
</clipPath>
</defs>
</svg>
