<svg width="16" height="16" viewBox="0 0 16 16" fill="none" xmlns="http://www.w3.org/2000/svg">
<path d="M3.33333 12.2667V13.1667C3.33333 13.3083 3.28542 13.4271 3.18958 13.5229C3.09375 13.6188 2.975 13.6667 2.83333 13.6667H2.5C2.35833 13.6667 2.23958 13.6188 2.14375 13.5229C2.04792 13.4271 2 13.3083 2 13.1667V7.76667L3.41667 3.5C3.47222 3.34444 3.56389 3.22222 3.69167 3.13333C3.81944 3.04444 3.96667 3 4.13333 3H11.8667C12.0333 3 12.1806 3.04444 12.3083 3.13333C12.4361 3.22222 12.5278 3.34444 12.5833 3.5L14 7.76667V13.1667C14 13.3083 13.9521 13.4271 13.8563 13.5229C13.7604 13.6188 13.6417 13.6667 13.5 13.6667H13.15C13.0083 13.6667 12.8896 13.6188 12.7938 13.5229C12.6979 13.4271 12.65 13.3083 12.65 13.1667V12.2667H3.33333ZM3.38333 6.76667H12.6167L11.7 4H4.3L3.38333 6.76667ZM4.76275 10.4333C5.02092 10.4333 5.23611 10.3458 5.40833 10.1708C5.58056 9.99583 5.66667 9.78333 5.66667 9.53333C5.66667 9.27408 5.57917 9.05371 5.40417 8.87222C5.22917 8.69074 5.01667 8.6 4.76667 8.6C4.50741 8.6 4.28704 8.69036 4.10555 8.87108C3.92407 9.0518 3.83333 9.27124 3.83333 9.52942C3.83333 9.78758 3.92369 10.0028 4.10442 10.175C4.28513 10.3472 4.50457 10.4333 4.76275 10.4333ZM11.25 10.4333C11.5093 10.4333 11.7296 10.3458 11.9111 10.1708C12.0926 9.99583 12.1833 9.78333 12.1833 9.53333C12.1833 9.27408 12.093 9.05371 11.9123 8.87222C11.7315 8.69074 11.5121 8.6 11.2539 8.6C10.9958 8.6 10.7806 8.69036 10.6083 8.87108C10.4361 9.0518 10.35 9.27124 10.35 9.52942C10.35 9.78758 10.4375 10.0028 10.6125 10.175C10.7875 10.3472 11 10.4333 11.25 10.4333Z" fill="black"/>
</svg>
