<svg width="16" height="20" viewBox="0 0 16 20" fill="none" xmlns="http://www.w3.org/2000/svg">
<rect y="0.75" width="16" height="15" rx="2" fill="black"/>
<path d="M10.8866 14.75H5.11342C4.682 14.75 4.45309 15.2597 4.73972 15.5822L7.6263 18.8296C7.82519 19.0533 8.17481 19.0533 8.3737 18.8296L11.2603 15.5822C11.5469 15.2597 11.318 14.75 10.8866 14.75Z" fill="black"/>
<path d="M7.76224 4.48176C7.83707 4.25144 8.16293 4.25144 8.23776 4.48176L9.06644 7.03217C9.09991 7.13517 9.1959 7.20492 9.30421 7.20492H11.9859C12.228 7.20492 12.3287 7.51482 12.1328 7.65717L9.9633 9.23341C9.87568 9.29707 9.83902 9.40991 9.87249 9.51292L10.7012 12.0633C10.776 12.2936 10.5124 12.4852 10.3165 12.3428L8.14695 10.7666C8.05932 10.7029 7.94068 10.7029 7.85305 10.7666L5.68355 12.3428C5.48762 12.4852 5.224 12.2936 5.29884 12.0633L6.12752 9.51292C6.16098 9.40991 6.12432 9.29707 6.0367 9.23341L3.86719 7.65717C3.67126 7.51482 3.77196 7.20492 4.01414 7.20492H6.69579C6.8041 7.20492 6.90009 7.13517 6.93356 7.03217L7.76224 4.48176Z" fill="white"/>
</svg>
