<svg width="17" height="16" viewBox="0 0 17 16" fill="none" xmlns="http://www.w3.org/2000/svg">
<path d="M3.73519 12.2667V13.1667C3.73519 13.3083 3.68727 13.4271 3.59144 13.5229C3.49561 13.6188 3.37686 13.6667 3.23519 13.6667H2.90186C2.76019 13.6667 2.64144 13.6188 2.54561 13.5229C2.44977 13.4271 2.40186 13.3083 2.40186 13.1667V7.76667L3.81852 3.5C3.87408 3.34444 3.96574 3.22222 4.09352 3.13333C4.2213 3.04444 4.36852 3 4.53519 3H12.2685C12.4352 3 12.5824 3.04444 12.7102 3.13333C12.838 3.22222 12.9296 3.34444 12.9852 3.5L14.4019 7.76667V13.1667C14.4019 13.3083 14.3539 13.4271 14.2581 13.5229C14.1623 13.6188 14.0435 13.6667 13.9019 13.6667H13.5519C13.4102 13.6667 13.2914 13.6188 13.1956 13.5229C13.0998 13.4271 13.0519 13.3083 13.0519 13.1667V12.2667H3.73519ZM3.78519 6.76667H13.0185L12.1019 4H4.70186L3.78519 6.76667ZM5.16461 10.4333C5.42277 10.4333 5.63797 10.3458 5.81019 10.1708C5.98241 9.99583 6.06852 9.78333 6.06852 9.53333C6.06852 9.27408 5.98102 9.05371 5.80602 8.87222C5.63102 8.69074 5.41852 8.6 5.16852 8.6C4.90927 8.6 4.68889 8.69036 4.50741 8.87108C4.32593 9.0518 4.23519 9.27124 4.23519 9.52942C4.23519 9.78758 4.32555 10.0028 4.50627 10.175C4.68698 10.3472 4.90643 10.4333 5.16461 10.4333ZM11.6519 10.4333C11.9111 10.4333 12.1315 10.3458 12.313 10.1708C12.4945 9.99583 12.5852 9.78333 12.5852 9.53333C12.5852 9.27408 12.4948 9.05371 12.3141 8.87222C12.1334 8.69074 11.9139 8.6 11.6558 8.6C11.3976 8.6 11.1824 8.69036 11.0102 8.87108C10.838 9.0518 10.7519 9.27124 10.7519 9.52942C10.7519 9.78758 10.8394 10.0028 11.0144 10.175C11.1894 10.3472 11.4019 10.4333 11.6519 10.4333Z" fill="white"/>
</svg>
