<svg xmlns="http://www.w3.org/2000/svg" width="12" height="12" viewBox="0 0 12 12" fill="none">
<path d="M6.42856 5.56889V2.4725C6.42856 2.35108 6.3878 2.2493 6.30628 2.16716C6.22476 2.08502 6.12375 2.04395 6.00325 2.04395C5.88274 2.04395 5.78065 2.08502 5.69697 2.16716C5.61328 2.2493 5.57144 2.35108 5.57144 2.4725V5.72105C5.57144 5.79866 5.58581 5.86836 5.61455 5.93014C5.64328 5.99192 5.68301 6.04818 5.73374 6.0989L8.02242 8.38758C8.11541 8.48056 8.21726 8.52536 8.32799 8.52198C8.43873 8.5186 8.54185 8.46915 8.63737 8.37363C8.73289 8.27812 8.78064 8.17605 8.78064 8.06743C8.78064 7.95881 8.73104 7.85535 8.63183 7.75706L6.42856 5.56889ZM6.0011 12C5.17461 12 4.39773 11.8438 3.67046 11.5315C2.94319 11.2192 2.30586 10.7895 1.75847 10.2424C1.21106 9.6952 0.781129 9.05736 0.468677 8.32883C0.156226 7.6003 0 6.82188 0 5.99356C0 5.16522 0.156154 4.3864 0.468463 3.65708C0.780771 2.92774 1.2105 2.29213 1.75764 1.75023C2.3048 1.20831 2.94264 0.781129 3.67117 0.468678C4.3997 0.156226 5.17812 0 6.00644 0C6.83478 0 7.61364 0.157474 8.34304 0.472419C9.07242 0.787365 9.70689 1.21478 10.2464 1.75468C10.786 2.29458 11.2131 2.92946 11.5279 3.65933C11.8426 4.38919 12 5.16905 12 5.9989C12 6.82539 11.8438 7.60227 11.5315 8.32954C11.2192 9.0568 10.7922 9.69414 10.2506 10.2415C9.70894 10.7889 9.07289 11.2189 8.34246 11.5313C7.61204 11.8438 6.83159 12 6.0011 12ZM6.00786 11.1429C7.43069 11.1429 8.64223 10.6401 9.64249 9.63462C10.6427 8.62913 11.1429 7.41497 11.1429 5.99214C11.1429 4.56931 10.6427 3.35777 9.64249 2.35751C8.64223 1.35726 7.43069 0.857129 6.00786 0.857129C4.58503 0.857129 3.37087 1.35726 2.36537 2.35751C1.35988 3.35777 0.857129 4.56931 0.857129 5.99214C0.857129 7.41497 1.35988 8.62913 2.36537 9.63462C3.37087 10.6401 4.58503 11.1429 6.00786 11.1429Z" fill="#262527"/>
</svg>
