<svg width="56" height="56" viewBox="0 0 56 56" fill="none" xmlns="http://www.w3.org/2000/svg">
<g filter="url(#filter0_d_22759_229891)">
<rect x="42" y="38" width="28" height="28" rx="14" transform="rotate(180 42 38)" fill="white" shape-rendering="crispEdges"/>
<rect x="41.5" y="37.5" width="27" height="27" rx="13.5" transform="rotate(180 41.5 37.5)" stroke="#D0CFD2" shape-rendering="crispEdges"/>
<path d="M32.7782 19.2294C32.4824 18.9336 32.0045 18.9336 31.7088 19.2294L28 22.9306L24.2912 19.2218C23.9954 18.9261 23.5176 18.9261 23.2218 19.2218C22.9261 19.5176 22.9261 19.9954 23.2218 20.2912L26.9306 24L23.2218 27.7088C22.9261 28.0045 22.9261 28.4824 23.2218 28.7782C23.5176 29.0739 23.9954 29.0739 24.2912 28.7782L28 25.0694L31.7088 28.7782C32.0045 29.0739 32.4824 29.0739 32.7782 28.7782C33.0739 28.4824 33.0739 28.0045 32.7782 27.7088L29.0694 24L32.7782 20.2912C33.0664 20.003 33.0664 19.5176 32.7782 19.2294Z" fill="#6A6A70"/>
</g>
<defs>
<filter id="filter0_d_22759_229891" x="0" y="0" width="56" height="56" filterUnits="userSpaceOnUse" color-interpolation-filters="sRGB">
<feFlood flood-opacity="0" result="BackgroundImageFix"/>
<feColorMatrix in="SourceAlpha" type="matrix" values="0 0 0 0 0 0 0 0 0 0 0 0 0 0 0 0 0 0 127 0" result="hardAlpha"/>
<feOffset dy="4"/>
<feGaussianBlur stdDeviation="7"/>
<feComposite in2="hardAlpha" operator="out"/>
<feColorMatrix type="matrix" values="0 0 0 0 0 0 0 0 0 0 0 0 0 0 0 0 0 0 0.1 0"/>
<feBlend mode="normal" in2="BackgroundImageFix" result="effect1_dropShadow_22759_229891"/>
<feBlend mode="normal" in="SourceGraphic" in2="effect1_dropShadow_22759_229891" result="shape"/>
</filter>
</defs>
</svg>
