<svg width="17" height="16" viewBox="0 0 17 16" fill="none" xmlns="http://www.w3.org/2000/svg">
<g id="edit-2" clip-path="url(#clip0_7066_109995)">
<path id="Icon" d="M11.7202 1.99955C11.8953 1.82445 12.1032 1.68556 12.332 1.5908C12.5607 1.49604 12.8059 1.44727 13.0535 1.44727C13.3012 1.44727 13.5464 1.49604 13.7751 1.5908C14.0039 1.68556 14.2118 1.82445 14.3869 1.99955C14.562 2.17465 14.7009 2.38252 14.7956 2.61129C14.8904 2.84006 14.9392 3.08526 14.9392 3.33288C14.9392 3.58051 14.8904 3.8257 14.7956 4.05448C14.7009 4.28325 14.562 4.49112 14.3869 4.66622L5.38688 13.6662L1.72021 14.6662L2.72021 10.9995L11.7202 1.99955Z" stroke="#4D4D51" stroke-width="1.67" stroke-linecap="round" stroke-linejoin="round"/>
</g>
<defs>
<clipPath id="clip0_7066_109995">
<rect width="16" height="16" fill="white" transform="translate(0.386719)"/>
</clipPath>
</defs>
</svg>
