<svg width="12" height="14" viewBox="0 0 12 14" fill="none" xmlns="http://www.w3.org/2000/svg">
<path fill-rule="evenodd" clip-rule="evenodd" d="M6.20119 14L10.3017 9.89947C11.1127 9.08846 11.665 8.05518 11.8888 6.93029C12.1125 5.8054 11.9977 4.63942 11.5587 3.5798C11.1198 2.52017 10.3766 1.6145 9.42292 0.977301C8.46929 0.340103 7.34812 0 6.20119 0C5.05426 0 3.93309 0.340103 2.97945 0.977301C2.02581 1.6145 1.28254 2.52017 0.843626 3.5798C0.404712 4.63942 0.289869 5.8054 0.513619 6.93029C0.737368 8.05518 1.28966 9.08846 2.10066 9.89947L6.20119 14Z" fill="#262527"/>
<path d="M5.54396 3.16945C5.62862 3.08383 5.73053 3.01565 5.8435 2.96906C5.95647 2.92246 6.07813 2.89844 6.20108 2.89844C6.32403 2.89844 6.44569 2.92246 6.55866 2.96906C6.67163 3.01565 6.77354 3.08383 6.85819 3.16945L8.80199 5.13592C8.99364 5.32983 9.10053 5.58695 9.10064 5.85429V7.42156C9.10064 7.60617 9.02427 7.78323 8.88833 7.91377C8.75238 8.04432 8.56801 8.11765 8.37575 8.11765H6.81071C6.90676 7.98087 7.01151 7.82181 7.09704 7.66415C7.18548 7.50091 7.28842 7.27921 7.28842 7.07351C7.28842 6.79658 7.17386 6.531 6.96994 6.33519C6.76603 6.13937 6.48946 6.02936 6.20108 6.02936C5.9127 6.02936 5.63613 6.13937 5.43222 6.33519C5.2283 6.531 5.11374 6.79658 5.11374 7.07351C5.11374 7.27886 5.21668 7.50091 5.30548 7.66415C5.39065 7.82147 5.4954 7.98087 5.59181 8.11765H4.0264C3.83415 8.11765 3.64977 8.04432 3.51383 7.91377C3.37789 7.78323 3.30151 7.60617 3.30151 7.42156V5.85464C3.30144 5.58706 3.40835 5.32966 3.60017 5.13557L5.54396 3.16945ZM6.59506 3.40925C6.54427 3.35791 6.48313 3.31703 6.41537 3.2891C6.34761 3.26116 6.27464 3.24676 6.2009 3.24676C6.12716 3.24676 6.05418 3.26116 5.98642 3.2891C5.91866 3.31703 5.85753 3.35791 5.80674 3.40925L4.63713 4.59262C4.91548 4.76838 5.14564 4.83869 5.34752 4.85226C5.58383 4.86862 5.80239 4.80945 6.04197 4.71548C6.11672 4.68613 6.19361 4.65268 6.27375 4.61781C6.28103 4.61465 6.28834 4.61147 6.29568 4.60828L6.29845 4.60708C6.62328 4.46605 6.9965 4.30401 7.45405 4.27763L6.59506 3.40925ZM5.61827 7.48699C5.70779 7.65405 5.82559 7.83086 5.93214 7.97913C5.96176 8.02163 6.00182 8.05646 6.04879 8.08055C6.09576 8.10464 6.14819 8.11724 6.20144 8.11724C6.25469 8.11724 6.30712 8.10464 6.35409 8.08055C6.40106 8.05646 6.44112 8.02163 6.47074 7.97913C6.5773 7.83086 6.69545 7.6544 6.78462 7.48699C6.86798 7.33072 6.92633 7.18245 6.92633 7.07351C6.92633 6.88889 6.84996 6.71184 6.71402 6.58129C6.57807 6.45075 6.39369 6.37741 6.20144 6.37741C6.00919 6.37741 5.82481 6.45075 5.68887 6.58129C5.55292 6.71184 5.47655 6.88889 5.47655 7.07351C5.47655 7.18245 5.53454 7.33072 5.61827 7.48699ZM6.47726 7.29939C6.44331 7.33782 6.40105 7.3687 6.35342 7.38988C6.30579 7.41105 6.25393 7.42202 6.20144 7.42202C6.14895 7.42202 6.0971 7.41105 6.04947 7.38988C6.00184 7.3687 5.95958 7.33782 5.92562 7.29939C5.8807 7.2488 5.85182 7.18691 5.84238 7.12105C5.83294 7.05518 5.84334 6.9881 5.87236 6.92774C5.90137 6.86737 5.94778 6.81625 6.0061 6.78042C6.06442 6.74459 6.13221 6.72555 6.20144 6.72555C6.27068 6.72555 6.33846 6.74459 6.39678 6.78042C6.4551 6.81625 6.50151 6.86737 6.53052 6.92774C6.55954 6.9881 6.56994 7.05518 6.5605 7.12105C6.55106 7.18691 6.52218 7.2488 6.47726 7.29939Z" fill="white"/>
<path d="M5.54396 3.16945C5.62862 3.08383 5.73053 3.01565 5.8435 2.96906C5.95647 2.92246 6.07813 2.89844 6.20108 2.89844C6.32403 2.89844 6.44569 2.92246 6.55866 2.96906C6.67163 3.01565 6.77354 3.08383 6.85819 3.16945L8.80199 5.13592C8.99364 5.32983 9.10053 5.58695 9.10064 5.85429V7.42156C9.10064 7.60617 9.02427 7.78323 8.88833 7.91377C8.75238 8.04432 8.56801 8.11765 8.37575 8.11765H6.81071C6.90676 7.98087 7.01151 7.82181 7.09704 7.66415C7.18548 7.50091 7.28842 7.27921 7.28842 7.07351C7.28842 6.79658 7.17386 6.531 6.96994 6.33519C6.76603 6.13937 6.48946 6.02936 6.20108 6.02936C5.9127 6.02936 5.63613 6.13937 5.43222 6.33519C5.2283 6.531 5.11374 6.79658 5.11374 7.07351C5.11374 7.27886 5.21668 7.50091 5.30548 7.66415C5.39065 7.82147 5.4954 7.98087 5.59181 8.11765H4.0264C3.83415 8.11765 3.64977 8.04432 3.51383 7.91377C3.37789 7.78323 3.30151 7.60617 3.30151 7.42156V5.85464C3.30144 5.58706 3.40835 5.32966 3.60017 5.13557L5.54396 3.16945ZM6.59506 3.40925C6.54427 3.35791 6.48313 3.31703 6.41537 3.2891C6.34761 3.26116 6.27464 3.24676 6.2009 3.24676C6.12716 3.24676 6.05418 3.26116 5.98642 3.2891C5.91866 3.31703 5.85753 3.35791 5.80674 3.40925L4.63713 4.59262C4.91548 4.76838 5.14564 4.83869 5.34752 4.85226C5.58383 4.86862 5.80239 4.80945 6.04197 4.71548C6.11672 4.68613 6.19361 4.65268 6.27375 4.61781C6.28103 4.61465 6.28834 4.61147 6.29568 4.60828L6.29845 4.60708C6.62328 4.46605 6.9965 4.30401 7.45405 4.27763L6.59506 3.40925ZM5.61827 7.48699C5.70779 7.65405 5.82559 7.83086 5.93214 7.97913C5.96176 8.02163 6.00182 8.05646 6.04879 8.08055C6.09576 8.10464 6.14819 8.11724 6.20144 8.11724C6.25469 8.11724 6.30712 8.10464 6.35409 8.08055C6.40106 8.05646 6.44112 8.02163 6.47074 7.97913C6.5773 7.83086 6.69545 7.6544 6.78462 7.48699C6.86798 7.33072 6.92633 7.18245 6.92633 7.07351C6.92633 6.88889 6.84996 6.71184 6.71402 6.58129C6.57807 6.45075 6.39369 6.37741 6.20144 6.37741C6.00919 6.37741 5.82481 6.45075 5.68887 6.58129C5.55292 6.71184 5.47655 6.88889 5.47655 7.07351C5.47655 7.18245 5.53454 7.33072 5.61827 7.48699ZM6.47726 7.29939C6.44331 7.33782 6.40105 7.3687 6.35342 7.38988C6.30579 7.41105 6.25393 7.42202 6.20144 7.42202C6.14895 7.42202 6.0971 7.41105 6.04947 7.38988C6.00184 7.3687 5.95958 7.33782 5.92562 7.29939C5.8807 7.2488 5.85182 7.18691 5.84238 7.12105C5.83294 7.05518 5.84334 6.9881 5.87236 6.92774C5.90137 6.86737 5.94778 6.81625 6.0061 6.78042C6.06442 6.74459 6.13221 6.72555 6.20144 6.72555C6.27068 6.72555 6.33846 6.74459 6.39678 6.78042C6.4551 6.81625 6.50151 6.86737 6.53052 6.92774C6.55954 6.9881 6.56994 7.05518 6.5605 7.12105C6.55106 7.18691 6.52218 7.2488 6.47726 7.29939Z" stroke="white"/>
</svg>
