<svg width="17" height="20" viewBox="0 0 17 20" fill="none" xmlns="http://www.w3.org/2000/svg">
<g id="Franchise_pin">
<g id="Union">
<mask id="path-1-inside-1_25983_354618" fill="white">
<path fill-rule="evenodd" clip-rule="evenodd" d="M8.71592 20L14.5738 14.1421C15.7324 12.9835 16.5214 11.5074 16.841 9.90041C17.1607 8.29343 16.9966 6.62774 16.3696 5.11399C15.7426 3.60025 14.6807 2.30643 13.3184 1.39614C11.9561 0.485861 10.3544 0 8.71592 0C7.07745 0 5.47577 0.485861 4.11343 1.39614C2.75109 2.30643 1.68928 3.60025 1.06226 5.11399C0.435237 6.62774 0.271175 8.29343 0.590817 9.90041C0.910459 11.5074 1.69945 12.9835 2.85802 14.1421L8.71592 20Z"/>
</mask>
<path fill-rule="evenodd" clip-rule="evenodd" d="M8.71592 20L14.5738 14.1421C15.7324 12.9835 16.5214 11.5074 16.841 9.90041C17.1607 8.29343 16.9966 6.62774 16.3696 5.11399C15.7426 3.60025 14.6807 2.30643 13.3184 1.39614C11.9561 0.485861 10.3544 0 8.71592 0C7.07745 0 5.47577 0.485861 4.11343 1.39614C2.75109 2.30643 1.68928 3.60025 1.06226 5.11399C0.435237 6.62774 0.271175 8.29343 0.590817 9.90041C0.910459 11.5074 1.69945 12.9835 2.85802 14.1421L8.71592 20Z" fill="#FF9332"/>
<path d="M14.5738 14.1421L15.2809 14.8492L15.2809 14.8492L14.5738 14.1421ZM8.71592 20L8.00881 20.7071L8.71592 21.4142L9.42302 20.7071L8.71592 20ZM16.3696 5.11399L17.2935 4.73131V4.73131L16.3696 5.11399ZM13.3184 1.39614L12.7628 2.22761H12.7628L13.3184 1.39614ZM4.11343 1.39614L4.669 2.22761L4.11343 1.39614ZM1.06226 5.11399L0.138378 4.73131L1.06226 5.11399ZM2.85802 14.1421L2.1509 14.8492L2.15091 14.8492L2.85802 14.1421ZM13.8667 13.435L8.00881 19.2929L9.42302 20.7071L15.2809 14.8492L13.8667 13.435ZM15.8602 9.70533C15.5792 11.1183 14.8854 12.4163 13.8667 13.435L15.2809 14.8492C16.5793 13.5508 17.4636 11.8965 17.8218 10.0955L15.8602 9.70533ZM15.4457 5.49668C15.997 6.8277 16.1413 8.29232 15.8602 9.70533L17.8218 10.0955C18.18 8.29453 17.9962 6.42778 17.2935 4.73131L15.4457 5.49668ZM12.7628 2.22761C13.9607 3.02802 14.8944 4.16566 15.4457 5.49668L17.2935 4.73131C16.5907 3.03484 15.4008 1.58484 13.874 0.564674L12.7628 2.22761ZM8.71592 1C10.1566 1 11.5649 1.42721 12.7628 2.22761L13.874 0.564674C12.3472 -0.45549 10.5522 -1 8.71592 -1V1ZM4.669 2.22761C5.86689 1.42721 7.27523 1 8.71592 1V-1C6.87966 -1 5.08465 -0.45549 3.55786 0.564674L4.669 2.22761ZM1.98614 5.49668C2.53747 4.16566 3.47111 3.02802 4.669 2.22761L3.55786 0.564674C2.03107 1.58484 0.841086 3.03484 0.138378 4.73131L1.98614 5.49668ZM1.5716 9.70533C1.29055 8.29232 1.4348 6.8277 1.98614 5.49668L0.138378 4.73131C-0.56433 6.42778 -0.748196 8.29453 -0.389969 10.0955L1.5716 9.70533ZM3.56513 13.435C2.54641 12.4163 1.85266 11.1183 1.5716 9.70533L-0.389969 10.0955C-0.0317428 11.8965 0.852487 13.5508 2.1509 14.8492L3.56513 13.435ZM9.42302 19.2929L3.56512 13.435L2.15091 14.8492L8.00881 20.7071L9.42302 19.2929Z" fill="#EF5C07" mask="url(#path-1-inside-1_25983_354618)"/>
</g>
<g id="Vector">
<mask id="path-3-inside-2_25983_354618" fill="white">
<path d="M7.77772 4.52778C7.89865 4.40547 8.04425 4.30807 8.20563 4.24151C8.36701 4.17495 8.54082 4.14062 8.71645 4.14062C8.89209 4.14062 9.0659 4.17495 9.22728 4.24151C9.38866 4.30807 9.53425 4.40547 9.65519 4.52778L12.432 7.33703C12.7058 7.61405 12.8585 7.98136 12.8587 8.36328V10.6022C12.8587 10.866 12.7496 11.1189 12.5554 11.3054C12.3612 11.4919 12.0978 11.5966 11.8231 11.5966H9.58736C9.72457 11.4012 9.87421 11.174 9.99641 10.9488C10.1227 10.7156 10.2698 10.3989 10.2698 10.105C10.2698 9.70941 10.1061 9.33 9.81483 9.05027C9.52352 8.77053 9.12843 8.61338 8.71645 8.61338C8.30448 8.61338 7.90939 8.77053 7.61808 9.05027C7.32677 9.33 7.16312 9.70941 7.16312 10.105C7.16312 10.3984 7.31017 10.7156 7.43702 10.9488C7.5587 11.1735 7.70834 11.4012 7.84607 11.5966H5.60978C5.33513 11.5966 5.07173 11.4919 4.87753 11.3054C4.68332 11.1189 4.57422 10.866 4.57422 10.6022V8.36377C4.57411 7.98151 4.72684 7.6138 5.00087 7.33653L7.77772 4.52778ZM9.27928 4.87036C9.20672 4.79702 9.11939 4.73862 9.02259 4.69871C8.92579 4.6588 8.82154 4.63822 8.7162 4.63822C8.61085 4.63822 8.50661 4.6588 8.4098 4.69871C8.313 4.73862 8.22567 4.79702 8.15311 4.87036L6.48224 6.56088C6.87989 6.81198 7.20868 6.91241 7.49708 6.9318C7.83468 6.95517 8.1469 6.87065 8.48915 6.7364C8.60565 6.69066 8.72577 6.63795 8.85159 6.58326C9.31656 6.38139 9.85091 6.14869 10.5064 6.11091L9.27928 4.87036ZM7.88387 10.6957C8.01176 10.9344 8.18004 11.1869 8.33226 11.3988C8.37457 11.4595 8.4318 11.5092 8.4989 11.5436C8.566 11.5781 8.6409 11.5961 8.71697 11.5961C8.79304 11.5961 8.86794 11.5781 8.93504 11.5436C9.00214 11.5092 9.05938 11.4595 9.10168 11.3988C9.25391 11.1869 9.42271 10.9349 9.55008 10.6957C9.66917 10.4725 9.75253 10.2606 9.75253 10.105C9.75253 9.84127 9.64343 9.58834 9.44922 9.40185C9.25502 9.21536 8.99162 9.11059 8.71697 9.11059C8.44233 9.11059 8.17893 9.21536 7.98472 9.40185C7.79052 9.58834 7.68141 9.84127 7.68141 10.105C7.68141 10.2606 7.76426 10.4725 7.88387 10.6957ZM9.111 10.4277C9.06249 10.4826 9.00212 10.5267 8.93408 10.557C8.86604 10.5872 8.79195 10.6029 8.71697 10.6029C8.64199 10.6029 8.56791 10.5872 8.49987 10.557C8.43182 10.5267 8.37145 10.4826 8.32294 10.4277C8.25878 10.3554 8.21751 10.267 8.20403 10.1729C8.19054 10.0788 8.2054 9.983 8.24685 9.89677C8.2883 9.81053 8.3546 9.7375 8.43792 9.68631C8.52123 9.63513 8.61807 9.60792 8.71697 9.60792C8.81588 9.60792 8.91271 9.63513 8.99603 9.68631C9.07934 9.7375 9.14564 9.81053 9.18709 9.89677C9.22854 9.983 9.2434 10.0788 9.22992 10.1729C9.21643 10.267 9.17517 10.3554 9.111 10.4277Z"/>
</mask>
<path d="M7.77772 4.52778C7.89865 4.40547 8.04425 4.30807 8.20563 4.24151C8.36701 4.17495 8.54082 4.14062 8.71645 4.14062C8.89209 4.14062 9.0659 4.17495 9.22728 4.24151C9.38866 4.30807 9.53425 4.40547 9.65519 4.52778L12.432 7.33703C12.7058 7.61405 12.8585 7.98136 12.8587 8.36328V10.6022C12.8587 10.866 12.7496 11.1189 12.5554 11.3054C12.3612 11.4919 12.0978 11.5966 11.8231 11.5966H9.58736C9.72457 11.4012 9.87421 11.174 9.99641 10.9488C10.1227 10.7156 10.2698 10.3989 10.2698 10.105C10.2698 9.70941 10.1061 9.33 9.81483 9.05027C9.52352 8.77053 9.12843 8.61338 8.71645 8.61338C8.30448 8.61338 7.90939 8.77053 7.61808 9.05027C7.32677 9.33 7.16312 9.70941 7.16312 10.105C7.16312 10.3984 7.31017 10.7156 7.43702 10.9488C7.5587 11.1735 7.70834 11.4012 7.84607 11.5966H5.60978C5.33513 11.5966 5.07173 11.4919 4.87753 11.3054C4.68332 11.1189 4.57422 10.866 4.57422 10.6022V8.36377C4.57411 7.98151 4.72684 7.6138 5.00087 7.33653L7.77772 4.52778ZM9.27928 4.87036C9.20672 4.79702 9.11939 4.73862 9.02259 4.69871C8.92579 4.6588 8.82154 4.63822 8.7162 4.63822C8.61085 4.63822 8.50661 4.6588 8.4098 4.69871C8.313 4.73862 8.22567 4.79702 8.15311 4.87036L6.48224 6.56088C6.87989 6.81198 7.20868 6.91241 7.49708 6.9318C7.83468 6.95517 8.1469 6.87065 8.48915 6.7364C8.60565 6.69066 8.72577 6.63795 8.85159 6.58326C9.31656 6.38139 9.85091 6.14869 10.5064 6.11091L9.27928 4.87036ZM7.88387 10.6957C8.01176 10.9344 8.18004 11.1869 8.33226 11.3988C8.37457 11.4595 8.4318 11.5092 8.4989 11.5436C8.566 11.5781 8.6409 11.5961 8.71697 11.5961C8.79304 11.5961 8.86794 11.5781 8.93504 11.5436C9.00214 11.5092 9.05938 11.4595 9.10168 11.3988C9.25391 11.1869 9.42271 10.9349 9.55008 10.6957C9.66917 10.4725 9.75253 10.2606 9.75253 10.105C9.75253 9.84127 9.64343 9.58834 9.44922 9.40185C9.25502 9.21536 8.99162 9.11059 8.71697 9.11059C8.44233 9.11059 8.17893 9.21536 7.98472 9.40185C7.79052 9.58834 7.68141 9.84127 7.68141 10.105C7.68141 10.2606 7.76426 10.4725 7.88387 10.6957ZM9.111 10.4277C9.06249 10.4826 9.00212 10.5267 8.93408 10.557C8.86604 10.5872 8.79195 10.6029 8.71697 10.6029C8.64199 10.6029 8.56791 10.5872 8.49987 10.557C8.43182 10.5267 8.37145 10.4826 8.32294 10.4277C8.25878 10.3554 8.21751 10.267 8.20403 10.1729C8.19054 10.0788 8.2054 9.983 8.24685 9.89677C8.2883 9.81053 8.3546 9.7375 8.43792 9.68631C8.52123 9.63513 8.61807 9.60792 8.71697 9.60792C8.81588 9.60792 8.91271 9.63513 8.99603 9.68631C9.07934 9.7375 9.14564 9.81053 9.18709 9.89677C9.22854 9.983 9.2434 10.0788 9.22992 10.1729C9.21643 10.267 9.17517 10.3554 9.111 10.4277Z" fill="white"/>
<path d="M7.77772 4.52778L6.92439 3.68408L6.92436 3.68411L7.77772 4.52778ZM8.71645 4.14062V2.94062V4.14062ZM9.65519 4.52778L10.5086 3.68419L10.5085 3.68408L9.65519 4.52778ZM12.432 7.33703L13.2855 6.49349L13.2855 6.49344L12.432 7.33703ZM12.8587 8.36328H14.0587V8.36278L12.8587 8.36328ZM9.58736 11.5966L8.60529 10.9071L7.27843 12.7966H9.58736V11.5966ZM9.99641 10.9488L11.0512 11.521L11.0515 11.5204L9.99641 10.9488ZM7.43702 10.9488L8.49228 10.3774L8.49114 10.3753L7.43702 10.9488ZM7.84607 11.5966V12.7966H10.16L8.82691 10.9053L7.84607 11.5966ZM4.57422 10.6022H3.37422H4.57422ZM4.57422 8.36377H5.77422L5.77422 8.36344L4.57422 8.36377ZM5.00087 7.33653L4.14751 6.49287L4.14738 6.493L5.00087 7.33653ZM9.27928 4.87036L10.1324 4.02646L10.1324 4.02641L9.27928 4.87036ZM8.7162 4.63822V3.43822V4.63822ZM8.15311 4.87036L7.30003 4.02641L7.29964 4.02681L8.15311 4.87036ZM6.48224 6.56088L5.62876 5.71733L4.57968 6.77875L5.84155 7.57554L6.48224 6.56088ZM7.49708 6.9318L7.57995 5.73467L7.57759 5.73451L7.49708 6.9318ZM8.48915 6.7364L8.92734 7.85353L8.92773 7.85338L8.48915 6.7364ZM8.85159 6.58326L8.3737 5.48252L8.37321 5.48274L8.85159 6.58326ZM10.5064 6.11091L10.5755 7.30892L13.2281 7.156L11.3595 5.267L10.5064 6.11091ZM7.88387 10.6957L6.82611 11.2624L6.82616 11.2625L7.88387 10.6957ZM8.33226 11.3988L9.3168 10.7127L9.31181 10.7055L9.30671 10.6984L8.33226 11.3988ZM8.71697 11.5961V10.3961V11.5961ZM9.10168 11.3988L8.12724 10.6984L8.12214 10.7055L8.11714 10.7127L9.10168 11.3988ZM9.55008 10.6957L8.4913 10.1309L8.49093 10.1316L9.55008 10.6957ZM9.111 10.4277L8.21361 9.63103L8.21173 9.63316L9.111 10.4277ZM8.32294 10.4277L9.22222 9.63316L9.22034 9.63103L8.32294 10.4277ZM8.63105 5.37148C8.63742 5.36503 8.64787 5.35717 8.66315 5.35086L7.7481 3.13215C7.44062 3.25897 7.15988 3.4459 6.92439 3.68408L8.63105 5.37148ZM8.66315 5.35086C8.67852 5.34453 8.6968 5.34063 8.71645 5.34063V2.94062C8.38483 2.94062 8.05551 3.00537 7.7481 3.13215L8.66315 5.35086ZM8.71645 5.34063C8.73611 5.34063 8.75439 5.34453 8.76975 5.35086L9.6848 3.13215C9.3774 3.00537 9.04808 2.94062 8.71645 2.94062V5.34063ZM8.76975 5.35086C8.78504 5.35717 8.79548 5.36503 8.80186 5.37148L10.5085 3.68408C10.273 3.4459 9.99229 3.25897 9.6848 3.13215L8.76975 5.35086ZM8.80175 5.37137L11.5786 8.18062L13.2855 6.49344L10.5086 3.68419L8.80175 5.37137ZM11.5785 8.18057C11.6354 8.23806 11.6587 8.30444 11.6587 8.36377L14.0587 8.36278C14.0584 7.65828 13.7763 6.99004 13.2855 6.49349L11.5785 8.18057ZM11.6587 8.36328V10.6022H14.0587V8.36328H11.6587ZM11.6587 10.6022C11.6587 10.5316 11.6883 10.4743 11.7242 10.4398L13.3865 12.1709C13.8108 11.7635 14.0587 11.2003 14.0587 10.6022H11.6587ZM11.7242 10.4398C11.7584 10.407 11.7949 10.3966 11.8231 10.3966V12.7966C12.4007 12.7966 12.9639 12.5768 13.3865 12.1709L11.7242 10.4398ZM11.8231 10.3966H9.58736V12.7966H11.8231V10.3966ZM10.5694 12.2862C10.7192 12.073 10.8979 11.8036 11.0512 11.521L8.94163 10.3765C8.85054 10.5444 8.72999 10.7295 8.60529 10.9071L10.5694 12.2862ZM11.0515 11.5204C11.1797 11.2838 11.4698 10.7301 11.4698 10.105H9.06979C9.06979 10.0624 9.07811 10.0695 9.05224 10.1409C9.02848 10.2065 8.99115 10.2851 8.9413 10.3772L11.0515 11.5204ZM11.4698 10.105C11.4698 9.37509 11.1674 8.6854 10.646 8.18472L8.98367 9.91581C9.04489 9.9746 9.06979 10.0437 9.06979 10.105H11.4698ZM10.646 8.18472C10.1263 7.68563 9.43134 7.41338 8.71645 7.41338V9.81338C8.82551 9.81338 8.92079 9.85543 8.98367 9.91581L10.646 8.18472ZM8.71645 7.41338C8.00156 7.41338 7.30665 7.68563 6.78691 8.18472L8.44924 9.91581C8.51212 9.85543 8.6074 9.81338 8.71645 9.81338V7.41338ZM6.78691 8.18472C6.26552 8.6854 5.96312 9.37509 5.96312 10.105H8.36312C8.36312 10.0437 8.38802 9.9746 8.44924 9.91581L6.78691 8.18472ZM5.96312 10.105C5.96312 10.7298 6.25318 11.2838 6.3829 11.5222L8.49114 10.3753C8.44167 10.2844 8.40436 10.2059 8.38063 10.1404C8.35473 10.069 8.36312 10.062 8.36312 10.105H5.96312ZM6.38176 11.5201C6.5346 11.8024 6.7135 12.0727 6.86523 12.288L8.82691 10.9053C8.70317 10.7298 8.5828 10.5446 8.49228 10.3774L6.38176 11.5201ZM7.84607 10.3966H5.60978V12.7966H7.84607V10.3966ZM5.60978 10.3966C5.63805 10.3966 5.67447 10.407 5.70869 10.4398L4.04636 12.1709C4.469 12.5768 5.03221 12.7966 5.60978 12.7966V10.3966ZM5.70869 10.4398C5.74457 10.4743 5.77422 10.5316 5.77422 10.6022H3.37422C3.37422 11.2003 3.62207 11.7635 4.04636 12.1709L5.70869 10.4398ZM5.77422 10.6022V8.36377H3.37422V10.6022H5.77422ZM5.77422 8.36344C5.7742 8.30405 5.79749 8.23761 5.85436 8.18007L4.14738 6.493C3.65618 6.98999 3.37402 7.65897 3.37422 8.36411L5.77422 8.36344ZM5.85423 8.1802L8.63108 5.37145L6.92436 3.68411L4.14751 6.49287L5.85423 8.1802ZM10.1324 4.02641C9.94526 3.83728 9.72281 3.68941 9.47996 3.58929L8.56522 5.80813C8.51597 5.78783 8.46819 5.75676 8.4262 5.71431L10.1324 4.02641ZM9.47996 3.58929C9.23718 3.4892 8.97747 3.43822 8.7162 3.43822V5.83822C8.66562 5.83822 8.61439 5.8284 8.56522 5.80813L9.47996 3.58929ZM8.7162 3.43822C8.45493 3.43822 8.19521 3.4892 7.95244 3.58929L8.86717 5.80813C8.818 5.8284 8.76678 5.83822 8.7162 5.83822V3.43822ZM7.95244 3.58929C7.70958 3.68941 7.48713 3.83728 7.30003 4.02641L9.00619 5.71431C8.9642 5.75676 8.91642 5.78783 8.86717 5.80813L7.95244 3.58929ZM7.29964 4.02681L5.62876 5.71733L7.33571 7.40444L9.00658 5.71391L7.29964 4.02681ZM5.84155 7.57554C6.37549 7.91268 6.89419 8.09398 7.41658 8.1291L7.57759 5.73451C7.52317 5.73085 7.3843 5.71127 7.12292 5.54623L5.84155 7.57554ZM7.41422 8.12894C8.01319 8.1704 8.52144 8.01275 8.92734 7.85353L8.05096 5.61927C7.77235 5.72855 7.65616 5.73994 7.57995 5.73467L7.41422 8.12894ZM8.92773 7.85338C9.06901 7.79791 9.2123 7.73493 9.32998 7.68378L8.37321 5.48274C8.23925 5.54097 8.14229 5.58341 8.05057 5.61942L8.92773 7.85338ZM9.32949 7.68399C9.80655 7.47687 10.1596 7.33289 10.5755 7.30892L10.4374 4.91289C9.54224 4.9645 8.82657 5.28591 8.3737 5.48252L9.32949 7.68399ZM11.3595 5.267L10.1324 4.02646L8.42615 5.71427L9.65329 6.95481L11.3595 5.267ZM6.82616 11.2625C6.98922 11.5668 7.19118 11.8672 7.35782 12.0991L9.30671 10.6984C9.16889 10.5067 9.0343 10.3019 8.94157 10.1289L6.82616 11.2625ZM7.34772 12.0848C7.50446 12.3098 7.71298 12.4892 7.95128 12.6114L9.04652 10.4759C9.15062 10.5293 9.24467 10.6092 9.3168 10.7127L7.34772 12.0848ZM7.95128 12.6114C8.18938 12.7335 8.45219 12.7961 8.71697 12.7961V10.3961C8.82961 10.3961 8.94262 10.4226 9.04652 10.4759L7.95128 12.6114ZM8.71697 12.7961C8.98176 12.7961 9.24456 12.7335 9.48266 12.6114L8.38742 10.4759C8.49132 10.4226 8.60433 10.3961 8.71697 10.3961V12.7961ZM9.48266 12.6114C9.72096 12.4892 9.92948 12.3098 10.0862 12.0848L8.11714 10.7127C8.18927 10.6092 8.28333 10.5293 8.38742 10.4759L9.48266 12.6114ZM10.0761 12.0991C10.2412 11.8694 10.4453 11.5676 10.6092 11.2598L8.49093 10.1316C8.40014 10.3021 8.26664 10.5045 8.12724 10.6984L10.0761 12.0991ZM10.6089 11.2605C10.7308 11.032 10.9525 10.5865 10.9525 10.105H8.55253C8.55253 10.0713 8.55476 10.044 8.55711 10.0242C8.55948 10.0043 8.56227 9.98954 8.5642 9.98054C8.56781 9.96363 8.56985 9.96023 8.56552 9.97238C8.56144 9.98383 8.55372 10.0035 8.54075 10.0318C8.52792 10.0599 8.51156 10.0929 8.4913 10.1309L10.6089 11.2605ZM10.9525 10.105C10.9525 9.50696 10.7047 8.94374 10.2804 8.5363L8.61806 10.2674C8.58218 10.2329 8.55253 10.1756 8.55253 10.105H10.9525ZM10.2804 8.5363C9.85775 8.13046 9.29454 7.91059 8.71697 7.91059V10.3106C8.6887 10.3106 8.65228 10.3003 8.61806 10.2674L10.2804 8.5363ZM8.71697 7.91059C8.13941 7.91059 7.57619 8.13046 7.15356 8.5363L8.81589 10.2674C8.78166 10.3003 8.74524 10.3106 8.71697 10.3106V7.91059ZM7.15356 8.5363C6.72927 8.94374 6.48141 9.50696 6.48141 10.105H8.88141C8.88141 10.1756 8.85177 10.2329 8.81589 10.2674L7.15356 8.5363ZM6.48141 10.105C6.48141 10.5859 6.70171 11.0302 6.82611 11.2624L8.94162 10.129C8.92158 10.0916 8.90542 10.059 8.89279 10.0314C8.88002 10.0035 8.87243 9.98421 8.86846 9.97303C8.86424 9.96117 8.86629 9.96466 8.86989 9.98154C8.8718 9.99052 8.87456 10.0052 8.8769 10.0249C8.87922 10.0446 8.88141 10.0717 8.88141 10.105H6.48141ZM8.21173 9.63316C8.27913 9.55687 8.35994 9.49897 8.44657 9.46046L9.42159 11.6535C9.6443 11.5545 9.84585 11.4083 10.0103 11.2222L8.21173 9.63316ZM8.44657 9.46046C8.53309 9.42199 8.6252 9.40289 8.71697 9.40289V11.8029C8.95871 11.8029 9.19898 11.7524 9.42159 11.6535L8.44657 9.46046ZM8.71697 9.40289C8.80874 9.40289 8.90085 9.42199 8.98737 9.46046L8.01236 11.6535C8.23496 11.7524 8.47524 11.8029 8.71697 11.8029V9.40289ZM8.98737 9.46046C9.074 9.49897 9.15481 9.55687 9.22222 9.63316L7.42367 11.2222C7.58809 11.4083 7.78965 11.5545 8.01236 11.6535L8.98737 9.46046ZM9.22034 9.63103C9.30949 9.73146 9.37143 9.85989 9.39189 10.0027L7.01616 10.3432C7.0636 10.6741 7.20806 10.9794 7.42555 11.2244L9.22034 9.63103ZM9.39189 10.0027C9.41239 10.1457 9.38929 10.29 9.32841 10.4166L7.1653 9.37691C7.02152 9.67605 6.9687 10.0119 7.01616 10.3432L9.39189 10.0027ZM9.32841 10.4166C9.26779 10.5427 9.17445 10.6422 9.06611 10.7088L7.80973 8.66388C7.53476 8.83282 7.30881 9.07834 7.1653 9.37691L9.32841 10.4166ZM9.06611 10.7088C8.95817 10.7751 8.83715 10.8079 8.71697 10.8079V8.40792C8.39898 8.40792 8.08429 8.49518 7.80973 8.66388L9.06611 10.7088ZM8.71697 10.8079C8.59679 10.8079 8.47577 10.7751 8.36784 10.7088L9.62422 8.66388C9.34966 8.49519 9.03497 8.40792 8.71697 8.40792V10.8079ZM8.36784 10.7088C8.2595 10.6422 8.16615 10.5427 8.10554 10.4166L10.2686 9.37691C10.1251 9.07834 9.89918 8.83282 9.62422 8.66388L8.36784 10.7088ZM8.10554 10.4166C8.04466 10.29 8.02155 10.1457 8.04205 10.0027L10.4178 10.3432C10.4652 10.0119 10.4124 9.67605 10.2686 9.37691L8.10554 10.4166ZM8.04205 10.0027C8.06252 9.85989 8.12446 9.73146 8.21361 9.63103L10.0084 11.2244C10.2259 10.9794 10.3703 10.6741 10.4178 10.3432L8.04205 10.0027Z" fill="white" mask="url(#path-3-inside-2_25983_354618)"/>
</g>
</g>
</svg>
