<svg width="38" height="40" viewBox="0 0 38 40" fill="none" xmlns="http://www.w3.org/2000/svg">
<g filter="url(#filter0_d_22221_85572)">
<path fill-rule="evenodd" clip-rule="evenodd" d="M19 22C17.3214 20.6235 16.0684 19.3469 15.241 18.17C14.4137 16.9932 14 15.8982 14 14.885C14 13.5485 14.4761 12.4002 15.4283 11.4401C16.3805 10.48 17.5711 10 19 10C20.4289 10 21.6195 10.48 22.5717 11.4401C23.5239 12.4002 24 13.5485 24 14.885C24 15.8982 23.5863 16.9932 22.759 18.17C21.9316 19.3469 20.6786 20.6235 19 22ZM19 16.5C20.1046 16.5 21 15.6046 21 14.5C21 13.3954 20.1046 12.5 19 12.5C17.8954 12.5 17 13.3954 17 14.5C17 15.6046 17.8954 16.5 19 16.5Z" fill="#262527"/>
</g>
<defs>
<filter id="filter0_d_22221_85572" x="0" y="0" width="38" height="40" filterUnits="userSpaceOnUse" color-interpolation-filters="sRGB">
<feFlood flood-opacity="0" result="BackgroundImageFix"/>
<feColorMatrix in="SourceAlpha" type="matrix" values="0 0 0 0 0 0 0 0 0 0 0 0 0 0 0 0 0 0 127 0" result="hardAlpha"/>
<feOffset dy="4"/>
<feGaussianBlur stdDeviation="7"/>
<feComposite in2="hardAlpha" operator="out"/>
<feColorMatrix type="matrix" values="0 0 0 0 0 0 0 0 0 0 0 0 0 0 0 0 0 0 0.1 0"/>
<feBlend mode="normal" in2="BackgroundImageFix" result="effect1_dropShadow_22221_85572"/>
<feBlend mode="normal" in="SourceGraphic" in2="effect1_dropShadow_22221_85572" result="shape"/>
</filter>
</defs>
</svg>
