<svg xmlns="http://www.w3.org/2000/svg" width="12" height="10" viewBox="0 0 12 10" fill="none">
<path fill-rule="evenodd" clip-rule="evenodd" d="M5 12C3.3214 10.6235 2.0684 9.3469 1.241 8.17C0.4137 6.9932 0 5.8982 0 4.885C0 3.5485 0.4761 2.4002 1.4283 1.4401C2.3805 0.48 3.5711 0 5 0C6.4289 0 7.6195 0.48 8.5717 1.4401C9.5239 2.4002 10 3.5485 10 4.885C10 5.8982 9.5863 6.9932 8.759 8.17C7.9316 9.3469 6.6786 10.6235 5 12ZM5 6.5C6.1046 6.5 7 5.6046 7 4.5C7 3.3954 6.1046 2.5 5 2.5C3.8954 2.5 3 3.3954 3 4.5C3 5.6046 3.8954 6.5 5 6.5Z" fill="#262527"/>
</svg>