<svg width="16" height="17" viewBox="0 0 16 17" fill="none" xmlns="http://www.w3.org/2000/svg">
<path d="M2 4.5026H3.33333M3.33333 4.5026H14M3.33333 4.5026V13.8359C3.33333 14.1896 3.47381 14.5287 3.72386 14.7787C3.97391 15.0288 4.31304 15.1693 4.66667 15.1693H11.3333C11.687 15.1693 12.0261 15.0288 12.2761 14.7787C12.5262 14.5287 12.6667 14.1896 12.6667 13.8359V4.5026H3.33333ZM5.33333 4.5026V3.16927C5.33333 2.81565 5.47381 2.47651 5.72386 2.22646C5.97391 1.97641 6.31304 1.83594 6.66667 1.83594H9.33333C9.68696 1.83594 10.0261 1.97641 10.2761 2.22646C10.5262 2.47651 10.6667 2.81565 10.6667 3.16927V4.5026M6.66667 7.83594V11.8359M9.33333 7.83594V11.8359" stroke="#B32318" stroke-width="1.5" stroke-linecap="round" stroke-linejoin="round"/>
</svg>
