<svg width="21" height="20" viewBox="0 0 21 20" fill="none" xmlns="http://www.w3.org/2000/svg">
<path d="M10.2855 18.3332C14.8879 18.3332 18.6188 14.6022 18.6188 9.99984C18.6188 5.39746 14.8879 1.6665 10.2855 1.6665C5.68311 1.6665 1.95215 5.39746 1.95215 9.99984C1.95215 14.6022 5.68311 18.3332 10.2855 18.3332Z" fill="#FA4949"/>
<path d="M10.2855 6.6665V9.99984M10.2855 13.3332H10.2938M18.6188 9.99984C18.6188 14.6022 14.8879 18.3332 10.2855 18.3332C5.68311 18.3332 1.95215 14.6022 1.95215 9.99984C1.95215 5.39746 5.68311 1.6665 10.2855 1.6665C14.8879 1.6665 18.6188 5.39746 18.6188 9.99984Z" stroke="white" stroke-width="1.5" stroke-linecap="round" stroke-linejoin="round"/>
</svg>
