<svg width="20" height="20" viewBox="0 0 20 20" fill="none" xmlns="http://www.w3.org/2000/svg">
<path d="M4.75674 17.5831C4.38163 17.5831 4.06456 17.4511 3.80553 17.1873C3.54651 16.9234 3.41699 16.6087 3.41699 16.2433V5.75621C3.41699 5.39082 3.54651 5.07618 3.80553 4.81229C4.06456 4.5484 4.38163 4.41646 4.75674 4.41646H6.57726V2.87798C6.57726 2.71891 6.63002 2.5862 6.73553 2.47983C6.84105 2.37349 6.97272 2.32031 7.13055 2.32031C7.28839 2.32031 7.42153 2.37349 7.52997 2.47983C7.6384 2.5862 7.69262 2.71891 7.69262 2.87798V4.41646H12.34V2.86196C12.34 2.70822 12.3915 2.57951 12.4943 2.47583C12.5971 2.37215 12.7248 2.32031 12.8773 2.32031C13.0298 2.32031 13.1589 2.37215 13.2647 2.47583C13.3705 2.57951 13.4233 2.70822 13.4233 2.86196V4.41646H15.2439C15.619 4.41646 15.936 4.5484 16.1951 4.81229C16.4541 5.07618 16.5836 5.39082 16.5836 5.75621V16.2433C16.5836 16.6087 16.4541 16.9234 16.1951 17.1873C15.936 17.4511 15.619 17.5831 15.2439 17.5831H4.75674ZM4.75674 16.4998H15.2439C15.308 16.4998 15.3667 16.4731 15.4202 16.4196C15.4736 16.3662 15.5003 16.3074 15.5003 16.2433V9.25621H4.5003V16.2433C4.5003 16.3074 4.52701 16.3662 4.58043 16.4196C4.63386 16.4731 4.69263 16.4998 4.75674 16.4998ZM4.5003 8.1729H15.5003V5.75621C15.5003 5.6921 15.4736 5.63333 15.4202 5.5799C15.3667 5.52648 15.308 5.49977 15.2439 5.49977H4.75674C4.69263 5.49977 4.63386 5.52648 4.58043 5.5799C4.52701 5.63333 4.5003 5.6921 4.5003 5.75621V8.1729Z" fill="#86868B"/>
</svg>
