<svg width="20" height="20" viewBox="0 0 20 20" fill="none" xmlns="http://www.w3.org/2000/svg">
<g id="description_FILL0_wght300_GRAD0_opsz20 1">
<path id="Vector" d="M7.74947 14.792H12.2444C12.3976 14.792 12.5272 14.7404 12.6331 14.6374C12.739 14.5344 12.792 14.4067 12.792 14.2544C12.792 14.1021 12.7401 13.9731 12.6365 13.8673C12.5328 13.7615 12.4044 13.7087 12.2511 13.7087H7.7562C7.60296 13.7087 7.4734 13.7602 7.36751 13.8632C7.26161 13.9662 7.20866 14.0939 7.20866 14.2462C7.20866 14.3985 7.26048 14.5275 7.36414 14.6333C7.46779 14.7391 7.59624 14.792 7.74947 14.792ZM7.74947 11.792H12.2444C12.3976 11.792 12.5272 11.7404 12.6331 11.6374C12.739 11.5344 12.792 11.4067 12.792 11.2544C12.792 11.1021 12.7401 10.9731 12.6365 10.8673C12.5328 10.7615 12.4044 10.7087 12.2511 10.7087H7.7562C7.60296 10.7087 7.4734 10.7602 7.36751 10.8632C7.26161 10.9662 7.20866 11.0939 7.20866 11.2462C7.20866 11.3985 7.26048 11.5275 7.36414 11.6333C7.46779 11.7391 7.59624 11.792 7.74947 11.792ZM5.75083 17.5836C5.37549 17.5836 5.05935 17.4541 4.80241 17.1951C4.54546 16.936 4.41699 16.619 4.41699 16.2439V3.75674C4.41699 3.38163 4.54651 3.06456 4.80553 2.80553C5.06456 2.54651 5.38163 2.41699 5.75674 2.41699H11.6478C11.8263 2.41699 11.9965 2.44905 12.1583 2.51316C12.3201 2.57726 12.4693 2.67768 12.6061 2.81443L15.1862 5.39451C15.3229 5.53128 15.4234 5.68056 15.4874 5.84235C15.5516 6.00415 15.5836 6.17432 15.5836 6.35285V16.2439C15.5836 16.619 15.454 16.936 15.1948 17.1951C14.9356 17.4541 14.6184 17.5836 14.243 17.5836H5.75083ZM11.417 5.91695V3.50031H5.75674C5.69263 3.50031 5.63386 3.52701 5.58043 3.58043C5.52701 3.63386 5.5003 3.69263 5.5003 3.75674V16.2439C5.5003 16.308 5.52701 16.3667 5.58043 16.4202C5.63386 16.4736 5.69263 16.5003 5.75674 16.5003H14.2439C14.308 16.5003 14.3667 16.4736 14.4202 16.4202C14.4736 16.3667 14.5003 16.308 14.5003 16.2439V6.58362H12.0835C11.8946 6.58362 11.7363 6.51973 11.6086 6.39195C11.4809 6.26417 11.417 6.10584 11.417 5.91695Z" fill="#5B5B5F"/>
</g>
</svg>
