<svg xmlns="http://www.w3.org/2000/svg" width="20" height="20" viewBox="0 0 20 20" fill="none">
  <path d="M6.66969 16.4998H13.3299V13.9998C13.3299 13.065 13.0086 12.2709 12.366 11.6176C11.7234 10.9643 10.9346 10.6376 9.99982 10.6376C9.06498 10.6376 8.27625 10.9646 7.63363 11.6185C6.991 12.2724 6.66969 13.0662 6.66969 13.9998V16.4998ZM4.96423 17.5831C4.81089 17.5831 4.68126 17.5316 4.57536 17.4286C4.46946 17.3255 4.4165 17.1979 4.4165 17.0456C4.4165 16.8933 4.46841 16.7642 4.57223 16.6585C4.67605 16.5527 4.8047 16.4998 4.95817 16.4998H5.58638V13.9998C5.58638 13.0896 5.83959 12.2704 6.346 11.5423C6.85242 10.8142 7.5223 10.3 8.35565 9.99982C7.53619 9.69428 6.86978 9.17879 6.35642 8.45336C5.84306 7.72793 5.58638 6.91008 5.58638 5.99982V3.49982H4.95817C4.8047 3.49982 4.67605 3.4483 4.57223 3.34527C4.46841 3.24225 4.4165 3.11458 4.4165 2.96228C4.4165 2.80997 4.46838 2.68094 4.57213 2.57517C4.67586 2.46939 4.80441 2.4165 4.95775 2.4165H15.0354C15.1887 2.4165 15.3184 2.46802 15.4243 2.57107C15.5302 2.67409 15.5831 2.80176 15.5831 2.95407C15.5831 3.10637 15.5312 3.23541 15.4274 3.34117C15.3236 3.44694 15.1949 3.49982 15.0415 3.49982H14.4133V5.99982C14.4133 6.91008 14.1566 7.72793 13.6432 8.45336C13.1299 9.17879 12.4634 9.69428 11.644 9.99982C12.4773 10.3 13.1472 10.8142 13.6536 11.5423C14.16 12.2704 14.4133 13.0896 14.4133 13.9998V16.4998H15.0415C15.1949 16.4998 15.3236 16.5513 15.4274 16.6544C15.5312 16.7574 15.5831 16.8851 15.5831 17.0374C15.5831 17.1897 15.5313 17.3187 15.4275 17.4245C15.3238 17.5302 15.1952 17.5831 15.0419 17.5831H4.96423Z" fill="#6A6A70"/>
</svg>