<svg width="28" height="28" viewBox="0 0 28 28" fill="none" xmlns="http://www.w3.org/2000/svg">
<g id="tour_FILL0_wght300_GRAD0_opsz20 1">
<path id="Vector" d="M6.125 25.375V3.52914C6.125 3.2664 6.21477 3.05003 6.39432 2.88001C6.57387 2.71 6.79636 2.625 7.06177 2.625C7.32719 2.625 7.54852 2.71444 7.72575 2.89333C7.90299 3.0722 7.99161 3.29386 7.99161 3.5583V4.95833H22.4336C22.8434 4.95833 23.1519 5.12092 23.3591 5.44609C23.5662 5.77128 23.5995 6.12023 23.4589 6.49294L21.8525 10.5291L23.4589 14.5653C23.5995 14.9381 23.5662 15.287 23.3591 15.6122C23.1519 15.9374 22.8434 16.0999 22.4336 16.0999H7.99161V25.3749L6.125 25.375ZM14.5833 12.5999C15.1696 12.5999 15.6613 12.4014 16.0584 12.0043C16.4556 11.6072 16.6541 11.1155 16.6541 10.5291C16.6541 9.94281 16.4556 9.4511 16.0584 9.05401C15.6613 8.65689 15.1696 8.45833 14.5833 8.45833C13.997 8.45833 13.5053 8.65689 13.1082 9.05401C12.7111 9.4511 12.5125 9.94281 12.5125 10.5291C12.5125 11.1155 12.7111 11.6072 13.1082 12.0043C13.5053 12.4014 13.997 12.5999 14.5833 12.5999ZM7.99161 14.2333H21.3096L19.8266 10.5291L21.3096 6.82494H7.99161V14.2333Z" fill="#004FE3"/>
</g>
</svg>
