<svg width="20" height="20" viewBox="0 0 20 20" fill="none" xmlns="http://www.w3.org/2000/svg">
<path d="M10.542 9.45445V5.54098C10.542 5.38752 10.4904 5.25888 10.3874 5.15506C10.2844 5.05124 10.1567 4.99933 10.0044 4.99933C9.8521 4.99933 9.72307 5.05124 9.6173 5.15506C9.51154 5.25888 9.45866 5.38752 9.45866 5.54098V9.64677C9.45866 9.74486 9.47682 9.83295 9.51314 9.91104C9.54946 9.98912 9.59967 10.0602 9.66378 10.1243L12.5564 13.017C12.6739 13.1345 12.8027 13.1911 12.9426 13.1868C13.0826 13.1826 13.2129 13.1201 13.3336 12.9993C13.4544 12.8786 13.5147 12.7496 13.5147 12.6123C13.5147 12.475 13.452 12.3443 13.3266 12.2201L10.542 9.45445ZM10.0017 17.5826C8.9571 17.5826 7.97521 17.3853 7.05603 16.9906C6.13685 16.5958 5.33134 16.0527 4.63949 15.3612C3.94763 14.6696 3.40425 13.8635 3.00935 12.9427C2.61444 12.0219 2.41699 11.0381 2.41699 9.99118C2.41699 8.94427 2.61435 7.95992 3.00908 7.03814C3.4038 6.11635 3.94692 5.313 4.63845 4.6281C5.32999 3.94318 6.13615 3.40327 7.05693 3.00837C7.97771 2.61347 8.96155 2.41602 10.0085 2.41602C11.0554 2.41602 12.0398 2.61504 12.9616 3.0131C13.8835 3.41116 14.6854 3.95136 15.3673 4.63372C16.0493 5.3161 16.5891 6.11852 16.9869 7.041C17.3847 7.96345 17.5836 8.9491 17.5836 9.99793C17.5836 11.0425 17.3863 12.0244 16.9915 12.9436C16.5968 13.8628 16.0572 14.6683 15.3726 15.3601C14.688 16.052 13.8841 16.5954 12.9609 16.9903C12.0377 17.3852 11.0513 17.5826 10.0017 17.5826ZM10.0102 16.4993C11.8085 16.4993 13.3398 15.8639 14.604 14.5931C15.8682 13.3222 16.5003 11.7877 16.5003 9.98939C16.5003 8.1911 15.8682 6.65985 14.604 5.39564C13.3398 4.13143 11.8085 3.49933 10.0102 3.49933C8.21195 3.49933 6.67739 4.13143 5.40655 5.39564C4.13572 6.65985 3.5003 8.1911 3.5003 9.98939C3.5003 11.7877 4.13572 13.3222 5.40655 14.5931C6.67739 15.8639 8.21195 16.4993 10.0102 16.4993Z" fill="#86868B"/>
</svg>
