<svg width="20" height="20" viewBox="0 0 20 20" fill="none" xmlns="http://www.w3.org/2000/svg">
<path d="M4.16797 16.667V15.0003H15.8346V16.667H4.16797ZM4.16797 13.7503L3.10547 7.06283C3.07769 7.06283 3.04644 7.0663 3.01172 7.07324C2.977 7.08019 2.94575 7.08366 2.91797 7.08366C2.57075 7.08366 2.27561 6.96213 2.03255 6.71908C1.7895 6.47602 1.66797 6.18088 1.66797 5.83366C1.66797 5.48644 1.7895 5.1913 2.03255 4.94824C2.27561 4.70519 2.57075 4.58366 2.91797 4.58366C3.26519 4.58366 3.56033 4.70519 3.80339 4.94824C4.04644 5.1913 4.16797 5.48644 4.16797 5.83366C4.16797 5.93088 4.15755 6.02116 4.13672 6.10449C4.11589 6.18783 4.09158 6.26421 4.0638 6.33366L6.66797 7.50033L9.27213 3.93783C9.11936 3.82671 8.99436 3.68088 8.89713 3.50033C8.79991 3.31977 8.7513 3.12533 8.7513 2.91699C8.7513 2.56977 8.87283 2.27463 9.11588 2.03158C9.35894 1.78852 9.65408 1.66699 10.0013 1.66699C10.3485 1.66699 10.6437 1.78852 10.8867 2.03158C11.1298 2.27463 11.2513 2.56977 11.2513 2.91699C11.2513 3.12533 11.2027 3.31977 11.1055 3.50033C11.0082 3.68088 10.8832 3.82671 10.7305 3.93783L13.3346 7.50033L15.9388 6.33366C15.911 6.26421 15.8867 6.18783 15.8659 6.10449C15.8451 6.02116 15.8346 5.93088 15.8346 5.83366C15.8346 5.48644 15.9562 5.1913 16.1992 4.94824C16.4423 4.70519 16.7374 4.58366 17.0846 4.58366C17.4319 4.58366 17.727 4.70519 17.9701 4.94824C18.2131 5.1913 18.3346 5.48644 18.3346 5.83366C18.3346 6.18088 18.2131 6.47602 17.9701 6.71908C17.727 6.96213 17.4319 7.08366 17.0846 7.08366C17.0569 7.08366 17.0256 7.08019 16.9909 7.07324C16.9562 7.0663 16.9249 7.06283 16.8971 7.06283L15.8346 13.7503H4.16797ZM5.58464 12.0837H14.418L14.9596 8.60449L12.7721 9.56283L10.0013 5.75033L7.23047 9.56283L5.04297 8.60449L5.58464 12.0837Z" fill="#6A6A70"/>
</svg>
