<svg width="36" height="36" viewBox="0 0 36 36" fill="none" xmlns="http://www.w3.org/2000/svg">
<rect width="36" height="36" rx="8" fill="#E6EBF9"/>
<path d="M21.3333 19.6641H14.6667C14.4457 19.6641 14.2337 19.7519 14.0774 19.9081C13.9211 20.0644 13.8333 20.2764 13.8333 20.4974C13.8333 20.7184 13.9211 20.9304 14.0774 21.0867C14.2337 21.2429 14.4457 21.3307 14.6667 21.3307H21.3333C21.5543 21.3307 21.7663 21.2429 21.9226 21.0867C22.0789 20.9304 22.1667 20.7184 22.1667 20.4974C22.1667 20.2764 22.0789 20.0644 21.9226 19.9081C21.7663 19.7519 21.5543 19.6641 21.3333 19.6641ZM21.3333 16.3307H16.3333C16.1123 16.3307 15.9004 16.4185 15.7441 16.5748C15.5878 16.7311 15.5 16.943 15.5 17.1641C15.5 17.3851 15.5878 17.597 15.7441 17.7533C15.9004 17.9096 16.1123 17.9974 16.3333 17.9974H21.3333C21.5543 17.9974 21.7663 17.9096 21.9226 17.7533C22.0789 17.597 22.1667 17.3851 22.1667 17.1641C22.1667 16.943 22.0789 16.7311 21.9226 16.5748C21.7663 16.4185 21.5543 16.3307 21.3333 16.3307ZM24.6667 11.3307H22.1667V10.4974C22.1667 10.2764 22.0789 10.0644 21.9226 9.90814C21.7663 9.75186 21.5543 9.66406 21.3333 9.66406C21.1123 9.66406 20.9004 9.75186 20.7441 9.90814C20.5878 10.0644 20.5 10.2764 20.5 10.4974V11.3307H18.8333V10.4974C18.8333 10.2764 18.7455 10.0644 18.5893 9.90814C18.433 9.75186 18.221 9.66406 18 9.66406C17.779 9.66406 17.567 9.75186 17.4107 9.90814C17.2545 10.0644 17.1667 10.2764 17.1667 10.4974V11.3307H15.5V10.4974C15.5 10.2764 15.4122 10.0644 15.2559 9.90814C15.0996 9.75186 14.8877 9.66406 14.6667 9.66406C14.4457 9.66406 14.2337 9.75186 14.0774 9.90814C13.9211 10.0644 13.8333 10.2764 13.8333 10.4974V11.3307H11.3333C11.1123 11.3307 10.9004 11.4185 10.7441 11.5748C10.5878 11.7311 10.5 11.943 10.5 12.1641V23.8307C10.5 24.4938 10.7634 25.1297 11.2322 25.5985C11.7011 26.0673 12.337 26.3307 13 26.3307H23C23.663 26.3307 24.2989 26.0673 24.7678 25.5985C25.2366 25.1297 25.5 24.4938 25.5 23.8307V12.1641C25.5 11.943 25.4122 11.7311 25.2559 11.5748C25.0996 11.4185 24.8877 11.3307 24.6667 11.3307ZM23.8333 23.8307C23.8333 24.0517 23.7455 24.2637 23.5893 24.42C23.433 24.5763 23.221 24.6641 23 24.6641H13C12.779 24.6641 12.567 24.5763 12.4107 24.42C12.2545 24.2637 12.1667 24.0517 12.1667 23.8307V12.9974H13.8333V13.8307C13.8333 14.0517 13.9211 14.2637 14.0774 14.42C14.2337 14.5763 14.4457 14.6641 14.6667 14.6641C14.8877 14.6641 15.0996 14.5763 15.2559 14.42C15.4122 14.2637 15.5 14.0517 15.5 13.8307V12.9974H17.1667V13.8307C17.1667 14.0517 17.2545 14.2637 17.4107 14.42C17.567 14.5763 17.779 14.6641 18 14.6641C18.221 14.6641 18.433 14.5763 18.5893 14.42C18.7455 14.2637 18.8333 14.0517 18.8333 13.8307V12.9974H20.5V13.8307C20.5 14.0517 20.5878 14.2637 20.7441 14.42C20.9004 14.5763 21.1123 14.6641 21.3333 14.6641C21.5543 14.6641 21.7663 14.5763 21.9226 14.42C22.0789 14.2637 22.1667 14.0517 22.1667 13.8307V12.9974H23.8333V23.8307Z" fill="#2854B3"/>
</svg>
