<svg width="32" height="32" viewBox="0 0 32 32" fill="none" xmlns="http://www.w3.org/2000/svg">
<rect width="32" height="32" rx="10.6667" fill="#E5F6FF"/>
<path d="M15.996 25.3209C15.5266 25.3209 15.1262 25.1543 14.7946 24.8209C14.4629 24.4875 14.2971 24.0866 14.2971 23.6185H17.7024C17.7024 24.0904 17.5353 24.4921 17.2011 24.8236C16.8669 25.1552 16.4651 25.3209 15.996 25.3209ZM9.79974 22.7296C9.59974 22.7296 9.42752 22.6573 9.28307 22.5127C9.13863 22.3681 9.06641 22.1958 9.06641 21.9956C9.06641 21.7955 9.13863 21.6233 9.28307 21.4792C9.42752 21.335 9.59974 21.2629 9.79974 21.2629H10.5024V14.1758C10.5024 12.896 10.9069 11.7561 11.716 10.7561C12.5251 9.75606 13.5531 9.1108 14.7997 8.82028V8.5125C14.7997 8.17917 14.9165 7.89583 15.15 7.6625C15.3834 7.42917 15.6669 7.3125 16.0004 7.3125C16.3339 7.3125 16.6171 7.42917 16.8502 7.6625C17.0832 7.89583 17.1997 8.17917 17.1997 8.5125V8.49028C17.0414 8.76494 16.9137 9.05243 16.8169 9.35272C16.72 9.65302 16.667 9.95531 16.658 10.2596C16.5593 10.2082 16.4509 10.1763 16.3329 10.1638C16.2148 10.1512 16.1037 10.1449 15.9997 10.1449C14.875 10.1449 13.922 10.5355 13.1409 11.3167C12.3597 12.0979 11.9691 13.0509 11.9691 14.1758V21.2629H20.0526V15.4374C20.2977 15.5387 20.5396 15.6119 20.7784 15.6569C21.0171 15.702 21.264 15.7114 21.5193 15.6852V21.2629H22.222C22.422 21.2629 22.5942 21.3352 22.7386 21.4798C22.8831 21.6243 22.9553 21.7966 22.9553 21.9969C22.9553 22.1971 22.8831 22.3692 22.7386 22.5134C22.5942 22.6575 22.422 22.7296 22.222 22.7296H9.79974ZM21.012 13.5825C20.3151 13.5825 19.722 13.3386 19.2326 12.8507C18.7434 12.3629 18.4989 11.7704 18.4989 11.0734C18.4989 10.3765 18.7428 9.78346 19.2306 9.29428C19.7186 8.80494 20.3111 8.56028 21.008 8.56028C21.705 8.56028 22.2981 8.80428 22.7873 9.29228C23.2765 9.78013 23.5211 10.3725 23.5211 11.0694C23.5211 11.7664 23.2771 12.3595 22.7893 12.8487C22.3014 13.3379 21.709 13.5825 21.012 13.5825Z" fill="#146DFF"/>
</svg>
