<svg width="36" height="36" viewBox="0 0 36 36" fill="none" xmlns="http://www.w3.org/2000/svg">
<rect width="36" height="36" rx="8" fill="#E8F5E8"/>
<path d="M26.3329 14.663C26.3329 14.2047 25.9579 13.8297 25.4996 13.8297H19.6663C19.2079 13.8297 18.8329 14.2047 18.8329 14.663C18.8329 15.1214 19.2079 15.4964 19.6663 15.4964H25.4996C25.9579 15.4964 26.3329 15.1214 26.3329 14.663ZM18.8329 21.3297C18.8329 21.788 19.2079 22.163 19.6663 22.163H25.4996C25.9579 22.163 26.3329 21.788 26.3329 21.3297C26.3329 20.8714 25.9579 20.4964 25.4996 20.4964H19.6663C19.2079 20.4964 18.8329 20.8714 18.8329 21.3297ZM16.7246 11.8547C17.0496 12.1797 17.0496 12.7047 16.7246 13.0297L13.1996 16.5714C12.8746 16.8964 12.3496 16.8964 12.0163 16.5714L10.2496 14.7964C9.92461 14.4714 9.92461 13.9464 10.2496 13.6214C10.5746 13.2964 11.0996 13.2964 11.4246 13.6214L12.6079 14.8047L15.5579 11.8547C15.8746 11.538 16.4079 11.538 16.7246 11.8547ZM16.7329 18.5297C17.0579 18.8547 17.0579 19.3797 16.7329 19.7047L13.2079 23.2464C12.8829 23.5714 12.3579 23.5714 12.0246 23.2464L10.2496 21.463C9.92461 21.138 9.92461 20.613 10.2496 20.288C10.5746 19.963 11.0996 19.963 11.4246 20.288L12.6079 21.4714L15.5579 18.5214C15.8746 18.2047 16.4079 18.2047 16.7329 18.5297Z" fill="#15A42D"/>
</svg>
