<svg width="36" height="36" viewBox="0 0 36 36" fill="none" xmlns="http://www.w3.org/2000/svg">
<rect width="36" height="36" rx="8" fill="#E6EBF6"/>
<path d="M25.5695 21.9301V24.1278C25.5704 24.3318 25.5286 24.5338 25.4468 24.7207C25.3651 24.9077 25.2452 25.0755 25.0949 25.2134C24.9446 25.3513 24.7671 25.4563 24.5738 25.5217C24.3805 25.5871 24.1757 25.6113 23.9725 25.593C21.7183 25.348 19.5529 24.5777 17.6504 23.344C15.8804 22.2192 14.3797 20.7185 13.255 18.9485C12.0169 17.0374 11.2464 14.8615 11.0059 12.5971C10.9876 12.3945 11.0117 12.1903 11.0766 11.9976C11.1416 11.8048 11.2459 11.6277 11.3831 11.4774C11.5202 11.3272 11.6871 11.2072 11.8732 11.125C12.0592 11.0428 12.2604 11.0003 12.4638 11.0001H14.6615C15.017 10.9966 15.3617 11.1225 15.6313 11.3543C15.9008 11.5861 16.0769 11.9081 16.1266 12.2601C16.2194 12.9634 16.3914 13.654 16.6395 14.3186C16.738 14.5808 16.7593 14.8658 16.7009 15.1398C16.6425 15.4137 16.5068 15.6652 16.3098 15.8644L15.3794 16.7947C16.4223 18.6288 17.9408 20.1473 19.7749 21.1902L20.7052 20.2598C20.9044 20.0629 21.1559 19.9271 21.4299 19.8687C21.7038 19.8103 21.9888 19.8316 22.251 19.9302C22.9156 20.1782 23.6062 20.3502 24.3095 20.443C24.6654 20.4932 24.9904 20.6724 25.2227 20.9466C25.455 21.2208 25.5785 21.5708 25.5695 21.9301Z" stroke="#0032A0" stroke-width="1.5" stroke-linecap="round" stroke-linejoin="round"/>
</svg>

