<svg width="18" height="18" viewBox="0 0 18 18" fill="none" xmlns="http://www.w3.org/2000/svg">
<g clip-path="url(#clip0_36729_55397)">
<path d="M9.575 2.25H4.85C4.49196 2.25 4.14858 2.39223 3.89541 2.64541C3.64223 2.89858 3.5 3.24196 3.5 3.6V14.4C3.5 14.758 3.64223 15.1014 3.89541 15.3546C4.14858 15.6078 4.49196 15.75 4.85 15.75H12.95C13.308 15.75 13.6514 15.6078 13.9046 15.3546C14.1578 15.1014 14.3 14.758 14.3 14.4V6.975M9.575 2.25L14.3 6.975M9.575 2.25V6.975H14.3" stroke="#146DFF" stroke-width="1.25" stroke-linecap="round" stroke-linejoin="round"/>
<g clip-path="url(#clip1_36729_55397)">
<path d="M13.665 17.33C15.413 17.33 16.83 15.913 16.83 14.165C16.83 12.417 15.413 11 13.665 11C11.917 11 10.5 12.417 10.5 14.165C10.5 15.913 11.917 17.33 13.665 17.33Z" fill="#146DFF"/>
<path d="M13.665 12.899V14.165V15.431M12.399 14.165H14.931M16.83 14.165C16.83 15.913 15.413 17.33 13.665 17.33C11.917 17.33 10.5 15.913 10.5 14.165C10.5 12.417 11.917 11 13.665 11C15.413 11 16.83 12.417 16.83 14.165Z" stroke="#146DFF" stroke-width="0.25" stroke-linecap="round" stroke-linejoin="round"/>
<path d="M13.665 13V14.165V15.33M12.5 14.165H14.83" stroke="white" stroke-width="0.5" stroke-linecap="round" stroke-linejoin="round"/>
</g>
</g>
<defs>
<clipPath id="clip0_36729_55397">
<rect width="17" height="18" fill="white" transform="translate(0.5)"/>
</clipPath>
<clipPath id="clip1_36729_55397">
<rect width="8" height="8" fill="white" transform="translate(9.5 10)"/>
</clipPath>
</defs>
</svg>
