<svg width="32" height="32" viewBox="0 0 32 32" fill="none" xmlns="http://www.w3.org/2000/svg">
<rect width="32" height="32" rx="10.6667" fill="#FBEEED"/>
<g clip-path="url(#clip0_45059_550351)">
<path d="M10.8371 22.9324C10.6371 22.9324 10.4649 22.8601 10.3204 22.7156C10.176 22.571 10.1037 22.3986 10.1037 22.1984C10.1037 21.9983 10.176 21.8261 10.3204 21.682C10.4649 21.5378 10.6371 21.4658 10.8371 21.4658H11.4731L13.032 16.2487C13.1459 15.8134 13.3801 15.463 13.7346 15.1973C14.089 14.9318 14.489 14.7991 14.9346 14.7991H17.0644C17.51 14.7991 17.91 14.9318 18.2644 15.1973C18.6189 15.463 18.8532 15.8134 18.9671 16.2487L20.526 21.4658H21.162C21.362 21.4658 21.5342 21.5381 21.6786 21.6827C21.8231 21.8273 21.8953 21.9996 21.8953 22.1998C21.8953 22.3999 21.8231 22.5721 21.6786 22.7162C21.5342 22.8604 21.362 22.9324 21.162 22.9324H10.8371ZM13.0166 21.4658H18.9824L17.5551 16.6589C17.5209 16.5336 17.4553 16.4367 17.3584 16.3684C17.2617 16.3 17.1506 16.2658 17.0251 16.2658H14.974C14.8485 16.2658 14.7374 16.3 14.6406 16.3684C14.5437 16.4367 14.4782 16.5336 14.444 16.6589L13.0166 21.4658ZM15.2662 11.4742V8.80755C15.2662 8.60755 15.3385 8.43533 15.4831 8.29089C15.6277 8.14644 15.8 8.07422 16.0002 8.07422C16.2003 8.07422 16.3725 8.14644 16.5166 8.29089C16.6608 8.43533 16.7329 8.60755 16.7329 8.80755V11.4742C16.7329 11.6742 16.6606 11.8464 16.516 11.9909C16.3714 12.1353 16.199 12.2076 15.9989 12.2076C15.7987 12.2076 15.6266 12.1353 15.4824 11.9909C15.3383 11.8464 15.2662 11.6742 15.2662 11.4742ZM20.1073 12.982L22.0133 11.0931C22.1557 10.9507 22.3234 10.8815 22.5166 10.8853C22.7098 10.8893 22.8803 10.9653 23.0282 11.1131C23.1686 11.2537 23.2389 11.4185 23.2389 11.6076C23.2389 11.7967 23.1676 11.9626 23.0251 12.1051L21.1362 14.0162C20.9904 14.1621 20.8217 14.2379 20.6302 14.2436C20.4388 14.2492 20.2645 14.1734 20.1073 14.0162C19.95 13.8589 19.8713 13.6865 19.8713 13.4991C19.8713 13.3117 19.95 13.1393 20.1073 12.982ZM22.644 17.3853H25.3106C25.5106 17.3853 25.6829 17.4576 25.8273 17.6022C25.9717 17.7468 26.044 17.9192 26.044 18.1193C26.044 18.3195 25.9717 18.4916 25.8273 18.6358C25.6829 18.7799 25.5106 18.852 25.3106 18.852H22.644C22.444 18.852 22.2717 18.7798 22.1273 18.6353C21.9829 18.4907 21.9106 18.3184 21.9106 18.1182C21.9106 17.9181 21.9829 17.7459 22.1273 17.6018C22.2717 17.4575 22.444 17.3853 22.644 17.3853ZM10.8629 14.0111L8.97397 12.1051C8.83145 11.9626 8.76219 11.7948 8.76619 11.6018C8.77019 11.4086 8.84611 11.2381 8.99397 11.0902C9.13441 10.9498 9.29923 10.8796 9.48841 10.8796C9.6776 10.8796 9.84337 10.9507 9.98574 11.0931L11.8969 12.982C12.0428 13.1279 12.1186 13.2966 12.1244 13.488C12.13 13.6794 12.0542 13.8538 11.8969 14.0111C11.7397 14.1683 11.5674 14.2469 11.38 14.2469C11.1924 14.2469 11.02 14.1683 10.8629 14.0111ZM6.68841 18.852C6.48841 18.852 6.31619 18.7798 6.17174 18.6353C6.0273 18.4907 5.95508 18.3184 5.95508 18.1182C5.95508 17.9181 6.0273 17.7459 6.17174 17.6018C6.31619 17.4575 6.48841 17.3853 6.68841 17.3853H9.35508C9.55508 17.3853 9.7273 17.4576 9.87174 17.6022C10.0162 17.7468 10.0884 17.9192 10.0884 18.1193C10.0884 18.3195 10.0162 18.4916 9.87174 18.6358C9.7273 18.7799 9.55508 18.852 9.35508 18.852H6.68841Z" fill="#E43F32"/>
</g>
<defs>
<clipPath id="clip0_45059_550351">
<rect width="21.3333" height="21.3333" fill="white" transform="translate(5.33203 5.33203)"/>
</clipPath>
</defs>
</svg>
