<svg xmlns="http://www.w3.org/2000/svg" width="20" height="20" viewBox="0 0 20 20" fill="none">
  <path d="M10.0783 4.94665L10.0004 4.81207L9.92253 4.94665L3.64753 15.7883L3.56935 15.9234H3.72543H16.2754H16.4315L16.3533 15.7883L10.0783 4.94665ZM2.36165 15.0452L2.36165 15.0451L8.63665 4.20349C9.24365 3.15504 10.7572 3.15503 11.3642 4.20348C11.3642 4.20349 11.3642 4.20349 11.3642 4.20349L17.6392 15.0451L17.6392 15.0452C18.2462 16.0936 17.4893 17.4101 16.2754 17.4101H3.72543C2.51152 17.4101 1.75467 16.0936 2.36165 15.0452ZM9.25709 10.8334V9.16673C9.25709 8.7581 9.5918 8.4234 10.0004 8.4234C10.4091 8.4234 10.7438 8.7581 10.7438 9.16673V10.8334C10.7438 11.242 10.4091 11.5767 10.0004 11.5767C9.5918 11.5767 9.25709 11.242 9.25709 10.8334ZM10.7438 13.4234V14.9101H9.25709V13.4234H10.7438Z" fill="#6A6A70" stroke="white" stroke-width="0.18"/>
</svg>