<svg width="20" height="20" viewBox="0 0 20 20" fill="none" xmlns="http://www.w3.org/2000/svg">
<path d="M10.6003 9.37496V9.39996H10.6253H17.0628H17.0902L17.0877 9.37271C16.9344 7.6724 16.2478 6.19831 15.0286 4.95123C13.8091 3.70384 12.3415 3.02403 10.6269 2.91251L10.6003 2.91078V2.93746V9.37496ZM9.37323 17.0874L9.40033 17.0896V17.0625V2.93746V2.91027L9.37323 2.91255C7.54745 3.06586 6.01037 3.82572 4.76312 5.19143C3.51588 6.55712 2.89199 8.16035 2.89199 9.99996C2.89199 11.8396 3.51588 13.4428 4.76312 14.8085C6.01037 16.1742 7.54745 16.9341 9.37323 17.0874ZM10.6003 17.0625V17.0891L10.6269 17.0874C12.3415 16.9759 13.8091 16.2961 15.0286 15.0487C16.2478 13.8016 16.9344 12.3275 17.0877 10.6272L17.0902 10.6H17.0628H10.6253H10.6003V10.625V17.0625ZM10.0003 18.3083C8.8508 18.3083 7.77085 18.0902 6.76023 17.6541C5.74912 17.2178 4.86984 16.6258 4.12217 15.8781C3.3745 15.1304 2.7825 14.2512 2.3462 13.2401C1.91011 12.2294 1.69199 11.1495 1.69199 9.99996C1.69199 8.85044 1.91011 7.77049 2.3462 6.75986C2.7825 5.74875 3.3745 4.86948 4.12217 4.1218C4.86984 3.37413 5.74912 2.78213 6.76023 2.34583C7.77085 1.90974 8.8508 1.69163 10.0003 1.69163C11.1498 1.69163 12.2298 1.90974 13.2404 2.34583C14.2515 2.78213 15.1308 3.37413 15.8785 4.1218C16.6262 4.86948 17.2182 5.74875 17.6545 6.75986C18.0905 7.77049 18.3087 8.85044 18.3087 9.99996C18.3087 11.1495 18.0905 12.2294 17.6545 13.2401C17.2182 14.2512 16.6262 15.1304 15.8785 15.8781C15.1308 16.6258 14.2515 17.2178 13.2404 17.6541C12.2298 18.0902 11.1498 18.3083 10.0003 18.3083Z" fill="white" stroke="white" stroke-width="0.05"/>
</svg>
