<svg xmlns="http://www.w3.org/2000/svg" width="21" height="20" viewBox="0 0 21 20" fill="none">
  <path d="M10.5003 1.66406C5.90033 1.66406 2.16699 5.3974 2.16699 9.9974C2.16699 14.5974 5.90033 18.3307 10.5003 18.3307C15.1003 18.3307 18.8337 14.5974 18.8337 9.9974C18.8337 5.3974 15.1003 1.66406 10.5003 1.66406ZM10.5003 16.6641C6.82533 16.6641 3.83366 13.6724 3.83366 9.9974C3.83366 6.3224 6.82533 3.33073 10.5003 3.33073C14.1753 3.33073 17.167 6.3224 17.167 9.9974C17.167 13.6724 14.1753 16.6641 10.5003 16.6641ZM14.3253 6.31406L8.83366 11.8057L6.67533 9.65573L5.50033 10.8307L8.83366 14.1641L15.5003 7.4974L14.3253 6.31406Z" fill="#146DFF"/>
</svg>