<svg xmlns="http://www.w3.org/2000/svg" width="33" height="32" viewBox="0 0 33 32" fill="none">
<rect x="1" y="0.5" width="31" height="31" rx="7.5" stroke="#DF372B"/>
<rect x="1" y="0.5" width="31" height="31" rx="7.5" fill="#E5F6FF"/>
<rect x="1" y="0.5" width="31" height="31" rx="7.5" stroke="#146DFF"/>
<g clip-path="url(#clip0_35881_131148)">
<path d="M19.1676 18.665L16.501 15.9984M16.501 15.9984L13.8343 18.665M16.501 15.9984V21.9984M22.0943 20.2584C22.7445 19.9039 23.2582 19.3429 23.5542 18.6641C23.8502 17.9853 23.9118 17.2272 23.7291 16.5095C23.5464 15.7918 23.1299 15.1554 22.5454 14.7007C21.9609 14.2459 21.2415 13.9989 20.501 13.9984H19.661C19.4592 13.2179 19.0831 12.4933 18.5609 11.879C18.0388 11.2648 17.3842 10.7769 16.6463 10.4521C15.9085 10.1273 15.1067 9.97393 14.301 10.0036C13.4954 10.0333 12.707 10.2452 11.9951 10.6235C11.2831 11.0017 10.6662 11.5364 10.1907 12.1874C9.71517 12.8384 9.39341 13.5887 9.2496 14.382C9.1058 15.1752 9.14369 15.9907 9.36043 16.7672C9.57716 17.5437 9.96711 18.2609 10.501 18.865" stroke="#0058FF" stroke-width="1.3" stroke-linecap="round" stroke-linejoin="round"/>
</g>
<defs>
<clipPath id="clip0_35881_131148">
<rect width="16" height="16" fill="white" transform="translate(8.5 8)"/>
</clipPath>
</defs>
</svg>