<svg width="23" height="22" viewBox="0 0 23 22" fill="none" xmlns="http://www.w3.org/2000/svg">
<rect x="0.333984" y="2" width="20" height="20" rx="10" fill="#D9534F"/>
<path d="M7.33398 15V15.5C7.33398 15.6417 7.28607 15.7604 7.19023 15.8562C7.0944 15.9521 6.97565 16 6.83398 16H6.33398C6.19232 16 6.07357 15.9521 5.97773 15.8562C5.8819 15.7604 5.83398 15.6417 5.83398 15.5V11.5L6.88398 8.5C6.93398 8.35 7.02357 8.22917 7.15273 8.1375C7.2819 8.04583 7.42565 8 7.58398 8H13.084C13.2423 8 13.3861 8.04583 13.5152 8.1375C13.6444 8.22917 13.734 8.35 13.784 8.5L14.834 11.5V15.5C14.834 15.6417 14.7861 15.7604 14.6902 15.8562C14.5944 15.9521 14.4757 16 14.334 16H13.834C13.6923 16 13.5736 15.9521 13.4777 15.8562C13.3819 15.7604 13.334 15.6417 13.334 15.5V15H7.33398ZM7.23398 10.5H13.434L12.909 9H7.75898L7.23398 10.5ZM8.08398 13.5C8.29232 13.5 8.4694 13.4271 8.61523 13.2812C8.76107 13.1354 8.83398 12.9583 8.83398 12.75C8.83398 12.5417 8.76107 12.3646 8.61523 12.2188C8.4694 12.0729 8.29232 12 8.08398 12C7.87565 12 7.69857 12.0729 7.55273 12.2188C7.4069 12.3646 7.33398 12.5417 7.33398 12.75C7.33398 12.9583 7.4069 13.1354 7.55273 13.2812C7.69857 13.4271 7.87565 13.5 8.08398 13.5ZM12.584 13.5C12.7923 13.5 12.9694 13.4271 13.1152 13.2812C13.2611 13.1354 13.334 12.9583 13.334 12.75C13.334 12.5417 13.2611 12.3646 13.1152 12.2188C12.9694 12.0729 12.7923 12 12.584 12C12.3757 12 12.1986 12.0729 12.0527 12.2188C11.9069 12.3646 11.834 12.5417 11.834 12.75C11.834 12.9583 11.9069 13.1354 12.0527 13.2812C12.1986 13.4271 12.3757 13.5 12.584 13.5Z" fill="white"/>
<rect x="14.234" y="0.9" width="8.2" height="8.2" rx="4.1" fill="white"/>
<rect x="14.234" y="0.9" width="8.2" height="8.2" rx="4.1" stroke="#D9534F" stroke-width="0.2"/>
<path d="M17.7349 8V2H18.9287V8H17.7349ZM15.334 5.59467V4.40089H21.334V5.59467H15.334Z" fill="#D9534F"/>
</svg>
