<svg width="32" height="32" viewBox="0 0 32 32" fill="none" xmlns="http://www.w3.org/2000/svg">
<rect width="32" height="32" rx="16" fill="#FEF7ED"/>
<path d="M19.3359 21.25V20.0833C19.3359 19.4645 19.0901 18.871 18.6525 18.4334C18.2149 17.9958 17.6214 17.75 17.0026 17.75H12.9193C12.3004 17.75 11.7069 17.9958 11.2694 18.4334C10.8318 18.871 10.5859 19.4645 10.5859 20.0833V21.25M21.6693 13.6667V17.1667M23.4193 15.4167H19.9193M17.2943 13.0833C17.2943 14.372 16.2496 15.4167 14.9609 15.4167C13.6723 15.4167 12.6276 14.372 12.6276 13.0833C12.6276 11.7947 13.6723 10.75 14.9609 10.75C16.2496 10.75 17.2943 11.7947 17.2943 13.0833Z" stroke="#DC6803" stroke-width="1.05" stroke-linecap="round" stroke-linejoin="round"/>
</svg>
