<svg width="14" height="14" viewBox="0 0 14 14" fill="none" xmlns="http://www.w3.org/2000/svg">
<rect width="14" height="14" rx="7" fill="white"/>
<g clip-path="url(#clip0_43248_47960)">
<path d="M10.5015 3.88911H7.39041H7.00152H5.05707V3.11133H4.2793V3.88911V7.778V10.8891H5.05707V7.778H6.61263H7.00152H10.5015L9.72374 5.83355L10.5015 3.88911ZM9.00041 6.12133L9.35041 7.00022H7.00152H6.61263H5.05707V4.66688H7.00152H7.39041H9.3543L9.0043 5.54577L8.88763 5.83355L9.00041 6.12133ZM7.7793 5.83355C7.7793 6.26133 7.4293 6.61133 7.00152 6.61133C6.57374 6.61133 6.22374 6.26133 6.22374 5.83355C6.22374 5.40577 6.57374 5.05577 7.00152 5.05577C7.4293 5.05577 7.7793 5.40577 7.7793 5.83355Z" fill="#6A6A70"/>
</g>
<defs>
<clipPath id="clip0_43248_47960">
<rect width="9.33333" height="9.33333" fill="white" transform="translate(2.33398 2.33398)"/>
</clipPath>
</defs>
</svg>
