<svg width="44" height="44" viewBox="0 0 44 44" fill="none" xmlns="http://www.w3.org/2000/svg">
<rect width="44" height="44" rx="8" fill="#146DFF"/>
<path d="M22.8902 16.8207C23.2421 16.675 23.6192 16.6 24 16.6C24.7691 16.6 25.5068 16.9055 26.0506 17.4494C26.5945 17.9932 26.9 18.7309 26.9 19.5C26.9 20.2691 26.5945 21.0068 26.0506 21.5506C25.5068 22.0945 24.7691 22.4 24 22.4C23.6192 22.4 23.2421 22.325 22.8902 22.1793C22.5384 22.0335 22.2187 21.8199 21.9494 21.5506C21.6801 21.2813 21.4665 20.9616 21.3207 20.6098C21.175 20.2579 21.1 19.8808 21.1 19.5C21.1 19.1192 21.175 18.7421 21.3207 18.3902C21.4665 18.0384 21.6801 17.7187 21.9494 17.4494C22.2187 17.1801 22.5384 16.9665 22.8902 16.8207ZM21.1009 16.6009C20.332 17.3698 19.9 18.4126 19.9 19.5C19.9 20.5874 20.332 21.6302 21.1009 22.3991C21.8698 23.168 22.9126 23.6 24 23.6C25.0874 23.6 26.1302 23.168 26.8991 22.3991C27.668 21.6302 28.1 20.5874 28.1 19.5C28.1 18.4126 27.668 17.3698 26.8991 16.6009C26.1302 15.832 25.0874 15.4 24 15.4C22.9126 15.4 21.8698 15.832 21.1009 16.6009Z" fill="white" stroke="white" stroke-width="0.2"/>
<path d="M20.0668 20.943L20.0668 20.943C19.4418 20.193 19.1 19.2486 19.1 18.272V15C19.1 14.443 18.8788 13.9089 18.4849 13.5151C18.0911 13.1212 17.557 12.9 17 12.9C16.443 12.9 15.9089 13.1212 15.5151 13.5151C15.1212 13.9089 14.9 14.443 14.9 15V18.75C14.9 19.6691 15.1263 20.5741 15.5588 21.3851L15.647 21.338L15.5588 21.3851L18.9708 27.7821L18.9707 27.7821L18.9724 27.785C19.0502 27.9197 19.1773 28.0189 19.3269 28.0617C19.4765 28.1045 19.6368 28.0875 19.7741 28.0144C19.9114 27.9412 20.0149 27.8176 20.0628 27.6696C20.1107 27.5216 20.0992 27.3607 20.0308 27.221L20.0309 27.221L20.0292 27.218L16.6182 20.821L16.6182 20.8209C16.2781 20.1836 16.1001 19.4724 16.1 18.75C16.1 18.75 16.1 18.75 16.1 18.75V15C16.1 14.7613 16.1948 14.5324 16.3636 14.3636C16.5324 14.1948 16.7613 14.1 17 14.1C17.2387 14.1 17.4676 14.1948 17.6364 14.3636C17.8052 14.5324 17.9 14.7613 17.9 15V18.272C17.9 19.5287 18.3406 20.7456 19.1452 21.711L20.5392 23.384L20.5392 23.384L20.5407 23.3858C20.6439 23.5037 20.789 23.5766 20.9452 23.5889C21.1013 23.6012 21.2561 23.552 21.3764 23.4517C21.4968 23.3514 21.5731 23.2081 21.5892 23.0523C21.6052 22.8965 21.5597 22.7405 21.4623 22.6178L21.4624 22.6178L21.4608 22.616L20.0668 20.943Z" fill="white" stroke="white" stroke-width="0.2"/>
<path d="M20.5757 22.5757C20.4632 22.6883 20.4 22.8409 20.4 23C20.4 23.1591 20.4632 23.3117 20.5757 23.4243C20.6883 23.5368 20.8409 23.6 21 23.6H23.5C24.667 23.6 25.7861 24.0636 26.6113 24.8887C27.4364 25.7139 27.9 26.833 27.9 28V30C27.9 30.1591 27.9632 30.3117 28.0757 30.4243C28.1883 30.5368 28.3409 30.6 28.5 30.6C28.6591 30.6 28.8117 30.5368 28.9243 30.4243C29.0368 30.3117 29.1 30.1591 29.1 30V28C29.1 26.5148 28.51 25.0904 27.4598 24.0402C26.4096 22.99 24.9852 22.4 23.5 22.4H21C20.8409 22.4 20.6883 22.4632 20.5757 22.5757ZM19.9243 27.0757C19.8117 26.9632 19.6591 26.9 19.5 26.9C19.3409 26.9 19.1883 26.9632 19.0757 27.0757C18.9632 27.1883 18.9 27.3409 18.9 27.5V30C18.9 30.1591 18.9632 30.3117 19.0757 30.4243C19.1883 30.5368 19.3409 30.6 19.5 30.6C19.6591 30.6 19.8117 30.5368 19.9243 30.4243C20.0368 30.3117 20.1 30.1591 20.1 30V27.5C20.1 27.3409 20.0368 27.1883 19.9243 27.0757Z" fill="white" stroke="white" stroke-width="0.2"/>
</svg>
