<svg width="1440" height="319" viewBox="0 0 1440 319" fill="none" xmlns="http://www.w3.org/2000/svg">
<rect width="1440" height="319" fill="#F5F5F6"/>
<path opacity="0.1" d="M310.819 54.1884L271.184 125.867C269.579 128.728 262.359 140.416 259.871 142.295C253.292 150.223 244.226 155.454 234.117 157.252C231.71 158.07 222.243 158.56 219.595 158.56H87.6935L0 317.284H131.821C139.443 317.202 167.204 315.649 174.104 312.87C201.463 307.23 225.693 288.678 239.813 263.095L279.448 191.416C281.053 188.556 288.274 176.868 290.761 174.988C297.34 167.06 306.486 161.829 316.595 159.949C319.002 159.132 328.389 158.642 331.037 158.642H462.938L550.632 0H418.891C411.269 0.0817321 383.509 1.63464 376.609 4.41353C349.17 9.97131 324.939 28.6062 310.819 54.1884Z" fill="#0032A0"/>
</svg>
