<svg xmlns="http://www.w3.org/2000/svg" width="16" height="16" viewBox="0 0 16 16" fill="none">
  <g clip-path="url(#clip0_26383_143978)">
    <path d="M0 0H16V16H0V0Z" fill="none"/>
    <path d="M8 1.33301C4.32 1.33301 1.33334 4.31967 1.33334 7.99967C1.33334 11.6797 4.32 14.6663 8 14.6663C11.68 14.6663 14.6667 11.6797 14.6667 7.99967C14.6667 4.31967 11.68 1.33301 8 1.33301ZM2.66667 7.99967C2.66667 5.05301 5.05334 2.66634 8 2.66634C9.23334 2.66634 10.3667 3.08634 11.2667 3.79301L3.79334 11.2663C3.08667 10.3663 2.66667 9.23301 2.66667 7.99967ZM8 13.333C6.76667 13.333 5.63334 12.913 4.73334 12.2063L12.2067 4.73301C12.9133 5.63301 13.3333 6.76634 13.3333 7.99967C13.3333 10.9463 10.9467 13.333 8 13.333Z" fill="#E43F32"/>
  </g>
  <defs>
    <clipPath id="clip0_26383_143978">
      <rect width="16" height="16" fill="none"/>
    </clipPath>
  </defs>
</svg>