<svg xmlns="http://www.w3.org/2000/svg" width="56" height="56" viewBox="0 0 56 56" fill="none">
<rect x="4" y="4" width="48" height="48" rx="24" fill="#FEE4E2"/>
<rect x="4" y="4" width="48" height="48" rx="24" stroke="#FEF3F2" stroke-width="8"/>
<g clip-path="url(#clip0_25771_59129)">
<path d="M28 18C22.48 18 18 22.48 18 28C18 33.52 22.48 38 28 38C33.52 38 38 33.52 38 28C38 22.48 33.52 18 28 18ZM20 28C20 23.58 23.58 20 28 20C29.85 20 31.55 20.63 32.9 21.69L21.69 32.9C20.63 31.55 20 29.85 20 28ZM28 36C26.15 36 24.45 35.37 23.1 34.31L34.31 23.1C35.37 24.45 36 26.15 36 28C36 32.42 32.42 36 28 36Z" fill="#E43F32"/>
</g>
<defs>
<clipPath id="clip0_25771_59129">
<rect width="24" height="24" fill="white" transform="translate(16 16)"/>
</clipPath>
</defs>
</svg>