<svg width="225" height="155" viewBox="0 0 228 158" fill="none" xmlns="http://www.w3.org/2000/svg">
<g filter="url(#filter0_d_28257_49992)">
<rect x="14" y="10" width="200" height="130" rx="10.1917" fill="white"/>
<path d="M161.078 28.4688H57.5916C57.0834 28.4693 56.5962 28.6731 56.2368 29.0352C55.8775 29.3974 55.6753 29.8884 55.6747 30.4006V119.583C55.6753 120.095 55.8775 120.586 56.2368 120.948C56.5962 121.31 57.0834 121.514 57.5916 121.515H161.078C161.586 121.514 162.073 121.31 162.432 120.948C162.792 120.586 162.994 120.095 162.994 119.583V30.4006C162.994 29.8884 162.792 29.3974 162.432 29.0352C162.073 28.6731 161.586 28.4693 161.078 28.4688ZM162.225 119.583C162.225 119.89 162.104 120.185 161.889 120.402C161.674 120.62 161.382 120.743 161.078 120.744H57.5916C57.2868 120.743 56.9947 120.621 56.7796 120.403C56.5645 120.185 56.4439 119.89 56.4444 119.583V30.4006C56.4439 30.0934 56.5645 29.7985 56.7796 29.5808C56.9947 29.3631 57.2868 29.2403 57.5916 29.2394H161.078C161.382 29.2409 161.674 29.3638 161.889 29.5814C162.104 29.799 162.225 30.0936 162.225 30.4006V119.583Z" fill="#3F3D56"/>
<path d="M81.4797 105.648C81.4797 105.786 81.476 105.923 81.4688 106.057C81.3642 108.07 80.4972 109.965 79.0466 111.352C77.5961 112.739 75.6726 113.513 73.6728 113.513C71.6731 113.513 69.7496 112.739 68.2991 111.352C66.8485 109.965 65.9815 108.07 65.8769 106.057C65.8698 105.923 65.866 105.786 65.866 105.648C65.866 103.562 66.6885 101.561 68.1525 100.085C69.6166 98.6101 71.6022 97.7812 73.6727 97.7812C75.7432 97.7812 77.7288 98.6101 79.1928 100.085C80.6569 101.561 81.4794 103.562 81.4794 105.648H81.4797Z" fill="#146DFF"/>
<path d="M153.036 100.415H91.6992C91.3626 100.428 91.044 100.572 90.8103 100.816C90.5766 101.061 90.4461 101.387 90.4461 101.727C90.4461 102.066 90.5766 102.392 90.8103 102.637C91.044 102.881 91.3626 103.025 91.6992 103.038H153.036C153.381 103.051 153.716 102.925 153.969 102.688C154.222 102.451 154.371 102.123 154.384 101.776C154.397 101.429 154.273 101.09 154.039 100.835C153.804 100.58 153.479 100.429 153.134 100.415C153.102 100.414 153.069 100.414 153.036 100.415Z" fill="#146DFF"/>
<path d="M118.092 108.273H91.6992C91.3546 108.273 91.024 108.411 90.7803 108.657C90.5366 108.903 90.3997 109.236 90.3997 109.583C90.3997 109.93 90.5366 110.264 90.7803 110.509C91.024 110.755 91.3546 110.893 91.6992 110.893H118.092C118.437 110.893 118.768 110.756 119.012 110.511C119.256 110.266 119.393 109.933 119.394 109.585C119.394 109.238 119.258 108.905 119.015 108.659C118.771 108.413 118.441 108.274 118.096 108.273H118.092Z" fill="#E6E6E6"/>
<path d="M185.663 90.6762H82.1768C81.5973 90.6756 81.0417 90.4433 80.6319 90.0303C80.2222 89.6174 79.9917 89.0575 79.991 88.4734V42.7028C79.9917 42.1188 80.2222 41.5589 80.6319 41.1459C81.0417 40.733 81.5973 40.5007 82.1768 40.5H185.662C186.242 40.5007 186.797 40.733 187.207 41.1459C187.617 41.5589 187.847 42.1188 187.848 42.7028V88.4722C187.847 89.0562 187.617 89.6162 187.208 90.0294C186.798 90.4426 186.243 90.6753 185.663 90.6762Z" fill="#146DFF"/>
<path d="M103.253 56.72C102.908 56.7048 102.571 56.8284 102.316 57.0636C102.062 57.2987 101.91 57.6262 101.895 57.974C101.88 58.3217 102.003 58.6613 102.236 58.9179C102.469 59.1746 102.794 59.3273 103.139 59.3425C103.177 59.3442 103.215 59.3442 103.253 59.3425H164.589C164.924 59.3277 165.24 59.1831 165.472 58.9388C165.705 58.6946 165.834 58.3694 165.834 58.0312C165.834 57.6931 165.705 57.3679 165.472 57.1236C165.24 56.8794 164.924 56.7348 164.589 56.72H103.253Z" fill="white"/>
<path d="M103.253 64.3216C102.908 64.3064 102.571 64.43 102.316 64.6651C102.062 64.9003 101.91 65.2278 101.895 65.5755C101.88 65.9233 102.003 66.2629 102.236 66.5195C102.469 66.7762 102.794 66.9289 103.139 66.9441C103.177 66.9457 103.215 66.9457 103.253 66.9441H164.589C164.924 66.9293 165.24 66.7847 165.472 66.5404C165.705 66.2961 165.834 65.971 165.834 65.6328C165.834 65.2946 165.705 64.9695 165.472 64.7252C165.24 64.4809 164.924 64.3363 164.589 64.3216H103.253Z" fill="white"/>
<path d="M103.253 71.8294C102.918 71.8441 102.601 71.9887 102.369 72.233C102.137 72.4773 102.008 72.8024 102.008 73.1406C102.008 73.4788 102.137 73.8039 102.369 74.0482C102.601 74.2925 102.918 74.4371 103.253 74.4519H129.646C129.817 74.4594 129.987 74.4329 130.148 74.374C130.309 74.315 130.456 74.2248 130.583 74.1083C130.709 73.9919 130.811 73.8515 130.883 73.6953C130.955 73.5391 130.996 73.3701 131.004 73.1979C131.011 73.0257 130.985 72.8537 130.927 72.6917C130.868 72.5298 130.778 72.381 130.663 72.2539C130.547 72.1269 130.408 72.0239 130.253 71.9511C130.098 71.8783 129.93 71.8369 129.76 71.8294C129.722 71.8277 129.684 71.8277 129.646 71.8294H103.253Z" fill="white"/>
<path d="M24.5337 20.9613C25.4265 20.9613 26.1502 20.2319 26.1502 19.3322C26.1502 18.4325 25.4265 17.7031 24.5337 17.7031C23.6409 17.7031 22.9172 18.4325 22.9172 19.3322C22.9172 20.2319 23.6409 20.9613 24.5337 20.9613Z" fill="#146DFF"/>
<path d="M30.1911 20.9613C31.0839 20.9613 31.8076 20.2319 31.8076 19.3322C31.8076 18.4325 31.0839 17.7031 30.1911 17.7031C29.2983 17.7031 28.5746 18.4325 28.5746 19.3322C28.5746 20.2319 29.2983 20.9613 30.1911 20.9613Z" fill="#146DFF"/>
<path d="M35.8485 20.9613C36.7412 20.9613 37.465 20.2319 37.465 19.3322C37.465 18.4325 36.7412 17.7031 35.8485 17.7031C34.9557 17.7031 34.2319 18.4325 34.2319 19.3322C34.2319 20.2319 34.9557 20.9613 35.8485 20.9613Z" fill="#146DFF"/>
</g>
<defs>
<filter id="filter0_d_28257_49992" x="0" y="0" width="228" height="158" filterUnits="userSpaceOnUse" color-interpolation-filters="sRGB">
<feFlood flood-opacity="0" result="BackgroundImageFix"/>
<feColorMatrix in="SourceAlpha" type="matrix" values="0 0 0 0 0 0 0 0 0 0 0 0 0 0 0 0 0 0 127 0" result="hardAlpha"/>
<feOffset dy="4"/>
<feGaussianBlur stdDeviation="7"/>
<feComposite in2="hardAlpha" operator="out"/>
<feColorMatrix type="matrix" values="0 0 0 0 0 0 0 0 0 0 0 0 0 0 0 0 0 0 0.1 0"/>
<feBlend mode="normal" in2="BackgroundImageFix" result="effect1_dropShadow_28257_49992"/>
<feBlend mode="normal" in="SourceGraphic" in2="effect1_dropShadow_28257_49992" result="shape"/>
</filter>
</defs>
</svg>
