<svg width="32" height="32" viewBox="0 0 32 32" fill="none" xmlns="http://www.w3.org/2000/svg">
<g id="checkpoints">
<path id="Ellipse 672" d="M32 16C32 24.8366 24.8366 32 16 32C7.16344 32 0 24.8366 0 16C0 7.16344 7.16344 0 16 0C24.8366 0 32 7.16344 32 16Z" fill="#FEF7ED"/>
<path id="Ellipse 671" d="M28.3851 15.9997C28.3851 22.8397 22.8402 28.3846 16.0002 28.3846C9.16016 28.3846 3.61523 22.8397 3.61523 15.9997C3.61523 9.15967 9.16016 3.61475 16.0002 3.61475C22.8402 3.61475 28.3851 9.15967 28.3851 15.9997Z" fill="#F77619"/>
<g id="Vector">
<path d="M11.6484 8.70366C11.6484 7.9642 12.2479 7.36475 12.9873 7.36475H19.0125C19.7519 7.36475 20.3514 7.9642 20.3514 8.70366V23.2978C20.3514 24.0373 19.7519 24.6367 19.0125 24.6367H12.9873C12.2479 24.6367 11.6484 24.0373 11.6484 23.2978V8.70366Z" fill="#F5F5F6"/>
<path d="M13.6568 7.76642H18.2091C18.2091 8.13615 17.9094 8.43588 17.5397 8.43588H14.3263C13.9565 8.43588 13.6568 8.13615 13.6568 7.76642Z" fill="#86868B"/>
<path d="M13.4068 7.61475V7.76642C13.4068 8.27422 13.8185 8.68588 14.3263 8.68588H17.5397C18.0475 8.68588 18.4591 8.27422 18.4591 7.76642V7.61475H19.0125C19.6138 7.61475 20.1014 8.10227 20.1014 8.70366V23.2978C20.1014 23.8992 19.6138 24.3867 19.0125 24.3867H12.9873C12.386 24.3867 11.8984 23.8992 11.8984 23.2978V8.70366C11.8984 8.10227 12.386 7.61475 12.9873 7.61475H13.4068ZM14.3263 8.18588C14.1883 8.18588 14.0659 8.11925 13.9894 8.01642H17.8765C17.8001 8.11925 17.6776 8.18588 17.5397 8.18588H14.3263Z" stroke="black" stroke-width="0.5"/>
</g>
</g>
</svg>
