<svg width="20" height="20" viewBox="0 0 20 20" fill="none" xmlns="http://www.w3.org/2000/svg">
<rect width="20" height="20" rx="10" fill="#146DFF"/>
<path d="M12 6H13C13.2652 6 13.5196 6.10536 13.7071 6.29289C13.8946 6.48043 14 6.73478 14 7V14C14 14.2652 13.8946 14.5196 13.7071 14.7071C13.5196 14.8946 13.2652 15 13 15H7C6.73478 15 6.48043 14.8946 6.29289 14.7071C6.10536 14.5196 6 14.2652 6 14V7C6 6.73478 6.10536 6.48043 6.29289 6.29289C6.48043 6.10536 6.73478 6 7 6H8M8.5 5H11.5C11.7761 5 12 5.22386 12 5.5V6.5C12 6.77614 11.7761 7 11.5 7H8.5C8.22386 7 8 6.77614 8 6.5V5.5C8 5.22386 8.22386 5 8.5 5Z" stroke="white" stroke-linecap="round" stroke-linejoin="round"/>
</svg>
