<svg xmlns="http://www.w3.org/2000/svg" width="18" height="18" viewBox="0 0 18 18" fill="none">
  <path d="M2.25 6.75H15.75V5.625C15.75 5.32663 15.6315 5.04048 15.4205 4.82951C15.2095 4.61853 14.9234 4.5 14.625 4.5H3.375C3.07663 4.5 2.79048 4.61853 2.5795 4.82951C2.36853 5.04048 2.25 5.32663 2.25 5.625V6.75ZM2.25 7.875V13.5C2.25 13.7984 2.36853 14.0845 2.5795 14.2955C2.79048 14.5065 3.07663 14.625 3.375 14.625H14.625C14.9234 14.625 15.2095 14.5065 15.4205 14.2955C15.6315 14.0845 15.75 13.7984 15.75 13.5V7.875H2.25ZM3.375 3.375H14.625C15.2217 3.375 15.794 3.61205 16.216 4.03401C16.6379 4.45597 16.875 5.02826 16.875 5.625V13.5C16.875 14.0967 16.6379 14.669 16.216 15.091C15.794 15.5129 15.2217 15.75 14.625 15.75H3.375C2.77826 15.75 2.20597 15.5129 1.78401 15.091C1.36205 14.669 1.125 14.0967 1.125 13.5V5.625C1.125 5.02826 1.36205 4.45597 1.78401 4.03401C2.20597 3.61205 2.77826 3.375 3.375 3.375Z" fill="#6A6A70"/>
  <path d="M6.75 2.25V3.375H11.25V2.25H6.75ZM6.75 1.125H11.25C11.5484 1.125 11.8345 1.24353 12.0455 1.4545C12.2565 1.66548 12.375 1.95163 12.375 2.25V3.375C12.375 3.67337 12.2565 3.95952 12.0455 4.1705C11.8345 4.38147 11.5484 4.5 11.25 4.5H6.75C6.45163 4.5 6.16548 4.38147 5.95451 4.1705C5.74353 3.95952 5.625 3.67337 5.625 3.375V2.25C5.625 1.95163 5.74353 1.66548 5.95451 1.4545C6.16548 1.24353 6.45163 1.125 6.75 1.125Z" fill="#6A6A70"/>
</svg>