<svg xmlns="http://www.w3.org/2000/svg" width="14" height="16" viewBox="0 0 14 16" fill="none">
  <path d="M1.33975 15.6314C0.964639 15.6314 0.647569 15.4994 0.388542 15.2355C0.129514 14.9716 0 14.657 0 14.2916V3.80449C0 3.4391 0.129514 3.12446 0.388542 2.86057C0.647569 2.59668 0.964639 2.46474 1.33975 2.46474H3.16027V0.926258C3.16027 0.767189 3.21303 0.634474 3.31854 0.528113C3.42406 0.421766 3.55573 0.368591 3.71356 0.368591C3.8714 0.368591 4.00453 0.421766 4.11298 0.528113C4.22141 0.634474 4.27562 0.767189 4.27562 0.926258V2.46474H8.92304V0.910238C8.92304 0.756502 8.97446 0.627793 9.07731 0.524113C9.18015 0.420432 9.30781 0.368591 9.46031 0.368591C9.6128 0.368591 9.74192 0.420432 9.84769 0.524113C9.95347 0.627793 10.0064 0.756502 10.0064 0.910238V2.46474H11.8269C12.202 2.46474 12.5191 2.59668 12.7781 2.86057C13.0371 3.12446 13.1666 3.4391 13.1666 3.80449V14.2916C13.1666 14.657 13.0371 14.9716 12.7781 15.2355C12.5191 15.4994 12.202 15.6314 11.8269 15.6314H1.33975ZM1.33975 14.548H11.8269C11.891 14.548 11.9498 14.5213 12.0032 14.4679C12.0566 14.4145 12.0833 14.3557 12.0833 14.2916V7.30449H1.08331V14.2916C1.08331 14.3557 1.11002 14.4145 1.16344 14.4679C1.21687 14.5213 1.27564 14.548 1.33975 14.548ZM1.08331 6.22118H12.0833V3.80449C12.0833 3.74038 12.0566 3.68161 12.0032 3.62818C11.9498 3.57476 11.891 3.54805 11.8269 3.54805H1.33975C1.27564 3.54805 1.21687 3.57476 1.16344 3.62818C1.11002 3.68161 1.08331 3.74038 1.08331 3.80449V6.22118Z" fill="#6A6A70"/>
</svg>