<svg width="32" height="32" viewBox="0 0 32 32" fill="none" xmlns="http://www.w3.org/2000/svg">
<rect width="32" height="32" rx="16" fill="#E5F6FF"/>
<g clip-path="url(#clip0_43560_217129)">
<path d="M20.9764 9.99809L20.9764 9.99805C21.2624 9.71211 21.7241 9.71211 22.01 9.99805C22.2876 10.2757 22.2876 10.7457 22.01 11.0233L12.935 20.0983L12.7643 20.269H13.0057H17.6641C18.0672 20.269 18.3974 20.5992 18.3974 21.0023C18.3974 21.4054 18.0672 21.7357 17.6641 21.7357H10.9974C10.5943 21.7357 10.2641 21.4054 10.2641 21.0023V14.3357C10.2641 13.9326 10.5943 13.6023 10.9974 13.6023C11.4005 13.6023 11.7307 13.9326 11.7307 14.3357V18.994V19.2353L11.9014 19.0648L20.9764 9.99809Z" fill="#0059FF" stroke="#E5F6FF" stroke-width="0.2"/>
</g>
<defs>
<clipPath id="clip0_43560_217129">
<rect width="20" height="20" fill="white" transform="translate(6 6)"/>
</clipPath>
</defs>
</svg>
