<svg width="14" height="14" viewBox="0 0 14 14" fill="none" xmlns="http://www.w3.org/2000/svg">
<rect width="14" height="14" rx="7" fill="#E43F32"/>
<g clip-path="url(#clip0_43248_153042)">
<path d="M9.86689 4.13766C9.68942 3.96018 9.40273 3.96018 9.22526 4.13766L7 6.35836L4.77474 4.13311C4.59727 3.95563 4.31058 3.95563 4.13311 4.13311C3.95563 4.31058 3.95563 4.59727 4.13311 4.77474L6.35836 7L4.13311 9.22526C3.95563 9.40273 3.95563 9.68942 4.13311 9.86689C4.31058 10.0444 4.59727 10.0444 4.77474 9.86689L7 7.64164L9.22526 9.86689C9.40273 10.0444 9.68942 10.0444 9.86689 9.86689C10.0444 9.68942 10.0444 9.40273 9.86689 9.22526L7.64164 7L9.86689 4.77474C10.0398 4.60182 10.0398 4.31058 9.86689 4.13766Z" fill="#F5F5F6"/>
</g>
<defs>
<clipPath id="clip0_43248_153042">
<rect width="9" height="9" fill="white" transform="translate(2.5 2.5)"/>
</clipPath>
</defs>
</svg>
