<svg width="20" height="20" viewBox="0 0 20 20" fill="none" xmlns="http://www.w3.org/2000/svg">
<g clip-path="url(#clip0_43513_227)">
<path d="M0 10C0 4.47715 4.47715 0 10 0C15.5228 0 20 4.47715 20 10C20 15.5228 15.5228 20 10 20C4.47715 20 0 15.5228 0 10Z" fill="#F5F5F6"/>
<g clip-path="url(#clip1_43513_227)">
<rect width="20" height="20" rx="4" fill="#EDEDED"/>
<line x1="19.4142" y1="-32.5858" x2="-65.5858" y2="52.4142" stroke="#F5F5F6" stroke-width="4"/>
<line x1="36.4142" y1="-32.5858" x2="-48.5858" y2="52.4142" stroke="#F5F5F6" stroke-width="4"/>
<line x1="53.4142" y1="-32.5858" x2="-31.5858" y2="52.4142" stroke="#F5F5F6" stroke-width="4"/>
<line x1="70.4142" y1="-32.5858" x2="-14.5858" y2="52.4142" stroke="#F5F5F6" stroke-width="4"/>
<line x1="87.4142" y1="-32.5858" x2="2.41422" y2="52.4142" stroke="#F5F5F6" stroke-width="4"/>
<line x1="104.414" y1="-32.5858" x2="19.4142" y2="52.4142" stroke="#F5F5F6" stroke-width="4"/>
<rect x="3" y="3" width="14" height="14" rx="7" fill="#E43F32"/>
<g clip-path="url(#clip2_43513_227)">
<path d="M12.8669 7.13766C12.6894 6.96018 12.4027 6.96018 12.2253 7.13766L10 9.35836L7.77474 7.13311C7.59727 6.95563 7.31058 6.95563 7.13311 7.13311C6.95563 7.31058 6.95563 7.59727 7.13311 7.77474L9.35836 10L7.13311 12.2253C6.95563 12.4027 6.95563 12.6894 7.13311 12.8669C7.31058 13.0444 7.59727 13.0444 7.77474 12.8669L10 10.6416L12.2253 12.8669C12.4027 13.0444 12.6894 13.0444 12.8669 12.8669C13.0444 12.6894 13.0444 12.4027 12.8669 12.2253L10.6416 10L12.8669 7.77474C13.0398 7.60182 13.0398 7.31058 12.8669 7.13766Z" fill="#F5F5F6"/>
</g>
</g>
</g>
<defs>
<clipPath id="clip0_43513_227">
<path d="M0 10C0 4.47715 4.47715 0 10 0C15.5228 0 20 4.47715 20 10C20 15.5228 15.5228 20 10 20C4.47715 20 0 15.5228 0 10Z" fill="white"/>
</clipPath>
<clipPath id="clip1_43513_227">
<rect width="20" height="20" rx="4" fill="white"/>
</clipPath>
<clipPath id="clip2_43513_227">
<rect width="9" height="9" fill="white" transform="translate(5.5 5.5)"/>
</clipPath>
</defs>
</svg>
