<svg xmlns="http://www.w3.org/2000/svg" width="16" height="16" viewBox="0 0 16 16" fill="none">
  <g clip-path="url(#clip0_41539_94749)">
    <path d="M8.35323 8.5871L7.99967 8.23354L7.64612 8.5871L5.71945 10.5138C5.65472 10.5785 5.5513 10.5785 5.48656 10.5138C5.42182 10.449 5.42182 10.3456 5.48656 10.2809L7.41323 8.3542L7.76678 8.00065L7.41323 7.6471L5.48656 5.72043C5.42182 5.65569 5.42182 5.55228 5.48656 5.48754C5.5513 5.4228 5.65472 5.4228 5.71945 5.48754L7.64612 7.4142L7.99967 7.76776L8.35323 7.4142L10.2799 5.48754C10.3446 5.4228 10.448 5.4228 10.5128 5.48754C10.5775 5.55228 10.5775 5.65569 10.5128 5.72043L8.58612 7.6471L8.23257 8.00065L8.58612 8.3542L10.5128 10.2809C10.5384 10.3065 10.5563 10.346 10.5563 10.3948C10.5563 10.4425 10.5391 10.4854 10.5104 10.5161C10.4456 10.5785 10.3439 10.5777 10.2799 10.5138L8.35323 8.5871ZM7.99967 0.833984C4.03687 0.833984 0.833008 4.03784 0.833008 8.00065C0.833008 11.9635 4.03687 15.1673 7.99967 15.1673C11.9625 15.1673 15.1663 11.9635 15.1663 8.00065C15.1663 4.03784 11.9625 0.833984 7.99967 0.833984Z" stroke="#E43F32"/>
  </g>
  <defs>
    <clipPath id="clip0_41539_94749">
      <rect width="16" height="16" fill="white"/>
    </clipPath>
  </defs>
</svg>