<svg xmlns="http://www.w3.org/2000/svg" width="20" height="20" viewBox="0 0 20 20" fill="none">
  <path d="M9.16797 14.166H10.8346V9.16602H9.16797V14.166ZM10.0013 1.66602C5.4013 1.66602 1.66797 5.39935 1.66797 9.99935C1.66797 14.5993 5.4013 18.3327 10.0013 18.3327C14.6013 18.3327 18.3346 14.5993 18.3346 9.99935C18.3346 5.39935 14.6013 1.66602 10.0013 1.66602ZM10.0013 16.666C6.3263 16.666 3.33464 13.6743 3.33464 9.99935C3.33464 6.32435 6.3263 3.33268 10.0013 3.33268C13.6763 3.33268 16.668 6.32435 16.668 9.99935C16.668 13.6743 13.6763 16.666 10.0013 16.666ZM9.16797 7.49935H10.8346V5.83268H9.16797V7.49935Z" fill="#6A6A70"/>
  <path d="M9.16797 5.83398H10.8346V7.50065H9.16797V5.83398ZM9.16797 9.16732H10.8346V14.1673H9.16797V9.16732Z" fill="#6A6A70"/>
  <path d="M10.0013 1.66602C5.4013 1.66602 1.66797 5.39935 1.66797 9.99935C1.66797 14.5993 5.4013 18.3327 10.0013 18.3327C14.6013 18.3327 18.3346 14.5993 18.3346 9.99935C18.3346 5.39935 14.6013 1.66602 10.0013 1.66602ZM10.0013 16.666C6.3263 16.666 3.33464 13.6743 3.33464 9.99935C3.33464 6.32435 6.3263 3.33268 10.0013 3.33268C13.6763 3.33268 16.668 6.32435 16.668 9.99935C16.668 13.6743 13.6763 16.666 10.0013 16.666Z" fill="#6A6A70"/>
</svg>