<svg width="12" height="12" viewBox="0 0 12 12" fill="none" xmlns="http://www.w3.org/2000/svg">
<g id="check_circle_outline" clip-path="url(#clip0_19337_8264)">
<path id="Vector" d="M6 1C3.24 1 1 3.24 1 6C1 8.76 3.24 11 6 11C8.76 11 11 8.76 11 6C11 3.24 8.76 1 6 1ZM6 10C3.795 10 2 8.205 2 6C2 3.795 3.795 2 6 2C8.205 2 10 3.795 10 6C10 8.205 8.205 10 6 10ZM8.295 3.79L5 7.085L3.705 5.795L3 6.5L5 8.5L9 4.5L8.295 3.79Z" fill="#31A150"/>
</g>
<defs>
<clipPath id="clip0_19337_8264">
<rect width="12" height="12" fill="white"/>
</clipPath>
</defs>
</svg>
