<svg width="24" height="24" viewBox="0 0 24 24" fill="none" xmlns="http://www.w3.org/2000/svg">
<circle cx="12" cy="12" r="12" fill="#F2F9F5"/>
<circle cx="12.0504" cy="11.9996" r="9.2887" fill="#0FAA28"/>
<g clip-path="url(#clip0_35746_30036)">
<path d="M13.2553 15.816H12.4185V14.9792H13.2553V15.816ZM12.4185 12.8872H11.5817V14.9792H12.4185V12.8872ZM15.7658 12.0504H14.9289V13.724H15.7658V12.0504ZM14.9289 11.2135H14.0921V12.0504H14.9289V11.2135ZM9.90802 12.0504H9.0712V12.8872H9.90802V12.0504ZM9.0712 11.2135H8.23438V12.0504H9.0712V11.2135ZM12.0001 9.12149H12.8369V8.28467H12.0001V9.12149ZM8.86199 8.91228V10.1675H10.1172V8.91228H8.86199ZM10.7448 10.7951H8.23438V8.28467H10.7448V10.7951ZM8.86199 13.9332V15.1884H10.1172V13.9332H8.86199ZM10.7448 15.816H8.23438V13.3056H10.7448V15.816ZM13.8829 8.91228V10.1675H15.1381V8.91228H13.8829ZM15.7658 10.7951H13.2553V8.28467H15.7658V10.7951ZM14.9289 14.9792V13.724H13.2553V14.5608H14.0921V15.816H15.7658V14.9792H14.9289ZM14.0921 12.0504H12.4185V12.8872H14.0921V12.0504ZM12.4185 11.2135H9.90802V12.0504H10.7448V12.8872H11.5817V12.0504H12.4185V11.2135ZM12.8369 10.7951V9.95831H12.0001V9.12149H11.1632V10.7951H12.8369ZM9.80341 9.22609H9.1758V9.85371H9.80341V9.22609ZM9.80341 14.247H9.1758V14.8746H9.80341V14.247ZM14.8243 9.22609H14.1967V9.85371H14.8243V9.22609Z" fill="white"/>
</g>
<defs>
<clipPath id="clip0_35746_30036">
<rect width="10.0418" height="10.0418" fill="white" transform="translate(6.98047 7.0293)"/>
</clipPath>
</defs>
</svg>
