<svg width="20" height="20" viewBox="0 0 20 20" fill="none" xmlns="http://www.w3.org/2000/svg">
<g id="schedule_FILL0_wght300_GRAD0_opsz20 1">
<path id="Vector" d="M10.542 9.45494V5.54146C10.542 5.38801 10.4904 5.25937 10.3874 5.15555C10.2844 5.05173 10.1567 4.99982 10.0044 4.99982C9.8521 4.99982 9.72307 5.05173 9.6173 5.15555C9.51154 5.25937 9.45866 5.38801 9.45866 5.54146V9.64725C9.45866 9.74535 9.47682 9.83344 9.51314 9.91153C9.54946 9.98961 9.59967 10.0607 9.66378 10.1248L12.5564 13.0174C12.6739 13.135 12.8027 13.1916 12.9426 13.1873C13.0826 13.183 13.2129 13.1205 13.3336 12.9998C13.4544 12.8791 13.5147 12.7501 13.5147 12.6128C13.5147 12.4755 13.452 12.3448 13.3266 12.2205L10.542 9.45494ZM10.0017 17.5831C8.9571 17.5831 7.97521 17.3858 7.05603 16.991C6.13685 16.5963 5.33134 16.0532 4.63949 15.3617C3.94763 14.6701 3.40425 13.864 3.00935 12.9432C2.61444 12.0224 2.41699 11.0386 2.41699 9.99167C2.41699 8.94475 2.61435 7.96041 3.00908 7.03863C3.4038 6.11684 3.94692 5.31349 4.63845 4.62859C5.32999 3.94367 6.13615 3.40376 7.05693 3.00886C7.97771 2.61396 8.96155 2.4165 10.0085 2.4165C11.0554 2.4165 12.0398 2.61553 12.9616 3.01359C13.8835 3.41164 14.6854 3.95185 15.3673 4.63421C16.0493 5.31659 16.5891 6.11901 16.9869 7.04148C17.3847 7.96394 17.5836 8.94959 17.5836 9.99842C17.5836 11.043 17.3863 12.0249 16.9915 12.9441C16.5968 13.8633 16.0572 14.6688 15.3726 15.3606C14.688 16.0525 13.8841 16.5959 12.9609 16.9908C12.0377 17.3857 11.0513 17.5831 10.0017 17.5831ZM10.0102 16.4998C11.8085 16.4998 13.3398 15.8644 14.604 14.5936C15.8682 13.3227 16.5003 11.7882 16.5003 9.98988C16.5003 8.19159 15.8682 6.66034 14.604 5.39613C13.3398 4.13192 11.8085 3.49982 10.0102 3.49982C8.21195 3.49982 6.67739 4.13192 5.40655 5.39613C4.13572 6.66034 3.5003 8.19159 3.5003 9.98988C3.5003 11.7882 4.13572 13.3227 5.40655 14.5936C6.67739 15.8644 8.21195 16.4998 10.0102 16.4998Z" fill="#6A6A70"/>
</g>
</svg>
