<svg width="16" height="16" viewBox="0 0 16 16" fill="none" xmlns="http://www.w3.org/2000/svg">
<path d="M8.54293 7.4525V3.53902C8.54293 3.38556 8.49141 3.25692 8.38839 3.1531C8.28536 3.04928 8.15769 2.99738 8.00539 2.99738C7.85308 2.99738 7.72405 3.04928 7.61828 3.1531C7.51252 3.25692 7.45964 3.38556 7.45964 3.53902V7.64481C7.45964 7.74291 7.4778 7.831 7.51411 7.90908C7.55043 7.98717 7.60065 8.05826 7.66476 8.12238L10.5574 11.015C10.6749 11.1325 10.8036 11.1891 10.9436 11.1849C11.0836 11.1806 11.2139 11.1181 11.3346 10.9974C11.4553 10.8767 11.5157 10.7477 11.5157 10.6104C11.5157 10.4731 11.453 10.3423 11.3276 10.2181L8.54293 7.4525ZM8.00268 15.5807C6.95808 15.5807 5.97619 15.3833 5.05701 14.9886C4.13783 14.5939 3.33232 14.0508 2.64047 13.3592C1.94861 12.6677 1.40523 11.8615 1.01032 10.9408C0.61542 10.02 0.417969 9.03613 0.417969 7.98923C0.417969 6.94231 0.61533 5.95797 1.01005 5.03619C1.40477 4.1144 1.9479 3.31105 2.63943 2.62615C3.33097 1.94123 4.13713 1.40132 5.05791 1.00642C5.97868 0.611515 6.96252 0.414062 8.00943 0.414062C9.05634 0.414062 10.0407 0.613091 10.9626 1.01115C11.8845 1.4092 12.6864 1.94941 13.3683 2.63177C14.0502 3.31415 14.5901 4.11657 14.9879 5.03904C15.3857 5.9615 15.5846 6.94715 15.5846 7.99598C15.5846 9.04058 15.3872 10.0225 14.9925 10.9416C14.5978 11.8608 14.0581 12.6663 13.3736 13.3582C12.689 14.05 11.8851 14.5934 10.9619 14.9883C10.0387 15.3832 9.05232 15.5807 8.00268 15.5807ZM8.01122 14.4974C9.80951 14.4974 11.3408 13.862 12.605 12.5911C13.8692 11.3203 14.5013 9.78573 14.5013 7.98744C14.5013 6.18915 13.8692 4.6579 12.605 3.39369C11.3408 2.12948 9.80951 1.49738 8.01122 1.49738C6.21293 1.49738 4.67836 2.12948 3.40753 3.39369C2.1367 4.6579 1.50128 6.18915 1.50128 7.98744C1.50128 9.78573 2.1367 11.3203 3.40753 12.5911C4.67836 13.862 6.21293 14.4974 8.01122 14.4974Z" fill="#262527"/>
</svg>
