<svg width="16" height="16" viewBox="0 0 16 16" fill="none" xmlns="http://www.w3.org/2000/svg">
<g clip-path="url(#clip0_36729_55405)">
<path d="M3.3335 10.0026H2.66683C2.31321 10.0026 1.97407 9.86213 1.72402 9.61208C1.47397 9.36203 1.3335 9.02289 1.3335 8.66927V2.66927C1.3335 2.31565 1.47397 1.97651 1.72402 1.72646C1.97407 1.47641 2.31321 1.33594 2.66683 1.33594H8.66683C9.02045 1.33594 9.35959 1.47641 9.60964 1.72646C9.85969 1.97651 10.0002 2.31565 10.0002 2.66927V3.33594M7.3335 6.0026H13.3335C14.0699 6.0026 14.6668 6.59956 14.6668 7.33594V13.3359C14.6668 14.0723 14.0699 14.6693 13.3335 14.6693H7.3335C6.59712 14.6693 6.00016 14.0723 6.00016 13.3359V7.33594C6.00016 6.59956 6.59712 6.0026 7.3335 6.0026Z" stroke="#6A6A70" stroke-width="1.5" stroke-linecap="round" stroke-linejoin="round"/>
</g>
<defs>
<clipPath id="clip0_36729_55405">
<rect width="16" height="16" fill="white"/>
</clipPath>
</defs>
</svg>
