<svg width="24" height="24" viewBox="0 0 24 24" fill="none" xmlns="http://www.w3.org/2000/svg">
<rect width="24" height="24" rx="4" fill="white"/>
<path d="M10.0001 10.0052V6.00521H8.66675V7.73188L6.60675 5.67188L5.66675 6.61188L7.72675 8.67188H6.00008V10.0052H10.0001ZM18.0001 10.0052V8.67188H16.2734L18.3334 6.61188L17.3934 5.67188L15.3334 7.73188V6.00521H14.0001V10.0052H18.0001ZM6.00008 14.0052V15.3385H7.72675L5.66675 17.3985L6.60675 18.3385L8.66675 16.2785V18.0052H10.0001V14.0052H6.00008ZM14.0001 14.0052V18.0052H15.3334V16.2785L17.3934 18.3385L18.3334 17.3985L16.2734 15.3385H18.0001V14.0052H14.0001Z" fill="black" fill-opacity="0.54"/>
</svg>
