<svg width="20" height="20" viewBox="0 0 20 20" fill="none" xmlns="http://www.w3.org/2000/svg">
<g id="close" clip-path="url(#clip0_17942_95900)">
<path id="Vector" d="M16.3705 3.63793C15.9762 3.24355 15.3391 3.24355 14.9447 3.63793L9.99967 8.57284L5.05466 3.62782C4.66027 3.23343 4.02319 3.23343 3.6288 3.62782C3.23441 4.02221 3.23441 4.6593 3.6288 5.05368L8.57381 9.9987L3.6288 14.9437C3.23441 15.3381 3.23441 15.9752 3.6288 16.3696C4.02319 16.764 4.66027 16.764 5.05466 16.3696L9.99967 11.4246L14.9447 16.3696C15.3391 16.764 15.9762 16.764 16.3705 16.3696C16.7649 15.9752 16.7649 15.3381 16.3705 14.9437L11.4255 9.9987L16.3705 5.05368C16.7548 4.66941 16.7548 4.02221 16.3705 3.63793Z" fill="#E43F32"/>
</g>
<defs>
<clipPath id="clip0_17942_95900">
<rect width="20" height="20" fill="white"/>
</clipPath>
</defs>
</svg>
