<svg xmlns="http://www.w3.org/2000/svg" width="20" height="20" viewBox="0 0 20 20" fill="none">
  <path d="M10.0003 1.66406C5.40033 1.66406 1.66699 5.3974 1.66699 9.9974C1.66699 14.5974 5.40033 18.3307 10.0003 18.3307C14.6003 18.3307 18.3337 14.5974 18.3337 9.9974C18.3337 5.3974 14.6003 1.66406 10.0003 1.66406ZM10.0003 16.6641C6.32533 16.6641 3.33366 13.6724 3.33366 9.9974C3.33366 6.3224 6.32533 3.33073 10.0003 3.33073C13.6753 3.33073 16.667 6.3224 16.667 9.9974C16.667 13.6724 13.6753 16.6641 10.0003 16.6641ZM13.8253 6.31406L8.33366 11.8057L6.17533 9.65573L5.00033 10.8307L8.33366 14.1641L15.0003 7.4974L13.8253 6.31406Z" fill="#146DFF"/>
</svg>