<svg xmlns="http://www.w3.org/2000/svg" width="11" height="11" viewBox="0 0 11 11" fill="none">
  <path d="M10.4968 9.27167C10.7747 9.54958 10.7747 10.0002 10.4968 10.2781C10.2189 10.556 9.76833 10.556 9.49043 10.2781L5.5 6.28763L1.50957 10.2781C1.23167 10.556 0.781097 10.556 0.503192 10.2781C0.225287 10.0002 0.225287 9.54958 0.503192 9.27168L5 4.77487C5.27614 4.49872 5.72386 4.49872 6 4.77487L10.4968 9.27167ZM10.1809 0.928058C10.1809 1.31583 9.8665 1.63019 9.47872 1.63019H1.52128C1.1335 1.63019 0.819149 1.31583 0.819149 0.928058C0.819149 0.540283 1.1335 0.22593 1.52128 0.22593H9.47872C9.8665 0.22593 10.1809 0.540283 10.1809 0.928058Z" fill="#6A6A70"/>
</svg>