<svg width="36" height="36" viewBox="0 0 36 36" fill="none" xmlns="http://www.w3.org/2000/svg">
<rect width="36" height="36" rx="8" fill="#E5F6FF"/>
<path d="M21.3333 19.666H14.6667C14.4457 19.666 14.2337 19.7538 14.0774 19.9101C13.9211 20.0664 13.8333 20.2783 13.8333 20.4993C13.8333 20.7204 13.9211 20.9323 14.0774 21.0886C14.2337 21.2449 14.4457 21.3327 14.6667 21.3327H21.3333C21.5543 21.3327 21.7663 21.2449 21.9226 21.0886C22.0789 20.9323 22.1667 20.7204 22.1667 20.4993C22.1667 20.2783 22.0789 20.0664 21.9226 19.9101C21.7663 19.7538 21.5543 19.666 21.3333 19.666ZM21.3333 16.3327H16.3333C16.1123 16.3327 15.9004 16.4205 15.7441 16.5768C15.5878 16.733 15.5 16.945 15.5 17.166C15.5 17.387 15.5878 17.599 15.7441 17.7553C15.9004 17.9116 16.1123 17.9993 16.3333 17.9993H21.3333C21.5543 17.9993 21.7663 17.9116 21.9226 17.7553C22.0789 17.599 22.1667 17.387 22.1667 17.166C22.1667 16.945 22.0789 16.733 21.9226 16.5768C21.7663 16.4205 21.5543 16.3327 21.3333 16.3327ZM24.6667 11.3327H22.1667V10.4993C22.1667 10.2783 22.0789 10.0664 21.9226 9.91009C21.7663 9.75381 21.5543 9.66602 21.3333 9.66602C21.1123 9.66602 20.9004 9.75381 20.7441 9.91009C20.5878 10.0664 20.5 10.2783 20.5 10.4993V11.3327H18.8333V10.4993C18.8333 10.2783 18.7455 10.0664 18.5893 9.91009C18.433 9.75381 18.221 9.66602 18 9.66602C17.779 9.66602 17.567 9.75381 17.4107 9.91009C17.2545 10.0664 17.1667 10.2783 17.1667 10.4993V11.3327H15.5V10.4993C15.5 10.2783 15.4122 10.0664 15.2559 9.91009C15.0996 9.75381 14.8877 9.66602 14.6667 9.66602C14.4457 9.66602 14.2337 9.75381 14.0774 9.91009C13.9211 10.0664 13.8333 10.2783 13.8333 10.4993V11.3327H11.3333C11.1123 11.3327 10.9004 11.4205 10.7441 11.5768C10.5878 11.733 10.5 11.945 10.5 12.166V23.8327C10.5 24.4957 10.7634 25.1316 11.2322 25.6004C11.7011 26.0693 12.337 26.3327 13 26.3327H23C23.663 26.3327 24.2989 26.0693 24.7678 25.6004C25.2366 25.1316 25.5 24.4957 25.5 23.8327V12.166C25.5 11.945 25.4122 11.733 25.2559 11.5768C25.0996 11.4205 24.8877 11.3327 24.6667 11.3327ZM23.8333 23.8327C23.8333 24.0537 23.7455 24.2657 23.5893 24.4219C23.433 24.5782 23.221 24.666 23 24.666H13C12.779 24.666 12.567 24.5782 12.4107 24.4219C12.2545 24.2657 12.1667 24.0537 12.1667 23.8327V12.9993H13.8333V13.8327C13.8333 14.0537 13.9211 14.2657 14.0774 14.4219C14.2337 14.5782 14.4457 14.666 14.6667 14.666C14.8877 14.666 15.0996 14.5782 15.2559 14.4219C15.4122 14.2657 15.5 14.0537 15.5 13.8327V12.9993H17.1667V13.8327C17.1667 14.0537 17.2545 14.2657 17.4107 14.4219C17.567 14.5782 17.779 14.666 18 14.666C18.221 14.666 18.433 14.5782 18.5893 14.4219C18.7455 14.2657 18.8333 14.0537 18.8333 13.8327V12.9993H20.5V13.8327C20.5 14.0537 20.5878 14.2657 20.7441 14.4219C20.9004 14.5782 21.1123 14.666 21.3333 14.666C21.5543 14.666 21.7663 14.5782 21.9226 14.4219C22.0789 14.2657 22.1667 14.0537 22.1667 13.8327V12.9993H23.8333V23.8327Z" fill="#3F99FF"/>
</svg>
