<svg width="20" height="20" viewBox="0 0 20 20" fill="none" xmlns="http://www.w3.org/2000/svg">
<g clip-path="url(#clip0_43513_118)">
<rect width="20" height="20" rx="10" fill="#EFF8EF"/>
<line x1="53.4142" y1="-4.58579" x2="-31.5858" y2="80.4142" stroke="#FFD9D6" stroke-width="4"/>
<line x1="70.4142" y1="-4.58579" x2="-14.5858" y2="80.4142" stroke="#FFD9D6" stroke-width="4"/>
<line x1="87.4142" y1="-4.58579" x2="2.41422" y2="80.4142" stroke="#FFD9D6" stroke-width="4"/>
<line x1="104.414" y1="-4.58579" x2="19.4142" y2="80.4142" stroke="#FFD9D6" stroke-width="4"/>
<path d="M9.00444 11.074L7.71744 9.80623C7.61094 9.69972 7.49629 9.64523 7.37351 9.64277C7.25073 9.64029 7.13362 9.69478 7.02218 9.80623C6.91075 9.91767 6.85503 10.0367 6.85503 10.1635C6.85503 10.2902 6.91075 10.4093 7.02218 10.5207L8.57544 12.0739C8.70167 12.2002 8.84467 12.2633 9.00444 12.2633C9.1642 12.2633 9.30719 12.2002 9.43342 12.0739L12.963 8.54436C13.0695 8.43786 13.124 8.32001 13.1265 8.19082C13.1289 8.06163 13.0745 7.94131 12.963 7.82988C12.8516 7.71844 12.7357 7.66272 12.6154 7.66272C12.4951 7.66272 12.3792 7.71844 12.2678 7.82988L9.00444 11.074ZM10.0013 17C9.04185 17 8.13669 16.8178 7.28582 16.4535C6.43493 16.0891 5.69017 15.5878 5.05154 14.9494C4.4129 14.3111 3.91132 13.5667 3.54679 12.7162C3.18226 11.8657 3 10.9607 3 10.0013C3 9.02903 3.18218 8.12067 3.54654 7.2762C3.9109 6.43173 4.41225 5.69017 5.05058 5.05154C5.68893 4.4129 6.43335 3.91132 7.28384 3.54679C8.13432 3.18226 9.03927 3 9.99871 3C10.971 3 11.8793 3.18218 12.7238 3.54654C13.5683 3.9109 14.3098 4.41225 14.9485 5.05058C15.5871 5.68893 16.0887 6.43014 16.4532 7.27422C16.8177 8.11829 17 9.02645 17 9.99871C17 10.9581 16.8178 11.8633 16.4535 12.7142C16.0891 13.5651 15.5878 14.3098 14.9494 14.9485C14.3111 15.5871 13.5699 16.0887 12.7258 16.4532C11.8817 16.8177 10.9735 17 10.0013 17Z" fill="#0FAA28"/>
</g>
<defs>
<clipPath id="clip0_43513_118">
<rect width="20" height="20" rx="10" fill="white"/>
</clipPath>
</defs>
</svg>
