<svg width="20" height="20" viewBox="0 0 20 20" fill="none" xmlns="http://www.w3.org/2000/svg">
<path d="M13.4587 5.00002H13.3337V4.87502V3.33336C13.3342 2.87558 13.1712 2.48336 12.8445 2.15669C12.5178 1.83002 12.1253 1.66669 11.667 1.66669L13.4587 5.00002ZM13.4587 5.00002H16.667C17.1253 5.00002 17.5178 5.16336 17.8445 5.49002C18.1712 5.81669 18.3342 6.20891 18.3337 6.66669V15.8334C18.3337 16.2917 18.1703 16.6842 17.8437 17.0109C17.517 17.3375 17.1248 17.5006 16.667 17.5L13.4587 5.00002ZM1.79199 15.8335V15.8334V6.66669C1.79199 6.2418 1.94195 5.88101 2.24538 5.57758C2.54881 5.27415 2.90928 5.12451 3.33351 5.12502H3.33366H6.66699H6.79199V5.00002V3.33336C6.79199 2.90847 6.94195 2.54768 7.24538 2.24424C7.54881 1.94081 7.90928 1.79117 8.33351 1.79169H8.33366H11.667C12.0919 1.79169 12.4527 1.94164 12.7561 2.24508C13.0595 2.54851 13.2092 2.90897 13.2087 3.3332V3.33336V5.00002V5.12502H13.3337H16.667C17.0919 5.12502 17.4527 5.27498 17.7561 5.57841C18.0595 5.88184 18.2092 6.2423 18.2087 6.66654V6.66669V15.8334C18.2087 16.2582 18.0587 16.619 17.7553 16.9225C17.4518 17.2259 17.0914 17.3755 16.6671 17.375H16.667H3.33366C2.90877 17.375 2.54798 17.2251 2.24455 16.9216C1.94112 16.6182 1.79148 16.2577 1.79199 15.8335ZM8.20866 5.00002V5.12502H8.33366H11.667H11.792V5.00002V3.33336V3.20836H11.667H8.33366H8.20866V3.33336V5.00002ZM16.792 12.5V12.375H16.667H12.5003H12.3753V12.5V14.0417H7.62533V12.5V12.375H7.50033H3.33366H3.20866V12.5V15.8334V15.9584H3.33366H16.667H16.792V15.8334V12.5ZM9.04199 12.5V12.625H9.16699H10.8337H10.9587V12.5V10.8334V10.7084H10.8337H9.16699H9.04199V10.8334V12.5ZM3.20866 10.8334V10.9584H3.33366H7.50033H7.62533V10.8334V9.29169H12.3753V10.8334V10.9584H12.5003H16.667H16.792V10.8334V6.66669V6.54169H16.667H3.33366H3.20866V6.66669V10.8334ZM6.66699 5.00002V4.87502L1.66699 6.66669C1.66699 6.20836 1.83033 5.81586 2.15699 5.48919C2.48366 5.16252 2.87588 4.99947 3.33366 5.00002H6.54199H6.66699Z" fill="#D0CFD2" stroke="white" stroke-width="0.25"/>
</svg>
