<svg xmlns="http://www.w3.org/2000/svg" width="79" height="79" viewBox="0 0 79 79" fill="none">
  <path d="M55.957 23.0391H42.7904V29.6224H55.957C61.3883 29.6224 65.832 34.0661 65.832 39.4974C65.832 44.9286 61.3883 49.3724 55.957 49.3724H42.7904V55.9557H55.957C65.042 55.9557 72.4154 48.5824 72.4154 39.4974C72.4154 30.4124 65.042 23.0391 55.957 23.0391ZM36.207 49.3724H23.0404C17.6091 49.3724 13.1654 44.9286 13.1654 39.4974C13.1654 34.0661 17.6091 29.6224 23.0404 29.6224H36.207V23.0391H23.0404C13.9554 23.0391 6.58203 30.4124 6.58203 39.4974C6.58203 48.5824 13.9554 55.9557 23.0404 55.9557H36.207V49.3724ZM26.332 36.2057H52.6654V42.7891H26.332V36.2057Z" fill="#E6E6E7"/>
</svg>