<svg width="48" height="48" viewBox="0 0 48 48" fill="none" xmlns="http://www.w3.org/2000/svg">
<rect width="48" height="48" rx="24" fill="#A9DEFF"/>
<path d="M24 12C25.5913 12 27.1174 12.6321 28.2426 13.7574C29.3679 14.8826 30 16.4087 30 18C30 19.5913 29.3679 21.1174 28.2426 22.2426C27.1174 23.3679 25.5913 24 24 24C22.4087 24 20.8826 23.3679 19.7574 22.2426C18.6321 21.1174 18 19.5913 18 18C18 16.4087 18.6321 14.8826 19.7574 13.7574C20.8826 12.6321 22.4087 12 24 12ZM24 27C30.63 27 36 29.685 36 33V36H12V33C12 29.685 17.37 27 24 27Z" fill="#3F99FF"/>
</svg>
