<svg width="14" height="15" viewBox="0 0 14 15" fill="none" xmlns="http://www.w3.org/2000/svg">
<path d="M7.00016 0.835938C3.32016 0.835938 0.333496 3.8226 0.333496 7.5026C0.333496 11.1826 3.32016 14.1693 7.00016 14.1693C10.6802 14.1693 13.6668 11.1826 13.6668 7.5026C13.6668 3.8226 10.6802 0.835938 7.00016 0.835938ZM1.66683 7.5026C1.66683 4.55594 4.0535 2.16927 7.00016 2.16927C8.2335 2.16927 9.36683 2.58927 10.2668 3.29594L2.7935 10.7693C2.08683 9.86927 1.66683 8.73594 1.66683 7.5026ZM7.00016 12.8359C5.76683 12.8359 4.6335 12.4159 3.7335 11.7093L11.2068 4.23594C11.9135 5.13594 12.3335 6.26927 12.3335 7.5026C12.3335 10.4493 9.94683 12.8359 7.00016 12.8359Z" fill="#B32318"/>
</svg>
