<svg xmlns="http://www.w3.org/2000/svg" width="14" height="16" viewBox="0 0 14 16" fill="none">
<g id="Group">
<path id="Vector" d="M3 7.33325C3 5.44792 3 4.50459 3.586 3.91925C4.17133 3.33325 5.11467 3.33325 7 3.33325H9C10.8853 3.33325 11.8287 3.33325 12.414 3.91925C13 4.50459 13 5.44792 13 7.33325V10.6666C13 12.5519 13 13.4953 12.414 14.0806C11.8287 14.6666 10.8853 14.6666 9 14.6666H7C5.11467 14.6666 4.17133 14.6666 3.586 14.0806C3 13.4953 3 12.5519 3 10.6666V7.33325Z" stroke="#6A6A70" stroke-width="1.3"/>
<path id="Vector_2" d="M3 12.6666C2.46957 12.6666 1.96086 12.4559 1.58579 12.0808C1.21071 11.7057 1 11.197 1 10.6666V6.66659C1 4.15259 1 2.89525 1.78133 2.11459C2.56267 1.33392 3.81933 1.33325 6.33333 1.33325H9C9.53043 1.33325 10.0391 1.54397 10.4142 1.91904C10.7893 2.29411 11 2.80282 11 3.33325" stroke="#6A6A70" stroke-width="1.3"/>
</g>
</svg>