<svg xmlns="http://www.w3.org/2000/svg" width="56" height="56" viewBox="0 0 56 56" fill="none">
<rect x="4" y="4" width="48" height="48" rx="24" fill="#A9DEFF"/>
<rect x="4" y="4" width="48" height="48" rx="24" stroke="#E5F6FF" stroke-width="8"/>
<path d="M22.2486 38.1636C21.5089 38.1636 20.8827 37.9074 20.3703 37.3949C19.8578 36.8824 19.6016 36.2563 19.6016 35.5165V33.8267C19.6016 33.5537 19.6929 33.3259 19.8755 33.1435C20.058 32.9608 20.2857 32.8695 20.5587 32.8695H22.778V18.7728C22.778 18.6629 22.8225 18.5893 22.9114 18.5521C23.0004 18.5147 23.0855 18.5299 23.1669 18.5979L23.9449 19.2432C24.0372 19.3219 24.1369 19.3613 24.2442 19.3613C24.3514 19.3613 24.4511 19.3219 24.5434 19.2432L25.4312 18.5184C25.5235 18.4397 25.6233 18.4004 25.7306 18.4004C25.8379 18.4004 25.9377 18.4397 26.0299 18.5184L26.9178 19.2432C27.0101 19.3219 27.1098 19.3613 27.2169 19.3613C27.3242 19.3613 27.424 19.3219 27.5163 19.2432L28.4041 18.5184C28.4964 18.4397 28.5962 18.4004 28.7035 18.4004C28.8106 18.4004 28.9103 18.4397 29.0026 18.5184L29.8904 19.2432C29.9827 19.3219 30.0825 19.3613 30.1898 19.3613C30.2971 19.3613 30.3969 19.3219 30.4892 19.2432L31.377 18.5184C31.4693 18.4397 31.569 18.4004 31.6761 18.4004C31.7834 18.4004 31.8832 18.4397 31.9755 18.5184L32.8633 19.2432C32.9556 19.3219 33.0554 19.3613 33.1627 19.3613C33.2698 19.3613 33.3695 19.3219 33.4618 19.2432L34.3497 18.5184C34.4419 18.4397 34.5417 18.4004 34.649 18.4004C34.7563 18.4004 34.8561 18.4397 34.9484 18.5184L35.8362 19.2432C35.9285 19.3219 36.0282 19.3613 36.1354 19.3613C36.2427 19.3613 36.3424 19.3219 36.4347 19.2432L37.2127 18.5979C37.2941 18.5299 37.3792 18.5147 37.4682 18.5521C37.5571 18.5893 37.6016 18.6629 37.6016 18.7728V35.5165C37.6016 36.2563 37.3453 36.8824 36.8329 37.3949C36.3204 37.9074 35.6943 38.1636 34.9545 38.1636H22.2486ZM34.9545 36.5754C35.2545 36.5754 35.506 36.4739 35.7089 36.271C35.9119 36.068 36.0133 35.8165 36.0133 35.5165V20.693H24.3663V32.8695H32.9388C33.2116 32.8695 33.4392 32.9608 33.6217 33.1435C33.8044 33.3259 33.8957 33.5537 33.8957 33.8267V35.5165C33.8957 35.8165 33.9972 36.068 34.2001 36.271C34.403 36.4739 34.6545 36.5754 34.9545 36.5754ZM26.4228 23.0754H30.8415C31.0667 23.0754 31.2553 23.1514 31.4074 23.3035C31.5594 23.4555 31.6354 23.6441 31.6354 23.8695C31.6354 24.0948 31.5594 24.2835 31.4074 24.4354C31.2553 24.5875 31.0667 24.6636 30.8415 24.6636H26.4228C26.1974 24.6636 26.0088 24.5875 25.8568 24.4354C25.7047 24.2835 25.6287 24.0948 25.6287 23.8695C25.6287 23.6441 25.7047 23.4555 25.8568 23.3035C26.0088 23.1514 26.1974 23.0754 26.4228 23.0754ZM26.4228 26.2518H30.8415C31.0667 26.2518 31.2553 26.3279 31.4074 26.48C31.5594 26.632 31.6354 26.8206 31.6354 27.046C31.6354 27.2713 31.5594 27.46 31.4074 27.6119C31.2553 27.764 31.0667 27.8401 30.8415 27.8401H26.4228C26.1974 27.8401 26.0088 27.764 25.8568 27.6119C25.7047 27.46 25.6287 27.2713 25.6287 27.046C25.6287 26.8206 25.7047 26.632 25.8568 26.48C26.0088 26.3279 26.1974 26.2518 26.4228 26.2518ZM33.8345 24.806C33.5753 24.806 33.3544 24.7148 33.1717 24.5323C32.9892 24.3497 32.898 24.1287 32.898 23.8695C32.898 23.6102 32.9892 23.3893 33.1717 23.2067C33.3544 23.0242 33.5753 22.9329 33.8345 22.9329C34.0938 22.9329 34.3147 23.0242 34.4974 23.2067C34.68 23.3893 34.7713 23.6102 34.7713 23.8695C34.7713 24.1287 34.68 24.3497 34.4974 24.5323C34.3147 24.7148 34.0938 24.806 33.8345 24.806ZM33.8345 27.9825C33.5753 27.9825 33.3544 27.8912 33.1717 27.7088C32.9892 27.5261 32.898 27.3052 32.898 27.046C32.898 26.7867 32.9892 26.5658 33.1717 26.3831C33.3544 26.2007 33.5753 26.1094 33.8345 26.1094C34.0938 26.1094 34.3147 26.2007 34.4974 26.3831C34.68 26.5658 34.7713 26.7867 34.7713 27.046C34.7713 27.3052 34.68 27.5261 34.4974 27.7088C34.3147 27.8912 34.0938 27.9825 33.8345 27.9825ZM22.2486 36.5754H32.3074V34.4577H21.1898V35.5165C21.1898 35.8165 21.2913 36.068 21.4942 36.271C21.6972 36.4739 21.9486 36.5754 22.2486 36.5754Z" fill="#146DFF"/>
</svg>