<svg xmlns="http://www.w3.org/2000/svg" width="20" height="20" viewBox="0 0 20 20" fill="none">
  <path d="M10.0002 5.0026C10.9168 5.0026 11.6668 5.7526 11.6668 6.66927C11.6668 7.58594 10.9168 8.33594 10.0002 8.33594C9.0835 8.33594 8.3335 7.58594 8.3335 6.66927C8.3335 5.7526 9.0835 5.0026 10.0002 5.0026ZM10.0002 13.3359C12.2502 13.3359 14.8335 14.4109 15.0002 15.0026H5.00016C5.19183 14.4026 7.7585 13.3359 10.0002 13.3359ZM10.0002 3.33594C8.1585 3.33594 6.66683 4.8276 6.66683 6.66927C6.66683 8.51094 8.1585 10.0026 10.0002 10.0026C11.8418 10.0026 13.3335 8.51094 13.3335 6.66927C13.3335 4.8276 11.8418 3.33594 10.0002 3.33594ZM10.0002 11.6693C7.77516 11.6693 3.3335 12.7859 3.3335 15.0026V16.6693H16.6668V15.0026C16.6668 12.7859 12.2252 11.6693 10.0002 11.6693Z" fill="#146DFF"/>
</svg>