<svg width="20" height="20" viewBox="0 0 20 20" fill="none" xmlns="http://www.w3.org/2000/svg">
<path d="M17.8416 7.62472H18.2082V9.99972C18.2082 10.8244 17.7437 11.9814 16.527 12.2954L16.4586 12.313L16.4384 12.3807C16.2392 13.0503 15.7488 13.7261 14.8595 13.9622L14.7918 13.9802L14.7718 14.0473C14.6481 14.4624 14.4158 14.8772 14.0493 15.1877C13.6846 15.4967 13.1803 15.7081 12.4999 15.7081H9.50823H9.45632L9.41968 15.7448L7.16985 18.003C6.86383 18.309 6.3526 18.5831 5.7999 18.5831C5.37527 18.5831 4.92357 18.4299 4.49662 18.003L1.99851 15.5049C1.9982 15.5046 1.99789 15.5043 1.99758 15.504C1.72974 15.2239 1.48484 14.7986 1.42926 14.3237C1.37431 13.8543 1.50294 13.3277 1.99649 12.8299C1.99665 12.8297 1.99681 12.8296 1.99697 12.8294L2.58766 12.2471L2.6249 12.2103V12.1581V8.87649L6.28829 5.21311L6.30311 5.19829L6.31228 5.17944C6.76116 4.25763 7.63785 3.45805 9.16657 3.45805H11.3249H11.3769L11.4135 3.42118L12.8291 1.99728C13.1092 1.72949 13.5344 1.48465 14.0092 1.42908C14.4788 1.37412 15.0055 1.50281 15.5034 1.99661C15.5034 1.99667 15.5035 1.99673 15.5035 1.99679L18.0013 4.49451C18.0016 4.49483 18.0019 4.49516 18.0022 4.49548C18.2699 4.77538 18.5149 5.20274 18.5705 5.6788C18.6255 6.14936 18.4968 6.67563 18.0039 7.16893C18.0037 7.16918 18.0034 7.16942 18.0032 7.16966L17.7547 7.40984L17.5324 7.62472H17.8416ZM13.4582 13.3331V12.6247H14.1666C14.5353 12.6247 14.7836 12.4977 14.9355 12.2998C15.0828 12.108 15.1249 11.8682 15.1249 11.6664V10.9581H15.8332C16.202 10.9581 16.4503 10.831 16.6022 10.6331C16.7495 10.4413 16.7916 10.2016 16.7916 9.99972V9.16638V9.04138H16.6666H10.8332H10.7082V9.16638C10.7082 9.64641 10.5487 10.243 10.1728 10.7168C9.80044 11.1862 9.21136 11.5414 8.33323 11.5414C7.45511 11.5414 6.86603 11.1862 6.49366 10.7168C6.11773 10.243 5.95823 9.64641 5.95823 9.16638V7.84138V7.53961L5.74485 7.753L4.07818 9.41966L4.04157 9.45627V9.50805V12.7899L3.00318 13.8363L3.00284 13.8367L3.00103 13.8385C2.95701 13.8825 2.87305 13.9664 2.84828 14.0871C2.82065 14.2218 2.87129 14.3633 3.00862 14.5101L3.00856 14.5102L3.01166 14.5133L5.50318 16.9964L5.50333 16.9966L5.50532 16.9986C5.54932 17.0426 5.63323 17.1266 5.75395 17.1513C5.88864 17.179 6.03017 17.1283 6.17696 16.991L6.17701 16.9911L6.17996 16.9881L8.87668 14.2914H12.4999C12.8686 14.2914 13.1169 14.1643 13.2688 13.9665C13.4161 13.7746 13.4582 13.5349 13.4582 13.3331ZM15.4916 7.62472H15.5436L15.5802 7.58785L16.9966 6.16311L16.9969 6.16285L16.9988 6.16096C17.0428 6.11696 17.1268 6.03305 17.1515 5.91233C17.1791 5.77765 17.1285 5.63612 16.9912 5.48932L16.9912 5.48927L16.9881 5.48618L14.4966 3.003L14.4965 3.00285L14.4945 3.00085C14.4505 2.95682 14.3666 2.87286 14.2459 2.8481C14.1112 2.82047 13.9696 2.87111 13.8228 3.00843L13.8228 3.00838L13.8198 3.01133L11.9565 4.87472H9.16657C8.36136 4.87472 7.90396 5.21749 7.65479 5.62397C7.41149 6.02088 7.3749 6.46422 7.3749 6.66638V9.16638C7.3749 9.36825 7.41701 9.60796 7.56429 9.7998C7.7162 9.99765 7.96451 10.1247 8.33323 10.1247C8.70196 10.1247 8.95027 9.99765 9.10218 9.7998C9.24945 9.60796 9.29157 9.36824 9.29157 9.16638V7.62472H15.4916Z" fill="white" stroke="#262527" stroke-width="0.25"/>
</svg>
