<svg width="16" height="17" viewBox="0 0 16 17" fill="none" xmlns="http://www.w3.org/2000/svg">
<path d="M5.25192 1.28376C5.01705 1.53765 4.9 1.84696 4.9 2.2057V5.12807C4.9 6.0296 5.20304 6.8048 5.80842 7.44813C6.41399 8.09165 7.14623 8.41608 8 8.41608C8.85377 8.41608 9.58601 8.09165 10.1916 7.44813C10.797 6.8048 11.1 6.0296 11.1 5.12807V2.2057C11.1 1.84725 10.9842 1.53806 10.7516 1.28412L10.6779 1.35166L10.7516 1.28412C10.5178 1.02881 10.2233 0.9 9.875 0.9C9.66501 0.9 9.47053 0.953065 9.29368 1.05937L9.29367 1.05938C9.15912 1.14027 9.04196 1.24227 8.94231 1.36477C8.84266 1.24227 8.7255 1.14027 8.59095 1.05938L8.59095 1.05937C8.41357 0.952747 8.21576 0.9 8 0.9C7.78424 0.9 7.58643 0.952747 7.40905 1.05937L7.40905 1.05938C7.2745 1.14027 7.15734 1.24227 7.0577 1.36477C6.95804 1.24227 6.84087 1.14027 6.70633 1.05938L6.70632 1.05937C6.52894 0.952747 6.33114 0.9 6.11538 0.9C5.77671 0.9 5.48705 1.02957 5.25192 1.28376ZM5.25192 1.28376L5.32533 1.35166L5.25192 1.28376C5.25192 1.28376 5.25192 1.28376 5.25192 1.28376ZM0.9 16V16.1H1H15H15.1V16V14.2507C15.1 13.7926 14.9742 13.3638 14.7241 12.9662C14.4741 12.5687 14.1373 12.2599 13.7153 12.0407L13.7146 12.0403C12.765 11.5563 11.8139 11.1929 10.8612 10.9504C9.90852 10.708 8.95472 10.5866 8 10.5866C7.04528 10.5866 6.09148 10.708 5.13879 10.9504C4.18615 11.1929 3.23499 11.5563 2.28536 12.0403L2.28467 12.0407C1.86272 12.2599 1.52592 12.5687 1.27593 12.9662C1.02582 13.3638 0.9 13.7926 0.9 14.2507V16ZM13.9 14.2507V14.8373H2.1V14.2507C2.1 14.0367 2.16448 13.8349 2.29672 13.6433C2.42954 13.4509 2.61466 13.2858 2.85526 13.1493C3.67132 12.7294 4.51239 12.4078 5.37858 12.1844C6.24472 11.9609 7.11846 11.8493 8 11.8493C8.88154 11.8493 9.75528 11.9609 10.6214 12.1843C11.4876 12.4078 12.3287 12.7294 13.1447 13.1493C13.3853 13.2858 13.5705 13.4509 13.7033 13.6433C13.8355 13.8349 13.9 14.0367 13.9 14.2507ZM9.33967 6.56056C8.96607 6.95758 8.52123 7.15341 8 7.15341C7.47877 7.15341 7.03393 6.95758 6.66033 6.56056C6.28655 6.16336 6.1 5.68771 6.1 5.12807V2.5714H9.9V5.12807C9.9 5.68771 9.71345 6.16336 9.33967 6.56056Z" fill="#6A6A70" stroke="#6A6A70" stroke-width="0.2"/>
</svg>
