<svg width="14" height="15" viewBox="0 0 14 15" fill="none" xmlns="http://www.w3.org/2000/svg">
<path d="M7 7.94118C6.0375 7.94118 5.21354 7.59559 4.52812 6.90441C3.84271 6.21324 3.5 5.38235 3.5 4.41176V1.32353C3.5 0.955882 3.6276 0.643382 3.88281 0.386029C4.13802 0.128676 4.44792 0 4.8125 0C5.03125 0 5.23906 0.0514706 5.43594 0.154412C5.63281 0.257353 5.78958 0.404412 5.90625 0.595588C6.02292 0.404412 6.17969 0.257353 6.37656 0.154412C6.57344 0.0514706 6.78125 0 7 0C7.21875 0 7.42656 0.0514706 7.62344 0.154412C7.82031 0.257353 7.97708 0.404412 8.09375 0.595588C8.21042 0.404412 8.36719 0.257353 8.56406 0.154412C8.76094 0.0514706 8.96875 0 9.1875 0C9.55208 0 9.86198 0.128676 10.1172 0.386029C10.3724 0.643382 10.5 0.955882 10.5 1.32353V4.41176C10.5 5.38235 10.1573 6.21324 9.47188 6.90441C8.78646 7.59559 7.9625 7.94118 7 7.94118ZM0 15V12.5294C0 12.0294 0.127604 11.5699 0.382812 11.1507C0.638021 10.7316 0.977083 10.4118 1.4 10.1912C2.30417 9.73529 3.22292 9.39338 4.15625 9.16544C5.08958 8.9375 6.0375 8.82353 7 8.82353C7.9625 8.82353 8.91042 8.9375 9.84375 9.16544C10.7771 9.39338 11.6958 9.73529 12.6 10.1912C13.0229 10.4118 13.362 10.7316 13.6172 11.1507C13.8724 11.5699 14 12.0294 14 12.5294V15H0Z" fill="#146DFF"/>
</svg>
