<svg width="15" height="16" viewBox="0 0 15 16" fill="none" xmlns="http://www.w3.org/2000/svg">
<path d="M1.5 3.85026H2.83333M2.83333 3.85026H13.5M2.83333 3.85026V13.1836C2.83333 13.5372 2.97381 13.8764 3.22386 14.1264C3.47391 14.3765 3.81304 14.5169 4.16667 14.5169H10.8333C11.187 14.5169 11.5261 14.3765 11.7761 14.1264C12.0262 13.8764 12.1667 13.5372 12.1667 13.1836V3.85026H2.83333ZM4.83333 3.85026V2.51693C4.83333 2.16331 4.97381 1.82417 5.22386 1.57412C5.47391 1.32407 5.81304 1.18359 6.16667 1.18359H8.83333C9.18696 1.18359 9.52609 1.32407 9.77614 1.57412C10.0262 1.82417 10.1667 2.16331 10.1667 2.51693V3.85026M6.16667 7.18359V11.1836M8.83333 7.18359V11.1836" stroke="#E43F32" stroke-width="1.2" stroke-linecap="round" stroke-linejoin="round"/>
</svg>
