<svg xmlns="http://www.w3.org/2000/svg" width="20" height="20" viewBox="0 0 20 20" fill="none">
  <path d="M5.6675 10.335C5.6675 10.8484 6.08757 11.2685 6.601 11.2685H14.069C14.5824 11.2685 15.0025 10.8484 15.0025 10.335C15.0025 9.82158 14.5824 9.4015 14.069 9.4015H6.601C6.08757 9.4015 5.6675 9.82158 5.6675 10.335ZM10.335 1C5.18208 1 1 5.18208 1 10.335C1 15.4879 5.18208 19.67 10.335 19.67C15.4879 19.67 19.67 15.4879 19.67 10.335C19.67 5.18208 15.4879 1 10.335 1ZM10.335 17.803C6.21827 17.803 2.867 14.4517 2.867 10.335C2.867 6.21827 6.21827 2.867 10.335 2.867C14.4517 2.867 17.803 6.21827 17.803 10.335C17.803 14.4517 14.4517 17.803 10.335 17.803Z" fill="#F57C00"/>
</svg>