<svg width="18" height="14" viewBox="0 0 18 14" fill="none" xmlns="http://www.w3.org/2000/svg">
<path d="M15.719 2.0835L16.0147 1.8987H15.666H2.33268H1.984L2.27968 2.0835L8.94635 6.25016L8.99935 6.28329L9.05235 6.25016L15.719 2.0835ZM15.666 12.0987H15.766V11.9987V3.66536V3.48494L15.613 3.58056L8.99935 7.71411L2.38568 3.58056L2.23268 3.48494V3.66536V11.9987V12.0987H2.33268H15.666ZM15.666 0.432031C16.5275 0.432031 17.2327 1.13726 17.2327 1.9987V11.9987C17.2327 12.8601 16.5275 13.5654 15.666 13.5654H2.33268C1.47124 13.5654 0.766016 12.8601 0.766016 11.9987V1.9987C0.766016 1.13726 1.47124 0.432031 2.33268 0.432031H15.666Z" fill="#146DFF" stroke="#F5F5F6" stroke-width="0.2"/>
</svg>
