<svg width="20" height="20" viewBox="0 0 20 20" fill="none" xmlns="http://www.w3.org/2000/svg">
<path d="M6.70866 11.9791C6.84755 11.6597 6.96213 11.3368 7.05241 11.0104C7.14269 10.684 7.18783 10.3472 7.18783 9.99996C7.18783 9.65274 7.14616 9.31246 7.06283 8.97913C6.97949 8.64579 6.85449 8.32635 6.68783 8.02079L5.52116 8.43746C5.67394 8.67357 5.78158 8.92357 5.84408 9.18746C5.90658 9.45135 5.93783 9.72218 5.93783 9.99996C5.93783 10.2777 5.89963 10.5486 5.82324 10.8125C5.74685 11.0763 5.64616 11.3333 5.52116 11.5833L6.70866 11.9791ZM9.54199 13.1666C9.76421 12.6666 9.92394 12.1493 10.0212 11.6145C10.1184 11.0798 10.167 10.5416 10.167 9.99996C10.167 9.45829 10.1184 8.92357 10.0212 8.39579C9.92394 7.86801 9.76421 7.35413 9.54199 6.85413L8.35449 7.27079C8.56283 7.70135 8.70866 8.14579 8.79199 8.60413C8.87533 9.06246 8.91699 9.52774 8.91699 9.99996C8.91699 10.4722 8.87185 10.9409 8.78158 11.4062C8.6913 11.8715 8.54894 12.3194 8.35449 12.75L9.54199 13.1666ZM12.2712 14.3333C12.5767 13.6388 12.7989 12.9305 12.9378 12.2083C13.0767 11.4861 13.1462 10.75 13.1462 9.99996C13.1462 9.24996 13.0767 8.51385 12.9378 7.79163C12.7989 7.0694 12.5767 6.36801 12.2712 5.68746L11.1045 6.14579C11.3823 6.7569 11.5837 7.38538 11.7087 8.03121C11.8337 8.67704 11.8962 9.33329 11.8962 9.99996C11.8962 10.6666 11.8337 11.3263 11.7087 11.9791C11.5837 12.6319 11.3823 13.2638 11.1045 13.875L12.2712 14.3333ZM10.0003 18.3333C8.86144 18.3333 7.78505 18.1145 6.77116 17.677C5.75727 17.2395 4.87185 16.6423 4.11491 15.8854C3.35796 15.1284 2.76074 14.243 2.32324 13.2291C1.88574 12.2152 1.66699 11.1388 1.66699 9.99996C1.66699 8.84718 1.88574 7.76385 2.32324 6.74996C2.76074 5.73607 3.35796 4.85413 4.11491 4.10413C4.87185 3.35413 5.75727 2.76038 6.77116 2.32288C7.78505 1.88538 8.86144 1.66663 10.0003 1.66663C11.1531 1.66663 12.2364 1.88538 13.2503 2.32288C14.2642 2.76038 15.1462 3.35413 15.8962 4.10413C16.6462 4.85413 17.2399 5.73607 17.6774 6.74996C18.1149 7.76385 18.3337 8.84718 18.3337 9.99996C18.3337 11.1388 18.1149 12.2152 17.6774 13.2291C17.2399 14.243 16.6462 15.1284 15.8962 15.8854C15.1462 16.6423 14.2642 17.2395 13.2503 17.677C12.2364 18.1145 11.1531 18.3333 10.0003 18.3333ZM10.0003 17.0833C11.9725 17.0833 13.6462 16.3923 15.0212 15.0104C16.3962 13.6284 17.0837 11.9583 17.0837 9.99996C17.0837 8.02774 16.3962 6.35413 15.0212 4.97913C13.6462 3.60413 11.9725 2.91663 10.0003 2.91663C8.04199 2.91663 6.37185 3.60413 4.98991 4.97913C3.60796 6.35413 2.91699 8.02774 2.91699 9.99996C2.91699 11.9583 3.60796 13.6284 4.98991 15.0104C6.37185 16.3923 8.04199 17.0833 10.0003 17.0833Z" fill="white"/>
</svg>
