<svg xmlns="http://www.w3.org/2000/svg" width="20" height="20" viewBox="0 0 20 20" fill="none">
  <path d="M14.2451 17.2083L15.1875 16.25L13.75 14.8125L12.7917 15.7549C12.5972 15.9461 12.5 16.1875 12.5 16.4792C12.5 16.7708 12.5972 17.0139 12.7917 17.2083C12.9861 17.4028 13.2292 17.5 13.5208 17.5C13.8125 17.5 14.0539 17.4028 14.2451 17.2083ZM16.25 15.1875L17.2083 14.2451C17.4028 14.0539 17.5 13.8125 17.5 13.5208C17.5 13.2292 17.4028 12.9861 17.2083 12.7917C17.0139 12.5972 16.7708 12.5 16.4792 12.5C16.1875 12.5 15.9461 12.5972 15.7549 12.7917L14.8125 13.75L16.25 15.1875ZM15.2917 18.2708C14.8056 18.7569 14.2118 19 13.5104 19C12.809 19 12.2153 18.7569 11.7292 18.2708C11.2431 17.7847 11 17.191 11 16.4896C11 15.7882 11.2431 15.1944 11.7292 14.7083L14.7083 11.75C15.1944 11.2639 15.7844 11.0208 16.4782 11.0208C17.172 11.0208 17.7658 11.2648 18.2595 11.7527C18.7532 12.2406 19 12.8274 19 13.5131C19 14.1988 18.7528 14.7903 18.2583 15.2875L15.2917 18.2708ZM4.5 17C4.0875 17 3.73437 16.8531 3.44062 16.5594C3.14687 16.2656 3 15.9125 3 15.5V4.5C3 4.0875 3.14687 3.73438 3.44062 3.44063C3.73437 3.14688 4.0875 3 4.5 3H8.0625C8.17361 2.56944 8.40625 2.21181 8.76042 1.92708C9.11458 1.64236 9.52778 1.5 10 1.5C10.4722 1.5 10.8854 1.64236 11.2396 1.92708C11.5937 2.21181 11.8264 2.56944 11.9375 3H15.5C15.9125 3 16.2656 3.14688 16.5594 3.44063C16.8531 3.73438 17 4.0875 17 4.5V9.54167C16.75 9.51389 16.5 9.50347 16.25 9.51042C16 9.51736 15.75 9.55556 15.5 9.625V4.5H4.5V15.5H9.625C9.55555 15.75 9.51389 16 9.5 16.25C9.48611 16.5 9.49305 16.75 9.52083 17H4.5ZM10 4C10.1444 4 10.2639 3.95278 10.3583 3.85833C10.4528 3.76389 10.5 3.64444 10.5 3.5C10.5 3.35556 10.4528 3.23611 10.3583 3.14167C10.2639 3.04722 10.1444 3 10 3C9.85555 3 9.73611 3.04722 9.64167 3.14167C9.54722 3.23611 9.5 3.35556 9.5 3.5C9.5 3.64444 9.54722 3.76389 9.64167 3.85833C9.73611 3.95278 9.85555 4 10 4ZM6 7.5V6H14V7.5H6ZM6 10.75V9.25H14V10.3542C13.9306 10.4097 13.8715 10.4618 13.8229 10.5104L13.6458 10.6875L13.5625 10.75H6ZM6 14V12.5H11.8125L10.6667 13.6458C10.6085 13.7038 10.5557 13.76 10.5084 13.8143C10.4611 13.8687 10.4097 13.9306 10.3542 14H6Z" fill="#146DFF"/>
</svg>