<svg width="20" height="20" viewBox="0 0 20 20" fill="none" xmlns="http://www.w3.org/2000/svg">
<path d="M10.5386 6.76182L10.5385 6.7618C10.4028 6.73887 10.2817 6.66296 10.202 6.55077C10.1222 6.43857 10.0903 6.29928 10.1132 6.16355C10.1361 6.02781 10.212 5.90674 10.3242 5.82697C10.3798 5.78747 10.4426 5.7593 10.509 5.74407L10.5386 6.76182ZM10.5386 6.76182C12.0762 7.01859 13.2312 8.41111 13.2312 10C13.2312 10.1376 13.2859 10.2695 13.3832 10.3668C13.4805 10.4641 13.6124 10.5188 13.75 10.5188C13.8876 10.5188 14.0195 10.4641 14.1168 10.3668C14.2141 10.2695 14.2688 10.1376 14.2688 10C14.2688 7.91134 12.74 6.07908 10.7115 5.7382L10.5386 6.76182ZM15.625 3.64375C15.7626 3.64363 15.8944 3.5889 15.9916 3.49161L15.9916 3.49158L16.616 2.86722C16.6667 2.81985 16.7073 2.76279 16.7355 2.69944C16.7639 2.6358 16.7791 2.56711 16.7804 2.49746C16.7816 2.42781 16.7688 2.35862 16.7427 2.29403C16.7166 2.22943 16.6778 2.17076 16.6285 2.1215C16.5792 2.07224 16.5206 2.0334 16.456 2.00731C16.3914 1.98122 16.3222 1.96841 16.2525 1.96964C16.1829 1.97087 16.1142 1.98611 16.0506 2.01447C15.9872 2.0427 15.9302 2.08334 15.8828 2.13401L15.2584 2.75839L15.2584 2.75842C15.1859 2.83096 15.1366 2.92335 15.1166 3.02392C15.0966 3.12449 15.1069 3.22872 15.1461 3.32346C15.1853 3.41819 15.2518 3.49917 15.337 3.55618C15.4222 3.61319 15.5224 3.64366 15.625 3.64375H15.625ZM4.00839 3.49161L4.00837 3.49163L4.00966 3.49283C4.108 3.58446 4.23807 3.63435 4.37246 3.63198C4.50685 3.62961 4.63507 3.57516 4.73012 3.48012C4.82516 3.38507 4.87961 3.25685 4.88198 3.12246C4.88435 2.98807 4.83446 2.858 4.74283 2.75966L4.74285 2.75964L4.74161 2.75839L4.11661 2.13339L4.11663 2.13337L4.11534 2.13217C4.017 2.04054 3.88693 1.99065 3.75254 1.99302C3.61815 1.99539 3.48992 2.04984 3.39488 2.14488C3.29984 2.23992 3.24539 2.36815 3.24302 2.50254C3.24065 2.63693 3.29054 2.767 3.38217 2.86534L3.38215 2.86536L3.38339 2.86661L4.00839 3.49161ZM10.0512 3.23125H10.0508H10C8.20482 3.23125 6.48316 3.94438 5.21377 5.21377C3.94438 6.48316 3.23125 8.20482 3.23125 10V12.6062H3.125C2.82166 12.6062 2.53074 12.7268 2.31625 12.9412C2.10175 13.1557 1.98125 13.4467 1.98125 13.75V15.625C1.98125 15.9283 2.10175 16.2193 2.31625 16.4338C2.53074 16.6482 2.82166 16.7687 3.125 16.7687H16.875C17.1783 16.7687 17.4693 16.6482 17.6838 16.4338C17.8982 16.2193 18.0188 15.9283 18.0188 15.625V13.75C18.0188 13.4467 17.8982 13.1557 17.6838 12.9412C17.4693 12.7268 17.1783 12.6062 16.875 12.6062H16.7688V10.0781C16.7688 6.33089 13.7557 3.2588 10.0512 3.23125ZM9.48125 0.625V1.25C9.48125 1.38758 9.5359 1.51953 9.63319 1.61681C9.73047 1.7141 9.86242 1.76875 10 1.76875C10.1376 1.76875 10.2695 1.7141 10.3668 1.61681C10.4641 1.51953 10.5188 1.38758 10.5188 1.25V0.625C10.5188 0.487419 10.4641 0.355473 10.3668 0.258189C10.2695 0.160904 10.1376 0.10625 10 0.10625C9.86242 0.10625 9.73047 0.160904 9.63319 0.258188C9.5359 0.355473 9.48125 0.487419 9.48125 0.625ZM15.7312 10.0781V12.6062H4.26875V10C4.26875 8.47998 4.87258 7.02221 5.94739 5.94739C7.02221 4.87258 8.47998 4.26875 10 4.26875H10.0436C13.1794 4.29208 15.7312 6.90187 15.7312 10.0781ZM16.9501 13.6749C16.9701 13.6948 16.9812 13.7218 16.9812 13.75V15.625C16.9812 15.6532 16.9701 15.6802 16.9501 15.7001C16.9302 15.7201 16.9032 15.7312 16.875 15.7312H3.125C3.09682 15.7312 3.0698 15.7201 3.04987 15.7001C3.02994 15.6802 3.01875 15.6532 3.01875 15.625V13.75C3.01875 13.7218 3.02994 13.6948 3.04987 13.6749C3.0698 13.6549 3.09682 13.6438 3.125 13.6438H16.875C16.9032 13.6438 16.9302 13.6549 16.9501 13.6749Z" fill="white" stroke="white" stroke-width="0.1"/>
</svg>
