<svg width="20" height="20" viewBox="0 0 20 20" fill="none" xmlns="http://www.w3.org/2000/svg">
<mask id="path-1-inside-1_46206_442559" fill="white">
<path fill-rule="evenodd" clip-rule="evenodd" d="M9.99912 20L15.857 14.1421C17.0156 12.9835 17.8046 11.5074 18.1242 9.90041C18.4439 8.29343 18.2798 6.62774 17.6528 5.11399C17.0258 3.60025 15.9639 2.30643 14.6016 1.39614C13.2393 0.485861 11.6376 0 9.99912 0C8.36065 0 6.75897 0.485861 5.39663 1.39614C4.0343 2.30643 2.97248 3.60025 2.34546 5.11399C1.71844 6.62774 1.55438 8.29343 1.87402 9.90041C2.19366 11.5074 2.98265 12.9835 4.14122 14.1421L9.99912 20Z"/>
</mask>
<path fill-rule="evenodd" clip-rule="evenodd" d="M9.99912 20L15.857 14.1421C17.0156 12.9835 17.8046 11.5074 18.1242 9.90041C18.4439 8.29343 18.2798 6.62774 17.6528 5.11399C17.0258 3.60025 15.9639 2.30643 14.6016 1.39614C13.2393 0.485861 11.6376 0 9.99912 0C8.36065 0 6.75897 0.485861 5.39663 1.39614C4.0343 2.30643 2.97248 3.60025 2.34546 5.11399C1.71844 6.62774 1.55438 8.29343 1.87402 9.90041C2.19366 11.5074 2.98265 12.9835 4.14122 14.1421L9.99912 20Z" fill="#F4780B"/>
<path d="M15.857 14.1421L16.5641 14.8492L16.5641 14.8492L15.857 14.1421ZM9.99912 20L9.29201 20.7071L9.99912 21.4142L10.7062 20.7071L9.99912 20ZM17.6528 5.11399L18.5767 4.73131V4.73131L17.6528 5.11399ZM14.6016 1.39614L14.046 2.22761H14.046L14.6016 1.39614ZM5.39663 1.39614L5.9522 2.22761L5.39663 1.39614ZM2.34546 5.11399L1.42158 4.73131L2.34546 5.11399ZM4.14122 14.1421L3.43411 14.8492L3.43411 14.8492L4.14122 14.1421ZM15.1499 13.435L9.29201 19.2929L10.7062 20.7071L16.5641 14.8492L15.1499 13.435ZM17.1434 9.70533C16.8624 11.1183 16.1686 12.4163 15.1499 13.435L16.5641 14.8492C17.8625 13.5508 18.7468 11.8965 19.105 10.0955L17.1434 9.70533ZM16.7289 5.49668C17.2802 6.8277 17.4245 8.29232 17.1434 9.70533L19.105 10.0955C19.4632 8.29453 19.2794 6.42778 18.5767 4.73131L16.7289 5.49668ZM14.046 2.22761C15.2439 3.02802 16.1776 4.16566 16.7289 5.49668L18.5767 4.73131C17.8739 3.03484 16.684 1.58484 15.1572 0.564674L14.046 2.22761ZM9.99912 1C11.4398 1 12.8481 1.42721 14.046 2.22761L15.1572 0.564674C13.6304 -0.45549 11.8354 -1 9.99912 -1V1ZM5.9522 2.22761C7.15009 1.42721 8.55843 1 9.99912 1V-1C8.16287 -1 6.36785 -0.45549 4.84107 0.564674L5.9522 2.22761ZM3.26934 5.49668C3.82067 4.16566 4.75431 3.02802 5.9522 2.22761L4.84107 0.564674C3.31428 1.58484 2.12429 3.03484 1.42158 4.73131L3.26934 5.49668ZM2.85481 9.70533C2.57375 8.29232 2.71801 6.8277 3.26934 5.49668L1.42158 4.73131C0.718874 6.42778 0.535007 8.29453 0.893234 10.0955L2.85481 9.70533ZM4.84833 13.435C3.82962 12.4163 3.13586 11.1183 2.85481 9.70533L0.893234 10.0955C1.25146 11.8965 2.13569 13.5508 3.43411 14.8492L4.84833 13.435ZM10.7062 19.2929L4.84833 13.435L3.43411 14.8492L9.29201 20.7071L10.7062 19.2929Z" fill="#DC6803" mask="url(#path-1-inside-1_46206_442559)"/>
<path d="M9.0935 4.39323C9.21028 4.27023 9.35087 4.17229 9.50672 4.10535C9.66256 4.03842 9.83039 4.00391 10 4.00391C10.1696 4.00391 10.3374 4.03842 10.4933 4.10535C10.6491 4.17229 10.7897 4.27023 10.9065 4.39323L13.588 7.21823C13.8524 7.4968 13.9998 7.86617 14 8.25023V10.5017C14 10.7669 13.8946 11.0213 13.7071 11.2088C13.5196 11.3964 13.2652 11.5017 13 11.5017H10.841C10.9735 11.3052 11.118 11.0767 11.236 10.8502C11.358 10.6157 11.5 10.2972 11.5 10.0017C11.5 9.60391 11.342 9.22238 11.0607 8.94107C10.7794 8.65977 10.3978 8.50173 10 8.50173C9.60218 8.50173 9.22064 8.65977 8.93934 8.94107C8.65804 9.22238 8.5 9.60391 8.5 10.0017C8.5 10.2967 8.642 10.6157 8.7645 10.8502C8.882 11.0762 9.0265 11.3052 9.1595 11.5017H7C6.73478 11.5017 6.48043 11.3964 6.29289 11.2088C6.10536 11.0213 6 10.7669 6 10.5017V8.25073C5.9999 7.86633 6.14738 7.49655 6.412 7.21773L9.0935 4.39323ZM10.5435 4.73773C10.4734 4.66398 10.3891 4.60525 10.2956 4.56512C10.2021 4.52499 10.1015 4.5043 9.99975 4.5043C9.89802 4.5043 9.79736 4.52499 9.70388 4.56512C9.6104 4.60525 9.52607 4.66398 9.456 4.73773L7.8425 6.43773C8.2265 6.69023 8.544 6.79123 8.8225 6.81073C9.1485 6.83423 9.45 6.74923 9.7805 6.61423C9.893 6.56823 10.009 6.51523 10.1305 6.46023C10.5795 6.25723 11.0955 6.02323 11.7285 5.98523L10.5435 4.73773ZM9.196 10.5957C9.3195 10.8357 9.482 11.0897 9.629 11.3027C9.66985 11.3638 9.72512 11.4138 9.78992 11.4484C9.85471 11.483 9.92704 11.5011 10.0005 11.5011C10.074 11.5011 10.1463 11.483 10.2111 11.4484C10.2759 11.4138 10.3311 11.3638 10.372 11.3027C10.519 11.0897 10.682 10.8362 10.805 10.5957C10.92 10.3712 11.0005 10.1582 11.0005 10.0017C11.0005 9.73652 10.8951 9.48216 10.7076 9.29463C10.5201 9.10709 10.2657 9.00173 10.0005 9.00173C9.73528 9.00173 9.48093 9.10709 9.29339 9.29463C9.10586 9.48216 9.0005 9.73652 9.0005 10.0017C9.0005 10.1582 9.0805 10.3712 9.196 10.5957ZM10.381 10.3262C10.3342 10.3814 10.2759 10.4258 10.2102 10.4562C10.1444 10.4866 10.0729 10.5024 10.0005 10.5024C9.92809 10.5024 9.85655 10.4866 9.79085 10.4562C9.72514 10.4258 9.66684 10.3814 9.62 10.3262C9.55804 10.2536 9.51819 10.1646 9.50517 10.07C9.49215 9.97541 9.5065 9.87904 9.54652 9.79232C9.58655 9.7056 9.65058 9.63216 9.73103 9.58069C9.81148 9.52921 9.90499 9.50186 10.0005 9.50186C10.096 9.50186 10.1895 9.52921 10.27 9.58069C10.3504 9.63216 10.4145 9.7056 10.4545 9.79232C10.4945 9.87904 10.5089 9.97541 10.4958 10.07C10.4828 10.1646 10.443 10.2536 10.381 10.3262Z" fill="white"/>
</svg>
