<svg width="20" height="20" viewBox="0 0 20 20" fill="none" xmlns="http://www.w3.org/2000/svg">
<rect width="20" height="20" rx="10" fill="#E43F32"/>
<mask id="path-2-inside-1_46206_442555" fill="white">
<path fill-rule="evenodd" clip-rule="evenodd" d="M9.99912 20L15.857 14.1421C17.0156 12.9835 17.8046 11.5074 18.1242 9.90041C18.4439 8.29343 18.2798 6.62774 17.6528 5.11399C17.0258 3.60025 15.9639 2.30643 14.6016 1.39614C13.2393 0.485861 11.6376 0 9.99912 0C8.36065 0 6.75897 0.485861 5.39663 1.39614C4.0343 2.30643 2.97248 3.60025 2.34546 5.11399C1.71844 6.62774 1.55438 8.29343 1.87402 9.90041C2.19366 11.5074 2.98265 12.9835 4.14122 14.1421L9.99912 20Z"/>
</mask>
<path fill-rule="evenodd" clip-rule="evenodd" d="M9.99912 20L15.857 14.1421C17.0156 12.9835 17.8046 11.5074 18.1242 9.90041C18.4439 8.29343 18.2798 6.62774 17.6528 5.11399C17.0258 3.60025 15.9639 2.30643 14.6016 1.39614C13.2393 0.485861 11.6376 0 9.99912 0C8.36065 0 6.75897 0.485861 5.39663 1.39614C4.0343 2.30643 2.97248 3.60025 2.34546 5.11399C1.71844 6.62774 1.55438 8.29343 1.87402 9.90041C2.19366 11.5074 2.98265 12.9835 4.14122 14.1421L9.99912 20Z" fill="#E43F32"/>
<path d="M15.857 14.1421L16.5641 14.8492L16.5641 14.8492L15.857 14.1421ZM9.99912 20L9.29201 20.7071L9.99912 21.4142L10.7062 20.7071L9.99912 20ZM18.1242 9.90041L19.105 10.0955L19.105 10.0955L18.1242 9.90041ZM14.6016 1.39614L14.046 2.22761L14.046 2.22761L14.6016 1.39614ZM5.39663 1.39614L5.9522 2.22761L5.9522 2.22761L5.39663 1.39614ZM2.34546 5.11399L1.42158 4.73131L1.42158 4.73131L2.34546 5.11399ZM4.14122 14.1421L3.43411 14.8492L3.43411 14.8492L4.14122 14.1421ZM15.1499 13.435L9.29201 19.2929L10.7062 20.7071L16.5641 14.8492L15.1499 13.435ZM17.1434 9.70533C16.8624 11.1183 16.1686 12.4163 15.1499 13.435L16.5641 14.8492C17.8625 13.5508 18.7468 11.8965 19.105 10.0955L17.1434 9.70533ZM16.7289 5.49668C17.2802 6.8277 17.4245 8.29232 17.1434 9.70533L19.105 10.0955C19.4632 8.29453 19.2794 6.42778 18.5767 4.73131L16.7289 5.49668ZM14.046 2.22761C15.2439 3.02802 16.1776 4.16566 16.7289 5.49668L18.5767 4.73131C17.8739 3.03484 16.684 1.58484 15.1572 0.564674L14.046 2.22761ZM9.99912 1C11.4398 1 12.8481 1.42721 14.046 2.22761L15.1572 0.564674C13.6304 -0.45549 11.8354 -1 9.99912 -1V1ZM5.9522 2.22761C7.15009 1.42721 8.55843 1 9.99912 1V-1C8.16287 -1 6.36785 -0.45549 4.84107 0.564674L5.9522 2.22761ZM3.26934 5.49668C3.82067 4.16566 4.75431 3.02802 5.9522 2.22761L4.84107 0.564674C3.31428 1.58484 2.12429 3.03484 1.42158 4.73131L3.26934 5.49668ZM2.85481 9.70533C2.57375 8.29232 2.71801 6.8277 3.26934 5.49668L1.42158 4.73131C0.718874 6.42778 0.535007 8.29453 0.893234 10.0955L2.85481 9.70533ZM4.84833 13.435C3.82962 12.4163 3.13586 11.1183 2.85481 9.70533L0.893234 10.0955C1.25146 11.8965 2.13569 13.5508 3.43411 14.8492L4.84833 13.435ZM10.7062 19.2929L4.84833 13.435L3.43411 14.8492L9.29201 20.7071L10.7062 19.2929Z" fill="#E43F32" mask="url(#path-2-inside-1_46206_442555)"/>
<path d="M14.3651 13.1239H13.7507V8.7489C13.7507 8.58314 13.6848 8.42417 13.5676 8.30696C13.4504 8.18975 13.2914 8.1239 13.1257 8.1239H11.4069C11.3655 8.1239 11.3258 8.14036 11.2965 8.16967C11.2671 8.19897 11.2507 8.23871 11.2507 8.28015V13.1239H10.6257V6.26492C10.6267 6.16757 10.6056 6.07125 10.5639 5.98328C10.5222 5.8953 10.4611 5.81795 10.3851 5.7571C10.2815 5.67634 10.1551 5.63026 10.0238 5.62542C9.89253 5.62059 9.76307 5.65723 9.65381 5.73015L6.52881 7.8114C6.44308 7.8686 6.37283 7.9461 6.32431 8.03702C6.27578 8.12793 6.25049 8.22944 6.25069 8.33249V13.1239H5.63623C5.55548 13.1227 5.47727 13.1521 5.41733 13.2063C5.3574 13.2604 5.32019 13.3352 5.31319 13.4157C5.31035 13.4584 5.31633 13.5013 5.33076 13.5417C5.34519 13.582 5.36776 13.6189 5.39706 13.6502C5.42637 13.6814 5.46179 13.7063 5.50112 13.7233C5.54045 13.7403 5.58285 13.749 5.62569 13.7489H14.3757C14.4185 13.749 14.4609 13.7403 14.5003 13.7233C14.5396 13.7063 14.575 13.6814 14.6043 13.6502C14.6336 13.6189 14.6562 13.582 14.6706 13.5417C14.685 13.5013 14.691 13.4584 14.6882 13.4157C14.6812 13.3352 14.644 13.2604 14.584 13.2063C14.5241 13.1521 14.4459 13.1227 14.3651 13.1239ZM7.96944 12.1864C7.96953 12.2292 7.96082 12.2716 7.94383 12.311C7.92685 12.3503 7.90196 12.3857 7.87071 12.415C7.83947 12.4443 7.80253 12.4669 7.76219 12.4813C7.72185 12.4958 7.67898 12.5017 7.63623 12.4989C7.55571 12.4919 7.48082 12.4546 7.42668 12.3946C7.37253 12.3346 7.34314 12.2563 7.34444 12.1755V11.5719C7.34334 11.4912 7.3728 11.4131 7.42692 11.3531C7.48104 11.2932 7.55581 11.256 7.63623 11.2489C7.67898 11.2461 7.72185 11.252 7.76219 11.2665C7.80253 11.2809 7.83947 11.3035 7.87071 11.3328C7.90196 11.3621 7.92685 11.3975 7.94383 11.4368C7.96082 11.4762 7.96953 11.5186 7.96944 11.5614V12.1864ZM7.96944 9.9989C7.96953 10.0417 7.96082 10.0841 7.94383 10.1235C7.92685 10.1628 7.90196 10.1982 7.87071 10.2275C7.83947 10.2568 7.80253 10.2794 7.76219 10.2938C7.72185 10.3083 7.67898 10.3142 7.63623 10.3114C7.55574 10.3043 7.48091 10.267 7.42678 10.207C7.37266 10.147 7.34324 10.0688 7.34444 9.98796V9.38445C7.34334 9.30372 7.3728 9.22556 7.42692 9.16564C7.48104 9.10573 7.55581 9.06849 7.63623 9.0614C7.67898 9.05856 7.72185 9.06454 7.76219 9.07897C7.80253 9.0934 7.83947 9.11597 7.87071 9.14528C7.90196 9.17458 7.92685 9.21 7.94383 9.24933C7.96082 9.28866 7.96953 9.33106 7.96944 9.3739V9.9989ZM9.53194 12.1864C9.53203 12.2292 9.52332 12.2716 9.50633 12.311C9.48935 12.3503 9.46446 12.3857 9.43321 12.415C9.40197 12.4443 9.36503 12.4669 9.32469 12.4813C9.28435 12.4958 9.24148 12.5017 9.19873 12.4989C9.11834 12.4919 9.04357 12.4547 8.98945 12.3949C8.93532 12.335 8.90584 12.2569 8.90694 12.1762V11.5719C8.90594 11.4913 8.93544 11.4132 8.98955 11.3534C9.04366 11.2936 9.11838 11.2564 9.19873 11.2493C9.24148 11.2465 9.28435 11.2524 9.32469 11.2669C9.36503 11.2813 9.40197 11.3039 9.43321 11.3332C9.46446 11.3625 9.48935 11.3979 9.50633 11.4372C9.52332 11.4765 9.53203 11.519 9.53194 11.5618V12.1864ZM9.53194 9.9989C9.53203 10.0417 9.52332 10.0841 9.50633 10.1235C9.48935 10.1628 9.46446 10.1982 9.43321 10.2275C9.40197 10.2568 9.36503 10.2794 9.32469 10.2938C9.28435 10.3083 9.24148 10.3142 9.19873 10.3114C9.11838 10.3043 9.04366 10.2671 8.98955 10.2073C8.93544 10.1475 8.90594 10.0694 8.90694 9.98874V9.38445C8.90594 9.30378 8.93544 9.22572 8.98955 9.16589C9.04366 9.10606 9.11838 9.06888 9.19873 9.06179C9.24148 9.05895 9.28435 9.06493 9.32469 9.07936C9.36503 9.09379 9.40197 9.11636 9.43321 9.14567C9.46446 9.17497 9.48935 9.21039 9.50633 9.24972C9.52332 9.28905 9.53203 9.33145 9.53194 9.37429V9.9989Z" fill="white"/>
</svg>
