<svg width="20" height="20" viewBox="0 0 20 20" fill="none" xmlns="http://www.w3.org/2000/svg">
<mask id="path-1-inside-1_47526_249876" fill="white">
<path fill-rule="evenodd" clip-rule="evenodd" d="M9.99934 20L15.8572 14.1421C17.0158 12.9835 17.8048 11.5074 18.1244 9.90041C18.4441 8.29343 18.28 6.62774 17.653 5.11399C17.026 3.60025 15.9642 2.30643 14.6018 1.39614C13.2395 0.485861 11.6378 0 9.99934 0C8.36087 0 6.75919 0.485861 5.39685 1.39614C4.03451 2.30643 2.9727 3.60025 2.34568 5.11399C1.71866 6.62774 1.5546 8.29343 1.87424 9.90041C2.19388 11.5074 2.98287 12.9835 4.14144 14.1421L9.99934 20Z"/>
</mask>
<path fill-rule="evenodd" clip-rule="evenodd" d="M9.99934 20L15.8572 14.1421C17.0158 12.9835 17.8048 11.5074 18.1244 9.90041C18.4441 8.29343 18.28 6.62774 17.653 5.11399C17.026 3.60025 15.9642 2.30643 14.6018 1.39614C13.2395 0.485861 11.6378 0 9.99934 0C8.36087 0 6.75919 0.485861 5.39685 1.39614C4.03451 2.30643 2.9727 3.60025 2.34568 5.11399C1.71866 6.62774 1.5546 8.29343 1.87424 9.90041C2.19388 11.5074 2.98287 12.9835 4.14144 14.1421L9.99934 20Z" fill="#6C0AC2"/>
<path d="M15.8572 14.1421L16.5643 14.8492L16.5643 14.8492L15.8572 14.1421ZM9.99934 20L9.29223 20.7071L9.99934 21.4142L10.7064 20.7071L9.99934 20ZM17.653 5.11399L18.5769 4.73131L18.5769 4.73131L17.653 5.11399ZM14.6018 1.39614L14.0463 2.22761L14.0463 2.22761L14.6018 1.39614ZM5.39685 1.39614L5.95242 2.22761L5.95242 2.22761L5.39685 1.39614ZM2.34568 5.11399L1.4218 4.73131L1.4218 4.73131L2.34568 5.11399ZM4.14144 14.1421L3.43433 14.8492L3.43433 14.8492L4.14144 14.1421ZM15.1501 13.435L9.29223 19.2929L10.7064 20.7071L16.5643 14.8492L15.1501 13.435ZM17.1436 9.70533C16.8626 11.1183 16.1688 12.4163 15.1501 13.435L16.5643 14.8492C17.8628 13.5508 18.747 11.8965 19.1052 10.0955L17.1436 9.70533ZM16.7291 5.49668C17.2804 6.8277 17.4247 8.29232 17.1436 9.70533L19.1052 10.0955C19.4634 8.29453 19.2796 6.42778 18.5769 4.73131L16.7291 5.49668ZM14.0463 2.22761C15.2441 3.02802 16.1778 4.16566 16.7291 5.49668L18.5769 4.73131C17.8742 3.03484 16.6842 1.58484 15.1574 0.564674L14.0463 2.22761ZM9.99934 1C11.44 1 12.8484 1.42721 14.0463 2.22761L15.1574 0.564674C13.6306 -0.45549 11.8356 -1 9.99934 -1V1ZM5.95242 2.22761C7.15031 1.42721 8.55865 1 9.99934 1V-1C8.16309 -1 6.36807 -0.45549 4.84128 0.564674L5.95242 2.22761ZM3.26956 5.49668C3.82089 4.16566 4.75453 3.02802 5.95242 2.22761L4.84128 0.564674C3.3145 1.58484 2.12451 3.03484 1.4218 4.73131L3.26956 5.49668ZM2.85502 9.70533C2.57397 8.29232 2.71822 6.8277 3.26956 5.49668L1.4218 4.73131C0.719091 6.42778 0.535225 8.29453 0.893451 10.0955L2.85502 9.70533ZM4.84855 13.435C3.82983 12.4163 3.13608 11.1183 2.85502 9.70533L0.893451 10.0955C1.25168 11.8965 2.13591 13.5508 3.43433 14.8492L4.84855 13.435ZM10.7064 19.2929L4.84854 13.435L3.43433 14.8492L9.29223 20.7071L10.7064 19.2929Z" fill="#6C0AC2" mask="url(#path-1-inside-1_47526_249876)"/>
</svg>
