<svg width="33" height="32" viewBox="0 0 33 32" fill="none" xmlns="http://www.w3.org/2000/svg">
<rect x="1" y="0.5" width="31" height="31" rx="7.5" stroke="#2E964B"/>
<rect x="1" y="0.5" width="31" height="31" rx="7.5" fill="#EFF8EF"/>
<rect x="1" y="0.5" width="31" height="31" rx="7.5" stroke="#2E964B"/>
<g clip-path="url(#clip0_36061_60176)">
<path d="M21.4 14.6907C20.9467 12.3907 18.9267 10.6641 16.5 10.6641C14.5733 10.6641 12.9 11.7574 12.0667 13.3574C10.06 13.5707 8.5 15.2707 8.5 17.3307C8.5 19.5374 10.2933 21.3307 12.5 21.3307H21.1667C23.0067 21.3307 24.5 19.8374 24.5 17.9974C24.5 16.2374 23.1333 14.8107 21.4 14.6907ZM21.1667 19.9974H12.5C11.0267 19.9974 9.83333 18.8041 9.83333 17.3307C9.83333 15.9641 10.8533 14.8241 12.2067 14.6841L12.92 14.6107L13.2533 13.9774C13.8867 12.7574 15.1267 11.9974 16.5 11.9974C18.2467 11.9974 19.7533 13.2374 20.0933 14.9507L20.2933 15.9507L21.3133 16.0241C22.3533 16.0907 23.1667 16.9641 23.1667 17.9974C23.1667 19.0974 22.2667 19.9974 21.1667 19.9974ZM15.1667 17.4507L13.7733 16.0574L12.8333 16.9974L15.1667 19.3307L19.1733 15.3241L18.2333 14.3841L15.1667 17.4507Z" fill="#31A150"/>
</g>
<defs>
<clipPath id="clip0_36061_60176">
<rect width="16" height="16" fill="white" transform="translate(8.5 8)"/>
</clipPath>
</defs>
</svg>
