<svg xmlns="http://www.w3.org/2000/svg" width="7" height="10" viewBox="0 0 7 10" fill="none">
  <path fill-rule="evenodd" clip-rule="evenodd" d="M0.5 1.11111C0.5 0.497461 0.997461 0 1.61111 0C2.22476 0 2.72222 0.497461 2.72222 1.11111C2.72222 1.72476 2.22476 2.22222 1.61111 2.22222C0.997461 2.22222 0.5 1.72476 0.5 1.11111ZM4.38889 1.11111C4.38889 0.497461 4.88635 0 5.5 0C6.11365 0 6.61111 0.497461 6.61111 1.11111C6.61111 1.72476 6.11365 2.22222 5.5 2.22222C4.88635 2.22222 4.38889 1.72476 4.38889 1.11111ZM0.5 5C0.5 4.38635 0.997461 3.88889 1.61111 3.88889C2.22476 3.88889 2.72222 4.38635 2.72222 5C2.72222 5.61365 2.22476 6.11111 1.61111 6.11111C0.997461 6.11111 0.5 5.61365 0.5 5ZM4.38889 5C4.38889 4.38635 4.88635 3.88889 5.5 3.88889C6.11365 3.88889 6.61111 4.38635 6.61111 5C6.61111 5.61365 6.11365 6.11111 5.5 6.11111C4.88635 6.11111 4.38889 5.61365 4.38889 5ZM0.5 8.88889C0.5 8.27524 0.997461 7.77778 1.61111 7.77778C2.22476 7.77778 2.72222 8.27524 2.72222 8.88889C2.72222 9.50254 2.22476 10 1.61111 10C0.997461 10 0.5 9.50254 0.5 8.88889ZM4.38889 8.88889C4.38889 8.27524 4.88635 7.77778 5.5 7.77778C6.11365 7.77778 6.61111 8.27524 6.61111 8.88889C6.61111 9.50254 6.11365 10 5.5 10C4.88635 10 4.38889 9.50254 4.38889 8.88889Z" fill="#AEAEB2"/>
</svg>