<svg width="28" height="28" viewBox="0 0 28 28" fill="none" xmlns="http://www.w3.org/2000/svg">
<rect width="28" height="28" rx="4" fill="#F5F5F6"/>
<g clip-path="url(#clip0_40318_77340)">
<path d="M13.1654 19C13.1654 19.9166 12.4154 20.6666 11.4987 20.6666C10.582 20.6666 9.83203 19.9166 9.83203 19C9.83203 18.0833 10.582 17.3333 11.4987 17.3333C12.4154 17.3333 13.1654 18.0833 13.1654 19ZM11.4987 12.3333C10.582 12.3333 9.83203 13.0833 9.83203 14C9.83203 14.9166 10.582 15.6666 11.4987 15.6666C12.4154 15.6666 13.1654 14.9166 13.1654 14C13.1654 13.0833 12.4154 12.3333 11.4987 12.3333ZM11.4987 7.33331C10.582 7.33331 9.83203 8.08331 9.83203 8.99998C9.83203 9.91665 10.582 10.6666 11.4987 10.6666C12.4154 10.6666 13.1654 9.91665 13.1654 8.99998C13.1654 8.08331 12.4154 7.33331 11.4987 7.33331ZM16.4987 10.6666C17.4154 10.6666 18.1654 9.91665 18.1654 8.99998C18.1654 8.08331 17.4154 7.33331 16.4987 7.33331C15.582 7.33331 14.832 8.08331 14.832 8.99998C14.832 9.91665 15.582 10.6666 16.4987 10.6666ZM16.4987 12.3333C15.582 12.3333 14.832 13.0833 14.832 14C14.832 14.9166 15.582 15.6666 16.4987 15.6666C17.4154 15.6666 18.1654 14.9166 18.1654 14C18.1654 13.0833 17.4154 12.3333 16.4987 12.3333ZM16.4987 17.3333C15.582 17.3333 14.832 18.0833 14.832 19C14.832 19.9166 15.582 20.6666 16.4987 20.6666C17.4154 20.6666 18.1654 19.9166 18.1654 19C18.1654 18.0833 17.4154 17.3333 16.4987 17.3333Z" fill="#323232"/>
</g>
<defs>
<clipPath id="clip0_40318_77340">
<rect width="20" height="20" fill="white" transform="translate(4 4)"/>
</clipPath>
</defs>
</svg>
