<svg xmlns="http://www.w3.org/2000/svg" width="56" height="56" viewBox="0 0 56 56" fill="none">
<rect x="4" y="4" width="48" height="48" rx="24" fill="#A9DEFF"/>
<rect x="4" y="4" width="48" height="48" rx="24" stroke="#CFEFFF" stroke-width="8"/>
<path d="M22 27C22 24.172 22 22.757 22.879 21.879C23.757 21 25.172 21 28 21H31C33.828 21 35.243 21 36.121 21.879C37 22.757 37 24.172 37 27V32C37 34.828 37 36.243 36.121 37.121C35.243 38 33.828 38 31 38H28C25.172 38 23.757 38 22.879 37.121C22 36.243 22 34.828 22 32V27Z" stroke="#146DFF" stroke-width="2"/>
<path d="M22 35C21.2044 35 20.4413 34.6839 19.8787 34.1213C19.3161 33.5587 19 32.7956 19 32V26C19 22.229 19 20.343 20.172 19.172C21.344 18.001 23.229 18 27 18H31C31.7956 18 32.5587 18.3161 33.1213 18.8787C33.6839 19.4413 34 20.2044 34 21" stroke="#146DFF" stroke-width="2"/>
</svg>