<svg width="32" height="32" viewBox="0 0 32 32" fill="none" xmlns="http://www.w3.org/2000/svg">
<rect x="0.5" y="0.5" width="31" height="31" rx="7.5" stroke="#DF372B"/>
<rect x="0.5" y="0.5" width="31" height="31" rx="7.5" fill="white"/>
<rect x="0.5" y="0.5" width="31" height="31" rx="7.5" stroke="#DF372B"/>
<path d="M10 12.0007H11.3333M11.3333 12.0007H22M11.3333 12.0007V21.334C11.3333 21.6876 11.4738 22.0267 11.7239 22.2768C11.9739 22.5268 12.313 22.6673 12.6667 22.6673H19.3333C19.687 22.6673 20.0261 22.5268 20.2761 22.2768C20.5262 22.0267 20.6667 21.6876 20.6667 21.334V12.0007H11.3333ZM13.3333 12.0007V10.6673C13.3333 10.3137 13.4738 9.97456 13.7239 9.72451C13.9739 9.47446 14.313 9.33398 14.6667 9.33398H17.3333C17.687 9.33398 18.0261 9.47446 18.2761 9.72451C18.5262 9.97456 18.6667 10.3137 18.6667 10.6673V12.0007M14.6667 15.334V19.334M17.3333 15.334V19.334" stroke="#B32318" stroke-width="1.5" stroke-linecap="round" stroke-linejoin="round"/>
</svg>
