<svg width="56" height="56" viewBox="0 0 56 56" fill="none" xmlns="http://www.w3.org/2000/svg">
<rect x="4" y="4" width="48" height="48" rx="24" fill="#A9DEFF"/>
<rect x="4" y="4" width="48" height="48" rx="24" stroke="#E5F6FF" stroke-width="8"/>
<path d="M33 19.0003C33.2626 18.7377 33.5744 18.5293 33.9176 18.3872C34.2608 18.245 34.6286 18.1719 35 18.1719C35.3714 18.1719 35.7392 18.245 36.0824 18.3872C36.4256 18.5293 36.7374 18.7377 37 19.0003C37.2626 19.2629 37.471 19.5747 37.6131 19.9179C37.7553 20.2611 37.8284 20.6289 37.8284 21.0003C37.8284 21.3717 37.7553 21.7395 37.6131 22.0827C37.471 22.4259 37.2626 22.7377 37 23.0003L23.5 36.5003L18 38.0003L19.5 32.5003L33 19.0003Z" stroke="#146DFF" stroke-width="2" stroke-linecap="round" stroke-linejoin="round"/>
</svg>
