<svg width="31" height="30" viewBox="0 0 31 30" fill="none" xmlns="http://www.w3.org/2000/svg">
<rect width="31" height="30" rx="4" fill="#F5F5F6"/>
<g clip-path="url(#clip0_1924_15670)">
<path d="M21.8709 8.63891C21.4765 8.24452 20.8394 8.24452 20.4451 8.63891L15.5 13.5738L10.555 8.6288C10.1606 8.23441 9.52355 8.23441 9.12916 8.6288C8.73478 9.02319 8.73478 9.66027 9.12916 10.0547L14.0742 14.9997L9.12916 19.9447C8.73478 20.3391 8.73478 20.9762 9.12916 21.3705C9.52355 21.7649 10.1606 21.7649 10.555 21.3705L15.5 16.4255L20.4451 21.3705C20.8394 21.7649 21.4765 21.7649 21.8709 21.3705C22.2653 20.9762 22.2653 20.3391 21.8709 19.9447L16.9259 14.9997L21.8709 10.0547C22.2552 9.67039 22.2552 9.02319 21.8709 8.63891Z" fill="#6A6A70"/>
</g>
<defs>
<clipPath id="clip0_1924_15670">
<rect width="20" height="20" fill="white" transform="translate(5.5 5)"/>
</clipPath>
</defs>
</svg>
