<svg xmlns="http://www.w3.org/2000/svg" width="16" height="16" viewBox="0 0 16 16" fill="none">
  <g clip-path="url(#clip0_33981_52675)">
    <path d="M12.0013 5.33268H11.3346V3.99935C11.3346 2.15935 9.8413 0.666016 8.0013 0.666016C6.1613 0.666016 4.66797 2.15935 4.66797 3.99935V5.33268H4.0013C3.26797 5.33268 2.66797 5.93268 2.66797 6.66602V13.3327C2.66797 14.066 3.26797 14.666 4.0013 14.666H12.0013C12.7346 14.666 13.3346 14.066 13.3346 13.3327V6.66602C13.3346 5.93268 12.7346 5.33268 12.0013 5.33268ZM6.0013 3.99935C6.0013 2.89268 6.89464 1.99935 8.0013 1.99935C9.10797 1.99935 10.0013 2.89268 10.0013 3.99935V5.33268H6.0013V3.99935ZM12.0013 13.3327H4.0013V6.66602H12.0013V13.3327ZM8.0013 11.3327C8.73463 11.3327 9.33463 10.7327 9.33463 9.99935C9.33463 9.26602 8.73463 8.66602 8.0013 8.66602C7.26797 8.66602 6.66797 9.26602 6.66797 9.99935C6.66797 10.7327 7.26797 11.3327 8.0013 11.3327Z" fill="#6A6A70"/>
  </g>
  <defs>
    <clipPath id="clip0_33981_52675">
      <rect width="16" height="16" fill="white"/>
    </clipPath>
  </defs>
</svg>