<svg width="16" height="16" viewBox="0 0 16 16" fill="none" xmlns="http://www.w3.org/2000/svg">
<path d="M11.3339 8.00065C12.0588 8.00053 12.7639 7.76412 13.3423 7.32723C13.9208 6.89035 14.341 6.27682 14.5394 5.57961C14.7378 4.8824 14.7035 4.13952 14.4417 3.46356C14.1799 2.78759 13.705 2.21538 13.0887 1.83364C12.4725 1.45191 11.7486 1.28145 11.0268 1.34811C10.305 1.41477 9.62459 1.71491 9.08869 2.20304C8.5528 2.69117 8.19063 3.34069 8.05707 4.05317C7.92351 4.76564 8.02585 5.50224 8.34857 6.15132C8.40958 6.26918 8.42546 6.40525 8.39323 6.53399L8.19457 7.27599C8.1749 7.34945 8.17491 7.4268 8.1946 7.50026C8.21429 7.57372 8.25296 7.6407 8.30674 7.69448C8.36052 7.74826 8.4275 7.78693 8.50096 7.80662C8.57442 7.82631 8.65177 7.82632 8.72523 7.80665L9.46723 7.60799C9.59597 7.57576 9.73205 7.59164 9.8499 7.65265C10.3109 7.88218 10.8189 8.00132 11.3339 8.00065Z" stroke="#6A6A70" stroke-width="1.2"/>
<path d="M5.35909 4.87804L5.79176 5.65337C6.18176 6.35337 6.02509 7.27071 5.41042 7.88604C5.41042 7.88604 4.66376 8.63204 6.01709 9.98471C7.36842 11.336 8.11509 10.5914 8.11509 10.5914C8.73042 9.97604 9.64842 9.81937 10.3478 10.2094L11.1231 10.6427C12.1798 11.232 12.3044 12.7134 11.3758 13.6427C10.8178 14.2 10.1338 14.6347 9.37843 14.6627C8.10643 14.7114 5.94576 14.3894 3.77842 12.2227C1.61176 10.0554 1.28976 7.89471 1.33842 6.62271C1.36709 5.86737 1.80109 5.18337 2.35842 4.62537C3.28776 3.69671 4.66732 3.66732 5.35842 4.87871L5.35909 4.87804Z" stroke="#6A6A70" stroke-width="1.35" stroke-linecap="round" stroke-linejoin="round"/>
</svg>
