<svg width="16" height="18" viewBox="0 0 16 18" fill="none" xmlns="http://www.w3.org/2000/svg">
<path d="M11.3333 10.668H4.66667C4.44565 10.668 4.23369 10.7558 4.07741 10.912C3.92113 11.0683 3.83333 11.2803 3.83333 11.5013C3.83333 11.7223 3.92113 11.9343 4.07741 12.0906C4.23369 12.2468 4.44565 12.3346 4.66667 12.3346H11.3333C11.5543 12.3346 11.7663 12.2468 11.9226 12.0906C12.0789 11.9343 12.1667 11.7223 12.1667 11.5013C12.1667 11.2803 12.0789 11.0683 11.9226 10.912C11.7663 10.7558 11.5543 10.668 11.3333 10.668ZM11.3333 7.33464H6.33333C6.11232 7.33464 5.90036 7.42243 5.74408 7.57871C5.5878 7.73499 5.5 7.94695 5.5 8.16797C5.5 8.38898 5.5878 8.60094 5.74408 8.75722C5.90036 8.9135 6.11232 9.0013 6.33333 9.0013H11.3333C11.5543 9.0013 11.7663 8.9135 11.9226 8.75722C12.0789 8.60094 12.1667 8.38898 12.1667 8.16797C12.1667 7.94695 12.0789 7.73499 11.9226 7.57871C11.7663 7.42243 11.5543 7.33464 11.3333 7.33464ZM14.6667 2.33464H12.1667V1.5013C12.1667 1.28029 12.0789 1.06833 11.9226 0.912046C11.7663 0.755766 11.5543 0.667969 11.3333 0.667969C11.1123 0.667969 10.9004 0.755766 10.7441 0.912046C10.5878 1.06833 10.5 1.28029 10.5 1.5013V2.33464H8.83333V1.5013C8.83333 1.28029 8.74554 1.06833 8.58926 0.912046C8.43297 0.755766 8.22101 0.667969 8 0.667969C7.77899 0.667969 7.56702 0.755766 7.41074 0.912046C7.25446 1.06833 7.16667 1.28029 7.16667 1.5013V2.33464H5.5V1.5013C5.5 1.28029 5.4122 1.06833 5.25592 0.912046C5.09964 0.755766 4.88768 0.667969 4.66667 0.667969C4.44565 0.667969 4.23369 0.755766 4.07741 0.912046C3.92113 1.06833 3.83333 1.28029 3.83333 1.5013V2.33464H1.33333C1.11232 2.33464 0.900358 2.42243 0.744078 2.57871C0.587797 2.73499 0.5 2.94695 0.5 3.16797V14.8346C0.5 15.4977 0.763392 16.1336 1.23223 16.6024C1.70107 17.0712 2.33696 17.3346 3 17.3346H13C13.663 17.3346 14.2989 17.0712 14.7678 16.6024C15.2366 16.1336 15.5 15.4977 15.5 14.8346V3.16797C15.5 2.94695 15.4122 2.73499 15.2559 2.57871C15.0996 2.42243 14.8877 2.33464 14.6667 2.33464ZM13.8333 14.8346C13.8333 15.0556 13.7455 15.2676 13.5893 15.4239C13.433 15.5802 13.221 15.668 13 15.668H3C2.77899 15.668 2.56702 15.5802 2.41074 15.4239C2.25446 15.2676 2.16667 15.0556 2.16667 14.8346V4.0013H3.83333V4.83464C3.83333 5.05565 3.92113 5.26761 4.07741 5.42389C4.23369 5.58017 4.44565 5.66797 4.66667 5.66797C4.88768 5.66797 5.09964 5.58017 5.25592 5.42389C5.4122 5.26761 5.5 5.05565 5.5 4.83464V4.0013H7.16667V4.83464C7.16667 5.05565 7.25446 5.26761 7.41074 5.42389C7.56702 5.58017 7.77899 5.66797 8 5.66797C8.22101 5.66797 8.43297 5.58017 8.58926 5.42389C8.74554 5.26761 8.83333 5.05565 8.83333 4.83464V4.0013H10.5V4.83464C10.5 5.05565 10.5878 5.26761 10.7441 5.42389C10.9004 5.58017 11.1123 5.66797 11.3333 5.66797C11.5543 5.66797 11.7663 5.58017 11.9226 5.42389C12.0789 5.26761 12.1667 5.05565 12.1667 4.83464V4.0013H13.8333V14.8346Z" fill="#146DFF"/>
</svg>
