<svg xmlns="http://www.w3.org/2000/svg" width="36" height="36" viewBox="0 0 36 36" fill="none">
<rect x="0.5" y="0.5" width="35" height="35" rx="3.5" fill="white"/>
<rect x="0.5" y="0.5" width="35" height="35" rx="3.5" stroke="#E43F32"/>
<path d="M17.168 20.5001H18.8346V22.1667H17.168V20.5001ZM17.168 13.8334H18.8346V18.8334H17.168V13.8334ZM17.993 9.66675C13.393 9.66675 9.66797 13.4001 9.66797 18.0001C9.66797 22.6001 13.393 26.3334 17.993 26.3334C22.6013 26.3334 26.3346 22.6001 26.3346 18.0001C26.3346 13.4001 22.6013 9.66675 17.993 9.66675ZM18.0013 24.6667C14.318 24.6667 11.3346 21.6834 11.3346 18.0001C11.3346 14.3167 14.318 11.3334 18.0013 11.3334C21.6846 11.3334 24.668 14.3167 24.668 18.0001C24.668 21.6834 21.6846 24.6667 18.0013 24.6667Z" fill="#E43F32"/>
</svg>