<svg width="24" height="24" viewBox="0 0 24 24" fill="none" xmlns="http://www.w3.org/2000/svg">
<rect width="24" height="24" rx="4" fill="white"/>
<path d="M13.9995 6L15.5328 7.53333L13.6062 9.44667L14.5528 10.3933L16.4662 8.46667L17.9995 10V6H13.9995ZM5.99951 10L7.53285 8.46667L9.44618 10.3933L10.3928 9.44667L8.46618 7.53333L9.99951 6H5.99951V10ZM9.99951 18L8.46618 16.4667L10.3928 14.5533L9.44618 13.6067L7.53285 15.5333L5.99951 14V18H9.99951ZM17.9995 14L16.4662 15.5333L14.5528 13.6067L13.6062 14.5533L15.5328 16.4667L13.9995 18H17.9995V14Z" fill="black" fill-opacity="0.54"/>
</svg>
