<svg width="56" height="56" viewBox="0 0 56 56" fill="none" xmlns="http://www.w3.org/2000/svg">
<rect x="4" y="4" width="48" height="48" rx="24" fill="#A9DEFF"/>
<rect x="4" y="4" width="48" height="48" rx="24" stroke="#E5F6FF" stroke-width="8"/>
<path d="M23.9992 33.0038L27.9992 37.0038M27.9992 37.0038L31.9992 33.0038M27.9992 37.0038V28.0038M36.8792 34.0938C37.7486 33.4825 38.4006 32.61 38.7405 31.603C39.0804 30.596 39.0906 29.5069 38.7696 28.4937C38.4486 27.4805 37.8131 26.5959 36.9553 25.9684C36.0975 25.3409 35.062 25.003 33.9992 25.0038H32.7392C32.4384 23.8317 31.8757 22.7431 31.0933 21.8199C30.311 20.8968 29.3293 20.1631 28.2224 19.6742C27.1155 19.1853 25.912 18.9539 24.7027 18.9974C23.4934 19.0408 22.3097 19.3581 21.2408 19.9253C20.1718 20.4924 19.2454 21.2947 18.5314 22.2717C17.8174 23.2486 17.3343 24.3749 17.1185 25.5656C16.9027 26.7563 16.9598 27.9804 17.2856 29.1459C17.6113 30.3113 18.1973 31.3876 18.9992 32.2938" stroke="#146DFF" stroke-width="2" stroke-linecap="round" stroke-linejoin="round"/>
</svg>
