<svg width="36" height="36" viewBox="0 0 36 36" fill="none" xmlns="http://www.w3.org/2000/svg">
<rect width="36" height="36" rx="8" fill="#FEF0C7"/>
<path d="M15.5 9.71387H20.5C20.7836 9.71393 21.062 9.78893 21.3076 9.93066C21.5533 10.0725 21.7575 10.2767 21.8994 10.5225L21.9141 10.5479H23C23.4285 10.5479 23.8395 10.7176 24.1426 11.0205C24.4458 11.3237 24.6162 11.7353 24.6162 12.1641V22.1641C24.6162 23.2559 24.1822 24.3032 23.4102 25.0752C22.6382 25.8469 21.5915 26.2802 20.5 26.2803H13C12.5713 26.2803 12.1596 26.1107 11.8564 25.8076C11.5533 25.5044 11.3828 25.0928 11.3828 24.6641V12.1641C11.3828 11.7353 11.5533 11.3237 11.8564 11.0205C12.1596 10.7174 12.5713 10.5479 13 10.5479H14.085L14.0996 10.5225C14.2415 10.2767 14.4456 10.0726 14.6914 9.93066C14.9372 9.78878 15.2162 9.71387 15.5 9.71387ZM12.9492 24.7139H20.5C21.1762 24.7138 21.8246 24.4449 22.3027 23.9668C22.7809 23.4886 23.0498 22.8403 23.0498 22.1641V12.1143H22.1162V12.1641C22.1162 12.5928 21.9458 13.0044 21.6426 13.3076C21.3395 13.6105 20.9285 13.7802 20.5 13.7803H15.5C15.0713 13.7803 14.6596 13.6107 14.3564 13.3076C14.0533 13.0044 13.8828 12.5928 13.8828 12.1641V12.1143H12.9492V24.7139ZM20.9424 15.6191C21.15 15.6192 21.3492 15.7018 21.4961 15.8486C21.6429 15.9955 21.7256 16.1947 21.7256 16.4023C21.7256 16.61 21.6429 16.8092 21.4961 16.9561L17.3711 21.0811C17.2242 21.2279 17.025 21.3105 16.8174 21.3105C16.6097 21.3105 16.4106 21.2279 16.2637 21.0811L14.4961 19.3125C14.3578 19.1644 14.282 18.9683 14.2852 18.7656C14.2883 18.5622 14.3708 18.3675 14.5146 18.2236C14.6583 18.0799 14.8525 17.9975 15.0557 17.9941C15.259 17.9908 15.4561 18.067 15.6045 18.2061L16.7822 19.3838L16.8184 19.4189L20.3887 15.8486C20.5356 15.7019 20.7347 15.6191 20.9424 15.6191ZM15.4492 12.2139H20.5498V11.2803H15.4492V12.2139Z" fill="#F4780B" stroke="#FEF0C7" stroke-width="0.1"/>
</svg>
