<svg width="20" height="20" viewBox="0 0 20 20" fill="none" xmlns="http://www.w3.org/2000/svg">
<path d="M10.5998 9.37499V9.39999H10.6248H17.0623H17.0897L17.0872 9.37274C16.9339 7.67243 16.2473 6.19834 15.0281 4.95126C13.8086 3.70387 12.3411 3.02406 10.6265 2.91254L10.5998 2.91081V2.93749V9.37499ZM9.37275 17.0874L9.39984 17.0897V17.0625V2.93749V2.9103L9.37275 2.91258C7.54696 3.06589 6.00988 3.82575 4.76263 5.19146C3.51539 6.55715 2.8915 8.16038 2.8915 9.99999C2.8915 11.8396 3.51539 13.4428 4.76263 14.8085C6.00988 16.1742 7.54696 16.9341 9.37275 17.0874ZM10.5998 17.0625V17.0892L10.6265 17.0874C12.3411 16.9759 13.8086 16.2961 15.0281 15.0487C16.2473 13.8016 16.9339 12.3275 17.0872 10.6272L17.0897 10.6H17.0623H10.6248H10.5998V10.625V17.0625ZM9.99984 18.3083C8.85031 18.3083 7.77037 18.0902 6.75974 17.6541C5.74863 17.2178 4.86936 16.6258 4.12168 15.8781C3.37401 15.1305 2.78201 14.2512 2.34571 13.2401C1.90962 12.2295 1.6915 11.1495 1.6915 9.99999C1.6915 8.85047 1.90962 7.77052 2.34571 6.75989C2.78201 5.74879 3.37401 4.86951 4.12168 4.12183C4.86936 3.37416 5.74863 2.78216 6.75974 2.34586C7.77037 1.90977 8.85031 1.69166 9.99984 1.69166C11.1494 1.69166 12.2293 1.90977 13.2399 2.34586C14.251 2.78216 15.1303 3.37416 15.878 4.12183C16.6257 4.86951 17.2177 5.74879 17.654 6.75989C18.0901 7.77052 18.3082 8.85047 18.3082 9.99999C18.3082 11.1495 18.0901 12.2295 17.654 13.2401C17.2177 14.2512 16.6257 15.1305 15.878 15.8781C15.1303 16.6258 14.251 17.2178 13.2399 17.6541C12.2293 18.0902 11.1494 18.3083 9.99984 18.3083Z" fill="white" stroke="white" stroke-width="0.05"/>
</svg>
