<svg xmlns="http://www.w3.org/2000/svg" width="79" height="79" viewBox="0 0 79 79" fill="none">
  <path d="M38.5461 59.2158C28.0786 58.722 19.7507 50.0979 19.7507 39.4987C19.7507 28.6033 28.6052 19.7487 39.5007 19.7487C50.0998 19.7487 58.724 28.0766 59.2177 38.5441L52.3052 36.4704C50.9557 30.6441 45.7219 26.332 39.5007 26.332C32.2261 26.332 26.334 32.2241 26.334 39.4987C26.334 45.7199 30.6461 50.9537 36.4723 52.3033L38.5461 59.2158ZM72.4173 39.4987C72.4173 40.4862 72.3844 41.4737 72.2857 42.4612L65.8011 40.5191C65.834 40.1899 65.834 39.8279 65.834 39.4987C65.834 24.9495 54.0498 13.1654 39.5007 13.1654C24.9515 13.1654 13.1673 24.9495 13.1673 39.4987C13.1673 54.0479 24.9515 65.832 39.5007 65.832C39.8298 65.832 40.1919 65.832 40.5211 65.7991L42.4632 72.2837C41.4757 72.3824 40.4882 72.4154 39.5007 72.4154C21.3307 72.4154 6.58398 57.6687 6.58398 39.4987C6.58398 21.3287 21.3307 6.58203 39.5007 6.58203C57.6707 6.58203 72.4173 21.3287 72.4173 39.4987ZM60.0077 53.5212L72.4173 49.3737L39.5007 39.4987L49.3757 72.4154L53.5232 60.0058L67.5786 74.0612L74.0961 67.5437L60.0077 53.5212Z" fill="#E6E6E7"/>
</svg>