<svg width="48" height="48" viewBox="0 0 48 48" fill="none" xmlns="http://www.w3.org/2000/svg">
<circle cx="24" cy="24" r="24" fill="#E6E6E7"/>
<g clip-path="url(#clip0_20564_167987)">
<path d="M17.125 13C16.7603 13 16.4106 13.1449 16.1527 13.4027C15.8949 13.6606 15.75 14.0103 15.75 14.375V33.625C15.75 33.9897 15.8949 34.3394 16.1527 34.5973C16.4106 34.8551 16.7603 35 17.125 35H21.25V30.1875C21.25 30.0052 21.3224 29.8303 21.4514 29.7014C21.5803 29.5724 21.7552 29.5 21.9375 29.5H26.0625C26.2448 29.5 26.4197 29.5724 26.5486 29.7014C26.6776 29.8303 26.75 30.0052 26.75 30.1875V35H30.875C31.2397 35 31.5894 34.8551 31.8473 34.5973C32.1051 34.3394 32.25 33.9897 32.25 33.625V14.375C32.25 14.0103 32.1051 13.6606 31.8473 13.4027C31.5894 13.1449 31.2397 13 30.875 13H17.125ZM18.5 16.4375C18.5 16.2552 18.5724 16.0803 18.7014 15.9514C18.8303 15.8224 19.0052 15.75 19.1875 15.75H20.5625C20.7448 15.75 20.9197 15.8224 21.0486 15.9514C21.1776 16.0803 21.25 16.2552 21.25 16.4375V17.8125C21.25 17.9948 21.1776 18.1697 21.0486 18.2986C20.9197 18.4276 20.7448 18.5 20.5625 18.5H19.1875C19.0052 18.5 18.8303 18.4276 18.7014 18.2986C18.5724 18.1697 18.5 17.9948 18.5 17.8125V16.4375ZM22.625 16.4375C22.625 16.2552 22.6974 16.0803 22.8264 15.9514C22.9553 15.8224 23.1302 15.75 23.3125 15.75H24.6875C24.8698 15.75 25.0447 15.8224 25.1736 15.9514C25.3026 16.0803 25.375 16.2552 25.375 16.4375V17.8125C25.375 17.9948 25.3026 18.1697 25.1736 18.2986C25.0447 18.4276 24.8698 18.5 24.6875 18.5H23.3125C23.1302 18.5 22.9553 18.4276 22.8264 18.2986C22.6974 18.1697 22.625 17.9948 22.625 17.8125V16.4375ZM27.4375 15.75H28.8125C28.9948 15.75 29.1697 15.8224 29.2986 15.9514C29.4276 16.0803 29.5 16.2552 29.5 16.4375V17.8125C29.5 17.9948 29.4276 18.1697 29.2986 18.2986C29.1697 18.4276 28.9948 18.5 28.8125 18.5H27.4375C27.2552 18.5 27.0803 18.4276 26.9514 18.2986C26.8224 18.1697 26.75 17.9948 26.75 17.8125V16.4375C26.75 16.2552 26.8224 16.0803 26.9514 15.9514C27.0803 15.8224 27.2552 15.75 27.4375 15.75ZM18.5 20.5625C18.5 20.3802 18.5724 20.2053 18.7014 20.0764C18.8303 19.9474 19.0052 19.875 19.1875 19.875H20.5625C20.7448 19.875 20.9197 19.9474 21.0486 20.0764C21.1776 20.2053 21.25 20.3802 21.25 20.5625V21.9375C21.25 22.1198 21.1776 22.2947 21.0486 22.4236C20.9197 22.5526 20.7448 22.625 20.5625 22.625H19.1875C19.0052 22.625 18.8303 22.5526 18.7014 22.4236C18.5724 22.2947 18.5 22.1198 18.5 21.9375V20.5625ZM23.3125 19.875H24.6875C24.8698 19.875 25.0447 19.9474 25.1736 20.0764C25.3026 20.2053 25.375 20.3802 25.375 20.5625V21.9375C25.375 22.1198 25.3026 22.2947 25.1736 22.4236C25.0447 22.5526 24.8698 22.625 24.6875 22.625H23.3125C23.1302 22.625 22.9553 22.5526 22.8264 22.4236C22.6974 22.2947 22.625 22.1198 22.625 21.9375V20.5625C22.625 20.3802 22.6974 20.2053 22.8264 20.0764C22.9553 19.9474 23.1302 19.875 23.3125 19.875ZM26.75 20.5625C26.75 20.3802 26.8224 20.2053 26.9514 20.0764C27.0803 19.9474 27.2552 19.875 27.4375 19.875H28.8125C28.9948 19.875 29.1697 19.9474 29.2986 20.0764C29.4276 20.2053 29.5 20.3802 29.5 20.5625V21.9375C29.5 22.1198 29.4276 22.2947 29.2986 22.4236C29.1697 22.5526 28.9948 22.625 28.8125 22.625H27.4375C27.2552 22.625 27.0803 22.5526 26.9514 22.4236C26.8224 22.2947 26.75 22.1198 26.75 21.9375V20.5625ZM19.1875 24H20.5625C20.7448 24 20.9197 24.0724 21.0486 24.2014C21.1776 24.3303 21.25 24.5052 21.25 24.6875V26.0625C21.25 26.2448 21.1776 26.4197 21.0486 26.5486C20.9197 26.6776 20.7448 26.75 20.5625 26.75H19.1875C19.0052 26.75 18.8303 26.6776 18.7014 26.5486C18.5724 26.4197 18.5 26.2448 18.5 26.0625V24.6875C18.5 24.5052 18.5724 24.3303 18.7014 24.2014C18.8303 24.0724 19.0052 24 19.1875 24ZM22.625 24.6875C22.625 24.5052 22.6974 24.3303 22.8264 24.2014C22.9553 24.0724 23.1302 24 23.3125 24H24.6875C24.8698 24 25.0447 24.0724 25.1736 24.2014C25.3026 24.3303 25.375 24.5052 25.375 24.6875V26.0625C25.375 26.2448 25.3026 26.4197 25.1736 26.5486C25.0447 26.6776 24.8698 26.75 24.6875 26.75H23.3125C23.1302 26.75 22.9553 26.6776 22.8264 26.5486C22.6974 26.4197 22.625 26.2448 22.625 26.0625V24.6875ZM27.4375 24H28.8125C28.9948 24 29.1697 24.0724 29.2986 24.2014C29.4276 24.3303 29.5 24.5052 29.5 24.6875V26.0625C29.5 26.2448 29.4276 26.4197 29.2986 26.5486C29.1697 26.6776 28.9948 26.75 28.8125 26.75H27.4375C27.2552 26.75 27.0803 26.6776 26.9514 26.5486C26.8224 26.4197 26.75 26.2448 26.75 26.0625V24.6875C26.75 24.5052 26.8224 24.3303 26.9514 24.2014C27.0803 24.0724 27.2552 24 27.4375 24Z" fill="#86868B"/>
</g>
<defs>
<clipPath id="clip0_20564_167987">
<rect width="22" height="22" fill="white" transform="translate(13 13)"/>
</clipPath>
</defs>
</svg>
