<svg xmlns="http://www.w3.org/2000/svg" width="40" height="40" viewBox="0 0 40 40" fill="none">
  <path d="M36.3032 14.0312L28.5586 19.8045V32.4071H33.9798C35.2471 32.4071 36.3032 31.3863 36.3032 30.0837V14.0312Z" fill="#4CAF50"/>
  <path d="M3.8457 14.0312L11.5551 19.8397V32.4423H6.16909C4.90179 32.4423 3.8457 31.4215 3.8457 30.1189V14.0312Z" fill="#1E88E5"/>
  <path d="M28.5576 10.1641L20.0737 16.5358L11.5898 10.1641V19.8096L20.0737 26.1814L28.5576 19.8096V10.1641Z" fill="#E53935"/>
  <path d="M3.8457 11.0044V14.0318L11.5551 19.8403V10.1595L9.16133 8.36417C8.59809 7.94173 7.89403 7.69531 7.15477 7.69531C5.32422 7.69531 3.8457 9.17383 3.8457 11.0044Z" fill="#C62828"/>
  <path d="M36.3032 11.0044V14.0318L28.5586 19.8051V10.1595L30.9876 8.36417C31.5508 7.94173 32.2549 7.69531 32.9942 7.69531C34.8247 7.69531 36.3032 9.17383 36.3032 11.0044Z" fill="#FBC02D"/>
</svg>