<svg width="33" height="32" viewBox="0 0 33 32" fill="none" xmlns="http://www.w3.org/2000/svg">
<rect x="1" y="0.5" width="31" height="31" rx="7.5" fill="#EFF8EF"/>
<rect x="1" y="0.5" width="31" height="31" rx="7.5" stroke="#2E964B"/>
<g clip-path="url(#clip0_35133_74656)">
<path d="M21.4 14.6946C20.9467 12.3946 18.9267 10.668 16.5 10.668C14.5733 10.668 12.9 11.7613 12.0667 13.3613C10.06 13.5746 8.5 15.2746 8.5 17.3346C8.5 19.5413 10.2933 21.3346 12.5 21.3346H21.1667C23.0067 21.3346 24.5 19.8413 24.5 18.0013C24.5 16.2413 23.1333 14.8146 21.4 14.6946ZM21.1667 20.0013H12.5C11.0267 20.0013 9.83333 18.808 9.83333 17.3346C9.83333 15.968 10.8533 14.828 12.2067 14.688L12.92 14.6146L13.2533 13.9813C13.8867 12.7613 15.1267 12.0013 16.5 12.0013C18.2467 12.0013 19.7533 13.2413 20.0933 14.9546L20.2933 15.9546L21.3133 16.028C22.3533 16.0946 23.1667 16.968 23.1667 18.0013C23.1667 19.1013 22.2667 20.0013 21.1667 20.0013ZM15.1667 17.4546L13.7733 16.0613L12.8333 17.0013L15.1667 19.3346L19.1733 15.328L18.2333 14.388L15.1667 17.4546Z" fill="#31A150"/>
</g>
<defs>
<clipPath id="clip0_35133_74656">
<rect width="16" height="16" fill="white" transform="translate(8.5 8)"/>
</clipPath>
</defs>
</svg>
