<svg width="14" height="14" viewBox="0 0 14 14" fill="none" xmlns="http://www.w3.org/2000/svg">
<path d="M5.68333 10.367L10.4 5.65033L9.63333 4.90033L5.68333 8.85032L3.68333 6.85033L2.93333 7.60033L5.68333 10.367ZM6.66667 14.0003C5.75556 14.0003 4.89444 13.8253 4.08333 13.4753C3.27222 13.1253 2.56389 12.6475 1.95833 12.042C1.35278 11.4364 0.875 10.7281 0.525 9.91699C0.175 9.10588 0 8.24477 0 7.33366C0 6.41144 0.175 5.54477 0.525 4.73366C0.875 3.92255 1.35278 3.21699 1.95833 2.61699C2.56389 2.01699 3.27222 1.54199 4.08333 1.19199C4.89444 0.841992 5.75556 0.666992 6.66667 0.666992C7.58889 0.666992 8.45555 0.841992 9.26667 1.19199C10.0778 1.54199 10.7833 2.01699 11.3833 2.61699C11.9833 3.21699 12.4583 3.92255 12.8083 4.73366C13.1583 5.54477 13.3333 6.41144 13.3333 7.33366C13.3333 8.24477 13.1583 9.10588 12.8083 9.91699C12.4583 10.7281 11.9833 11.4364 11.3833 12.042C10.7833 12.6475 10.0778 13.1253 9.26667 13.4753C8.45555 13.8253 7.58889 14.0003 6.66667 14.0003Z" fill="#31A150"/>
</svg>
