<svg xmlns="http://www.w3.org/2000/svg" width="20" height="20" viewBox="0 0 20 20" fill="none">
  <g clip-path="url(#clip0_29015_53956)">
    <path d="M7.57533 7.4974C7.77125 6.94045 8.15795 6.47082 8.66695 6.17167C9.17596 5.87253 9.77441 5.76318 10.3563 5.86299C10.9382 5.9628 11.466 6.26533 11.8462 6.717C12.2264 7.16867 12.4345 7.74033 12.4337 8.33073C12.4337 9.9974 9.93366 10.8307 9.93366 10.8307M10.0003 14.1641H10.0087M18.3337 9.9974C18.3337 14.5998 14.6027 18.3307 10.0003 18.3307C5.39795 18.3307 1.66699 14.5998 1.66699 9.9974C1.66699 5.39502 5.39795 1.66406 10.0003 1.66406C14.6027 1.66406 18.3337 5.39502 18.3337 9.9974Z" stroke="#3C3C3D" stroke-width="1.5" stroke-linecap="round" stroke-linejoin="round"/>
  </g>
  <defs>
    <clipPath id="clip0_29015_53956">
      <rect width="20" height="20" fill="white"/>
    </clipPath>
  </defs>
</svg>