<svg width="32" height="32" viewBox="0 0 32 32" fill="none" xmlns="http://www.w3.org/2000/svg">
<rect x="0.5" y="0.5" width="31" height="31" rx="7.5" fill="white"/>
<rect x="0.5" y="0.5" width="31" height="31" rx="7.5" stroke="#AEAEB2"/>
<path d="M20 18C18.8954 18 18 18.8954 18 20C18 21.1046 18.8954 22 20 22C21.1046 22 22 21.1046 22 20C22 18.8954 21.1046 18 20 18ZM20 18V13.3333C20 12.9797 19.8595 12.6406 19.6095 12.3905C19.3594 12.1405 19.0203 12 18.6667 12H16.6667M12 14C13.1046 14 14 13.1046 14 12C14 10.8954 13.1046 10 12 10C10.8954 10 10 10.8954 10 12C10 13.1046 10.8954 14 12 14ZM12 14V22" stroke="#6A6A70" stroke-width="1.5" stroke-linecap="round" stroke-linejoin="round"/>
</svg>
