<svg width="14" height="14" viewBox="0 0 14 14" fill="none" xmlns="http://www.w3.org/2000/svg">
<g id="target_FILL0_wght400_GRAD0_opsz20 1">
<path id="Vector" d="M7.00326 12.835C6.20017 12.835 5.44408 12.6831 4.73496 12.3792C4.02585 12.0753 3.40537 11.6574 2.87354 11.1256C2.3417 10.5937 1.92383 9.97347 1.61992 9.26478C1.31602 8.55608 1.16406 7.79885 1.16406 6.99308C1.16406 6.1873 1.31602 5.43239 1.61992 4.72834C1.92383 4.02429 2.3417 3.40635 2.87354 2.87451C3.40537 2.34268 4.02563 1.9248 4.73432 1.6209C5.44302 1.31699 6.20026 1.16504 7.00602 1.16504C7.8118 1.16504 8.56671 1.31699 9.27076 1.6209C9.97481 1.9248 10.5928 2.34268 11.1246 2.87451C11.6564 3.40635 12.0743 4.02542 12.3782 4.73174C12.6821 5.43807 12.8341 6.19277 12.8341 6.99585C12.8341 7.79893 12.6821 8.55503 12.3782 9.26414C12.0743 9.97326 11.6564 10.5937 11.1246 11.1256C10.5928 11.6574 9.97368 12.0753 9.26736 12.3792C8.56103 12.6831 7.80633 12.835 7.00326 12.835ZM6.99906 11.741C8.31599 11.741 9.43538 11.2801 10.3572 10.3582C11.2791 9.43635 11.74 8.31697 11.74 7.00004C11.74 5.68311 11.2791 4.56372 10.3572 3.64188C9.43538 2.72003 8.31599 2.2591 6.99906 2.2591C5.68214 2.2591 4.56275 2.72003 3.6409 3.64188C2.71905 4.56372 2.25813 5.68311 2.25813 7.00004C2.25813 8.31697 2.71905 9.43635 3.6409 10.3582C4.56275 11.2801 5.68214 11.741 6.99906 11.741ZM6.99906 10.6469C5.98604 10.6469 5.12497 10.2924 4.41586 9.58324C3.70674 8.87413 3.35219 8.01306 3.35219 7.00004C3.35219 5.98702 3.70674 5.12595 4.41586 4.41684C5.12497 3.70772 5.98604 3.35316 6.99906 3.35316C8.01208 3.35316 8.87315 3.70772 9.58227 4.41684C10.2914 5.12595 10.6459 5.98702 10.6459 7.00004C10.6459 8.01306 10.2914 8.87413 9.58227 9.58324C8.87315 10.2924 8.01208 10.6469 6.99906 10.6469ZM6.99906 9.55285C7.70818 9.55285 8.31092 9.30466 8.8073 8.80828C9.30369 8.3119 9.55188 7.70915 9.55188 7.00004C9.55188 6.29092 9.30369 5.68818 8.8073 5.1918C8.31092 4.69542 7.70818 4.44723 6.99906 4.44723C6.28995 4.44723 5.6872 4.69542 5.19082 5.1918C4.69444 5.68818 4.44625 6.29092 4.44625 7.00004C4.44625 7.70915 4.69444 8.3119 5.19082 8.80828C5.6872 9.30466 6.28995 9.55285 6.99906 9.55285ZM6.99584 8.0941C6.69408 8.0941 6.43684 7.98666 6.2241 7.77178C6.01137 7.55689 5.905 7.29857 5.905 6.99682C5.905 6.69506 6.01244 6.43781 6.22732 6.22508C6.44222 6.01234 6.70054 5.90598 7.00228 5.90598C7.30404 5.90598 7.56129 6.01342 7.77402 6.2283C7.98676 6.44319 8.09313 6.70151 8.09313 7.00326C8.09313 7.30502 7.98568 7.56227 7.7708 7.775C7.55591 7.98773 7.29759 8.0941 6.99584 8.0941Z" fill="#6A6A70"/>
</g>
</svg>
