<svg width="17" height="20" viewBox="0 0 17 20" fill="none" xmlns="http://www.w3.org/2000/svg">
<mask id="path-1-inside-1_43742_108549" fill="white">
<path fill-rule="evenodd" clip-rule="evenodd" d="M8.70224 20L14.5601 14.1421C15.7187 12.9835 16.5077 11.5074 16.8273 9.90041C17.147 8.29343 16.9829 6.62774 16.3559 5.11399C15.7289 3.60025 14.6671 2.30643 13.3047 1.39614C11.9424 0.485861 10.3407 0 8.70224 0C7.06377 0 5.4621 0.485861 4.09976 1.39614C2.73742 2.30643 1.6756 3.60025 1.04858 5.11399C0.421565 6.62774 0.257503 8.29343 0.577145 9.90041C0.896787 11.5074 1.68578 12.9835 2.84434 14.1421L8.70224 20Z"/>
</mask>
<path fill-rule="evenodd" clip-rule="evenodd" d="M8.70224 20L14.5601 14.1421C15.7187 12.9835 16.5077 11.5074 16.8273 9.90041C17.147 8.29343 16.9829 6.62774 16.3559 5.11399C15.7289 3.60025 14.6671 2.30643 13.3047 1.39614C11.9424 0.485861 10.3407 0 8.70224 0C7.06377 0 5.4621 0.485861 4.09976 1.39614C2.73742 2.30643 1.6756 3.60025 1.04858 5.11399C0.421565 6.62774 0.257503 8.29343 0.577145 9.90041C0.896787 11.5074 1.68578 12.9835 2.84434 14.1421L8.70224 20Z" fill="#3F99FF"/>
<path d="M14.5601 14.1421L15.2673 14.8492L15.2673 14.8492L14.5601 14.1421ZM8.70224 20L7.99514 20.7071L8.70224 21.4142L9.40935 20.7071L8.70224 20ZM16.3559 5.11399L17.2798 4.73131V4.73131L16.3559 5.11399ZM13.3047 1.39614L12.7492 2.22761H12.7492L13.3047 1.39614ZM4.09976 1.39614L4.65533 2.22761L4.09976 1.39614ZM1.04858 5.11399L0.124706 4.73131L1.04858 5.11399ZM2.84434 14.1421L2.13723 14.8492L2.13724 14.8492L2.84434 14.1421ZM13.853 13.435L7.99514 19.2929L9.40935 20.7071L15.2673 14.8492L13.853 13.435ZM15.8466 9.70533C15.5655 11.1183 14.8717 12.4163 13.853 13.435L15.2673 14.8492C16.5657 13.5508 17.4499 11.8965 17.8081 10.0955L15.8466 9.70533ZM15.432 5.49668C15.9834 6.8277 16.1276 8.29232 15.8466 9.70533L17.8081 10.0955C18.1664 8.29453 17.9825 6.42778 17.2798 4.73131L15.432 5.49668ZM12.7492 2.22761C13.947 3.02802 14.8807 4.16566 15.432 5.49668L17.2798 4.73131C16.5771 3.03484 15.3871 1.58484 13.8603 0.564674L12.7492 2.22761ZM8.70224 1C10.1429 1 11.5513 1.42721 12.7492 2.22761L13.8603 0.564674C12.3335 -0.45549 10.5385 -1 8.70224 -1V1ZM4.65533 2.22761C5.85322 1.42721 7.26155 1 8.70224 1V-1C6.86599 -1 5.07098 -0.45549 3.54419 0.564674L4.65533 2.22761ZM1.97246 5.49668C2.52379 4.16566 3.45744 3.02802 4.65533 2.22761L3.54419 0.564674C2.0174 1.58484 0.827414 3.03484 0.124706 4.73131L1.97246 5.49668ZM1.55793 9.70533C1.27687 8.29232 1.42113 6.8277 1.97246 5.49668L0.124706 4.73131C-0.578001 6.42778 -0.761868 8.29453 -0.403641 10.0955L1.55793 9.70533ZM3.55146 13.435C2.53274 12.4163 1.83899 11.1183 1.55793 9.70533L-0.403641 10.0955C-0.0454147 11.8965 0.838815 13.5508 2.13723 14.8492L3.55146 13.435ZM9.40935 19.2929L3.55145 13.435L2.13724 14.8492L7.99514 20.7071L9.40935 19.2929Z" fill="#0058FF" mask="url(#path-1-inside-1_43742_108549)"/>
</svg>
