<svg width="42" height="56" viewBox="0 0 42 56" fill="none" xmlns="http://www.w3.org/2000/svg">
<g filter="url(#filter0_d_23759_179045)">
<rect x="28" y="38" width="28" height="28" rx="14" transform="rotate(180 28 38)" fill="white"/>
<rect x="27.5" y="37.5" width="27" height="27" rx="13.5" transform="rotate(180 27.5 37.5)" stroke="#AEAEB2"/>
<path d="M10.5096 29.4968C10.2317 29.7747 9.7811 29.7747 9.50319 29.4968C9.22529 29.2189 9.22529 28.7683 9.50319 28.4904L13.4936 24.5L9.50319 20.5096C9.22529 20.2317 9.22529 19.7811 9.50319 19.5032C9.7811 19.2253 10.2317 19.2253 10.5096 19.5032L15.0064 24C15.2825 24.2761 15.2825 24.7239 15.0064 25L10.5096 29.4968ZM18.8532 29.1809C18.4654 29.1809 18.1511 28.8665 18.1511 28.4787V20.5213C18.1511 20.1335 18.4654 19.8191 18.8532 19.8191C19.241 19.8191 19.5553 20.1335 19.5553 20.5213V28.4787C19.5553 28.8665 19.241 29.1809 18.8532 29.1809Z" fill="#AEAEB2"/>
</g>
<defs>
<filter id="filter0_d_23759_179045" x="-14" y="0" width="56" height="56" filterUnits="userSpaceOnUse" color-interpolation-filters="sRGB">
<feFlood flood-opacity="0" result="BackgroundImageFix"/>
<feColorMatrix in="SourceAlpha" type="matrix" values="0 0 0 0 0 0 0 0 0 0 0 0 0 0 0 0 0 0 127 0" result="hardAlpha"/>
<feOffset dy="4"/>
<feGaussianBlur stdDeviation="7"/>
<feComposite in2="hardAlpha" operator="out"/>
<feColorMatrix type="matrix" values="0 0 0 0 0 0 0 0 0 0 0 0 0 0 0 0 0 0 0.1 0"/>
<feBlend mode="normal" in2="BackgroundImageFix" result="effect1_dropShadow_23759_179045"/>
<feBlend mode="normal" in="SourceGraphic" in2="effect1_dropShadow_23759_179045" result="shape"/>
</filter>
</defs>
</svg>
