<svg xmlns="http://www.w3.org/2000/svg" width="33" height="32" viewBox="0 0 33 32" fill="none">
<rect width="32" height="32" transform="translate(0.5)" fill="white"/>
<rect x="1" y="0.5" width="31" height="31" rx="7.5" stroke="#444446"/>
<rect x="1" y="0.5" width="31" height="31" rx="7.5" fill="#F5F5F6"/>
<rect x="1" y="0.5" width="31" height="31" rx="7.5" stroke="#5B5B5F"/>
<g clip-path="url(#clip0_35881_131319)">
<path d="M18.5 8.66406H14.5V9.9974H18.5V8.66406ZM15.8333 17.3307H17.1667V13.3307H15.8333V17.3307ZM21.1867 12.9241L22.1333 11.9774C21.8467 11.6374 21.5333 11.3174 21.1933 11.0374L20.2467 11.9841C19.2133 11.1574 17.9133 10.6641 16.5 10.6641C13.1867 10.6641 10.5 13.3507 10.5 16.6641C10.5 19.9774 13.18 22.6641 16.5 22.6641C19.82 22.6641 22.5 19.9774 22.5 16.6641C22.5 15.2507 22.0067 13.9507 21.1867 12.9241ZM16.5 21.3307C13.92 21.3307 11.8333 19.2441 11.8333 16.6641C11.8333 14.0841 13.92 11.9974 16.5 11.9974C19.08 11.9974 21.1667 14.0841 21.1667 16.6641C21.1667 19.2441 19.08 21.3307 16.5 21.3307Z" fill="#5B5B5F"/>
</g>
<defs>
<clipPath id="clip0_35881_131319">
<rect width="16" height="16" fill="white" transform="translate(8.5 8)"/>
</clipPath>
</defs>
</svg>