<svg width="20" height="20" viewBox="0 0 20 20" fill="none" xmlns="http://www.w3.org/2000/svg">
<g clip-path="url(#clip0_43513_184)">
<rect width="20" height="20" rx="10" fill="#F5F5F6"/>
<line x1="53.4142" y1="-4.58579" x2="-31.5858" y2="80.4142" stroke="#FFD9D6" stroke-width="4"/>
<line x1="70.4142" y1="-4.58579" x2="-14.5858" y2="80.4142" stroke="#FFD9D6" stroke-width="4"/>
<line x1="87.4142" y1="-4.58579" x2="2.41422" y2="80.4142" stroke="#FFD9D6" stroke-width="4"/>
<line x1="104.414" y1="-4.58579" x2="19.4142" y2="80.4142" stroke="#FFD9D6" stroke-width="4"/>
<rect x="3" y="3" width="14" height="14" rx="7" fill="#E43F32"/>
<g clip-path="url(#clip1_43513_184)">
<path d="M8.5 10H11.5M13.75 10C13.75 12.0711 12.0711 13.75 10 13.75C7.92893 13.75 6.25 12.0711 6.25 10C6.25 7.92893 7.92893 6.25 10 6.25C12.0711 6.25 13.75 7.92893 13.75 10Z" stroke="white" stroke-width="0.7" stroke-linecap="round" stroke-linejoin="round"/>
</g>
</g>
<defs>
<clipPath id="clip0_43513_184">
<rect width="20" height="20" rx="10" fill="white"/>
</clipPath>
<clipPath id="clip1_43513_184">
<rect width="9" height="9" fill="white" transform="translate(5.5 5.5)"/>
</clipPath>
</defs>
</svg>
