<svg width="16" height="16" viewBox="0 0 16 16" fill="none" xmlns="http://www.w3.org/2000/svg">
<path d="M8.0026 11.332C8.19149 11.332 8.34983 11.2681 8.4776 11.1404C8.60538 11.0126 8.66927 10.8543 8.66927 10.6654C8.66927 10.4765 8.60538 10.3181 8.4776 10.1904C8.34983 10.0626 8.19149 9.9987 8.0026 9.9987C7.81371 9.9987 7.65538 10.0626 7.5276 10.1904C7.39983 10.3181 7.33594 10.4765 7.33594 10.6654C7.33594 10.8543 7.39983 11.0126 7.5276 11.1404C7.65538 11.2681 7.81371 11.332 8.0026 11.332ZM8.0026 8.66536C8.19149 8.66536 8.34983 8.60148 8.4776 8.4737C8.60538 8.34592 8.66927 8.18759 8.66927 7.9987V5.33203C8.66927 5.14314 8.60538 4.98481 8.4776 4.85703C8.34983 4.72925 8.19149 4.66536 8.0026 4.66536C7.81371 4.66536 7.65538 4.72925 7.5276 4.85703C7.39983 4.98481 7.33594 5.14314 7.33594 5.33203V7.9987C7.33594 8.18759 7.39983 8.34592 7.5276 8.4737C7.65538 8.60148 7.81371 8.66536 8.0026 8.66536ZM8.0026 14.6654C7.08038 14.6654 6.21372 14.4904 5.4026 14.1404C4.59149 13.7904 3.88594 13.3154 3.28594 12.7154C2.68594 12.1154 2.21094 11.4098 1.86094 10.5987C1.51094 9.78759 1.33594 8.92092 1.33594 7.9987C1.33594 7.07648 1.51094 6.20981 1.86094 5.3987C2.21094 4.58759 2.68594 3.88203 3.28594 3.28203C3.88594 2.68203 4.59149 2.20703 5.4026 1.85703C6.21372 1.50703 7.08038 1.33203 8.0026 1.33203C8.92483 1.33203 9.79149 1.50703 10.6026 1.85703C11.4137 2.20703 12.1193 2.68203 12.7193 3.28203C13.3193 3.88203 13.7943 4.58759 14.1443 5.3987C14.4943 6.20981 14.6693 7.07648 14.6693 7.9987C14.6693 8.92092 14.4943 9.78759 14.1443 10.5987C13.7943 11.4098 13.3193 12.1154 12.7193 12.7154C12.1193 13.3154 11.4137 13.7904 10.6026 14.1404C9.79149 14.4904 8.92483 14.6654 8.0026 14.6654Z" fill="#146DFF"/>
</svg>
