<svg width="15" height="17" viewBox="0 0 15 17" fill="none" xmlns="http://www.w3.org/2000/svg">
<path d="M2.20588 16.4693C1.58941 16.4693 1.06765 16.2558 0.640588 15.8288C0.213529 15.4017 0 14.8799 0 14.2635V12.8552C0 12.6277 0.0761031 12.4379 0.228309 12.2859C0.380368 12.1337 0.570147 12.0576 0.797647 12.0576H2.64706V0.310368C2.64706 0.21875 2.68412 0.157426 2.75824 0.126397C2.83235 0.0952202 2.90331 0.10794 2.9711 0.164558L3.61941 0.702352C3.69632 0.767941 3.77949 0.800735 3.8689 0.800735C3.95816 0.800735 4.04125 0.767941 4.11816 0.702352L4.85802 0.0983815C4.93493 0.0327933 5.01809 0 5.1075 0C5.19691 0 5.28007 0.0327933 5.35699 0.0983815L6.09684 0.702352C6.17375 0.767941 6.25684 0.800735 6.3461 0.800735C6.43551 0.800735 6.51868 0.767941 6.59559 0.702352L7.33544 0.0983815C7.41235 0.0327933 7.49552 0 7.58493 0C7.67419 0 7.75728 0.0327933 7.83419 0.0983815L8.57404 0.702352C8.65096 0.767941 8.73412 0.800735 8.82353 0.800735C8.91294 0.800735 8.9961 0.767941 9.07302 0.702352L9.81287 0.0983815C9.88978 0.0327933 9.97287 0 10.0621 0C10.1515 0 10.2347 0.0327933 10.3116 0.0983815L11.0515 0.702352C11.1284 0.767941 11.2115 0.800735 11.301 0.800735C11.3902 0.800735 11.4733 0.767941 11.5502 0.702352L12.2901 0.0983815C12.367 0.0327933 12.4501 0 12.5396 0C12.629 0 12.7121 0.0327933 12.789 0.0983815L13.5289 0.702352C13.6058 0.767941 13.6889 0.800735 13.7782 0.800735C13.8676 0.800735 13.9507 0.767941 14.0276 0.702352L14.676 0.164558C14.7437 0.10794 14.8147 0.0952202 14.8888 0.126397C14.9629 0.157426 15 0.21875 15 0.310368V14.2635C15 14.8799 14.7865 15.4017 14.3594 15.8288C13.9324 16.2558 13.4106 16.4693 12.7941 16.4693H2.20588ZM12.7941 15.1458C13.0441 15.1458 13.2537 15.0613 13.4228 14.8921C13.5919 14.723 13.6765 14.5135 13.6765 14.2635V1.91051H3.97059V12.0576H11.1143C11.3417 12.0576 11.5314 12.1337 11.6835 12.2859C11.8357 12.4379 11.9118 12.6277 11.9118 12.8552V14.2635C11.9118 14.5135 11.9963 14.723 12.1654 14.8921C12.3346 15.0613 12.5441 15.1458 12.7941 15.1458ZM5.68434 3.89581H9.36662C9.55427 3.89581 9.71147 3.95919 9.83824 4.08596C9.96485 4.21257 10.0282 4.36978 10.0282 4.55757C10.0282 4.74537 9.96485 4.90257 9.83824 5.02919C9.71147 5.15596 9.55427 5.21934 9.36662 5.21934H5.68434C5.49654 5.21934 5.33934 5.15596 5.21272 5.02919C5.08596 4.90257 5.02257 4.74537 5.02257 4.55757C5.02257 4.36978 5.08596 4.21257 5.21272 4.08596C5.33934 3.95919 5.49654 3.89581 5.68434 3.89581ZM5.68434 6.54287H9.36662C9.55427 6.54287 9.71147 6.60625 9.83824 6.73302C9.96485 6.85963 10.0282 7.01684 10.0282 7.20463C10.0282 7.39243 9.96485 7.54963 9.83824 7.67625C9.71147 7.80302 9.55427 7.8664 9.36662 7.8664H5.68434C5.49654 7.8664 5.33934 7.80302 5.21272 7.67625C5.08596 7.54963 5.02257 7.39243 5.02257 7.20463C5.02257 7.01684 5.08596 6.85963 5.21272 6.73302C5.33934 6.60625 5.49654 6.54287 5.68434 6.54287ZM11.8608 5.33802C11.6448 5.33802 11.4607 5.26199 11.3085 5.10993C11.1564 4.95772 11.0804 4.7736 11.0804 4.55757C11.0804 4.34154 11.1564 4.15743 11.3085 4.00522C11.4607 3.85316 11.6448 3.77713 11.8608 3.77713C12.0768 3.77713 12.261 3.85316 12.4132 4.00522C12.5654 4.15743 12.6415 4.34154 12.6415 4.55757C12.6415 4.7736 12.5654 4.95772 12.4132 5.10993C12.261 5.26199 12.0768 5.33802 11.8608 5.33802ZM11.8608 7.98507C11.6448 7.98507 11.4607 7.90904 11.3085 7.75699C11.1564 7.60478 11.0804 7.42066 11.0804 7.20463C11.0804 6.9886 11.1564 6.80449 11.3085 6.65228C11.4607 6.50022 11.6448 6.42419 11.8608 6.42419C12.0768 6.42419 12.261 6.50022 12.4132 6.65228C12.5654 6.80449 12.6415 6.9886 12.6415 7.20463C12.6415 7.42066 12.5654 7.60478 12.4132 7.75699C12.261 7.90904 12.0768 7.98507 11.8608 7.98507ZM2.20588 15.1458H10.5882V13.3811H1.32353V14.2635C1.32353 14.5135 1.40809 14.723 1.57721 14.8921C1.74632 15.0613 1.95588 15.1458 2.20588 15.1458Z" fill="white"/>
</svg>
