<svg width="20" height="20" viewBox="0 0 20 20" fill="none" xmlns="http://www.w3.org/2000/svg">
<g clip-path="url(#clip0_19270_135989)">
<path d="M18.3334 10.0013C18.3334 14.6037 14.6025 18.3346 10.0001 18.3346M18.3334 10.0013C18.3334 5.39893 14.6025 1.66797 10.0001 1.66797M18.3334 10.0013H1.66675M10.0001 18.3346C5.39771 18.3346 1.66675 14.6037 1.66675 10.0013M10.0001 18.3346C12.0845 16.0527 13.269 13.0913 13.3334 10.0013C13.269 6.91133 12.0845 3.94993 10.0001 1.66797M10.0001 18.3346C7.91568 16.0527 6.73112 13.0913 6.66675 10.0013C6.73112 6.91133 7.91568 3.94993 10.0001 1.66797M1.66675 10.0013C1.66675 5.39893 5.39771 1.66797 10.0001 1.66797" stroke="#3C3C3D" stroke-width="1.5" stroke-linecap="round" stroke-linejoin="round"/>
</g>
<defs>
<clipPath id="clip0_19270_135989">
<rect width="20" height="20" fill="white"/>
</clipPath>
</defs>
</svg>
