<svg xmlns="http://www.w3.org/2000/svg" width="20" height="20" viewBox="0 0 20 20" fill="none">
  <path d="M4.82373 8.58594H8.58844V9.52711H4.82373V8.58594Z" fill="#146DFF"/>
  <path d="M4.82373 10.4688H10.4708V11.4099H4.82373V10.4688Z" fill="#146DFF"/>
  <path d="M14.263 10.5333C14.0845 10.5341 13.9062 10.5483 13.7298 10.576V6.26667C13.7302 6.19648 13.7168 6.1269 13.6902 6.06192C13.6637 5.99694 13.6246 5.93784 13.5752 5.88801L9.84299 2.15468C9.79317 2.10525 9.73408 2.06614 9.66912 2.0396C9.60416 2.01306 9.5346 1.9996 9.46443 2.00001H2.53317C2.39177 2.00001 2.25615 2.0562 2.15616 2.15622C2.05617 2.25624 2 2.39189 2 2.53334V16.4C2 16.5415 2.05617 16.6771 2.15616 16.7771C2.25615 16.8771 2.39177 16.9333 2.53317 16.9333H11.6558C12.0932 17.362 12.6293 17.6765 13.2169 17.8489C13.8045 18.0214 14.4255 18.0466 15.0251 17.9223C15.6247 17.7981 16.1845 17.5281 16.6552 17.1363C17.1259 16.7444 17.493 16.2428 17.724 15.6755C17.9551 15.1083 18.0431 14.4929 17.9803 13.8835C17.9175 13.2742 17.7057 12.6898 17.3637 12.1816C17.0217 11.6735 16.56 11.2574 16.0192 10.97C15.4785 10.6825 14.8754 10.5326 14.263 10.5333ZM9.99761 3.81867L11.9117 5.73334H9.99761V3.81867ZM3.06635 3.06668H8.93126V6.26667C8.93126 6.40812 8.98743 6.54378 9.08742 6.6438C9.18741 6.74382 9.32303 6.80001 9.46443 6.80001H12.6635V10.9013C12.1913 11.1247 11.7713 11.4447 11.4306 11.8407C11.0898 12.2366 10.836 12.6997 10.6854 13.2H4.66587V14.2667H10.5308C10.531 14.821 10.6568 15.368 10.8987 15.8667H3.06635V3.06668ZM14.263 16.9333C13.7357 16.9333 13.2203 16.7769 12.7819 16.4839C12.3435 16.1909 12.0018 15.7744 11.8001 15.2872C11.5983 14.7999 11.5455 14.2637 11.6484 13.7464C11.7512 13.2291 12.0051 12.754 12.3779 12.3811C12.7508 12.0081 13.2258 11.7541 13.7429 11.6512C14.26 11.5484 14.7961 11.6012 15.2832 11.803C15.7703 12.0048 16.1867 12.3466 16.4796 12.7852C16.7725 13.2237 16.9289 13.7393 16.9289 14.2667C16.9289 14.9739 16.648 15.6522 16.1481 16.1523C15.6481 16.6524 14.97 16.9333 14.263 16.9333Z" fill="#146DFF"/>
  <path d="M15.2778 12.3516L14.2354 13.394L13.1929 12.3516L12.353 13.1915L13.3955 14.2339L12.353 15.2764L13.1929 16.1163L14.2354 15.0738L15.2778 16.1163L16.1177 15.2764L15.0753 14.2339L16.1177 13.1915L15.2778 12.3516Z" fill="#146DFF"/>
</svg>