<svg width="12" height="12" viewBox="0 0 12 12" fill="none" xmlns="http://www.w3.org/2000/svg">
<g clip-path="url(#clip0_42508_34318)">
<path d="M10.8866 0H1.11341C0.49849 0 0 0.49849 0 1.11341V10.8866C0 11.5015 0.49849 12 1.11341 12H10.8866C11.5015 12 12 11.5015 12 10.8866V1.11341C12 0.49849 11.5015 0 10.8866 0Z" fill="#0B63BD"/>
<path d="M4.3228 3.27273C4.3228 3.475 4.26282 3.67274 4.15044 3.84092C4.03806 4.00911 3.87833 4.1402 3.69145 4.2176C3.50457 4.29501 3.29894 4.31527 3.10055 4.2758C2.90216 4.23634 2.71993 4.13894 2.57689 3.9959C2.43386 3.85287 2.33646 3.67064 2.297 3.47225C2.25753 3.27386 2.27779 3.06823 2.35519 2.88135C2.4326 2.69447 2.56369 2.53474 2.73187 2.42236C2.90006 2.30998 3.0978 2.25 3.30007 2.25C3.57132 2.25 3.83145 2.35775 4.02325 2.54955C4.21505 2.74135 4.3228 3.00148 4.3228 3.27273Z" fill="white"/>
<path d="M4.09041 4.9802V9.49861C4.09059 9.53194 4.08418 9.56498 4.07154 9.59583C4.05891 9.62668 4.04031 9.65472 4.0168 9.67836C3.99329 9.70199 3.96535 9.72074 3.93457 9.73354C3.90379 9.74634 3.87078 9.75293 3.83745 9.75293H2.7595C2.72616 9.75302 2.69314 9.74652 2.66233 9.7338C2.63151 9.72109 2.60352 9.70241 2.57995 9.67884C2.55638 9.65527 2.5377 9.62727 2.52498 9.59646C2.51227 9.56564 2.50577 9.53262 2.50586 9.49929V4.9802C2.50586 4.91293 2.53258 4.84842 2.58015 4.80085C2.62771 4.75328 2.69223 4.72656 2.7595 4.72656H3.83745C3.9046 4.72674 3.96894 4.75355 4.01636 4.80109C4.06378 4.84864 4.09041 4.91305 4.09041 4.9802Z" fill="white"/>
<path d="M9.72537 7.32935V9.51662C9.72546 9.54727 9.71949 9.57763 9.7078 9.60596C9.69612 9.63429 9.67894 9.66003 9.65727 9.68171C9.6356 9.70338 9.60986 9.72055 9.58153 9.73223C9.5532 9.74392 9.52284 9.74989 9.49219 9.7498H8.3331C8.30245 9.74989 8.27209 9.74392 8.24376 9.73223C8.21542 9.72055 8.18968 9.70338 8.16801 9.68171C8.14634 9.66003 8.12917 9.63429 8.11748 9.60596C8.1058 9.57763 8.09983 9.54727 8.09992 9.51662V7.39685C8.09992 7.08048 8.19264 6.01139 7.27287 6.01139C6.56037 6.01139 6.41514 6.74298 6.38651 7.07162V9.51662C6.38651 9.57788 6.36241 9.63668 6.31942 9.68031C6.27642 9.72394 6.21799 9.74891 6.15673 9.7498H5.03719C5.0066 9.7498 4.97631 9.74377 4.94806 9.73204C4.9198 9.72031 4.89414 9.70312 4.87254 9.68146C4.85095 9.6598 4.83383 9.63409 4.82219 9.6058C4.81055 9.57752 4.8046 9.54721 4.80469 9.51662V4.9573C4.8046 4.92671 4.81055 4.8964 4.82219 4.86812C4.83383 4.83983 4.85095 4.81412 4.87254 4.79246C4.89414 4.7708 4.9198 4.75361 4.94806 4.74188C4.97631 4.73016 5.0066 4.72412 5.03719 4.72412H6.15673C6.21858 4.72412 6.27789 4.74869 6.32162 4.79242C6.36535 4.83615 6.38992 4.89546 6.38992 4.9573V5.35139C6.65446 4.95457 7.04651 4.64844 7.8831 4.64844C9.73628 4.64844 9.72537 6.37889 9.72537 7.32935Z" fill="white"/>
</g>
<defs>
<clipPath id="clip0_42508_34318">
<rect width="12" height="12" fill="white"/>
</clipPath>
</defs>
</svg>
