<svg xmlns="http://www.w3.org/2000/svg" width="24" height="24" viewBox="0 0 24 24" fill="none">
  <path d="M17 7.09961C19.7048 7.09961 21.9004 9.29523 21.9004 12C21.9004 14.7048 19.7048 16.9004 17 16.9004H13.0996V15.0996H17C18.7052 15.0996 20.0996 13.7052 20.0996 12C20.0996 10.2948 18.7052 8.90039 17 8.90039H13.0996V7.09961H17ZM7 7.09961H10.9004V8.90039H7C5.29477 8.90039 3.90039 10.2948 3.90039 12C3.90039 13.7052 5.29477 15.0996 7 15.0996H10.9004V16.9004H7C4.29523 16.9004 2.09961 14.7048 2.09961 12C2.09961 9.29523 4.29523 7.09961 7 7.09961ZM15.9004 11.0996V12.9004H8.09961V11.0996H15.9004Z" fill="#86868B" stroke="white" stroke-width="0.2"/>
</svg>