<svg width="16" height="16" viewBox="0 0 16 16" fill="none" xmlns="http://www.w3.org/2000/svg">
<g clip-path="url(#clip0_15716_34577)">
<path d="M13.334 1.33301H2.66732C1.93094 1.33301 1.33398 1.92996 1.33398 2.66634V5.33301C1.33398 6.06939 1.93094 6.66634 2.66732 6.66634H13.334C14.0704 6.66634 14.6673 6.06939 14.6673 5.33301V2.66634C14.6673 1.92996 14.0704 1.33301 13.334 1.33301Z" stroke="#6A6A70" stroke-linecap="round" stroke-linejoin="round"/>
<path d="M13.334 9.33301H2.66732C1.93094 9.33301 1.33398 9.92996 1.33398 10.6663V13.333C1.33398 14.0694 1.93094 14.6663 2.66732 14.6663H13.334C14.0704 14.6663 14.6673 14.0694 14.6673 13.333V10.6663C14.6673 9.92996 14.0704 9.33301 13.334 9.33301Z" stroke="#6A6A70" stroke-linecap="round" stroke-linejoin="round"/>
</g>
<defs>
<clipPath id="clip0_15716_34577">
<rect width="16" height="16" fill="white"/>
</clipPath>
</defs>
</svg>
