<svg width="20" height="20" viewBox="0 0 20 20" fill="none" xmlns="http://www.w3.org/2000/svg">
<g id="location_on_FILL0_wght300_GRAD0_opsz20 1">
<path id="Vector" d="M10.0024 9.83329C10.4195 9.83329 10.7733 9.68714 11.0639 9.39483C11.3545 9.10251 11.4998 8.74781 11.4998 8.33073C11.4998 7.91365 11.3536 7.55981 11.0613 7.26923C10.769 6.97863 10.4143 6.83333 9.99723 6.83333C9.58015 6.83333 9.22632 6.97949 8.93573 7.27179C8.64514 7.56411 8.49984 7.91881 8.49984 8.3359C8.49984 8.75298 8.64599 9.10681 8.9383 9.3974C9.23062 9.68799 9.58532 9.83329 10.0024 9.83329ZM9.99982 16.3766C11.7017 14.8563 12.9814 13.4118 13.8388 12.0431C14.6962 10.6744 15.1248 9.4934 15.1248 8.49998C15.1248 6.92198 14.6326 5.64554 13.6481 4.67065C12.6636 3.69574 11.4475 3.20829 9.99982 3.20829C8.55216 3.20829 7.33608 3.69574 6.35157 4.67065C5.36705 5.64554 4.8748 6.92198 4.8748 8.49998C4.8748 9.4934 5.30348 10.6744 6.16086 12.0431C7.01823 13.4118 8.29789 14.8563 9.99982 16.3766ZM9.99461 17.8429C9.88376 17.8429 9.7808 17.8261 9.68571 17.7924C9.59063 17.7588 9.49715 17.7099 9.40527 17.6458C7.42023 15.8456 5.94668 14.1912 4.98461 12.6827C4.02254 11.1741 3.5415 9.77719 3.5415 8.49185C3.5415 6.46416 4.18814 4.85442 5.4814 3.66265C6.77466 2.47088 8.2808 1.875 9.99982 1.875C11.7188 1.875 13.225 2.47088 14.5182 3.66265C15.8115 4.85442 16.4581 6.46416 16.4581 8.49185C16.4581 9.77719 15.9771 11.1741 15.015 12.6827C14.053 14.1912 12.5794 15.8453 10.5944 17.645C10.5217 17.7096 10.4313 17.7588 10.3231 17.7924C10.215 17.8261 10.1055 17.8429 9.99461 17.8429Z" fill="#6A6A70"/>
</g>
</svg>
