<svg width="20" height="20" viewBox="0 0 20 20" fill="none" xmlns="http://www.w3.org/2000/svg">
<path d="M10.0047 12.0834C10.5848 12.0834 11.0762 11.8803 11.479 11.4743C11.8818 11.0682 12.0832 10.5752 12.0832 9.99512C12.0832 9.41505 11.8801 8.92363 11.4741 8.52085C11.0681 8.11808 10.575 7.91669 9.99494 7.91669C9.41487 7.91669 8.92345 8.11971 8.52067 8.52575C8.11789 8.9318 7.9165 9.42486 7.9165 10.0049C7.9165 10.585 8.11952 11.0764 8.52557 11.4792C8.93162 11.882 9.42468 12.0834 10.0047 12.0834ZM10.0054 18.3334C8.8563 18.3334 7.77643 18.1146 6.7658 17.6771C5.75516 17.2396 4.87136 16.6424 4.11442 15.8854C3.35748 15.1285 2.76025 14.2442 2.32275 13.2325C1.88525 12.2208 1.6665 11.1399 1.6665 9.9896C1.6665 8.83934 1.88525 7.75837 2.32275 6.74671C2.76025 5.73503 3.35748 4.85419 4.11442 4.10419C4.87136 3.35419 5.75568 2.76044 6.76736 2.32294C7.77902 1.88544 8.85999 1.66669 10.0103 1.66669C11.1605 1.66669 12.2415 1.88544 13.2531 2.32294C14.2648 2.76044 15.1457 3.35419 15.8957 4.10419C16.6457 4.85419 17.2394 5.73613 17.6769 6.75002C18.1144 7.76391 18.3332 8.8454 18.3332 9.99448C18.3332 11.1436 18.1144 12.2234 17.6769 13.2341C17.2394 14.2447 16.6457 15.1272 15.8957 15.8816C15.1457 16.636 14.2637 17.2332 13.2498 17.6733C12.2359 18.1133 11.1545 18.3334 10.0054 18.3334ZM10.0103 17.0834C11.9755 17.0834 13.6457 16.3924 15.0207 15.0104C16.3957 13.6285 17.0832 11.9549 17.0832 9.9896C17.0832 8.02433 16.397 6.35419 15.0246 4.97919C13.6522 3.60419 11.9773 2.91669 9.99984 2.91669C8.0415 2.91669 6.37136 3.60288 4.98942 4.97527C3.60748 6.34767 2.9165 8.02259 2.9165 10C2.9165 11.9584 3.60748 13.6285 4.98942 15.0104C6.37136 16.3924 8.04498 17.0834 10.0103 17.0834Z" fill="white"/>
</svg>
