<svg width="32" height="32" viewBox="0 0 32 32" fill="none" xmlns="http://www.w3.org/2000/svg">
<rect x="0.5" y="0.5" width="31" height="31" rx="7.5" stroke="#AEAEB2"/>
<rect x="0.5" y="0.5" width="31" height="31" rx="7.5" fill="white"/>
<rect x="0.5" y="0.5" width="31" height="31" rx="7.5" stroke="#AEAEB2"/>
<path d="M12.6667 15.332V12.6654C12.6667 11.7813 13.0179 10.9335 13.643 10.3083C14.2681 9.68322 15.1159 9.33203 16 9.33203C16.8841 9.33203 17.7319 9.68322 18.357 10.3083C18.9821 10.9335 19.3333 11.7813 19.3333 12.6654V15.332M11.3333 15.332H20.6667C21.403 15.332 22 15.929 22 16.6654V21.332C22 22.0684 21.403 22.6654 20.6667 22.6654H11.3333C10.597 22.6654 10 22.0684 10 21.332V16.6654C10 15.929 10.597 15.332 11.3333 15.332Z" stroke="#6A6A70" stroke-width="1.5" stroke-linecap="round" stroke-linejoin="round"/>
</svg>
