<svg xmlns="http://www.w3.org/2000/svg" width="16" height="16" viewBox="0 0 16 16" fill="none">
  <path d="M8.00026 12.9259C9.2712 11.8139 10.2609 10.7302 10.9695 9.67461C11.678 8.61905 12.0323 7.68828 12.0323 6.88229C12.0323 5.71136 11.6518 4.73722 10.8906 3.95986C10.1295 3.18251 9.16607 2.79383 8.00026 2.79383C6.83445 2.79383 5.87099 3.18251 5.10988 3.95986C4.34877 4.73722 3.96821 5.71136 3.96821 6.88229C3.96821 7.68828 4.32249 8.61905 5.03103 9.67461C5.73959 10.7302 6.72933 11.8139 8.00026 12.9259ZM8.00026 13.7605C7.88146 13.7605 7.771 13.7408 7.66886 13.7015C7.56673 13.6622 7.4631 13.6011 7.35796 13.5182C7.03746 13.2447 6.63597 12.8714 6.1535 12.3983C5.67102 11.9252 5.20115 11.3941 4.74388 10.8047C4.28661 10.2154 3.89858 9.58401 3.57978 8.91051C3.26097 8.237 3.10156 7.56093 3.10156 6.88229C3.10156 5.52163 3.55755 4.35668 4.46951 3.38744C5.38147 2.41821 6.55839 1.93359 8.00026 1.93359C9.43103 1.93359 10.6052 2.41821 11.5227 3.38744C12.4402 4.35668 12.899 5.52163 12.899 6.88229C12.899 7.56093 12.7368 8.23871 12.4124 8.91564C12.0881 9.59257 11.7011 10.2268 11.2515 10.8182C10.8019 11.4097 10.3359 11.9381 9.85345 12.4035C9.37097 12.8688 8.96947 13.2383 8.64896 13.5118C8.54537 13.5947 8.44155 13.6569 8.33748 13.6983C8.2334 13.7398 8.121 13.7605 8.00026 13.7605ZM8.0014 7.91049C8.29979 7.91049 8.55282 7.80627 8.76051 7.59783C8.9682 7.38938 9.07205 7.13597 9.07205 6.83758C9.07205 6.53919 8.96782 6.28615 8.75938 6.07846C8.55094 5.87077 8.29752 5.76693 7.99913 5.76693C7.70074 5.76693 7.4477 5.87115 7.24001 6.07959C7.03232 6.28804 6.92848 6.54145 6.92848 6.83984C6.92848 7.13823 7.0327 7.39127 7.24115 7.59896C7.44959 7.80665 7.70301 7.91049 8.0014 7.91049Z" fill="#5B5B5F"/>
</svg>