<svg width="14" height="16" viewBox="0 0 14 16" fill="none" xmlns="http://www.w3.org/2000/svg">
<path d="M3.66667 7.33594V4.66927C3.66667 3.78522 4.01786 2.93737 4.64298 2.31225C5.2681 1.68713 6.11595 1.33594 7 1.33594C7.88406 1.33594 8.7319 1.68713 9.35702 2.31225C9.98214 2.93737 10.3333 3.78522 10.3333 4.66927V7.33594M2.33333 7.33594H11.6667C12.403 7.33594 13 7.93289 13 8.66927V13.3359C13 14.0723 12.403 14.6693 11.6667 14.6693H2.33333C1.59695 14.6693 1 14.0723 1 13.3359V8.66927C1 7.93289 1.59695 7.33594 2.33333 7.33594Z" stroke="#6A6A70" stroke-width="1.5" stroke-linecap="round" stroke-linejoin="round"/>
</svg>
