<svg xmlns="http://www.w3.org/2000/svg" width="20" height="20" viewBox="0 0 20 20" fill="none">
  <path d="M11.8753 6.39375C11.8753 7.92634 10.6329 9.16875 9.10029 9.16875C7.5677 9.16875 6.32529 7.92634 6.32529 6.39375C6.32529 4.86116 7.5677 3.61875 9.10029 3.61875C10.6329 3.61875 11.8753 4.86116 11.8753 6.39375Z" stroke="#146DFF" stroke-width="1.3"/>
  <path d="M9.10012 11.2828C9.59843 11.2828 10.0874 11.3217 10.5641 11.3964C10.2086 12.0564 10.0063 12.8115 10.0063 13.6138C10.0063 14.107 10.0829 14.5828 10.2247 15.0298H2.53232V13.9632C4.22628 12.3045 6.54355 11.2828 9.10012 11.2828Z" stroke="#146DFF" stroke-width="1.3"/>
  <path d="M16.5 12.85H13V14.15H16.5V12.85ZM11.9176 13.6127C11.9176 12.0798 13.1598 10.8375 14.6924 10.8375C16.2249 10.8375 17.4672 12.0798 17.4672 13.6127C17.4672 15.1451 16.225 16.3875 14.6924 16.3875C13.1598 16.3875 11.9176 15.1451 11.9176 13.6127Z" stroke="#146DFF" stroke-width="1.3"/>
</svg>