<svg xmlns="http://www.w3.org/2000/svg" width="16" height="20" viewBox="0 0 16 20" fill="none">
  <mask id="path-1-inside-1_21008_152541" fill="white">
    <path fill-rule="evenodd" clip-rule="evenodd" d="M7.99932 19.3132L13.6561 13.6565C14.7749 12.5377 15.5368 11.1123 15.8454 9.56045C16.1541 8.00865 15.9957 6.40016 15.3902 4.93839C14.7847 3.47662 13.7593 2.22723 12.4438 1.3482C11.1282 0.469178 9.58153 0 7.99932 0C6.41711 0 4.87044 0.469178 3.55488 1.3482C2.23932 2.22723 1.21396 3.47662 0.608474 4.93839C0.00298439 6.40016 -0.155444 8.00865 0.153222 9.56045C0.461889 11.1123 1.22379 12.5377 2.34257 13.6565L7.99932 19.3132Z"/>
  </mask>
  <path fill-rule="evenodd" clip-rule="evenodd" d="M7.99932 19.3132L13.6561 13.6565C14.7749 12.5377 15.5368 11.1123 15.8454 9.56045C16.1541 8.00865 15.9957 6.40016 15.3902 4.93839C14.7847 3.47662 13.7593 2.22723 12.4438 1.3482C11.1282 0.469178 9.58153 0 7.99932 0C6.41711 0 4.87044 0.469178 3.55488 1.3482C2.23932 2.22723 1.21396 3.47662 0.608474 4.93839C0.00298439 6.40016 -0.155444 8.00865 0.153222 9.56045C0.461889 11.1123 1.22379 12.5377 2.34257 13.6565L7.99932 19.3132Z" fill="#FB3737"/>
  <path d="M13.6561 13.6565L14.3632 14.3636L14.3632 14.3636L13.6561 13.6565ZM7.99932 19.3132L7.29221 20.0203L7.99932 20.7275L8.70643 20.0203L7.99932 19.3132ZM15.8454 9.56045L14.8646 9.36537L15.8454 9.56045ZM15.3902 4.93839L16.314 4.5557V4.5557L15.3902 4.93839ZM3.55488 1.3482L4.11045 2.17967L3.55488 1.3482ZM0.608474 4.93839L1.53235 5.32108L0.608474 4.93839ZM0.153222 9.56045L1.13401 9.36537L0.153222 9.56045ZM2.34257 13.6565L1.63546 14.3636L1.63546 14.3636L2.34257 13.6565ZM12.949 12.9494L7.29221 18.6061L8.70643 20.0203L14.3632 14.3636L12.949 12.9494ZM14.8646 9.36537C14.5946 10.7232 13.9279 11.9704 12.949 12.9494L14.3632 14.3636C15.6218 13.1049 16.479 11.5013 16.8262 9.75554L14.8646 9.36537ZM14.4663 5.32108C14.9961 6.60012 15.1347 8.00754 14.8646 9.36537L16.8262 9.75554C17.1735 8.00975 16.9952 6.2002 16.314 4.5557L14.4663 5.32108ZM11.8882 2.17967C13.0393 2.94882 13.9365 4.04203 14.4663 5.32108L16.314 4.5557C15.6329 2.91121 14.4793 1.50564 12.9993 0.516733L11.8882 2.17967ZM7.99932 1C9.38375 1 10.7371 1.41053 11.8882 2.17967L12.9993 0.516733C11.5193 -0.472173 9.77931 -1 7.99932 -1V1ZM4.11045 2.17967C5.26156 1.41053 6.61489 1 7.99932 1V-1C6.21933 -1 4.47932 -0.472173 2.99931 0.516733L4.11045 2.17967ZM1.53235 5.32108C2.06215 4.04203 2.95934 2.94882 4.11045 2.17967L2.99931 0.516733C1.5193 1.50564 0.365773 2.91121 -0.315405 4.5557L1.53235 5.32108ZM1.13401 9.36537C0.863926 8.00754 1.00255 6.60012 1.53235 5.32108L-0.315405 4.5557C-0.996582 6.2002 -1.17481 8.00975 -0.827564 9.75554L1.13401 9.36537ZM3.04968 12.9494C2.07075 11.9704 1.40409 10.7232 1.13401 9.36537L-0.827564 9.75554C-0.480313 11.5013 0.376824 13.1049 1.63546 14.3636L3.04968 12.9494ZM8.70643 18.6061L3.04968 12.9494L1.63546 14.3636L7.29221 20.0203L8.70643 18.6061Z" fill="#DF372B" mask="url(#path-1-inside-1_21008_152541)"/>
  <path d="M8.90191 11.8976L7.99951 12.8L7.09711 11.8976C5.32351 11.488 3.99951 9.8976 3.99951 8C3.99951 5.792 5.79151 4 7.99951 4C10.2075 4 11.9995 5.792 11.9995 8C11.9995 9.8976 10.6755 11.488 8.90191 11.8976ZM5.60871 9.3664C6.19591 10.2424 7.07751 10.8 8.06351 10.8C9.04911 10.8 9.93111 10.2428 10.5179 9.3664C9.85221 8.74424 8.97469 8.39872 8.06351 8.4C7.1522 8.39862 6.27452 8.74414 5.60871 9.3664ZM7.99951 7.6C8.31777 7.6 8.623 7.47357 8.84804 7.24853C9.07308 7.02348 9.19951 6.71826 9.19951 6.4C9.19951 6.08174 9.07308 5.77652 8.84804 5.55147C8.623 5.32643 8.31777 5.2 7.99951 5.2C7.68125 5.2 7.37603 5.32643 7.15098 5.55147C6.92594 5.77652 6.79951 6.08174 6.79951 6.4C6.79951 6.71826 6.92594 7.02348 7.15098 7.24853C7.37603 7.47357 7.68125 7.6 7.99951 7.6Z" fill="white"/>
</svg>