<svg xmlns="http://www.w3.org/2000/svg" width="16" height="20" viewBox="0 0 16 20" fill="none">
  <mask id="path-1-inside-1_21008_152535" fill="white">
    <path fill-rule="evenodd" clip-rule="evenodd" d="M8.00003 19.3132L13.6568 13.6565C14.7756 12.5377 15.5375 11.1123 15.8461 9.56045C16.1548 8.00865 15.9964 6.40016 15.3909 4.93839C14.7854 3.47662 13.76 2.22723 12.4445 1.3482C11.1289 0.469178 9.58224 0 8.00003 0C6.41782 0 4.87114 0.469178 3.55558 1.3482C2.24002 2.22723 1.21467 3.47662 0.60918 4.93839C0.0036903 6.40016 -0.154738 8.00865 0.153928 9.56045C0.462594 11.1123 1.22449 12.5377 2.34328 13.6565L8.00003 19.3132Z"/>
  </mask>
  <path fill-rule="evenodd" clip-rule="evenodd" d="M8.00003 19.3132L13.6568 13.6565C14.7756 12.5377 15.5375 11.1123 15.8461 9.56045C16.1548 8.00865 15.9964 6.40016 15.3909 4.93839C14.7854 3.47662 13.76 2.22723 12.4445 1.3482C11.1289 0.469178 9.58224 0 8.00003 0C6.41782 0 4.87114 0.469178 3.55558 1.3482C2.24002 2.22723 1.21467 3.47662 0.60918 4.93839C0.0036903 6.40016 -0.154738 8.00865 0.153928 9.56045C0.462594 11.1123 1.22449 12.5377 2.34328 13.6565L8.00003 19.3132Z" fill="#FF9332"/>
  <path d="M13.6568 13.6565L14.3639 14.3636L14.3639 14.3636L13.6568 13.6565ZM8.00003 19.3132L7.29292 20.0203L8.00003 20.7275L8.70713 20.0203L8.00003 19.3132ZM15.8461 9.56045L14.8653 9.36537L15.8461 9.56045ZM15.3909 4.93839L16.3148 4.5557V4.5557L15.3909 4.93839ZM3.55558 1.3482L4.11115 2.17967L3.55558 1.3482ZM0.60918 4.93839L1.53306 5.32108L0.60918 4.93839ZM0.153928 9.56045L1.13471 9.36537L0.153928 9.56045ZM2.34328 13.6565L1.63616 14.3636L1.63617 14.3636L2.34328 13.6565ZM12.9497 12.9494L7.29292 18.6061L8.70713 20.0203L14.3639 14.3636L12.9497 12.9494ZM14.8653 9.36537C14.5953 10.7232 13.9286 11.9704 12.9497 12.9494L14.3639 14.3636C15.6225 13.1049 16.4797 11.5013 16.8269 9.75554L14.8653 9.36537ZM14.467 5.32108C14.9968 6.60012 15.1354 8.00754 14.8653 9.36537L16.8269 9.75554C17.1742 8.00975 16.9959 6.2002 16.3148 4.5557L14.467 5.32108ZM11.8889 2.17967C13.04 2.94882 13.9372 4.04203 14.467 5.32108L16.3148 4.5557C15.6336 2.91121 14.48 1.50564 13 0.516733L11.8889 2.17967ZM8.00003 1C9.38446 1 10.7378 1.41053 11.8889 2.17967L13 0.516733C11.52 -0.472173 9.78002 -1 8.00003 -1V1ZM4.11115 2.17967C5.26226 1.41053 6.6156 1 8.00003 1V-1C6.22004 -1 4.48002 -0.472173 3.00001 0.516733L4.11115 2.17967ZM1.53306 5.32108C2.06286 4.04203 2.96004 2.94882 4.11115 2.17967L3.00001 0.516733C1.52001 1.50564 0.366479 2.91121 -0.314699 4.5557L1.53306 5.32108ZM1.13471 9.36537C0.864632 8.00754 1.00326 6.60012 1.53306 5.32108L-0.314699 4.5557C-0.995876 6.2002 -1.17411 8.00975 -0.826858 9.75554L1.13471 9.36537ZM3.05039 12.9494C2.07146 11.9704 1.4048 10.7232 1.13471 9.36537L-0.826858 9.75554C-0.479607 11.5013 0.37753 13.1049 1.63616 14.3636L3.05039 12.9494ZM8.70713 18.6061L3.05038 12.9494L1.63617 14.3636L7.29292 20.0203L8.70713 18.6061Z" fill="#EF5C07" mask="url(#path-1-inside-1_21008_152535)"/>
  <path d="M6.8225 6.69533L6.78107 7.2939C7.23776 7.32552 7.63727 7.20733 7.9996 7.06521L7.99979 7.06513C8.11362 7.02044 8.22968 6.96994 8.33825 6.92269C8.34881 6.9181 8.35929 6.91354 8.36969 6.90902C8.82465 6.7115 9.24993 6.53121 9.76303 6.50163L10.1444 6.47965L11.1613 7.50842C11.1613 7.50843 11.1613 7.50843 11.1613 7.50844C11.3171 7.66612 11.3998 7.87024 11.4 8.07766C11.4 8.07774 11.4 8.07782 11.4 8.0779V10.2397C11.4 10.3272 11.364 10.4164 11.2915 10.486C11.2182 10.5564 11.1138 10.6 11 10.6H9.89375C9.99757 10.3701 10.1 10.0708 10.1 9.75958C10.1 9.2104 9.87259 8.68888 9.47624 8.30828C9.08072 7.92847 8.54928 7.71917 8 7.71917C7.45072 7.71917 6.91928 7.92847 6.52376 8.30828C6.12741 8.68888 5.9 9.2104 5.9 9.75958C5.9 10.0705 6.00236 10.3697 6.10647 10.6H5C4.88624 10.6 4.7818 10.5564 4.70847 10.486C4.63598 10.4164 4.6 10.3272 4.6 10.2397V8.07814V8.07797C4.59994 7.87027 4.6827 7.66582 4.83875 7.50794L5.50523 6.83379L5.52216 6.84448C5.9743 7.12997 6.38676 7.26739 6.78225 7.29398L6.8225 6.69533ZM6.8225 6.69533C6.69493 6.68676 6.55918 6.66176 6.4126 6.61388L9.00743 6.02685C8.68636 6.11742 8.39872 6.24231 8.13432 6.3571L8.1305 6.35876C8.12038 6.36316 8.11029 6.36755 8.10024 6.37192C7.98969 6.42001 7.88363 6.46615 7.7805 6.50664C7.45 6.63628 7.1485 6.7179 6.8225 6.69533ZM8.00496 10.7469L8.00993 10.7566L8.00496 10.7469Z" fill="white" stroke="white" stroke-width="1.2"/>
</svg>