<svg width="20" height="20" viewBox="0 0 20 20" fill="none" xmlns="http://www.w3.org/2000/svg">
<path d="M10.0003 18.3333C8.84755 18.3333 7.76421 18.1145 6.75033 17.677C5.73644 17.2395 4.85449 16.6458 4.10449 15.8958C3.35449 15.1458 2.76074 14.2638 2.32324 13.25C1.88574 12.2361 1.66699 11.1527 1.66699 9.99996C1.66699 8.84718 1.88574 7.76385 2.32324 6.74996C2.76074 5.73607 3.35449 4.85413 4.10449 4.10413C4.85449 3.35413 5.73644 2.76038 6.75033 2.32288C7.76421 1.88538 8.84755 1.66663 10.0003 1.66663C11.1531 1.66663 12.2364 1.88538 13.2503 2.32288C14.2642 2.76038 15.1462 3.35413 15.8962 4.10413C16.6462 4.85413 17.2399 5.73607 17.6774 6.74996C18.1149 7.76385 18.3337 8.84718 18.3337 9.99996C18.3337 11.1527 18.1149 12.2361 17.6774 13.25C17.2399 14.2638 16.6462 15.1458 15.8962 15.8958C15.1462 16.6458 14.2642 17.2395 13.2503 17.677C12.2364 18.1145 11.1531 18.3333 10.0003 18.3333ZM9.10449 17.0625V15.3541C8.61838 15.3541 8.20866 15.1736 7.87533 14.8125C7.54199 14.4513 7.37533 14.0277 7.37533 13.5416V12.625L3.10449 8.35413C3.03505 8.6319 2.98644 8.90621 2.95866 9.17704C2.93088 9.44788 2.91699 9.72218 2.91699 9.99996C2.91699 11.8055 3.5038 13.3819 4.67741 14.7291C5.85102 16.0763 7.32671 16.8541 9.10449 17.0625ZM15.2295 14.8125C15.535 14.4791 15.8024 14.125 16.0316 13.75C16.2607 13.375 16.4552 12.9826 16.6149 12.5729C16.7746 12.1632 16.8927 11.743 16.9691 11.3125C17.0455 10.8819 17.0837 10.4444 17.0837 9.99996C17.0837 8.52774 16.6809 7.19093 15.8753 5.98954C15.0698 4.78815 13.9934 3.90968 12.6462 3.35413V3.72913C12.6462 4.21524 12.4795 4.63885 12.1462 4.99996C11.8128 5.36107 11.4031 5.54163 10.917 5.54163H9.10449V7.35413C9.10449 7.59024 9.01074 7.78468 8.82324 7.93746C8.63574 8.09024 8.42394 8.16663 8.18783 8.16663H6.45866V9.99996H11.8337C12.0698 9.99996 12.2642 10.0902 12.417 10.2708C12.5698 10.4513 12.6462 10.6597 12.6462 10.8958V13.5416H13.542C13.9448 13.5416 14.2989 13.6597 14.6045 13.8958C14.91 14.1319 15.1184 14.4375 15.2295 14.8125Z" fill="white"/>
</svg>
