<svg width="20" height="21" viewBox="0 0 20 21" fill="none" xmlns="http://www.w3.org/2000/svg">
<rect y="0.5" width="20" height="20" rx="10" fill="#31A150"/>
<path d="M14.3651 13.6239H13.7507V9.2489C13.7507 9.08314 13.6848 8.92417 13.5676 8.80696C13.4504 8.68975 13.2914 8.6239 13.1257 8.6239H11.4069C11.3655 8.6239 11.3258 8.64036 11.2965 8.66967C11.2671 8.69897 11.2507 8.73871 11.2507 8.78015V13.6239H10.6257V6.76492C10.6267 6.66757 10.6056 6.57125 10.5639 6.48328C10.5222 6.3953 10.4611 6.31795 10.3851 6.2571C10.2815 6.17634 10.1551 6.13026 10.0238 6.12542C9.89253 6.12059 9.76307 6.15723 9.65381 6.23015L6.52881 8.3114C6.44308 8.3686 6.37283 8.4461 6.32431 8.53702C6.27578 8.62793 6.25049 8.72944 6.25069 8.83249V13.6239H5.63623C5.55548 13.6227 5.47727 13.6521 5.41733 13.7063C5.3574 13.7604 5.32019 13.8352 5.31319 13.9157C5.31035 13.9584 5.31633 14.0013 5.33076 14.0417C5.34519 14.082 5.36776 14.1189 5.39706 14.1502C5.42637 14.1814 5.46179 14.2063 5.50112 14.2233C5.54045 14.2403 5.58285 14.249 5.62569 14.2489H14.3757C14.4185 14.249 14.4609 14.2403 14.5003 14.2233C14.5396 14.2063 14.575 14.1814 14.6043 14.1502C14.6336 14.1189 14.6562 14.082 14.6706 14.0417C14.685 14.0013 14.691 13.9584 14.6882 13.9157C14.6812 13.8352 14.644 13.7604 14.584 13.7063C14.5241 13.6521 14.4459 13.6227 14.3651 13.6239ZM7.96944 12.6864C7.96953 12.7292 7.96082 12.7716 7.94383 12.811C7.92685 12.8503 7.90196 12.8857 7.87071 12.915C7.83947 12.9443 7.80253 12.9669 7.76219 12.9813C7.72185 12.9958 7.67898 13.0017 7.63623 12.9989C7.55571 12.9919 7.48082 12.9546 7.42668 12.8946C7.37253 12.8346 7.34314 12.7563 7.34444 12.6755V12.0719C7.34334 11.9912 7.3728 11.9131 7.42692 11.8531C7.48104 11.7932 7.55581 11.756 7.63623 11.7489C7.67898 11.7461 7.72185 11.752 7.76219 11.7665C7.80253 11.7809 7.83947 11.8035 7.87071 11.8328C7.90196 11.8621 7.92685 11.8975 7.94383 11.9368C7.96082 11.9762 7.96953 12.0186 7.96944 12.0614V12.6864ZM7.96944 10.4989C7.96953 10.5417 7.96082 10.5841 7.94383 10.6235C7.92685 10.6628 7.90196 10.6982 7.87071 10.7275C7.83947 10.7568 7.80253 10.7794 7.76219 10.7938C7.72185 10.8083 7.67898 10.8142 7.63623 10.8114C7.55574 10.8043 7.48091 10.767 7.42678 10.707C7.37266 10.647 7.34324 10.5688 7.34444 10.488V9.88445C7.34334 9.80372 7.3728 9.72556 7.42692 9.66564C7.48104 9.60573 7.55581 9.56849 7.63623 9.5614C7.67898 9.55856 7.72185 9.56454 7.76219 9.57897C7.80253 9.5934 7.83947 9.61597 7.87071 9.64528C7.90196 9.67458 7.92685 9.71 7.94383 9.74933C7.96082 9.78866 7.96953 9.83106 7.96944 9.8739V10.4989ZM9.53194 12.6864C9.53203 12.7292 9.52332 12.7716 9.50633 12.811C9.48935 12.8503 9.46446 12.8857 9.43321 12.915C9.40197 12.9443 9.36503 12.9669 9.32469 12.9813C9.28435 12.9958 9.24148 13.0017 9.19873 12.9989C9.11834 12.9919 9.04357 12.9547 8.98945 12.8949C8.93532 12.835 8.90584 12.7569 8.90694 12.6762V12.0719C8.90594 11.9913 8.93544 11.9132 8.98955 11.8534C9.04366 11.7936 9.11838 11.7564 9.19873 11.7493C9.24148 11.7465 9.28435 11.7524 9.32469 11.7669C9.36503 11.7813 9.40197 11.8039 9.43321 11.8332C9.46446 11.8625 9.48935 11.8979 9.50633 11.9372C9.52332 11.9765 9.53203 12.019 9.53194 12.0618V12.6864ZM9.53194 10.4989C9.53203 10.5417 9.52332 10.5841 9.50633 10.6235C9.48935 10.6628 9.46446 10.6982 9.43321 10.7275C9.40197 10.7568 9.36503 10.7794 9.32469 10.7938C9.28435 10.8083 9.24148 10.8142 9.19873 10.8114C9.11838 10.8043 9.04366 10.7671 8.98955 10.7073C8.93544 10.6475 8.90594 10.5694 8.90694 10.4887V9.88445C8.90594 9.80378 8.93544 9.72572 8.98955 9.66589C9.04366 9.60606 9.11838 9.56888 9.19873 9.56179C9.24148 9.55895 9.28435 9.56493 9.32469 9.57936C9.36503 9.59379 9.40197 9.61636 9.43321 9.64567C9.46446 9.67497 9.48935 9.71039 9.50633 9.74972C9.52332 9.78905 9.53203 9.83145 9.53194 9.87429V10.4989Z" fill="white"/>
</svg>
