<svg width="240" height="120" viewBox="0 0 240 120" fill="none" xmlns="http://www.w3.org/2000/svg">
<rect width="240" height="120" rx="4" fill="#F5F5F6"/>
<rect x="94" y="34" width="52" height="52" rx="26" fill="#B4DAFF"/>
<rect x="94" y="34" width="52" height="52" rx="26" stroke="#DFEAFB" stroke-width="6.5"/>
<path d="M112.417 69.75H127.583C128.78 69.75 129.75 68.78 129.75 67.5833V52.4167C129.75 51.22 128.78 50.25 127.583 50.25H112.417C111.22 50.25 110.25 51.22 110.25 52.4167V67.5833C110.25 68.78 111.22 69.75 112.417 69.75ZM112.417 69.75L124.333 57.8333L129.75 63.25M117.833 56.2083C117.833 57.1058 117.106 57.8333 116.208 57.8333C115.311 57.8333 114.583 57.1058 114.583 56.2083C114.583 55.3109 115.311 54.5833 116.208 54.5833C117.106 54.5833 117.833 55.3109 117.833 56.2083Z" stroke="#0059FF" stroke-width="1.5" stroke-linecap="round" stroke-linejoin="round"/>
</svg>
