<svg xmlns="http://www.w3.org/2000/svg" width="22" height="22" viewBox="0 0 22 22" fill="none">
  <path d="M11.0013 7.33073C12.0096 7.33073 12.8346 6.50573 12.8346 5.4974C12.8346 4.48906 12.0096 3.66406 11.0013 3.66406C9.99297 3.66406 9.16797 4.48906 9.16797 5.4974C9.16797 6.50573 9.99297 7.33073 11.0013 7.33073ZM11.0013 9.16406C9.99297 9.16406 9.16797 9.98906 9.16797 10.9974C9.16797 12.0057 9.99297 12.8307 11.0013 12.8307C12.0096 12.8307 12.8346 12.0057 12.8346 10.9974C12.8346 9.98906 12.0096 9.16406 11.0013 9.16406ZM11.0013 14.6641C9.99297 14.6641 9.16797 15.4891 9.16797 16.4974C9.16797 17.5057 9.99297 18.3307 11.0013 18.3307C12.0096 18.3307 12.8346 17.5057 12.8346 16.4974C12.8346 15.4891 12.0096 14.6641 11.0013 14.6641Z" fill="#6A6A70"/>
</svg>