<svg width="20" height="20" viewBox="0 0 20 20" fill="none" xmlns="http://www.w3.org/2000/svg">
<g clip-path="url(#clip0_43513_205)">
<rect width="20" height="20" rx="10" fill="#FECDCA"/>
<line x1="14.4142" y1="0.414214" x2="0.414214" y2="14.4142" stroke="#FFD9D6" stroke-width="4"/>
<line x1="36.4142" y1="-4.58579" x2="-48.5858" y2="80.4142" stroke="#FFD9D6" stroke-width="4"/>
<line x1="53.4142" y1="-4.58579" x2="-31.5858" y2="80.4142" stroke="#FFD9D6" stroke-width="4"/>
<line x1="70.4142" y1="-4.58579" x2="-14.5858" y2="80.4142" stroke="#FFD9D6" stroke-width="4"/>
<line x1="87.4142" y1="-4.58579" x2="2.41422" y2="80.4142" stroke="#FFD9D6" stroke-width="4"/>
<line x1="104.414" y1="-4.58579" x2="19.4142" y2="80.4142" stroke="#FFD9D6" stroke-width="4"/>
<rect x="3" y="3" width="14" height="14" rx="7" fill="#E43F32"/>
<path d="M12.8262 8.29041L10.0831 11.0335L7.8576 8.80797H9.28687C9.50584 8.80797 9.685 8.62881 9.685 8.40984C9.685 8.19087 9.50584 8.01172 9.28687 8.01172H6.89812C6.67916 8.01172 6.5 8.19087 6.5 8.40984V10.7986C6.5 11.0176 6.67916 11.1967 6.89812 11.1967C7.11709 11.1967 7.29625 11.0176 7.29625 10.7986V9.36932L9.80045 11.8735C9.95572 12.0288 10.2065 12.0288 10.3618 11.8735L13.3836 8.85176C13.4205 8.81493 13.4498 8.77118 13.4697 8.72302C13.4897 8.67485 13.5 8.62323 13.5 8.57108C13.5 8.51894 13.4897 8.46731 13.4697 8.41915C13.4498 8.37099 13.4205 8.32724 13.3836 8.29041C13.2323 8.13912 12.9775 8.13912 12.8262 8.29041Z" fill="#F5F5F6"/>
</g>
<defs>
<clipPath id="clip0_43513_205">
<rect width="20" height="20" rx="10" fill="white"/>
</clipPath>
</defs>
</svg>
