<svg width="14" height="14" viewBox="0 0 14 14" fill="none" xmlns="http://www.w3.org/2000/svg">
<rect width="14" height="14" rx="7" fill="#E43F32"/>
<path d="M9.8262 5.29041L7.08312 8.03348L4.8576 5.80797H6.28687C6.50584 5.80797 6.685 5.62881 6.685 5.40984C6.685 5.19087 6.50584 5.01172 6.28687 5.01172H3.89812C3.67916 5.01172 3.5 5.19087 3.5 5.40984V7.79859C3.5 8.01756 3.67916 8.19671 3.89812 8.19671C4.11709 8.19671 4.29625 8.01756 4.29625 7.79859V6.36932L6.80045 8.87353C6.95572 9.02879 7.20654 9.02879 7.36181 8.87353L10.3836 5.85176C10.4205 5.81493 10.4498 5.77118 10.4697 5.72302C10.4897 5.67485 10.5 5.62323 10.5 5.57108C10.5 5.51894 10.4897 5.46731 10.4697 5.41915C10.4498 5.37099 10.4205 5.32724 10.3836 5.29041C10.2323 5.13912 9.97748 5.13912 9.8262 5.29041Z" fill="white"/>
</svg>
