<svg xmlns="http://www.w3.org/2000/svg" width="56" height="56" viewBox="0 0 56 56" fill="none">
<rect x="4" y="4" width="48" height="48" rx="24" fill="#FECDCA"/>
<rect x="4" y="4" width="48" height="48" rx="24" stroke="#FBEEED" stroke-width="8"/>
<g clip-path="url(#clip0_16196_244121)">
<path d="M28 18C22.47 18 18 22.47 18 28C18 33.53 22.47 38 28 38C33.53 38 38 33.53 38 28C38 22.47 33.53 18 28 18ZM28 36C23.59 36 20 32.41 20 28C20 23.59 23.59 20 28 20C32.41 20 36 23.59 36 28C36 32.41 32.41 36 28 36ZM31.59 23L28 26.59L24.41 23L23 24.41L26.59 28L23 31.59L24.41 33L28 29.41L31.59 33L33 31.59L29.41 28L33 24.41L31.59 23Z" fill="#E43F32"/>
</g>
<defs>
<clipPath id="clip0_16196_244121">
<rect width="24" height="24" fill="white" transform="translate(16 16)"/>
</clipPath>
</defs>
</svg>