<svg width="24" height="24" viewBox="0 0 24 24" fill="none" xmlns="http://www.w3.org/2000/svg">
<path fillRule="evenodd" clipRule="evenodd" d="M11.7084 3.7446C11.892 3.65024 12.1083 3.65024 12.292 3.7446L19.792 7.59732C20.013 7.71087 20.1527 7.943 20.1527 8.19691C20.1527 8.45083 20.013 8.68296 19.792 8.79651L12.292 12.6492C12.1083 12.7436 11.892 12.7436 11.7084 12.6492L4.20835 8.79651C3.98729 8.68296 3.84766 8.45083 3.84766 8.19691C3.84766 7.943 3.98729 7.71087 4.20835 7.59732L11.7084 3.7446ZM5.95919 8.19691L12.0002 11.3001L18.0411 8.19691L12.0002 5.0937L5.95919 8.19691Z" fill="#D0CFD2"/>
<path fillRule="evenodd" clipRule="evenodd" d="M3.91669 15.6031C4.07785 15.272 4.46979 15.1378 4.79211 15.3033L12.0003 19.0062L19.2085 15.3033C19.5308 15.1378 19.9228 15.272 20.0839 15.6031C20.2451 15.9343 20.1144 16.337 19.7921 16.5025L12.2921 20.3553C12.1084 20.4496 11.8922 20.4496 11.7085 20.3553L4.20849 16.5025C3.88617 16.337 3.75552 15.9343 3.91669 15.6031Z" fill="#D0CFD2"/>
<path fillRule="evenodd" clipRule="evenodd" d="M3.91669 11.7457C4.07785 11.4146 4.46979 11.2803 4.79211 11.4459L12.0003 15.1487L19.2085 11.4459C19.5308 11.2803 19.9228 11.4146 20.0839 11.7457C20.2451 12.0769 20.1144 12.4795 19.7921 12.6451L12.2921 16.4978C12.1084 16.5922 11.8922 16.5922 11.7085 16.4978L4.20849 12.6451C3.88617 12.4795 3.75552 12.0769 3.91669 11.7457Z" fill="#D0CFD2"/>
</svg>
