<svg xmlns="http://www.w3.org/2000/svg" width="22" height="22" viewBox="0 0 22 22" fill="none">
  <path d="M10.9993 7.33073C12.0077 7.33073 12.8327 6.50573 12.8327 5.4974C12.8327 4.48906 12.0077 3.66406 10.9993 3.66406C9.99102 3.66406 9.16602 4.48906 9.16602 5.4974C9.16602 6.50573 9.99102 7.33073 10.9993 7.33073ZM10.9993 9.16406C9.99102 9.16406 9.16602 9.98906 9.16602 10.9974C9.16602 12.0057 9.99102 12.8307 10.9993 12.8307C12.0077 12.8307 12.8327 12.0057 12.8327 10.9974C12.8327 9.98906 12.0077 9.16406 10.9993 9.16406ZM10.9993 14.6641C9.99102 14.6641 9.16602 15.4891 9.16602 16.4974C9.16602 17.5057 9.99102 18.3307 10.9993 18.3307C12.0077 18.3307 12.8327 17.5057 12.8327 16.4974C12.8327 15.4891 12.0077 14.6641 10.9993 14.6641Z" fill="#6A6A70"/>
</svg>