<svg xmlns="http://www.w3.org/2000/svg" width="20" height="20" viewBox="0 0 20 20" fill="none">
  <path fill-rule="evenodd" clip-rule="evenodd" d="M16.6665 2.5H3.33317C2.4165 2.5 1.6665 3.25 1.6665 4.16667V15.8333C1.6665 16.75 2.4165 17.5 3.33317 17.5H16.6665C17.5832 17.5 18.3332 16.75 18.3332 15.8333V4.16667C18.3332 3.25 17.5832 2.5 16.6665 2.5ZM16.6665 15.8333H3.33317V4.16667H16.6665V15.8333Z" fill="#146DFF"/>
  <path fill-rule="evenodd" clip-rule="evenodd" d="M16.1748 8.68333L14.9915 7.5L12.3498 10.1417L11.1748 8.95833L9.99984 10.1333L12.3498 12.5L16.1748 8.68333Z" fill="#146DFF"/>
  <path d="M8.33317 5.83333H4.1665V7.5H8.33317V5.83333Z" fill="#146DFF"/>
  <path d="M8.33317 9.16667H4.1665V10.8333H8.33317V9.16667Z" fill="#146DFF"/>
  <path d="M8.33317 12.5H4.1665V14.1667H8.33317V12.5Z" fill="#146DFF"/>
</svg>