<svg xmlns="http://www.w3.org/2000/svg" width="20" height="20" viewBox="0 0 20 20" fill="none">
  <path d="M5.36872 17C4.90408 17 4.51145 16.8286 4.19084 16.4859C3.87023 16.1432 3.70992 15.7312 3.70992 15.25V6.5L1.12214 3.75347C1 3.62384 0.969466 3.46586 1.03053 3.27951C1.0916 3.09317 1.21253 3 1.39331 3H16.3498C16.8087 3 17.1985 3.17145 17.5191 3.51435C17.8397 3.85726 18 4.26946 18 4.75097V15.2569C18 15.7384 17.8385 16.1493 17.5156 16.4896C17.1927 16.8299 16.8046 17 16.3511 17H5.36872ZM5.35878 4.75V15.25H16.3511V4.75H5.35878ZM10.9924 12.3333H13.8779C14.1115 12.3333 14.3073 12.25 14.4653 12.0833C14.6233 11.9165 14.7023 11.7099 14.7023 11.4635C14.7023 11.217 14.6233 11.0087 14.4653 10.8385C14.3073 10.6684 14.1115 10.5833 13.8779 10.5833H9C8.63072 10.5833 8.37428 10.7616 8.23067 11.1181C8.08707 11.4745 8.14504 11.7905 8.40458 12.066L10.308 14.0862C10.4742 14.2625 10.6679 14.3507 10.8893 14.3507C11.1107 14.3507 11.3053 14.2616 11.4733 14.0833C11.6412 13.9051 11.7252 13.7025 11.7252 13.4757C11.7252 13.2488 11.6412 13.0463 11.4733 12.8681L10.9924 12.3333ZM10.7176 7.66667H7.83206C7.59847 7.66667 7.40267 7.75003 7.24466 7.91675C7.08664 8.08348 7.00763 8.29008 7.00763 8.53654C7.00763 8.78301 7.08664 8.99132 7.24466 9.16146C7.40267 9.3316 7.59847 9.41667 7.83206 9.41667H12.7099C13.0792 9.41667 13.3356 9.23843 13.4793 8.88194C13.6229 8.52546 13.5649 8.20949 13.3053 7.93403L11.3817 5.89236C11.2137 5.71412 11.0229 5.625 10.8092 5.625C10.5954 5.625 10.4046 5.71412 10.2366 5.89236C10.0687 6.0706 9.98473 6.2772 9.98473 6.51215C9.98473 6.74711 10.0687 6.9537 10.2366 7.13194L10.7176 7.66667Z" fill="#146DFF"/>
</svg>