<svg width="32" height="32" viewBox="0 0 32 32" fill="none" xmlns="http://www.w3.org/2000/svg">
<rect width="32" height="32" rx="16" fill="#F5F5F6"/>
<g clip-path="url(#clip0_43560_217113)">
<path d="M20.475 8.95284L20.4752 8.95296L22.7842 10.8722C23.038 11.0905 23.0709 11.4681 22.8571 11.7175L22.856 11.7188C22.6394 11.9776 22.2614 12.0072 22.0096 11.7974C22.0096 11.7974 22.0096 11.7974 22.0096 11.7974L19.7087 9.87872C19.7084 9.87851 19.7082 9.87831 19.7079 9.8781C19.4539 9.65971 19.4206 9.28092 19.6288 9.03113C19.8454 8.77262 20.2233 8.74309 20.475 8.95284ZM9.20784 10.8722L11.5169 8.95296L11.5171 8.95284C11.7697 8.74234 12.1464 8.77383 12.3547 9.0298L12.3547 9.02983L12.3571 9.03272C12.5709 9.28206 12.538 9.65922 12.2773 9.87751C12.2773 9.87754 12.2773 9.87756 12.2772 9.87759L9.97501 11.7974C9.975 11.7974 9.97498 11.7974 9.97497 11.7974C9.72238 12.0079 9.34571 11.9764 9.13737 11.7204L9.13741 11.7204L9.13493 11.7175C8.92113 11.4681 8.95406 11.0905 9.20784 10.8722ZM16.596 16.0001V16.1501H16.746H18.246C18.5757 16.1501 18.846 16.4204 18.846 16.7501C18.846 17.0798 18.5757 17.3501 18.246 17.3501H16.746H16.596V17.5001V19.0001C16.596 19.3298 16.3257 19.6001 15.996 19.6001C15.6664 19.6001 15.396 19.3298 15.396 19.0001V17.5001V17.3501H15.246H13.746C13.4164 17.3501 13.146 17.0798 13.146 16.7501C13.146 16.4204 13.4164 16.1501 13.746 16.1501H15.246H15.396V16.0001V14.5001C15.396 14.1704 15.6664 13.9001 15.996 13.9001C16.3257 13.9001 16.596 14.1704 16.596 14.5001V16.0001ZM9.39604 16.7501C9.39604 13.1054 12.3514 10.1501 15.996 10.1501C19.6407 10.1501 22.596 13.1054 22.596 16.7501C22.596 20.3948 19.6407 23.3501 15.996 23.3501C12.3514 23.3501 9.39604 20.3948 9.39604 16.7501ZM10.596 16.7501C10.596 19.7279 13.0182 22.1501 15.996 22.1501C18.9739 22.1501 21.396 19.7279 21.396 16.7501C21.396 13.7723 18.9739 11.3501 15.996 11.3501C13.0182 11.3501 10.596 13.7723 10.596 16.7501Z" fill="#444446" stroke="#F5F5F6" stroke-width="0.3"/>
</g>
<defs>
<clipPath id="clip0_43560_217113">
<rect width="18" height="18" fill="white" transform="translate(7 7)"/>
</clipPath>
</defs>
</svg>
