<svg width="32" height="32" viewBox="0 0 32 32" fill="none" xmlns="http://www.w3.org/2000/svg">
<g id="NFC">
<circle id="Ellipse 729" cx="16" cy="16" r="16" fill="#FFEED4"/>
<path id="Vector" d="M18.9236 20.7308C18.463 20.5842 17.9841 20.4786 17.4868 20.4141C16.9895 20.3495 16.494 20.3172 16.0002 20.3172C15.5064 20.3172 15.0108 20.3495 14.5136 20.4141C14.0163 20.4786 13.5373 20.5842 13.0767 20.7308L13.7598 22.4162C14.1105 22.3063 14.4747 22.2239 14.8525 22.1689C15.2302 22.1139 15.6128 22.0865 16.0002 22.0865C16.3875 22.0865 16.7701 22.1139 17.1479 22.1689C17.5256 22.2239 17.8898 22.3063 18.2406 22.4162L18.9236 20.7308ZM20.7269 16.2474C20.0036 15.9854 19.2538 15.7817 18.4775 15.6361C17.7011 15.4905 16.8756 15.4177 16.001 15.4177C15.1263 15.4177 14.3006 15.4905 13.5239 15.6361C12.7472 15.7817 11.9971 15.9854 11.2734 16.2474L11.9303 17.8988C12.5393 17.6929 13.1879 17.5228 13.8763 17.3884C14.5646 17.2541 15.2726 17.1869 16.0002 17.1869C16.7278 17.1869 17.4357 17.2541 18.1241 17.3884C18.8124 17.5228 19.4611 17.6929 20.07 17.8988L20.7269 16.2474ZM22.4962 11.7561C21.5422 11.3548 20.5224 11.0481 19.4369 10.8361C18.3515 10.6242 17.2059 10.5182 16.0002 10.5182C14.7945 10.5182 13.6489 10.6242 12.5634 10.8361C11.4779 11.0481 10.4582 11.3548 9.50412 11.7561L10.127 13.4076C10.9603 13.0569 11.8773 12.7825 12.8779 12.5844C13.8786 12.3864 14.9183 12.2874 15.997 12.2874C17.0757 12.2874 18.1161 12.3864 19.1182 12.5844C20.1204 12.7825 21.0387 13.0569 21.8733 13.4076L22.4962 11.7561ZM28.3851 15.9964C28.3851 17.6939 28.0628 19.2954 27.4181 20.8008C26.7735 22.3063 25.8865 23.624 24.7571 24.7539C23.6276 25.8838 22.3106 26.7713 20.8058 27.4162C19.3011 28.0612 17.7 28.3836 16.0024 28.3836C14.2823 28.3836 12.6751 28.0613 11.181 27.4167C9.68691 26.772 8.3749 25.885 7.24499 24.7556C6.11505 23.6262 5.22761 22.3091 4.58266 20.8043C3.93771 19.2996 3.61523 17.6985 3.61523 16.001C3.61523 14.2808 3.93756 12.6736 4.58222 11.1796C5.22687 9.68545 6.11389 8.37343 7.24328 7.24352C8.3727 6.11358 9.68411 5.22614 11.1775 4.58119C12.6709 3.93625 14.2777 3.61377 15.9979 3.61377C17.6954 3.61377 19.2969 3.9361 20.8023 4.58075C22.3078 5.2254 23.6254 6.11243 24.7554 7.24182C25.8853 8.37123 26.7727 9.68264 27.4177 11.1761C28.0626 12.6694 28.3851 14.2762 28.3851 15.9964Z" fill="#EF5C07"/>
</g>
</svg>
