<svg width="192" height="233" viewBox="0 0 192 233" fill="none" xmlns="http://www.w3.org/2000/svg">
<path d="M6.90039 210.252C6.90039 197.952 45.6004 187.852 93.3004 187.852C141 187.852 179.7 197.952 179.7 210.352C179.684 211.755 179.229 213.119 178.4 214.252C171.2 224.752 135.8 232.752 93.3004 232.752C45.6004 232.752 6.90039 222.652 6.90039 210.252Z" fill="#75C4FF"/>
<path d="M6.90039 206.154C6.90039 193.854 45.6004 183.754 93.3004 183.754C141 183.754 179.7 193.854 179.7 206.254C179.684 207.658 179.229 209.021 178.4 210.154C171.2 220.654 135.8 228.654 93.3004 228.654C45.6004 228.654 6.90039 218.554 6.90039 206.154Z" fill="#E5F6FF"/>
<path d="M178.4 210.154C171.2 220.654 135.9 228.654 93.3004 228.654C45.6004 228.654 6.90039 218.554 6.90039 206.154C6.90039 206.154 21.9004 224.254 90.3004 224.254C149.1 224.354 172.8 213.254 178.4 210.154Z" fill="#A9DEFF"/>
<path d="M142.501 200.955C139.201 197.355 118.401 194.555 93.3008 194.555C67.1008 194.555 45.7008 197.555 43.8008 201.355C44.7008 199.155 50.7008 191.555 93.3008 191.555C132.501 191.555 140.801 198.355 142.501 200.955Z" fill="#A9DEFF"/>
<path opacity="0.28" d="M53.8024 101.549L33.3024 205.549C32.2024 211.149 35.8024 216.449 40.7024 216.449H149.302C154.102 216.449 157.702 211.349 156.802 205.949L140.002 101.949C139.302 97.7486 136.202 94.7486 132.502 94.7486H61.3024C57.7024 94.6486 54.6024 97.5486 53.8024 101.549Z" fill="#FFBD71"/>
<path d="M146.4 108.053L156.3 140.953C156.339 141.119 156.414 141.274 156.52 141.408C156.626 141.542 156.76 141.651 156.912 141.727C157.065 141.804 157.233 141.846 157.403 141.85C157.574 141.854 157.743 141.821 157.9 141.753C158.169 141.648 158.39 141.446 158.52 141.188C158.649 140.929 158.678 140.631 158.6 140.353L152.1 106.653C151.997 106.228 151.804 105.83 151.533 105.486C151.262 105.143 150.921 104.862 150.531 104.662C150.142 104.463 149.714 104.35 149.277 104.331C148.841 104.312 148.405 104.388 148 104.553C147.355 104.845 146.839 105.36 146.545 106.003C146.25 106.646 146.199 107.374 146.4 108.053Z" fill="#FFBD71"/>
<path d="M127.699 119.952L134.099 145.352C134.122 145.459 134.167 145.56 134.231 145.648C134.295 145.737 134.376 145.812 134.47 145.868C134.563 145.924 134.667 145.961 134.776 145.975C134.884 145.99 134.994 145.982 135.099 145.952C135.192 145.927 135.279 145.884 135.355 145.825C135.431 145.766 135.494 145.692 135.541 145.608C135.587 145.524 135.617 145.432 135.627 145.336C135.637 145.24 135.627 145.144 135.599 145.052L131.499 119.152C131.449 118.86 131.334 118.583 131.163 118.341C130.991 118.099 130.768 117.899 130.509 117.755C130.249 117.611 129.961 117.527 129.666 117.509C129.37 117.492 129.074 117.54 128.799 117.652C128.387 117.859 128.055 118.198 127.856 118.614C127.657 119.03 127.602 119.501 127.699 119.952Z" fill="#FFBD71"/>
<path d="M44.2997 111.252L35.9997 136.552C35.9699 136.664 35.9157 136.768 35.841 136.856C35.7663 136.944 35.673 137.015 35.5678 137.062C35.4627 137.11 35.3482 137.134 35.2327 137.132C35.1171 137.131 35.0034 137.103 34.8997 137.052C34.7129 136.97 34.5607 136.825 34.4694 136.643C34.3781 136.46 34.3535 136.251 34.3997 136.052L40.3997 110.152C40.4761 109.867 40.6124 109.6 40.7994 109.371C40.9864 109.142 41.22 108.955 41.4846 108.822C41.7493 108.69 42.039 108.615 42.3347 108.603C42.6303 108.591 42.9252 108.642 43.1997 108.752C43.6585 108.961 44.0244 109.331 44.2273 109.792C44.4303 110.254 44.456 110.773 44.2997 111.252Z" fill="#FFBD71"/>
<path d="M60.8 119.051L50 166.051C49.9768 166.158 49.932 166.259 49.8683 166.348C49.8047 166.437 49.7235 166.512 49.6298 166.568C49.5361 166.624 49.4319 166.66 49.3235 166.675C49.2152 166.689 49.1051 166.681 49 166.651C48.9071 166.627 48.8202 166.584 48.7443 166.525C48.6685 166.465 48.6054 166.392 48.5587 166.308C48.5121 166.224 48.4828 166.131 48.4727 166.036C48.4626 165.94 48.4719 165.843 48.5 165.751L57 118.251C57.0502 117.959 57.1653 117.682 57.3368 117.441C57.5082 117.199 57.7317 116.999 57.9908 116.855C58.2498 116.711 58.5378 116.627 58.8336 116.609C59.1294 116.591 59.4255 116.64 59.7 116.751C60.1476 116.915 60.5133 117.247 60.7189 117.677C60.9245 118.107 60.9536 118.6 60.8 119.051Z" fill="#FFBD71"/>
<path d="M83.7001 124.549L78.5001 158.649C78.4862 158.761 78.4471 158.868 78.3857 158.962C78.3244 159.056 78.2425 159.135 78.1461 159.193C78.0498 159.251 77.9416 159.286 77.8297 159.295C77.7178 159.305 77.6051 159.29 77.5001 159.249C77.3137 159.188 77.1532 159.066 77.0444 158.903C76.9356 158.74 76.8848 158.545 76.9001 158.349L79.7001 123.949C79.7438 123.662 79.8496 123.388 80.01 123.146C80.1705 122.903 80.3818 122.699 80.6292 122.547C80.8767 122.394 81.1544 122.298 81.4429 122.264C81.7315 122.23 82.024 122.259 82.3001 122.349C82.5366 122.402 82.7605 122.5 82.9589 122.639C83.1573 122.778 83.3264 122.955 83.4564 123.159C83.5865 123.363 83.6749 123.591 83.7168 123.83C83.7586 124.069 83.7529 124.313 83.7001 124.549Z" fill="#FFBD71"/>
<path d="M110.5 123.852L111.8 177.952C111.798 178.065 111.773 178.176 111.726 178.279C111.678 178.382 111.61 178.474 111.526 178.55C111.441 178.625 111.342 178.682 111.234 178.716C111.126 178.751 111.012 178.763 110.9 178.752C110.709 178.718 110.536 178.62 110.409 178.475C110.282 178.329 110.208 178.145 110.2 177.952L106.5 123.852C106.492 123.56 106.548 123.271 106.665 123.004C106.783 122.737 106.957 122.5 107.177 122.308C107.397 122.117 107.657 121.977 107.937 121.898C108.218 121.819 108.512 121.803 108.8 121.852C109.267 121.945 109.689 122.193 109.997 122.556C110.306 122.919 110.483 123.376 110.5 123.852Z" fill="#FFBD71"/>
<path d="M6.60078 74.7531C5.5938 73.573 4.7527 72.2609 4.10078 70.8531L1.80078 55.4531L7.10078 60.3531L6.60078 74.7531Z" fill="#146DFF"/>
<path d="M155.8 79.9531C152.993 85.2824 149.459 90.1959 145.3 94.5531C136.3 104.153 121.1 115.053 98.5 115.053C82.6 115.053 70.8 109.753 62.4 103.353C54.4939 97.3727 48.1759 89.5438 44 80.5531L155.8 79.9531Z" fill="#001D66"/>
<path d="M155.8 79.9531C152.993 85.2824 149.459 90.1959 145.3 94.5531C135.947 98.055 126.213 100.438 116.3 101.653C93.1 104.753 75 104.553 62.4 103.353C54.4939 97.3727 48.1759 89.5438 44 80.5531L155.8 79.9531Z" fill="#0032A0"/>
<path d="M191.001 54.8543C190.465 59.6093 189.596 64.3209 188.401 68.9543C188.061 70.2315 187.521 71.4467 186.801 72.5543C184.701 75.9543 180.701 79.6543 174.201 83.1543C173.101 83.7543 171.801 84.3543 170.501 84.9543C169.501 85.4543 168.501 85.8543 167.401 86.3543C165.901 86.9543 164.401 87.5543 162.801 88.1543C156.264 90.3806 149.582 92.1515 142.801 93.4543C142.201 93.5543 141.701 93.6543 141.101 93.7543C139.601 94.0543 137.801 94.2543 135.901 94.4543C127.901 95.3543 117.301 95.9543 106.001 96.1543C103.901 96.1543 101.801 96.2543 99.7006 96.2543C89.0006 96.3543 78.2006 96.0543 68.8006 95.5543C66.8006 95.4543 64.8006 95.3543 63.0006 95.1543C58.3711 94.8602 53.763 94.2926 49.2006 93.4543C44.1006 92.4543 39.5006 91.3543 35.4006 90.1543C33.7006 89.6543 32.1006 89.1543 30.5006 88.6543C18.1006 84.5543 10.6006 79.5543 6.70059 74.9543C6.13766 74.3372 5.63535 73.6675 5.20059 72.9543C4.79014 72.3646 4.45426 71.7265 4.20059 71.0543C3.87916 70.4218 3.64375 69.7492 3.50059 69.0543C2.64742 65.6314 2.0128 62.1577 1.60059 58.6543C1.20059 55.3543 1.10059 53.1543 1.10059 53.1543L96.1006 60.2543L191.101 54.9543L191.001 54.8543Z" fill="#A9DEFF"/>
<path d="M190.9 54.6535C190.728 55.678 190.238 56.6224 189.5 57.3535C187 60.2535 181 64.5535 170.8 68.4535C169.5 68.9535 168.1 69.4535 166.6 69.9535C165.9 70.1535 165.2 70.4535 164.5 70.6535C163 71.1535 161.4 71.6535 159.7 72.0535C153.166 73.8851 146.518 75.2881 139.8 76.2535C138 76.5535 136.1 76.8535 134.1 77.0535C124.711 78.2428 115.263 78.9105 105.8 79.0535C103.8 79.0535 101.7 79.1535 99.6004 79.1535H99.5004C88.8004 79.1535 78.9004 78.6535 70.0004 77.8535C68.0004 77.6535 66.0004 77.4535 64.1004 77.2535C55.3494 76.29 46.6662 74.7872 38.1004 72.7535C36.4004 72.3535 34.7004 71.8535 33.1004 71.4535C18.2004 67.3535 8.40039 62.2535 3.90039 58.0535C3.1135 57.3339 2.40917 56.529 1.80039 55.6535C1.2556 54.9298 0.941919 54.0584 0.900391 53.1535C0.900391 46.0535 28.9004 30.9535 100 30.9535C171.1 30.8535 190.9 49.7535 190.9 54.6535Z" fill="#001D66"/>
<path d="M59.0002 39.0543L7.00098 60.5C5.0167 59.119 3.23233 57.3243 1.7002 55.4543L57.3002 38.1543L59.0002 39.0543Z" fill="#0032A0"/>
<path d="M190.901 54.7539C190.701 55.7397 190.213 56.6443 189.501 57.3539L136.101 39.0539L137.801 38.2539L190.901 54.7539Z" fill="#0032A0"/>
<path d="M67.8006 44.5531L38.1006 72.6531C36.4006 72.2531 34.7006 71.7531 33.1006 71.3531L66.0006 44.4531L67.8006 44.5531Z" fill="#0032A0"/>
<path d="M84.1006 47.8539L70.0006 77.8539C68.0006 77.6539 66.0006 77.4539 64.1006 77.2539L82.3006 47.7539L84.1006 47.8539Z" fill="#0032A0"/>
<path d="M139.9 76.3539C138.1 76.6539 136.1 76.9539 134.2 77.1539L120.4 47.8539L122.3 47.7539L139.9 76.3539Z" fill="#0032A0"/>
<path d="M105.8 79.1543C103.8 79.1543 101.7 79.2543 99.6 79.2543H99.5L101.9 49.7543L103.8 49.6543L105.8 79.1543Z" fill="#0032A0"/>
<path d="M170.701 68.4531C169.401 68.9531 168.001 69.4531 166.501 69.9531L130.601 44.5531L132.501 44.4531L170.701 68.4531Z" fill="#0032A0"/>
<path d="M105.901 95.9527C103.801 95.9527 101.701 96.0527 99.6006 96.0527V79.1527L105.801 79.0527L105.901 95.9527Z" fill="#146DFF"/>
<path d="M140.901 93.5539C139.301 93.8539 137.601 94.0539 135.701 94.2539L134.101 77.0539L139.801 76.2539L140.901 93.5539Z" fill="#146DFF"/>
<path d="M174.101 83.0531C173.001 83.6531 171.701 84.2531 170.401 84.8531L166.601 69.8531L170.701 68.4531L174.101 83.0531Z" fill="#146DFF"/>
<path d="M70 77.8539L68.8 95.3539C66.8 95.2539 64.8 95.1539 63 94.9539L64.2 77.2539L70 77.8539Z" fill="#146DFF"/>
<path d="M38.1004 72.6535L35.3004 89.9535C33.6004 89.4535 32.0004 88.9535 30.4004 88.4535L33.0004 71.3535L38.1004 72.6535Z" fill="#146DFF"/>
<path d="M7 60.5L5.1 72.8527C4.68956 72.2631 4.35367 71.6249 4.1 70.9527C3.77858 70.3202 3.54316 69.6476 3.4 68.9527C2.54683 65.5299 1.91222 62.0562 1.5 58.5527L1.8 55.5527C1.8 55.5527 3.3 57.3 4 58C4.6 58.6 7 60.5 7 60.5Z" fill="#146DFF"/>
<path d="M95.3 61.6531C124.737 61.6531 148.6 54.8926 148.6 46.5531C148.6 38.2136 124.737 31.4531 95.3 31.4531C65.8632 31.4531 42 38.2136 42 46.5531C42 54.8926 65.8632 61.6531 95.3 61.6531Z" fill="#0032A0"/>
<path d="M144 44.1534C144 44.1534 140.1 48.5534 130.5 52.3534C123.4 55.1534 113.2 57.5534 99.2004 57.5534C92.4914 57.5977 85.7937 56.9949 79.2004 55.7534C60.5004 52.1534 52.4004 44.3534 52.4004 44.3534C52.4004 44.3534 56.5004 13.9534 82.1004 3.65342C88.0236 1.33304 94.3393 0.178567 100.7 0.25342C135.9 0.25342 144 44.1534 144 44.1534Z" fill="#CFEFFF"/>
<path d="M79.2004 55.7543C60.5004 52.1543 52.4004 44.3543 52.4004 44.3543C52.4004 44.3543 56.5004 13.9543 82.1004 3.6543C77.1004 7.8543 72.2004 16.2543 71.4004 29.9543C70.6004 40.1543 73.0004 48.6543 79.2004 55.7543Z" fill="#75C4FF"/>
<path d="M144 44.1534C144 44.1534 140.1 48.5534 130.5 52.3534C129.499 48.7304 128.229 45.1872 126.7 41.7534C126.7 41.7534 117.3 43.7534 113.1 34.8534C108.9 25.9534 119 19.5534 119 19.5534C119 19.5534 116.6 11.8534 104.2 6.85342C91.8004 1.85342 81.9004 3.65342 81.9004 3.65342C87.8236 1.33304 94.1393 0.178567 100.5 0.25342C135.9 0.25342 144 44.1534 144 44.1534Z" fill="#A9DEFF"/>
<path d="M103.7 25.3543C105.191 25.3543 106.4 24.1902 106.4 22.7543C106.4 21.3184 105.191 20.1543 103.7 20.1543C102.209 20.1543 101 21.3184 101 22.7543C101 24.1902 102.209 25.3543 103.7 25.3543Z" fill="#A9DEFF"/>
<path d="M94.3002 27.8535C95.46 27.8535 96.4002 26.9581 96.4002 25.8535C96.4002 24.7489 95.46 23.8535 94.3002 23.8535C93.1404 23.8535 92.2002 24.7489 92.2002 25.8535C92.2002 26.9581 93.1404 27.8535 94.3002 27.8535Z" fill="#A9DEFF"/>
<path d="M100.6 41.3535C102.864 41.3535 104.7 39.5627 104.7 37.3535C104.7 35.1444 102.864 33.3535 100.6 33.3535C98.3356 33.3535 96.5 35.1444 96.5 37.3535C96.5 39.5627 98.3356 41.3535 100.6 41.3535Z" fill="#A9DEFF"/>
</svg>
