<svg width="178" height="99" viewBox="0 0 178 99" fill="none" xmlns="http://www.w3.org/2000/svg">
<g clip-path="url(#clip0_25948_58950)">
<path d="M46.6704 31.0145C52.3006 31.0145 56.8647 26.4379 56.8647 20.7924C56.8647 15.1469 52.3006 10.5703 46.6704 10.5703C41.0402 10.5703 36.4761 15.1469 36.4761 20.7924C36.4761 26.4379 41.0402 31.0145 46.6704 31.0145Z" fill="#CFEFFF"/>
<path d="M78.6388 52.2906H28.6285C28.5659 52.2914 28.5034 52.2864 28.4417 52.2758L52.0942 11.1945C52.2386 10.9386 52.4481 10.7258 52.7013 10.5777C52.9546 10.4296 53.2425 10.3516 53.5356 10.3516C53.8288 10.3516 54.1167 10.4296 54.3699 10.5777C54.6232 10.7258 54.8327 10.9386 54.977 11.1945L70.8509 38.7632L71.6114 40.0824L78.6388 52.2906Z" fill="#146DFF"/>
<path opacity="0.2" d="M78.6388 52.2929H61.564L69.9459 40.0846L70.5492 39.2052L70.8508 38.7656L71.6114 40.0846L78.6388 52.2929Z" fill="black"/>
<path d="M106.484 52.2926H63.2292L71.6112 40.0843L72.2144 39.2049L83.1368 23.2952C83.8529 22.2525 85.5755 22.1875 86.4174 23.0985C86.4739 23.1607 86.5265 23.2263 86.5747 23.2952L106.484 52.2926Z" fill="#146DFF"/>
<path d="M119.181 45.5355C120.878 45.5355 122.253 44.1564 122.253 42.4553C122.253 40.7541 120.878 39.375 119.181 39.375C117.485 39.375 116.109 40.7541 116.109 42.4553C116.109 44.1564 117.485 45.5355 119.181 45.5355Z" fill="#D0CFD2"/>
<path d="M119.477 51.7341H118.848L119.135 41.9922L119.477 51.7341Z" fill="#D0CFD2"/>
<path d="M147.36 45.5355C149.057 45.5355 150.432 44.1564 150.432 42.4553C150.432 40.7541 149.057 39.375 147.36 39.375C145.664 39.375 144.288 40.7541 144.288 42.4553C144.288 44.1564 145.664 45.5355 147.36 45.5355Z" fill="#D0CFD2"/>
<path d="M147.656 51.7341H147.027L147.314 41.9922L147.656 51.7341Z" fill="#D0CFD2"/>
<path d="M128.08 42.5751C130.586 42.5751 132.617 40.5384 132.617 38.0259C132.617 35.5133 130.586 33.4766 128.08 33.4766C125.574 33.4766 123.543 35.5133 123.543 38.0259C123.543 40.5384 125.574 42.5751 128.08 42.5751Z" fill="#D0CFD2"/>
<path d="M128.517 51.7317H127.588L128.012 37.3438L128.517 51.7317Z" fill="#D0CFD2"/>
<path d="M139.144 42.5751C141.65 42.5751 143.681 40.5384 143.681 38.0259C143.681 35.5133 141.65 33.4766 139.144 33.4766C136.638 33.4766 134.607 35.5133 134.607 38.0259C134.607 40.5384 136.638 42.5751 139.144 42.5751Z" fill="#D0CFD2"/>
<path d="M139.582 51.7317H138.652L139.076 37.3438L139.582 51.7317Z" fill="#D0CFD2"/>
<path d="M110.447 42.5751C112.952 42.5751 114.984 40.5384 114.984 38.0259C114.984 35.5133 112.952 33.4766 110.447 33.4766C107.941 33.4766 105.91 35.5133 105.91 38.0259C105.91 40.5384 107.941 42.5751 110.447 42.5751Z" fill="#D0CFD2"/>
<path d="M110.884 51.7317H109.955L110.378 37.3438L110.884 51.7317Z" fill="#D0CFD2"/>
<path d="M164.123 98.9986H16.0627C14.1973 98.9986 12.3501 98.6302 10.6267 97.9144C8.90324 97.1986 7.33729 96.1494 6.01823 94.8268C4.69917 93.5041 3.65283 91.9339 2.93896 90.2057C2.22509 88.4776 1.85767 86.6254 1.85767 84.7549C1.85767 82.8844 2.22509 81.0322 2.93896 79.3041C3.65283 77.5759 4.69917 76.0057 6.01823 74.6831C7.33729 73.3604 8.90324 72.3112 10.6267 71.5954C12.3501 70.8796 14.1973 70.5112 16.0627 70.5112H163.795C165.244 70.5112 166.634 69.934 167.658 68.9066C168.683 67.8792 169.259 66.4858 169.259 65.0328C169.259 63.5799 168.683 62.1864 167.658 61.159C166.634 60.1316 165.244 59.5544 163.795 59.5544H11.1456V50.7891H163.795C167.562 50.7891 171.176 52.2897 173.84 54.961C176.503 57.6322 178 61.2551 178 65.0328C178 68.8105 176.503 72.4334 173.84 75.1046C171.176 77.7759 167.562 79.2765 163.795 79.2765H16.0627C14.6137 79.2765 13.224 79.8537 12.1994 80.8811C11.1748 81.9085 10.5992 83.302 10.5992 84.7549C10.5992 86.2079 11.1748 87.6013 12.1994 88.6287C13.224 89.6561 14.6137 90.2333 16.0627 90.2333H164.123V98.9986Z" fill="#E6E6E7"/>
<path d="M23.3836 54.9531H16.6089V55.3914H23.3836V54.9531Z" fill="white"/>
<path d="M42.615 54.9531H35.8403V55.3914H42.615V54.9531Z" fill="white"/>
<path d="M61.8465 54.9531H55.0718V55.3914H61.8465V54.9531Z" fill="white"/>
<path d="M81.0779 54.9531H74.3032V55.3914H81.0779V54.9531Z" fill="white"/>
<path d="M100.309 54.9531H93.5347V55.3914H100.309V54.9531Z" fill="white"/>
<path d="M119.541 54.9531H112.766V55.3914H119.541V54.9531Z" fill="white"/>
<path d="M138.772 54.9531H131.998V55.3914H138.772V54.9531Z" fill="white"/>
<path d="M158.004 54.9531H151.229V55.3914H158.004V54.9531Z" fill="white"/>
<path d="M23.3836 74.6797H16.6089V75.118H23.3836V74.6797Z" fill="white"/>
<path d="M42.615 74.6797H35.8403V75.118H42.615V74.6797Z" fill="white"/>
<path d="M61.8465 74.6797H55.0718V75.118H61.8465V74.6797Z" fill="white"/>
<path d="M81.0779 74.6797H74.3032V75.118H81.0779V74.6797Z" fill="white"/>
<path d="M100.309 74.6797H93.5347V75.118H100.309V74.6797Z" fill="white"/>
<path d="M119.541 74.6797H112.766V75.118H119.541V74.6797Z" fill="white"/>
<path d="M138.772 74.6797H131.998V75.118H138.772V74.6797Z" fill="white"/>
<path d="M158.004 74.6797H151.229V75.118H158.004V74.6797Z" fill="white"/>
<path d="M23.3836 94.3984H16.6089V94.8367H23.3836V94.3984Z" fill="white"/>
<path d="M42.615 94.3984H35.8403V94.8367H42.615V94.3984Z" fill="white"/>
<path d="M61.8465 94.3984H55.0718V94.8367H61.8465V94.3984Z" fill="white"/>
<path d="M81.0779 94.3984H74.3032V94.8367H81.0779V94.3984Z" fill="white"/>
<path d="M100.309 94.3984H93.5347V94.8367H100.309V94.3984Z" fill="white"/>
<path d="M119.541 94.3984H112.766V94.8367H119.541V94.3984Z" fill="white"/>
<path d="M138.772 94.3984H131.998V94.8367H138.772V94.3984Z" fill="white"/>
<path d="M158.004 94.3984H151.229V94.8367H158.004V94.3984Z" fill="white"/>
<path d="M118.861 17.3906C119.572 17.39 120.273 17.5714 120.895 17.9177H116.832C117.452 17.5715 118.151 17.39 118.861 17.3906Z" fill="#E6E6E7"/>
<path d="M110.976 16.8672C112.165 16.8658 113.325 17.2341 114.297 17.9213H107.66C108.631 17.2349 109.789 16.8666 110.976 16.8672Z" fill="#E6E6E7"/>
<path d="M66.3142 10.1947C66.4584 7.63813 67.5034 5.21602 69.2629 3.36019C71.0224 1.50436 73.3821 0.335455 75.9211 0.0618684C78.4602 -0.211718 81.0136 0.427801 83.1262 1.86641C85.2388 3.30501 86.7731 5.4492 87.4557 7.91666C87.5863 7.91196 87.7167 7.9067 87.8484 7.9067C90.1764 7.90713 92.4417 8.66337 94.3053 10.0623C96.169 11.4612 97.5309 13.4275 98.1872 15.6672C99.7298 14.9875 101.454 14.8401 103.089 15.2479C104.724 15.6557 106.178 16.5958 107.223 17.921H73.6111C72.6306 17.9238 71.6595 17.7281 70.7561 17.3457C69.8527 16.9633 69.0355 16.4021 68.3535 15.6956C67.6715 14.9891 67.1387 14.1519 66.787 13.2341C66.4353 12.3162 66.2719 11.3367 66.3066 10.354C66.3087 10.301 66.3113 10.2479 66.3142 10.1947Z" fill="#E6E6E7"/>
<path d="M121.313 25.2813C120.602 25.2806 119.902 25.462 119.279 25.8083H123.342C122.722 25.4621 122.024 25.2807 121.313 25.2813Z" fill="#E6E6E7"/>
<path d="M129.198 24.7578C128.009 24.7564 126.849 25.1247 125.878 25.812H132.514C131.544 25.1255 130.385 24.7573 129.198 24.7578Z" fill="#E6E6E7"/>
<path d="M173.86 18.0853C173.716 15.5288 172.671 13.1066 170.911 11.2508C169.152 9.39499 166.792 8.22608 164.253 7.95249C161.714 7.67891 159.161 8.31843 157.048 9.75703C154.936 11.1956 153.401 13.3398 152.719 15.8073C152.588 15.8026 152.458 15.7973 152.326 15.7973C149.998 15.7978 147.733 16.554 145.869 17.9529C144.005 19.3518 142.643 21.3182 141.987 23.5578C140.444 22.8782 138.721 22.7307 137.085 23.1385C135.45 23.5464 133.996 24.4865 132.951 25.8116H166.563C167.544 25.8144 168.515 25.6187 169.418 25.2363C170.322 24.854 171.139 24.2927 171.821 23.5862C172.503 22.8797 173.036 22.0425 173.387 21.1247C173.739 20.2069 173.902 19.2273 173.868 18.2447C173.866 18.1916 173.863 18.1385 173.86 18.0853Z" fill="#E6E6E7"/>
<path d="M10.0528 62.6213C15.6048 62.6213 20.1056 58.1083 20.1056 52.5411C20.1056 46.974 15.6048 42.4609 10.0528 42.4609C4.50079 42.4609 0 46.974 0 52.5411C0 58.1083 4.50079 62.6213 10.0528 62.6213Z" fill="#CFEFFF"/>
<path d="M10.0947 56.5807L5.06396 51.5362C4.90031 51.3717 4.80847 51.1489 4.80859 50.9165C4.80872 50.6842 4.90081 50.4614 5.06464 50.2972C5.22847 50.1329 5.45064 50.0406 5.68232 50.0404C5.91401 50.0403 6.13627 50.1324 6.30028 50.2965L10.0111 54.0174L21.8524 40.4774C22.0054 40.303 22.2211 40.1966 22.4522 40.1815C22.6834 40.1665 22.911 40.2441 23.0852 40.3972C23.2593 40.5503 23.3657 40.7665 23.381 40.9982C23.3964 41.23 23.3193 41.4584 23.1668 41.6332L10.0947 56.5807Z" fill="#146DFF"/>
</g>
<defs>
<clipPath id="clip0_25948_58950">
<rect width="178" height="99" fill="white"/>
</clipPath>
</defs>
</svg>
