<svg xmlns="http://www.w3.org/2000/svg" width="12" height="12" viewBox="0 0 12 12" fill="none">
  <g clip-path="url(#clip0_30388_10298)">
    <path d="M6 1C3.24 1 1 3.24 1 6C1 8.76 3.24 11 6 11C8.76 11 11 8.76 11 6C11 3.24 8.76 1 6 1ZM2 6C2 3.79 3.79 2 6 2C6.925 2 7.775 2.315 8.45 2.845L2.845 8.45C2.315 7.775 2 6.925 2 6ZM6 10C5.075 10 4.225 9.685 3.55 9.155L9.155 3.55C9.685 4.225 10 5.075 10 6C10 8.21 8.21 10 6 10Z" fill="#B32318"/>
  </g>
  <defs>
    <clipPath id="clip0_30388_10298">
      <rect width="12" height="12" fill="white"/>
    </clipPath>
  </defs>
</svg>