<svg xmlns="http://www.w3.org/2000/svg" width="79" height="79" viewBox="0 0 79 79" fill="none">
  <path d="M70.0788 19.3861L37.1621 52.3028C35.8784 53.5866 33.8046 53.5866 32.5209 52.3028L23.2055 42.9874C21.9217 41.7036 21.9217 39.6299 23.2055 38.3461C24.4892 37.0624 26.563 37.0624 27.8467 38.3461L34.825 45.3245L65.4046 14.7449C66.6884 13.4611 68.7621 13.4611 70.0459 14.7449C71.3625 16.0286 71.3625 18.1024 70.0788 19.3861ZM51.9088 9.01739C46.3459 6.74614 40.0259 5.95614 33.4425 7.14114C20.0455 9.54406 9.34754 20.3407 7.07629 33.7378C3.32379 55.9566 21.823 74.9824 43.91 72.1186C56.945 70.4399 67.8734 60.7295 71.2967 48.0566C72.6134 43.2178 72.745 38.5436 71.988 34.1657C71.56 31.5324 68.3013 30.512 66.3921 32.3882C65.635 33.1453 65.3059 34.2645 65.5034 35.3178C66.2275 39.6957 65.8984 44.3699 63.7917 49.3403C59.9734 58.2607 51.6784 64.8111 42.0338 65.6999C25.2463 67.247 11.3225 53.027 13.3963 36.1407C14.8117 24.4882 24.193 15.0082 35.8125 13.3953C41.5071 12.6053 46.9055 13.6916 51.5138 16.0616C52.7975 16.7199 54.3446 16.4895 55.365 15.4691C56.945 13.8891 56.55 11.2228 54.575 10.2024C53.6863 9.80739 52.7975 9.37948 51.9088 9.01739Z" fill="#E6E6E7"/>
</svg>