<svg width="14" height="14" viewBox="0 0 14 14" fill="none" xmlns="http://www.w3.org/2000/svg">
<rect width="14" height="14" rx="7" fill="#262527"/>
<path d="M8.5 7.75H5.5C5.40054 7.75 5.30516 7.78951 5.23484 7.85984C5.16451 7.93016 5.125 8.02554 5.125 8.125C5.125 8.22446 5.16451 8.31984 5.23484 8.39016C5.30516 8.46049 5.40054 8.5 5.5 8.5H8.5C8.59946 8.5 8.69484 8.46049 8.76517 8.39016C8.83549 8.31984 8.875 8.22446 8.875 8.125C8.875 8.02554 8.83549 7.93016 8.76517 7.85984C8.69484 7.78951 8.59946 7.75 8.5 7.75ZM8.5 6.25H6.25C6.15054 6.25 6.05516 6.28951 5.98484 6.35984C5.91451 6.43016 5.875 6.52554 5.875 6.625C5.875 6.72446 5.91451 6.81984 5.98484 6.89016C6.05516 6.96049 6.15054 7 6.25 7H8.5C8.59946 7 8.69484 6.96049 8.76517 6.89016C8.83549 6.81984 8.875 6.72446 8.875 6.625C8.875 6.52554 8.83549 6.43016 8.76517 6.35984C8.69484 6.28951 8.59946 6.25 8.5 6.25ZM10 4H8.875V3.625C8.875 3.52554 8.83549 3.43016 8.76517 3.35983C8.69484 3.28951 8.59946 3.25 8.5 3.25C8.40054 3.25 8.30516 3.28951 8.23484 3.35983C8.16451 3.43016 8.125 3.52554 8.125 3.625V4H7.375V3.625C7.375 3.52554 7.33549 3.43016 7.26516 3.35983C7.19484 3.28951 7.09946 3.25 7 3.25C6.90054 3.25 6.80516 3.28951 6.73484 3.35983C6.66451 3.43016 6.625 3.52554 6.625 3.625V4H5.875V3.625C5.875 3.52554 5.83549 3.43016 5.76516 3.35983C5.69484 3.28951 5.59946 3.25 5.5 3.25C5.40054 3.25 5.30516 3.28951 5.23484 3.35983C5.16451 3.43016 5.125 3.52554 5.125 3.625V4H4C3.90054 4 3.80516 4.03951 3.73483 4.10984C3.66451 4.18016 3.625 4.27554 3.625 4.375V9.625C3.625 9.92337 3.74353 10.2095 3.9545 10.4205C4.16548 10.6315 4.45163 10.75 4.75 10.75H9.25C9.54837 10.75 9.83452 10.6315 10.0455 10.4205C10.2565 10.2095 10.375 9.92337 10.375 9.625V4.375C10.375 4.27554 10.3355 4.18016 10.2652 4.10984C10.1948 4.03951 10.0995 4 10 4ZM9.625 9.625C9.625 9.72446 9.58549 9.81984 9.51517 9.89017C9.44484 9.96049 9.34946 10 9.25 10H4.75C4.65054 10 4.55516 9.96049 4.48484 9.89017C4.41451 9.81984 4.375 9.72446 4.375 9.625V4.75H5.125V5.125C5.125 5.22446 5.16451 5.31984 5.23484 5.39016C5.30516 5.46049 5.40054 5.5 5.5 5.5C5.59946 5.5 5.69484 5.46049 5.76516 5.39016C5.83549 5.31984 5.875 5.22446 5.875 5.125V4.75H6.625V5.125C6.625 5.22446 6.66451 5.31984 6.73484 5.39016C6.80516 5.46049 6.90054 5.5 7 5.5C7.09946 5.5 7.19484 5.46049 7.26516 5.39016C7.33549 5.31984 7.375 5.22446 7.375 5.125V4.75H8.125V5.125C8.125 5.22446 8.16451 5.31984 8.23484 5.39016C8.30516 5.46049 8.40054 5.5 8.5 5.5C8.59946 5.5 8.69484 5.46049 8.76517 5.39016C8.83549 5.31984 8.875 5.22446 8.875 5.125V4.75H9.625V9.625Z" fill="white"/>
</svg>
