<svg width="20" height="20" viewBox="0 0 20 20" fill="none" xmlns="http://www.w3.org/2000/svg">
<g clip-path="url(#clip0_44576_17118)">
<rect width="20" height="20" rx="10" fill="#FEF0C7"/>
<line x1="53.4142" y1="-4.58579" x2="-31.5858" y2="80.4142" stroke="#FFD9D6" stroke-width="4"/>
<line x1="70.4142" y1="-4.58579" x2="-14.5858" y2="80.4142" stroke="#FFD9D6" stroke-width="4"/>
<line x1="87.4142" y1="-4.58579" x2="2.41422" y2="80.4142" stroke="#FFD9D6" stroke-width="4"/>
<line x1="104.414" y1="-4.58579" x2="19.4142" y2="80.4142" stroke="#FFD9D6" stroke-width="4"/>
<path d="M9.99594 13.4852C10.149 13.4852 10.2787 13.4334 10.385 13.3299C10.4912 13.2263 10.5444 13.098 10.5444 12.9449C10.5444 12.7918 10.4926 12.6621 10.389 12.5559C10.2855 12.4496 10.1571 12.3965 10.0041 12.3965C9.85095 12.3965 9.72127 12.4482 9.61502 12.5518C9.50876 12.6554 9.45563 12.7837 9.45563 12.9368C9.45563 13.0899 9.50741 13.2195 9.61098 13.3258C9.71453 13.4321 9.84285 13.4852 9.99594 13.4852ZM9.99621 10.9823C10.1368 10.9823 10.2559 10.9343 10.3535 10.8385C10.4512 10.7427 10.5 10.6239 10.5 10.4823V6.86684C10.5 6.72518 10.4524 6.60644 10.3573 6.51061C10.2622 6.41477 10.1444 6.36686 10.0038 6.36686C9.8632 6.36686 9.74409 6.41477 9.64646 6.51061C9.54883 6.60644 9.50002 6.72518 9.50002 6.86684V10.4823C9.50002 10.6239 9.54757 10.7427 9.64267 10.8385C9.73777 10.9343 9.85562 10.9823 9.99621 10.9823ZM10.0066 17C9.04362 17 8.13669 16.8178 7.28582 16.4535C6.43493 16.0891 5.69017 15.5878 5.05154 14.9494C4.4129 14.3111 3.91132 13.5669 3.54679 12.717C3.18226 11.867 3 10.9589 3 9.99248C3 9.02609 3.18218 8.12067 3.54654 7.2762C3.9109 6.43173 4.41225 5.69017 5.05058 5.05154C5.68893 4.4129 6.43308 3.91132 7.28303 3.54679C8.13298 3.18226 9.04114 3 10.0075 3C10.9739 3 11.8793 3.18218 12.7238 3.54654C13.5683 3.9109 14.3098 4.41225 14.9485 5.05058C15.5871 5.68893 16.0887 6.43158 16.4532 7.27853C16.8177 8.12548 17 9.03044 17 9.9934C17 10.9564 16.8178 11.8633 16.4535 12.7142C16.0891 13.5651 15.5878 14.3098 14.9494 14.9485C14.3111 15.5871 13.5684 16.0887 12.7215 16.4532C11.8745 16.8177 10.9696 17 10.0066 17Z" fill="#F77619"/>
<circle cx="10" cy="10" r="4" fill="#F4780B"/>
<path d="M11.4269 8.57312L11.4623 8.53779C11.4344 8.5099 11.4013 8.48777 11.3649 8.47267C11.3285 8.45757 11.2894 8.4498 11.25 8.4498C11.2106 8.4498 11.1715 8.45757 11.1351 8.47267C11.0987 8.48776 11.0656 8.50989 11.0378 8.53777C11.0378 8.53778 11.0378 8.53778 11.0378 8.53779L9.78777 9.78777C9.7599 9.81564 9.73779 9.84873 9.72271 9.88514C9.70762 9.92156 9.69986 9.96058 9.69986 10C9.69986 10.0394 9.70762 10.0784 9.72271 10.1149C9.73779 10.1513 9.7599 10.1844 9.78777 10.2122C9.81564 10.2401 9.84873 10.2622 9.88514 10.2773C9.92156 10.2924 9.96059 10.3001 10 10.3001C10.0394 10.3001 10.0784 10.2924 10.1149 10.2773C10.1513 10.2622 10.1844 10.2401 10.2122 10.2122L11.4622 8.96225C11.4622 8.96224 11.4622 8.96224 11.4622 8.96223C11.4901 8.93437 11.5122 8.90129 11.5273 8.86488C11.5424 8.82846 11.5502 8.78942 11.5502 8.75C11.5502 8.71058 11.5424 8.67154 11.5273 8.63512C11.5122 8.5987 11.4901 8.56561 11.4622 8.53775L11.4269 8.57312ZM11.4269 8.57312C11.4037 8.54988 11.3761 8.53144 11.3457 8.51886C11.3154 8.50628 11.2829 8.4998 11.25 8.4998C11.2171 8.4998 11.1846 8.50628 11.1543 8.51886C11.1239 8.53144 11.0963 8.54988 11.0731 8.57312L11.4269 8.92687C11.4501 8.90366 11.4686 8.87608 11.4811 8.84573C11.4937 8.81539 11.5002 8.78285 11.5002 8.75C11.5002 8.71715 11.4937 8.68461 11.4811 8.65426C11.4686 8.62391 11.4501 8.59634 11.4269 8.57312ZM10.0001 6.95H10C9.39677 6.95 8.80708 7.12888 8.30551 7.46402C7.80394 7.79916 7.41302 8.2755 7.18217 8.83281C6.95132 9.39013 6.89092 10.0034 7.00861 10.595C7.12629 11.1867 7.41678 11.7301 7.84333 12.1567C8.26988 12.5832 8.81333 12.8737 9.40498 12.9914C9.99662 13.1091 10.6099 13.0487 11.1672 12.8178C11.7245 12.587 12.2008 12.1961 12.536 11.6945C12.8711 11.1929 13.05 10.6032 13.05 10V9.99994C13.0491 9.19133 12.7274 8.4161 12.1557 7.84433C11.5839 7.27255 10.8087 6.95092 10.0001 6.95ZM9.99994 12.45C9.5154 12.45 9.04174 12.3063 8.63885 12.0371C8.23595 11.7679 7.92193 11.3853 7.7365 10.9376C7.55106 10.4899 7.50254 9.99728 7.59708 9.52203C7.69161 9.04677 7.92495 8.61023 8.26759 8.26759C8.61023 7.92495 9.04678 7.69161 9.52203 7.59708C9.99728 7.50254 10.4899 7.55106 10.9376 7.73649C11.3853 7.92193 11.7679 8.23595 12.0371 8.63885C12.3063 9.04174 12.45 9.5154 12.45 9.99994C12.4493 10.6495 12.1909 11.2723 11.7316 11.7316C11.2723 12.1909 10.6495 12.4493 9.99994 12.45ZM9.03787 6.03787C8.98161 6.09413 8.95 6.17043 8.95 6.25C8.95 6.32956 8.98161 6.40587 9.03787 6.46213C9.09413 6.51839 9.17044 6.55 9.25 6.55H10.75C10.8296 6.55 10.9059 6.51839 10.9621 6.46213C11.0184 6.40587 11.05 6.32956 11.05 6.25C11.05 6.17044 11.0184 6.09413 10.9621 6.03787C10.9059 5.98161 10.8296 5.95 10.75 5.95H9.25C9.17044 5.95 9.09413 5.98161 9.03787 6.03787Z" fill="#F5F5F6" stroke="#F5F5F6" stroke-width="0.1"/>
</g>
<defs>
<clipPath id="clip0_44576_17118">
<rect width="20" height="20" rx="10" fill="white"/>
</clipPath>
</defs>
</svg>
