<svg xmlns="http://www.w3.org/2000/svg" width="20" height="20" viewBox="0 0 20 20" fill="none">
  <path d="M9.99967 3.33594V0.835938L6.66634 4.16927L9.99967 7.5026V5.0026C12.758 5.0026 14.9997 7.24427 14.9997 10.0026C14.9997 10.8443 14.7913 11.6443 14.4163 12.3359L15.633 13.5526C16.283 12.5276 16.6663 11.3109 16.6663 10.0026C16.6663 6.31927 13.683 3.33594 9.99967 3.33594ZM9.99967 15.0026C7.24134 15.0026 4.99967 12.7609 4.99967 10.0026C4.99967 9.16094 5.20801 8.36094 5.58301 7.66927L4.36634 6.4526C3.71634 7.4776 3.33301 8.69427 3.33301 10.0026C3.33301 13.6859 6.31634 16.6693 9.99967 16.6693V19.1693L13.333 15.8359L9.99967 12.5026V15.0026Z" fill="#146DFF"/>
</svg>