<svg width="20" height="20" viewBox="0 0 20 20" fill="none" xmlns="http://www.w3.org/2000/svg">
<path d="M10 18.3327C8.05557 17.8466 6.45834 16.7181 5.20834 14.9473C3.95834 13.1764 3.33334 11.2355 3.33334 9.12435V4.16602L10 1.66602L16.6667 4.16602V9.12435C16.6667 11.2355 16.0417 13.1764 14.7917 14.9473C13.5417 16.7181 11.9445 17.8466 10 18.3327ZM10 17.041C11.4722 16.5549 12.691 15.6625 13.6563 14.3639C14.6215 13.0653 15.1875 11.6105 15.3542 9.99935H10V3.02018L4.58334 5.04102V9.12435C4.58334 9.29102 4.58682 9.43338 4.59376 9.55143C4.6007 9.66949 4.61807 9.81879 4.64584 9.99935H10V17.041Z" fill="white"/>
</svg>
