<svg width="32" height="32" viewBox="0 0 32 32" fill="none" xmlns="http://www.w3.org/2000/svg">
<rect width="32" height="32" rx="16" fill="#EFF8EF"/>
<path d="M22.25 15.4247V15.9997C22.2492 17.3474 21.8128 18.6588 21.0058 19.7383C20.1989 20.8178 19.0646 21.6075 17.7721 21.9896C16.4796 22.3717 15.0983 22.3259 13.834 21.8588C12.5698 21.3917 11.4904 20.5285 10.7569 19.3978C10.0233 18.2672 9.67487 16.9297 9.76355 15.5849C9.85223 14.24 10.3733 12.9599 11.2489 11.9353C12.1246 10.9108 13.308 10.1968 14.6226 9.89976C15.9372 9.60274 17.3127 9.73863 18.5438 10.2872M22.25 10.9997L16 17.2559L14.125 15.3809" stroke="#31A150" stroke-width="1.2" stroke-linecap="round" stroke-linejoin="round"/>
</svg>
