<svg width="32" height="32" viewBox="0 0 32 32" fill="none" xmlns="http://www.w3.org/2000/svg">
<rect width="32" height="32" rx="16" fill="#CFEFFF"/>
<g clip-path="url(#clip0_43560_217137)">
<path d="M21.0835 10.7936L21.0837 10.7944L22.6375 15.269V21.25C22.6375 21.6004 22.3504 21.8875 22 21.8875H21.25C20.8996 21.8875 20.6125 21.6004 20.6125 21.25V20.5V20.3875H20.5H11.5H11.3875V20.5V21.25C11.3875 21.6004 11.1004 21.8875 10.75 21.8875H10C9.64963 21.8875 9.3625 21.6004 9.3625 21.25V15.269L10.916 10.7952C10.916 10.7951 10.9161 10.795 10.9161 10.7948C11.0586 10.395 11.4302 10.1125 11.875 10.1125H20.125C20.5711 10.1125 20.9487 10.3962 21.0835 10.7936ZM12.1375 11.3875H12.0574L12.0312 11.4632L11.2512 13.7132L11.1994 13.8625H11.3575H20.635H20.7931L20.7413 13.7132L19.9613 11.4632L19.9351 11.3875H19.855H12.1375ZM21.25 19.1125H21.3625V19V15.505V15.4873L21.357 15.4704L21.2745 15.2154L21.2493 15.1375H21.1675H10.84H10.7604L10.7339 15.2126L10.6439 15.4676L10.6375 15.4857V15.505V19V19.1125H10.75H21.25Z" fill="#0059FF" stroke="#CFEFFF" stroke-width="0.225"/>
<path d="M12.625 18.25C13.2463 18.25 13.75 17.7463 13.75 17.125C13.75 16.5037 13.2463 16 12.625 16C12.0037 16 11.5 16.5037 11.5 17.125C11.5 17.7463 12.0037 18.25 12.625 18.25Z" fill="#0059FF"/>
<path d="M19.375 18.25C19.9963 18.25 20.5 17.7463 20.5 17.125C20.5 16.5037 19.9963 16 19.375 16C18.7537 16 18.25 16.5037 18.25 17.125C18.25 17.7463 18.7537 18.25 19.375 18.25Z" fill="#0059FF"/>
</g>
<defs>
<clipPath id="clip0_43560_217137">
<rect width="18" height="18" fill="white" transform="translate(7 7)"/>
</clipPath>
</defs>
</svg>
