<svg width="20" height="20" viewBox="0 0 20 20" fill="none" xmlns="http://www.w3.org/2000/svg">
<path d="M3.23078 15.9406V17.4851C3.23078 17.631 3.18286 17.7533 3.08703 17.852C2.99119 17.9507 2.87244 18 2.73078 18H2.5C2.35833 18 2.23958 17.9507 2.14375 17.852C2.04792 17.7533 2 17.631 2 17.4851V9.9208L3.9846 4.09902C4.03332 3.93532 4.12723 3.80859 4.26635 3.71883C4.40545 3.62906 4.56026 3.58417 4.73077 3.58417H7.92308V2H12.1538V3.58417H15.3462C15.4975 3.58417 15.635 3.63137 15.7585 3.72575C15.8819 3.82014 15.9676 3.94457 16.0154 4.09902L18 9.9208V17.4851C18 17.631 17.9521 17.7533 17.8562 17.852C17.7604 17.9507 17.6417 18 17.5 18H17.2692C17.1276 18 17.0088 17.9507 16.913 17.852C16.8171 17.7533 16.7692 17.631 16.7692 17.4851V15.9406H3.23078ZM3.41538 8.8911H16.5846L15.1115 4.61387H4.88845L3.41538 8.8911ZM5.4276 13.5644C5.73868 13.5644 6.0016 13.4522 6.21635 13.228C6.4311 13.0038 6.53848 12.7315 6.53848 12.4112C6.53848 12.0909 6.42959 11.8201 6.21182 11.599C5.99406 11.3779 5.72963 11.2673 5.41855 11.2673C5.10747 11.2673 4.84455 11.3794 4.6298 11.6037C4.41507 11.8279 4.3077 12.1002 4.3077 12.4205C4.3077 12.7408 4.41657 13.0116 4.63432 13.2327C4.85209 13.4538 5.11652 13.5644 5.4276 13.5644ZM14.5815 13.5644C14.8925 13.5644 15.1554 13.4522 15.3702 13.228C15.5849 13.0038 15.6923 12.7315 15.6923 12.4112C15.6923 12.0909 15.5834 11.8201 15.3657 11.599C15.1479 11.3779 14.8835 11.2673 14.5724 11.2673C14.2613 11.2673 13.9984 11.3794 13.7837 11.6037C13.5689 11.8279 13.4615 12.1002 13.4615 12.4205C13.4615 12.7408 13.5704 13.0116 13.7882 13.2327C14.0059 13.4538 14.2704 13.5644 14.5815 13.5644ZM3 14.9109H17V9.9208H3V14.9109Z" fill="#6A6A70"/>
</svg>
