<svg width="16" height="16" viewBox="0 0 16 16" fill="none" xmlns="http://www.w3.org/2000/svg">
<path d="M3 13.8333V14.6667C3 14.9028 2.92014 15.1007 2.76042 15.2604C2.60069 15.4201 2.40278 15.5 2.16667 15.5H1.33333C1.09722 15.5 0.899306 15.4201 0.739583 15.2604C0.579861 15.1007 0.5 14.9028 0.5 14.6667V8L2.25 3C2.33333 2.75 2.48264 2.54861 2.69792 2.39583C2.91319 2.24306 3.15278 2.16667 3.41667 2.16667H5.5V0.5H10.5V2.16667H12.5833C12.8472 2.16667 13.0868 2.24306 13.3021 2.39583C13.5174 2.54861 13.6667 2.75 13.75 3L15.5 8V14.6667C15.5 14.9028 15.4201 15.1007 15.2604 15.2604C15.1007 15.4201 14.9028 15.5 14.6667 15.5H13.8333C13.5972 15.5 13.3993 15.4201 13.2396 15.2604C13.0799 15.1007 13 14.9028 13 14.6667V13.8333H3ZM2.83333 6.33333H13.1667L12.2917 3.83333H3.70833L2.83333 6.33333ZM4.25 11.3333C4.59722 11.3333 4.89236 11.2118 5.13542 10.9688C5.37847 10.7257 5.5 10.4306 5.5 10.0833C5.5 9.73611 5.37847 9.44097 5.13542 9.19792C4.89236 8.95486 4.59722 8.83333 4.25 8.83333C3.90278 8.83333 3.60764 8.95486 3.36458 9.19792C3.12153 9.44097 3 9.73611 3 10.0833C3 10.4306 3.12153 10.7257 3.36458 10.9688C3.60764 11.2118 3.90278 11.3333 4.25 11.3333ZM11.75 11.3333C12.0972 11.3333 12.3924 11.2118 12.6354 10.9688C12.8785 10.7257 13 10.4306 13 10.0833C13 9.73611 12.8785 9.44097 12.6354 9.19792C12.3924 8.95486 12.0972 8.83333 11.75 8.83333C11.4028 8.83333 11.1076 8.95486 10.8646 9.19792C10.6215 9.44097 10.5 9.73611 10.5 10.0833C10.5 10.4306 10.6215 10.7257 10.8646 10.9688C11.1076 11.2118 11.4028 11.3333 11.75 11.3333Z" fill="#146DFF"/>
</svg>
