<svg width="18" height="18" viewBox="0 0 18 18" fill="none" xmlns="http://www.w3.org/2000/svg">
<path d="M0.9 8.90423L0.905348 8.88854L2.88933 3.06856C2.9448 2.88369 3.05283 2.73758 3.21214 2.6348M0.9 8.90423L3.26635 2.71883M0.9 8.90423V8.9208V16.4851C0.9 16.6553 0.956879 16.8031 1.07201 16.9216C1.1873 17.0404 1.33221 17.1 1.5 17.1H1.73078C1.89856 17.1 2.04348 17.0404 2.15876 16.9216C2.2739 16.8031 2.33078 16.6553 2.33078 16.4851V15.0406M0.9 8.90423L2.33078 15.0406M3.21214 2.6348L3.26635 2.71883M3.21214 2.6348C3.21213 2.6348 3.21213 2.63481 3.21212 2.63481L3.26635 2.71883M3.21214 2.6348C3.3679 2.53428 3.54164 2.48417 3.73077 2.48417H6.82308M3.26635 2.71883C3.40545 2.62906 3.56026 2.58417 3.73077 2.58417H6.82308V2.48417M6.82308 2.48417V1V0.9H6.92308H11.1538H11.2538V1V2.48417H14.3462C14.5201 2.48417 14.6788 2.53897 14.8192 2.64631C14.9595 2.75355 15.0567 2.89525 15.1105 3.06806L17.0947 8.88854L17.1 8.90423V8.9208V16.4851C17.1 16.6553 17.0431 16.8031 16.928 16.9216C16.8127 17.0404 16.6678 17.1 16.5 17.1H16.2692C16.1014 17.1 15.9565 17.0404 15.8412 16.9216C15.7261 16.8031 15.6692 16.6553 15.6692 16.4851V15.0406H2.33078M6.82308 2.48417H6.92308M6.92308 2.48417V1.1V1V2.48417ZM6.92308 2.48417L2.33078 15.0406M3.55758 10.5345L3.6298 10.6037L3.55758 10.5345C3.3244 10.778 3.2077 11.0753 3.2077 11.4205C3.2077 11.7661 3.32625 12.0624 3.56307 12.3028L3.63432 12.2327L3.56308 12.3029C3.79969 12.5431 4.0898 12.6644 4.4276 12.6644C4.76589 12.6644 5.05491 12.5412 5.28857 12.2972L5.21635 12.228L5.28857 12.2972C5.52177 12.0537 5.63847 11.7564 5.63847 11.4112C5.63847 11.0655 5.51991 10.7693 5.28307 10.5288C5.04646 10.2886 4.75635 10.1673 4.41855 10.1673C4.08026 10.1673 3.79123 10.2905 3.55758 10.5345ZM14.4424 12.2972L14.4424 12.2972C14.6756 12.0537 14.7923 11.7564 14.7923 11.4112C14.7923 11.0656 14.6737 10.7693 14.4369 10.5288L14.3657 10.599L14.4369 10.5288C14.2003 10.2886 13.9102 10.1673 13.5724 10.1673C13.2341 10.1673 12.9451 10.2905 12.7114 10.5345C12.4782 10.778 12.3615 11.0753 12.3615 11.4205C12.3615 11.7661 12.4801 12.0624 12.7169 12.3029L12.7882 12.2327L12.7169 12.3029C12.9535 12.5431 13.2437 12.6644 13.5815 12.6644C13.9197 12.6644 14.2088 12.5412 14.4424 12.2972ZM15.4444 7.7911H2.55558L3.95977 3.71387H14.0402L15.4444 7.7911ZM15.9 13.8109H2.1V9.0208H15.9V13.8109Z" fill="#6A6A70" stroke="#6A6A70" stroke-width="0.2"/>
</svg>
