<svg xmlns="http://www.w3.org/2000/svg" width="40" height="40" viewBox="0 0 40 40" fill="none">
    <rect width="40" height="40" rx="4" fill="#F6F6F8"/>
    <path d="M21.833 17.2005H21.783V17.2505V20V20.05H21.833H22.7495H22.7995V20V17.2505V17.2005H22.7495H21.833ZM25.499 19.0335H25.449V19.0835V20.8665H24.6325V16.384H26.3655V17.2005H25.499H25.449V17.2505V18.167V18.217H25.499H26.3655V19.0335H25.499ZM18.167 19.0335H18.117V19.0835V20.8665H17.3005V16.384H19.0835C19.5599 16.384 19.95 16.774 19.95 17.2505V18.167C19.95 18.6434 19.5599 19.0335 19.0835 19.0335H18.167ZM18.167 17.2005H18.117V17.2505V18.167V18.217H18.167H19.0835H19.1335V18.167V17.2505V17.2005H19.0835H18.167ZM16.334 10.885H27.332C28.3125 10.885 29.115 11.6874 29.115 12.668V23.666C29.115 24.6465 28.3125 25.449 27.332 25.449H16.334C15.3534 25.449 14.551 24.6465 14.551 23.666V12.668C14.551 11.6874 15.3534 10.885 16.334 10.885ZM26.932 23.716C27.1805 23.716 27.382 23.5145 27.382 23.266V13.068C27.382 12.8194 27.1805 12.618 26.932 12.618H16.734C16.4854 12.618 16.284 12.8194 16.284 13.068V23.266C16.284 23.5145 16.4854 23.716 16.734 23.716H26.932ZM12.268 14.551C12.4613 14.551 12.618 14.7077 12.618 14.901V26.932C12.618 27.1805 12.8194 27.382 13.068 27.382H25.099C25.2923 27.382 25.449 27.5387 25.449 27.732V28.765C25.449 28.9583 25.2923 29.115 25.099 29.115H12.668C11.6874 29.115 10.885 28.3125 10.885 27.332V14.901C10.885 14.7077 11.0417 14.551 11.235 14.551H12.268ZM23.616 17.2505V20C23.616 20.4764 23.2259 20.8665 22.7495 20.8665H20.9665V16.384H22.7495C23.2259 16.384 23.616 16.774 23.616 17.2505Z" fill="#DB0000" stroke="white" stroke-width="0.1"/>
</svg>
