<svg width="18" height="20" viewBox="0 0 18 20" fill="none" xmlns="http://www.w3.org/2000/svg">
<path d="M4.8001 11.2004C4.64097 11.2004 4.48836 11.2636 4.37583 11.3761C4.26331 11.4886 4.2001 11.6413 4.2001 11.8004V14.2004C4.2001 14.3595 4.26331 14.5121 4.37583 14.6247C4.48836 14.7372 4.64097 14.8004 4.8001 14.8004C4.95923 14.8004 5.11184 14.7372 5.22436 14.6247C5.33688 14.5121 5.4001 14.3595 5.4001 14.2004V14.0012H5.8009C6.17231 14.0012 6.5285 13.8536 6.79113 13.591C7.05376 13.3284 7.2013 12.9722 7.2013 12.6008C7.2013 12.2294 7.05376 11.8732 6.79113 11.6106C6.5285 11.3479 6.17231 11.2004 5.8009 11.2004H4.8001ZM5.8009 12.8012H5.4001V12.4004H5.7997C5.85285 12.4004 5.90382 12.4215 5.9414 12.4591C5.97898 12.4967 6.0001 12.5476 6.0001 12.6008C6.0001 12.6539 5.97898 12.7049 5.9414 12.7425C5.90382 12.7801 5.85405 12.8012 5.8009 12.8012ZM11.4001 11.7992C11.4004 11.6403 11.4638 11.488 11.5763 11.3757C11.6887 11.2634 11.8412 11.2004 12.0001 11.2004H13.1989C13.358 11.2004 13.5106 11.2636 13.6232 11.3761C13.7357 11.4886 13.7989 11.6413 13.7989 11.8004C13.7989 11.9595 13.7357 12.1121 13.6232 12.2247C13.5106 12.3372 13.358 12.4004 13.1989 12.4004H12.6001V12.8024H13.2001C13.3592 12.8024 13.5118 12.8656 13.6244 12.9781C13.7369 13.0906 13.8001 13.2433 13.8001 13.4024C13.8001 13.5615 13.7369 13.7141 13.6244 13.8267C13.5118 13.9392 13.3592 14.0024 13.2001 14.0024H12.6001L12.6013 14.1992C12.6015 14.278 12.5861 14.356 12.5561 14.4289C12.5261 14.5017 12.482 14.568 12.4264 14.6238C12.3141 14.7366 12.1616 14.8001 12.0025 14.8004C11.8434 14.8007 11.6906 14.7378 11.5779 14.6255C11.4651 14.5132 11.4016 14.3607 11.4013 14.2016L11.4001 13.4012V11.7992ZM8.4001 11.2004C8.24097 11.2004 8.08836 11.2636 7.97583 11.3761C7.86331 11.4886 7.8001 11.6413 7.8001 11.8004V14.2004C7.8001 14.3595 7.86331 14.5121 7.97583 14.6247C8.08836 14.7372 8.24097 14.8004 8.4001 14.8004H9.0025C9.47989 14.8004 9.93773 14.6107 10.2753 14.2732C10.6129 13.9356 10.8025 13.4778 10.8025 13.0004C10.8025 12.523 10.6129 12.0652 10.2753 11.7276C9.93773 11.39 9.47989 11.2004 9.0025 11.2004H8.4001ZM9.0001 13.6004V12.4004H9.0025C9.16163 12.4004 9.31424 12.4636 9.42676 12.5761C9.53928 12.6886 9.6025 12.8413 9.6025 13.0004C9.6025 13.1595 9.53928 13.3121 9.42676 13.4247C9.31424 13.5372 9.16163 13.6004 9.0025 13.6004H9.0001ZM1.8013 2.80039C1.8013 2.16387 2.05415 1.55342 2.50424 1.10333C2.95433 0.653247 3.56478 0.400391 4.2013 0.400391H9.7033C9.9398 0.400441 10.174 0.447098 10.3924 0.537695C10.6109 0.628293 10.8094 0.761054 10.9765 0.928391L15.6733 5.62519C16.011 5.96243 16.2009 6.41996 16.2013 6.89719V8.89879C16.5518 9.02325 16.855 9.25321 17.0695 9.55705C17.2839 9.86089 17.399 10.2237 17.3989 10.5956V15.3992C17.399 15.7711 17.2839 16.1339 17.0695 16.4377C16.855 16.7416 16.5518 16.9715 16.2013 17.096V17.2004C16.2013 17.8369 15.9484 18.4474 15.4984 18.8974C15.0483 19.3475 14.4378 19.6004 13.8013 19.6004H4.2001C3.56358 19.6004 2.95313 19.3475 2.50304 18.8974C2.05295 18.4474 1.8001 17.8369 1.8001 17.2004V17.096C1.44939 16.972 1.14571 16.7424 0.930824 16.4388C0.715937 16.1351 0.600399 15.7724 0.600098 15.4004V10.5968C0.600151 10.2246 0.715574 9.86159 0.930478 9.55771C1.14538 9.25384 1.4492 9.02405 1.8001 8.89999L1.8013 2.80039ZM15.0013 7.60039H10.8013C10.5648 7.60055 10.3306 7.55411 10.1121 7.46372C9.89358 7.37333 9.695 7.24077 9.52773 7.07361C9.36046 6.90645 9.22776 6.70796 9.13723 6.4895C9.0467 6.27103 9.0001 6.03687 9.0001 5.80039V1.60039H4.2001C3.88184 1.60039 3.57661 1.72682 3.35157 1.95186C3.12653 2.17691 3.0001 2.48213 3.0001 2.80039V8.79559H15.0001V7.60039H15.0013ZM3.0001 17.1992C2.99994 17.3569 3.03086 17.5131 3.0911 17.6588C3.15133 17.8045 3.2397 17.9369 3.35115 18.0485C3.46259 18.1601 3.59493 18.2486 3.7406 18.3089C3.88627 18.3693 4.04241 18.4004 4.2001 18.4004H13.8001C13.9578 18.4004 14.1139 18.3693 14.2596 18.3089C14.4053 18.2486 14.5376 18.1601 14.6491 18.0485C14.7605 17.9369 14.8489 17.8045 14.9091 17.6588C14.9693 17.5131 15.0003 17.3569 15.0001 17.1992H3.0001ZM10.2001 1.84879V5.80039C10.2001 5.95952 10.2633 6.11213 10.3758 6.22465C10.4884 6.33718 10.641 6.40039 10.8001 6.40039H14.7505L10.2001 1.84879ZM2.4025 9.99559C2.24337 9.99559 2.09076 10.0588 1.97823 10.1713C1.86571 10.2838 1.8025 10.4365 1.8025 10.5956V15.3992C1.8025 15.5583 1.86571 15.7109 1.97823 15.8235C2.09076 15.936 2.24337 15.9992 2.4025 15.9992H15.5989C15.758 15.9992 15.9106 15.936 16.0232 15.8235C16.1357 15.7109 16.1989 15.5583 16.1989 15.3992V10.5956C16.1989 10.4365 16.1357 10.2838 16.0232 10.1713C15.9106 10.0588 15.758 9.99559 15.5989 9.99559H2.4025Z" fill="#E43F32"/>
</svg>
