<svg width="15" height="16" viewBox="0 0 15 16" fill="none" xmlns="http://www.w3.org/2000/svg">
<path d="M13.6667 10.3214C13.6667 10.3983 13.6363 10.472 13.5824 10.5264C13.5284 10.5808 13.4551 10.6113 13.3788 10.6113H11.3636V12.3504H12.803C12.8794 12.3504 12.9526 12.381 13.0066 12.4353C13.0606 12.4897 13.0909 12.5634 13.0909 12.6403C13.0909 12.7172 13.0606 12.7909 13.0066 12.8452C12.9526 12.8996 12.8794 12.9301 12.803 12.9301H11.3636V14.3794C11.3636 14.4563 11.3333 14.53 11.2793 14.5844C11.2253 14.6387 11.1521 14.6693 11.0758 14.6693C10.9994 14.6693 10.9262 14.6387 10.8722 14.5844C10.8182 14.53 10.7879 14.4563 10.7879 14.3794V10.3214C10.7879 10.2446 10.8182 10.1708 10.8722 10.1165C10.9262 10.0621 10.9994 10.0316 11.0758 10.0316H13.3788C13.4551 10.0316 13.5284 10.0621 13.5824 10.1165C13.6363 10.1708 13.6667 10.2446 13.6667 10.3214ZM4.16667 11.7707C4.16667 12.232 3.98469 12.6743 3.66076 13.0005C3.33683 13.3266 2.8975 13.5099 2.43939 13.5099H1.57576V14.3794C1.57576 14.4563 1.54543 14.53 1.49144 14.5844C1.43745 14.6387 1.36423 14.6693 1.28788 14.6693C1.21153 14.6693 1.13831 14.6387 1.08432 14.5844C1.03033 14.53 1 14.4563 1 14.3794V10.3214C1 10.2446 1.03033 10.1708 1.08432 10.1165C1.13831 10.0621 1.21153 10.0316 1.28788 10.0316H2.43939C2.8975 10.0316 3.33683 10.2148 3.66076 10.541C3.98469 10.8671 4.16667 11.3095 4.16667 11.7707ZM3.59091 11.7707C3.59091 11.4632 3.46959 11.1683 3.25364 10.9509C3.03769 10.7335 2.74479 10.6113 2.43939 10.6113H1.57576V12.9301H2.43939C2.74479 12.9301 3.03769 12.808 3.25364 12.5906C3.46959 12.3731 3.59091 12.0782 3.59091 11.7707ZM9.34849 12.3504C9.34849 12.9654 9.10585 13.5552 8.67394 13.9901C8.24204 14.425 7.65626 14.6693 7.04546 14.6693H5.89394C5.81759 14.6693 5.74437 14.6387 5.69038 14.5844C5.63639 14.53 5.60606 14.4563 5.60606 14.3794V10.3214C5.60606 10.2446 5.63639 10.1708 5.69038 10.1165C5.74437 10.0621 5.81759 10.0316 5.89394 10.0316H7.04546C7.65626 10.0316 8.24204 10.2759 8.67394 10.7108C9.10585 11.1456 9.34849 11.7354 9.34849 12.3504ZM8.77273 12.3504C8.77273 11.8892 8.59075 11.4468 8.26682 11.1207C7.9429 10.7945 7.50356 10.6113 7.04546 10.6113H6.18182V14.0896H7.04546C7.50356 14.0896 7.9429 13.9063 8.26682 13.5802C8.59075 13.254 8.77273 12.8117 8.77273 12.3504ZM1 7.42289V2.2055C1 1.97488 1.09099 1.7537 1.25295 1.59063C1.41492 1.42755 1.63459 1.33594 1.86364 1.33594H8.77273C8.81054 1.33591 8.848 1.34338 8.88294 1.35793C8.91789 1.37247 8.94965 1.39381 8.9764 1.42072L13.0067 5.47869C13.0334 5.50563 13.0546 5.53761 13.0691 5.57279C13.0835 5.60798 13.0909 5.64569 13.0909 5.68376V7.42289C13.0909 7.49977 13.0606 7.57349 13.0066 7.62785C12.9526 7.68221 12.8794 7.71275 12.803 7.71275C12.7267 7.71275 12.6535 7.68221 12.5995 7.62785C12.5455 7.57349 12.5152 7.49977 12.5152 7.42289V5.97362H8.77273C8.69638 5.97362 8.62315 5.94308 8.56917 5.88872C8.51518 5.83436 8.48485 5.76064 8.48485 5.68376V1.91565H1.86364C1.78729 1.91565 1.71406 1.94619 1.66008 2.00054C1.60609 2.0549 1.57576 2.12863 1.57576 2.2055V7.42289C1.57576 7.49977 1.54543 7.57349 1.49144 7.62785C1.43745 7.68221 1.36423 7.71275 1.28788 7.71275C1.21153 7.71275 1.13831 7.68221 1.08432 7.62785C1.03033 7.57349 1 7.49977 1 7.42289ZM9.06061 5.39391H12.1078L9.06061 2.32507V5.39391Z" fill="#6A6A70" stroke="#6A6A70" stroke-width="0.7"/>
</svg>
