<svg width="16" height="16" viewBox="0 0 16 16" fill="none" xmlns="http://www.w3.org/2000/svg">
<path d="M11.333 1.9976C11.5081 1.8225 11.716 1.68361 11.9447 1.58885C12.1735 1.49409 12.4187 1.44531 12.6663 1.44531C12.914 1.44531 13.1592 1.49409 13.3879 1.58885C13.6167 1.68361 13.8246 1.8225 13.9997 1.9976C14.1748 2.17269 14.3137 2.38056 14.4084 2.60934C14.5032 2.83811 14.552 3.08331 14.552 3.33093C14.552 3.57855 14.5032 3.82375 14.4084 4.05253C14.3137 4.2813 14.1748 4.48917 13.9997 4.66426L4.99967 13.6643L1.33301 14.6643L2.33301 10.9976L11.333 1.9976Z" stroke="#6A6A70" stroke-width="1.3" stroke-linecap="round" stroke-linejoin="round"/>
</svg>
