<svg xmlns="http://www.w3.org/2000/svg" width="24" height="24" viewBox="0 0 24 24" fill="none">
  <g clip-path="url(#clip0_25729_61291)">
    <path d="M18.9 8C18.9 10.1548 17.1548 11.9 15 11.9C12.8452 11.9 11.1 10.1548 11.1 8C11.1 5.84523 12.8452 4.1 15 4.1C17.1548 4.1 18.9 5.84523 18.9 8ZM17.1 8C17.1 6.84477 16.1552 5.9 15 5.9C13.8448 5.9 12.9 6.84477 12.9 8C12.9 9.15523 13.8448 10.1 15 10.1C16.1552 10.1 17.1 9.15523 17.1 8ZM7.1 18C7.1 17.3717 7.41393 16.814 7.94236 16.3263C8.47146 15.838 9.20892 15.4266 10.0359 15.0953C11.6901 14.4327 13.6775 14.1 15 14.1C16.3225 14.1 18.3099 14.4327 19.9641 15.0953C20.7911 15.4266 21.5285 15.838 22.0576 16.3263C22.5861 16.814 22.9 17.3717 22.9 18V19.8C22.9 19.8552 22.8552 19.9 22.8 19.9H7.2C7.14477 19.9 7.1 19.8552 7.1 19.8V18ZM9.07045 17.7065C8.99576 17.7873 8.98701 17.892 9.0365 17.9753C9.08288 18.0533 9.17223 18.1 9.27024 18.1H20.7359C20.8326 18.1 20.9213 18.0544 20.9678 17.9774C21.0175 17.895 21.0096 17.7912 20.9361 17.7105C20.7583 17.5154 20.4487 17.3069 20.0553 17.1045C19.6596 16.9009 19.171 16.6995 18.6279 16.5213C17.5423 16.1653 16.2316 15.9 15 15.9C13.7736 15.9 12.4681 16.163 11.3846 16.5174C10.8425 16.6948 10.3542 16.8956 9.95753 17.0991C9.56308 17.3015 9.25167 17.5104 9.07045 17.7065ZM5.9 14.8C5.9 14.8552 5.85523 14.9 5.8 14.9H4.2C4.14477 14.9 4.1 14.8552 4.1 14.8V12.2C4.1 12.0343 3.96569 11.9 3.8 11.9H1.2C1.14477 11.9 1.1 11.8552 1.1 11.8V10.2C1.1 10.1448 1.14477 10.1 1.2 10.1H3.8C3.96569 10.1 4.1 9.96569 4.1 9.8V7.2C4.1 7.14477 4.14477 7.1 4.2 7.1H5.8C5.85523 7.1 5.9 7.14477 5.9 7.2V9.8C5.9 9.96569 6.03432 10.1 6.2 10.1H8.8C8.85523 10.1 8.9 10.1448 8.9 10.2V11.8C8.9 11.8552 8.85523 11.9 8.8 11.9H6.2C6.03432 11.9 5.9 12.0343 5.9 12.2V14.8Z" fill="#146DFF" stroke="white" stroke-width="0.2"/>
  </g>
  <defs>
    <clipPath id="clip0_25729_61291">
      <rect width="24" height="24" fill="white"/>
    </clipPath>
  </defs>
</svg>