<svg width="20" height="20" viewBox="0 0 20 20" fill="none" xmlns="http://www.w3.org/2000/svg">
<mask id="path-1-inside-1_42333_110387" fill="white">
<path fill-rule="evenodd" clip-rule="evenodd" d="M9.99912 20L15.857 14.1421C17.0156 12.9835 17.8046 11.5074 18.1242 9.90041C18.4439 8.29343 18.2798 6.62774 17.6528 5.11399C17.0258 3.60025 15.9639 2.30643 14.6016 1.39614C13.2393 0.485861 11.6376 0 9.99912 0C8.36065 0 6.75897 0.485861 5.39663 1.39614C4.0343 2.30643 2.97248 3.60025 2.34546 5.11399C1.71844 6.62774 1.55438 8.29343 1.87402 9.90041C2.19366 11.5074 2.98265 12.9835 4.14122 14.1421L9.99912 20Z"/>
</mask>
<path fill-rule="evenodd" clip-rule="evenodd" d="M9.99912 20L15.857 14.1421C17.0156 12.9835 17.8046 11.5074 18.1242 9.90041C18.4439 8.29343 18.2798 6.62774 17.6528 5.11399C17.0258 3.60025 15.9639 2.30643 14.6016 1.39614C13.2393 0.485861 11.6376 0 9.99912 0C8.36065 0 6.75897 0.485861 5.39663 1.39614C4.0343 2.30643 2.97248 3.60025 2.34546 5.11399C1.71844 6.62774 1.55438 8.29343 1.87402 9.90041C2.19366 11.5074 2.98265 12.9835 4.14122 14.1421L9.99912 20Z" fill="#5CB85C"/>
<path d="M15.857 14.1421L16.5641 14.8492L16.5641 14.8492L15.857 14.1421ZM9.99912 20L9.29201 20.7071L9.99912 21.4142L10.7062 20.7071L9.99912 20ZM17.6528 5.11399L18.5767 4.73131V4.73131L17.6528 5.11399ZM14.6016 1.39614L14.046 2.22761H14.046L14.6016 1.39614ZM5.39663 1.39614L5.9522 2.22761L5.39663 1.39614ZM2.34546 5.11399L1.42158 4.73131L2.34546 5.11399ZM4.14122 14.1421L3.43411 14.8492L3.43411 14.8492L4.14122 14.1421ZM15.1499 13.435L9.29201 19.2929L10.7062 20.7071L16.5641 14.8492L15.1499 13.435ZM17.1434 9.70533C16.8624 11.1183 16.1686 12.4163 15.1499 13.435L16.5641 14.8492C17.8625 13.5508 18.7468 11.8965 19.105 10.0955L17.1434 9.70533ZM16.7289 5.49668C17.2802 6.8277 17.4245 8.29232 17.1434 9.70533L19.105 10.0955C19.4632 8.29453 19.2794 6.42778 18.5767 4.73131L16.7289 5.49668ZM14.046 2.22761C15.2439 3.02802 16.1776 4.16566 16.7289 5.49668L18.5767 4.73131C17.8739 3.03484 16.684 1.58484 15.1572 0.564674L14.046 2.22761ZM9.99912 1C11.4398 1 12.8481 1.42721 14.046 2.22761L15.1572 0.564674C13.6304 -0.45549 11.8354 -1 9.99912 -1V1ZM5.9522 2.22761C7.15009 1.42721 8.55843 1 9.99912 1V-1C8.16287 -1 6.36785 -0.45549 4.84107 0.564674L5.9522 2.22761ZM3.26934 5.49668C3.82067 4.16566 4.75431 3.02802 5.9522 2.22761L4.84107 0.564674C3.31428 1.58484 2.12429 3.03484 1.42158 4.73131L3.26934 5.49668ZM2.85481 9.70533C2.57375 8.29232 2.71801 6.8277 3.26934 5.49668L1.42158 4.73131C0.718874 6.42778 0.535007 8.29453 0.893234 10.0955L2.85481 9.70533ZM4.84833 13.435C3.82962 12.4163 3.13586 11.1183 2.85481 9.70533L0.893234 10.0955C1.25146 11.8965 2.13569 13.5508 3.43411 14.8492L4.84833 13.435ZM10.7062 19.2929L4.84833 13.435L3.43411 14.8492L9.29201 20.7071L10.7062 19.2929Z" fill="#047857" mask="url(#path-1-inside-1_42333_110387)"/>
<path d="M11.0819 5.30025V11.8457H9.89613V6.45401H9.85778L8.32688 7.432V6.34535L9.95366 5.30025H11.0819Z" fill="white"/>
</svg>
