<svg width="32" height="32" viewBox="0 0 32 32" fill="none" xmlns="http://www.w3.org/2000/svg">
<rect x="0.5" y="0.5" width="31" height="31" rx="7.5" fill="white"/>
<rect x="0.5" y="0.5" width="31" height="31" rx="7.5" stroke="#AEAEB2"/>
<g clip-path="url(#clip0_35553_79518)">
<path d="M20.0007 16.6673H16.6673V20.0007C16.6673 20.3673 16.3673 20.6673 16.0007 20.6673C15.634 20.6673 15.334 20.3673 15.334 20.0007V16.6673H12.0007C11.634 16.6673 11.334 16.3673 11.334 16.0007C11.334 15.634 11.634 15.334 12.0007 15.334H15.334V12.0007C15.334 11.634 15.634 11.334 16.0007 11.334C16.3673 11.334 16.6673 11.634 16.6673 12.0007V15.334H20.0007C20.3673 15.334 20.6673 15.634 20.6673 16.0007C20.6673 16.3673 20.3673 16.6673 20.0007 16.6673Z" fill="#323232"/>
</g>
<defs>
<clipPath id="clip0_35553_79518">
<rect width="16" height="16" fill="white" transform="translate(8 8)"/>
</clipPath>
</defs>
</svg>
