<svg width="16" height="16" viewBox="0 0 16 16" fill="none" xmlns="http://www.w3.org/2000/svg">
<path d="M3.99967 6.0026V1.33594H11.9997V6.0026M3.99967 12.0026H2.66634C2.31272 12.0026 1.97358 11.8621 1.72353 11.6121C1.47348 11.362 1.33301 11.0229 1.33301 10.6693V7.33594C1.33301 6.98232 1.47348 6.64318 1.72353 6.39313C1.97358 6.14308 2.31272 6.0026 2.66634 6.0026H13.333C13.6866 6.0026 14.0258 6.14308 14.2758 6.39313C14.5259 6.64318 14.6663 6.98232 14.6663 7.33594V10.6693C14.6663 11.0229 14.5259 11.362 14.2758 11.6121C14.0258 11.8621 13.6866 12.0026 13.333 12.0026H11.9997M3.99967 9.33594H11.9997V14.6693H3.99967V9.33594Z" stroke="#6A6A70" stroke-width="1.3" stroke-linecap="round" stroke-linejoin="round"/>
</svg>
