<svg width="20" height="20" viewBox="0 0 20 20" fill="none" xmlns="http://www.w3.org/2000/svg">
<g id="share_windows_FILL0_wght400_GRAD0_opsz20 1">
<path id="Vector" d="M6.7544 11.4974C6.54313 11.4974 6.36458 11.4255 6.21875 11.2818C6.07292 11.138 6 10.9599 6 10.7474V7.2474C6 6.8349 6.14687 6.48177 6.44062 6.18802C6.73438 5.89427 7.0875 5.7474 7.5 5.7474H14.125L12.9583 4.58073C12.8056 4.42795 12.7326 4.25087 12.7396 4.04948C12.7465 3.84809 12.8264 3.67101 12.9792 3.51823C13.1319 3.36545 13.3102 3.28906 13.5139 3.28906C13.7176 3.28906 13.8935 3.36545 14.0417 3.51823L16.4792 5.97656C16.6319 6.12428 16.7083 6.29663 16.7083 6.4936C16.7083 6.69058 16.6319 6.86545 16.4792 7.01823L14.0208 9.47656C13.8681 9.62934 13.6944 9.70573 13.5 9.70573C13.3056 9.70573 13.1319 9.62934 12.9792 9.47656C12.8264 9.32378 12.7465 9.14554 12.7396 8.94183C12.7326 8.73814 12.8056 8.56222 12.9583 8.41406L14.125 7.2474H7.5V10.7474C7.5 10.9599 7.42855 11.138 7.28565 11.2818C7.14273 11.4255 6.96565 11.4974 6.7544 11.4974ZM4.5 16.9974C4.0875 16.9974 3.73437 16.8505 3.44062 16.5568C3.14687 16.263 3 15.9099 3 15.4974V4.7474C3 4.5349 3.07145 4.35677 3.21435 4.21302C3.35727 4.06927 3.53435 3.9974 3.7456 3.9974C3.95687 3.9974 4.13542 4.06927 4.28125 4.21302C4.42708 4.35677 4.5 4.5349 4.5 4.7474V15.4974H14.5V12.7474C14.5 12.5349 14.5715 12.3568 14.7144 12.213C14.8573 12.0693 15.0344 11.9974 15.2456 11.9974C15.4569 11.9974 15.6354 12.0693 15.7812 12.213C15.9271 12.3568 16 12.5349 16 12.7474V15.4974C16 15.9099 15.8531 16.263 15.5594 16.5568C15.2656 16.8505 14.9125 16.9974 14.5 16.9974H4.5Z" fill="#146DFF"/>
</g>
</svg>
