<svg width="14" height="16" viewBox="0 0 14 16" fill="none" xmlns="http://www.w3.org/2000/svg">
<path d="M2 16C1.44444 16 0.972222 15.8056 0.583333 15.4167C0.194444 15.0278 0 14.5556 0 14V12.5C0 12.0875 0.146875 11.7344 0.440625 11.4406C0.734375 11.1469 1.0875 11 1.5 11H2V1.5C2 1.0875 2.14687 0.734375 2.44062 0.440625C2.73438 0.146875 3.0875 0 3.5 0H12.5C12.9125 0 13.2656 0.146875 13.5594 0.440625C13.8531 0.734375 14 1.0875 14 1.5V13.75C14 14.375 13.7812 14.9062 13.3438 15.3437C12.9062 15.7812 12.375 16 11.75 16H2ZM11.7456 14.5C11.9569 14.5 12.1354 14.4281 12.2812 14.2844C12.4271 14.1406 12.5 13.9625 12.5 13.75V1.5H3.5V11H9.5C9.9125 11 10.2656 11.1469 10.5594 11.4406C10.8531 11.7344 11 12.0875 11 12.5V13.75C11 13.9625 11.0715 14.1406 11.2144 14.2844C11.3573 14.4281 11.5344 14.5 11.7456 14.5ZM5.25 5.5C5.0375 5.5 4.85938 5.42855 4.71563 5.28565C4.57188 5.14273 4.5 4.96564 4.5 4.7544C4.5 4.54313 4.57188 4.36458 4.71563 4.21875C4.85938 4.07292 5.0375 4 5.25 4H10.75C10.9625 4 11.1406 4.07145 11.2844 4.21435C11.4281 4.35727 11.5 4.53435 11.5 4.7456C11.5 4.95687 11.4281 5.13542 11.2844 5.28125C11.1406 5.42708 10.9625 5.5 10.75 5.5H5.25ZM5.25 8C5.0375 8 4.85938 7.92855 4.71563 7.78564C4.57188 7.64273 4.5 7.46564 4.5 7.25439C4.5 7.04313 4.57188 6.86458 4.71563 6.71875C4.85938 6.57292 5.0375 6.5 5.25 6.5H10.75C10.9625 6.5 11.1406 6.57145 11.2844 6.71435C11.4281 6.85727 11.5 7.03435 11.5 7.2456C11.5 7.45687 11.4281 7.63542 11.2844 7.78125C11.1406 7.92708 10.9625 8 10.75 8H5.25ZM2 14.5H9.5V12.5H1.5V14C1.5 14.1417 1.54792 14.2604 1.64375 14.3562C1.73958 14.4521 1.85833 14.5 2 14.5ZM2 14.5H1.5H9.5H2Z" fill="#146DFF"/>
</svg>
