<svg xmlns="http://www.w3.org/2000/svg" width="20" height="20" viewBox="0 0 20 20" fill="none">
  <path d="M8.25 6H13.75C13.9625 6 14.1406 6.07145 14.2844 6.21435C14.4281 6.35727 14.5 6.53435 14.5 6.7456C14.5 6.95687 14.4281 7.13542 14.2844 7.28125C14.1406 7.42708 13.9625 7.5 13.75 7.5H8.25C8.0375 7.5 7.85938 7.42855 7.71563 7.28565C7.57188 7.14273 7.5 6.96565 7.5 6.7544C7.5 6.54313 7.57188 6.36458 7.71563 6.21875C7.85938 6.07292 8.0375 6 8.25 6ZM8.25 8.5H13.75C13.9625 8.5 14.1406 8.57145 14.2844 8.71435C14.4281 8.85727 14.5 9.03435 14.5 9.2456C14.5 9.45687 14.4281 9.63542 14.2844 9.78125C14.1406 9.92708 13.9625 10 13.75 10H8.25C8.0375 10 7.85938 9.92855 7.71563 9.78565C7.57188 9.64273 7.5 9.46565 7.5 9.2544C7.5 9.04313 7.57188 8.86458 7.71563 8.71875C7.85938 8.57292 8.0375 8.5 8.25 8.5ZM5 18C4.44444 18 3.97222 17.8056 3.58333 17.4167C3.19444 17.0278 3 16.5556 3 16V13.75C3 13.5375 3.07188 13.3594 3.21563 13.2156C3.35938 13.0719 3.5375 13 3.75 13H5V3.5C5 3.0875 5.14687 2.73438 5.44062 2.44063C5.73438 2.14688 6.0875 2 6.5 2H15.5C15.9125 2 16.2656 2.14688 16.5594 2.44063C16.8531 2.73438 17 3.0875 17 3.5V9.25C17 9.4625 16.9285 9.64062 16.7856 9.78438C16.6427 9.92812 16.4656 10 16.2544 10C16.0431 10 15.8646 9.92812 15.7188 9.78438C15.5729 9.64062 15.5 9.4625 15.5 9.25V3.5H6.5V13H9.75C9.9625 13 10.1406 13.0715 10.2844 13.2144C10.4281 13.3573 10.5 13.5344 10.5 13.7456C10.5 13.9569 10.4281 14.1354 10.2844 14.2812C10.1406 14.4271 9.9625 14.5 9.75 14.5H4.5V16C4.5 16.1417 4.54792 16.2604 4.64375 16.3562C4.73958 16.4521 4.85833 16.5 5 16.5H9.75C9.9625 16.5 10.1406 16.5715 10.2844 16.7144C10.4281 16.8573 10.5 17.0344 10.5 17.2456C10.5 17.4569 10.4281 17.6354 10.2844 17.7812C10.1406 17.9271 9.9625 18 9.75 18H5ZM12 17.25V15.9493C12 15.8442 12.0208 15.7465 12.0625 15.6562C12.1042 15.566 12.1597 15.4861 12.2292 15.4167L16.375 11.2917C16.4758 11.1887 16.5878 11.1144 16.711 11.0686C16.8342 11.0229 16.9567 11 17.0783 11C17.211 11 17.3382 11.0243 17.4599 11.0729C17.5815 11.1215 17.6921 11.1944 17.7917 11.2917L18.7083 12.2292C18.7998 12.33 18.8713 12.442 18.9228 12.5652C18.9743 12.6884 19 12.8108 19 12.9325C19 13.0541 18.9771 13.1786 18.9314 13.3058C18.8856 13.4329 18.8113 13.5463 18.7083 13.6458L14.5833 17.7708C14.5139 17.8403 14.434 17.8958 14.3438 17.9375C14.2535 17.9792 14.1558 18 14.0507 18H12.75C12.5375 18 12.3594 17.9281 12.2156 17.7844C12.0719 17.6406 12 17.4625 12 17.25ZM13 17H13.9375L16.3333 14.6042L15.875 14.125L15.4167 13.6667L13 16.0625V17ZM15.875 14.125L15.4167 13.6667L16.3333 14.6042L15.875 14.125Z" fill="#146DFF"/>
</svg>