<svg xmlns="http://www.w3.org/2000/svg" width="33" height="32" viewBox="0 0 33 32" fill="none">
<rect x="1" y="0.5" width="31" height="31" rx="7.5" fill="#EFF8EF"/>
<rect x="1" y="0.5" width="31" height="31" rx="7.5" stroke="#2E964B"/>
<path d="M23.1673 15.3853V15.9986C23.1665 17.4362 22.701 18.8351 21.8402 19.9865C20.9794 21.1379 19.7695 21.9803 18.3909 22.3879C17.0123 22.7955 15.5388 22.7465 14.1903 22.2483C12.8418 21.7501 11.6904 20.8293 10.908 19.6233C10.1255 18.4173 9.75385 16.9906 9.84844 15.5562C9.94303 14.1217 10.4988 12.7562 11.4328 11.6633C12.3669 10.5705 13.6292 9.80886 15.0314 9.49204C16.4337 9.17521 17.9008 9.32017 19.214 9.90527M23.1673 10.6653L16.5007 17.3386L14.5007 15.3386" stroke="#2E964B" stroke-width="1.3" stroke-linecap="round" stroke-linejoin="round"/>
</svg>