<svg width="32" height="32" viewBox="0 0 32 32" fill="none" xmlns="http://www.w3.org/2000/svg">
<circle cx="16" cy="16" r="16" fill="#F2F9F5"/>
<circle cx="16.0666" cy="15.9997" r="12.3849" fill="#0FAA28"/>
<g clip-path="url(#clip0_40211_188709)">
<path d="M17.675 21.0882H16.5593V19.9725H17.675V21.0882ZM16.5593 17.1831H15.4435V19.9725H16.5593V17.1831ZM21.0223 16.0673H19.9066V18.2988H21.0223V16.0673ZM19.9066 14.9515H18.7908V16.0673H19.9066V14.9515ZM13.212 16.0673H12.0962V17.1831H13.212V16.0673ZM12.0962 14.9515H10.9805V16.0673H12.0962V14.9515ZM16.0014 12.1621H17.1171V11.0464H16.0014V12.1621ZM11.8173 11.8832V13.5568H13.4909V11.8832H11.8173ZM14.3277 14.3937H10.9805V11.0464H14.3277V14.3937ZM11.8173 18.5778V20.2514H13.4909V18.5778H11.8173ZM14.3277 21.0882H10.9805V17.7409H14.3277V21.0882ZM18.5119 11.8832V13.5568H20.1855V11.8832H18.5119ZM21.0223 14.3937H17.675V11.0464H21.0223V14.3937ZM19.9066 19.9725V18.2988H17.675V19.4146H18.7908V21.0882H21.0223V19.9725H19.9066ZM18.7908 16.0673H16.5593V17.1831H18.7908V16.0673ZM16.5593 14.9515H13.212V16.0673H14.3277V17.1831H15.4435V16.0673H16.5593V14.9515ZM17.1171 14.3937V13.2779H16.0014V12.1621H14.8856V14.3937H17.1171ZM13.0725 12.3016H12.2357V13.1384H13.0725V12.3016ZM13.0725 18.9962H12.2357V19.833H13.0725V18.9962ZM19.7671 12.3016H18.9303V13.1384H19.7671V12.3016Z" fill="white"/>
</g>
<defs>
<clipPath id="clip0_40211_188709">
<rect width="13.3891" height="13.3891" fill="white" transform="translate(9.30664 9.37256)"/>
</clipPath>
</defs>
</svg>
