<svg xmlns="http://www.w3.org/2000/svg" width="20" height="20" viewBox="0 0 20 20" fill="none">
  <path d="M9.125 10.8099L7.875 9.5599C7.72728 9.40712 7.55493 9.33073 7.35796 9.33073C7.16099 9.33073 6.98611 9.40712 6.83333 9.5599C6.68056 9.71267 6.60417 9.89092 6.60417 10.0946C6.60417 10.2983 6.68056 10.4742 6.83333 10.6224L8.58333 12.3932C8.73485 12.546 8.91162 12.6224 9.11365 12.6224C9.31566 12.6224 9.49306 12.546 9.64583 12.3932L13.1875 8.85156C13.3403 8.69878 13.4167 8.52517 13.4167 8.33073C13.4167 8.13628 13.3403 7.96267 13.1875 7.8099C13.0347 7.65712 12.8565 7.58073 12.6528 7.58073C12.4491 7.58073 12.2732 7.65712 12.125 7.8099L9.125 10.8099ZM10 17.9141C9.91667 17.9141 9.83333 17.9106 9.75 17.9036C9.66667 17.8967 9.59028 17.8793 9.52083 17.8516C7.70139 17.2543 6.24306 16.1502 5.14583 14.5391C4.04861 12.928 3.5 11.171 3.5 9.26823V5.51823C3.5 5.20306 3.58681 4.91941 3.76042 4.66727C3.93403 4.41513 4.16667 4.23351 4.45833 4.1224L9.45833 2.20573C9.63889 2.13628 9.81944 2.10156 10 2.10156C10.1806 2.10156 10.3611 2.13628 10.5417 2.20573L15.5417 4.1224C15.8333 4.23351 16.066 4.41513 16.2396 4.66727C16.4132 4.91941 16.5 5.20306 16.5 5.51823V9.26823C16.5 11.171 15.9514 12.928 14.8542 14.5391C13.7569 16.1502 12.2986 17.2543 10.4792 17.8516C10.4097 17.8793 10.3333 17.8967 10.25 17.9036C10.1667 17.9106 10.0833 17.9141 10 17.9141ZM10 16.4349C11.4444 15.987 12.6389 15.0911 13.5833 13.7474C14.5278 12.4036 15 10.9106 15 9.26823V5.51823L10 3.60156L5 5.51823V9.26823C5 10.9106 5.47222 12.4036 6.41667 13.7474C7.36111 15.0911 8.55556 15.987 10 16.4349Z" fill="#146DFF"/>
</svg>