<svg width="14" height="17" viewBox="0 0 14 17" fill="none" xmlns="http://www.w3.org/2000/svg">
<path d="M4 14H1.5C1.09722 14 0.746528 13.8507 0.447917 13.5521C0.149306 13.2535 0 12.9028 0 12.5V1.5C0 1.09722 0.149306 0.746528 0.447917 0.447917C0.746528 0.149306 1.09722 0 1.5 0H12.5C12.9125 0 13.2656 0.149306 13.5594 0.447917C13.8531 0.746528 14 1.09722 14 1.5V12.5C14 12.9028 13.8531 13.2535 13.5594 13.5521C13.2656 13.8507 12.9125 14 12.5 14H10L7.52083 16.4792C7.37311 16.6319 7.20076 16.7083 7.00379 16.7083C6.80682 16.7083 6.63194 16.6319 6.47917 16.4792L4 14ZM1.5 12.5H4.60417L7 14.8958L9.375 12.5H12.5V1.5H1.5V12.5ZM7 11.5C7.27778 11.5 7.50347 11.4078 7.67708 11.2234C7.85069 11.0391 7.9375 10.8134 7.9375 10.5464C7.9375 10.2793 7.84674 10.059 7.66521 9.88542C7.48367 9.71181 7.26144 9.625 6.99854 9.625C6.73563 9.625 6.51389 9.71181 6.33333 9.88542C6.15278 10.059 6.0625 10.2793 6.0625 10.5464C6.0625 10.8134 6.15312 11.0391 6.33437 11.2234C6.51562 11.4078 6.7375 11.5 7 11.5ZM8.25 4.89583C8.25 5.21528 8.13194 5.49306 7.89583 5.72917C7.65972 5.96528 7.40972 6.20833 7.14583 6.45833C6.95139 6.65278 6.80556 6.8125 6.70833 6.9375C6.61111 7.0625 6.53599 7.18687 6.48296 7.3106C6.45265 7.38131 6.42824 7.45513 6.40973 7.53204C6.3912 7.60897 6.37268 7.69551 6.35417 7.79167C6.32639 7.98311 6.38194 8.14903 6.52083 8.28942C6.65972 8.42981 6.82547 8.5 7.01806 8.5C7.18658 8.5 7.34135 8.43806 7.48238 8.31419C7.6234 8.19031 7.71956 8.02308 7.77083 7.8125C7.8125 7.67361 7.87847 7.53819 7.96875 7.40625C8.05903 7.27431 8.20139 7.11111 8.39583 6.91667C8.67361 6.63889 8.94097 6.35764 9.19792 6.07292C9.45486 5.78819 9.58333 5.38194 9.58333 4.85417C9.58333 4.11806 9.33333 3.54167 8.83333 3.125C8.33333 2.70833 7.71875 2.5 6.98958 2.5C6.46875 2.5 6.01389 2.625 5.625 2.875C5.23611 3.125 4.92361 3.43056 4.6875 3.79167C4.59028 3.94518 4.57986 4.10508 4.65625 4.27138C4.73264 4.43768 4.86111 4.55556 5.04167 4.625C5.19907 4.69444 5.35648 4.70139 5.5139 4.64583C5.6713 4.59028 5.80556 4.48611 5.91667 4.33333C6.02778 4.18056 6.17361 4.04861 6.35417 3.9375C6.53472 3.82639 6.75 3.77083 7 3.77083C7.44444 3.77083 7.76389 3.88889 7.95833 4.125C8.15278 4.36111 8.25 4.61806 8.25 4.89583Z" fill="#146DFF"/>
</svg>
