<svg width="151" height="154" viewBox="0 0 151 154" fill="none" xmlns="http://www.w3.org/2000/svg">
<path d="M75.5 150.5C116.921 150.5 150.5 116.921 150.5 75.5C150.5 34.0786 116.921 0.5 75.5 0.5C34.0786 0.5 0.5 34.0786 0.5 75.5C0.5 116.921 34.0786 150.5 75.5 150.5Z" fill="#E6E6E7"/>
<g filter="url(#filter0_d_38134_29447)">
<mask id="mask0_38134_29447" style="mask-type:alpha" maskUnits="userSpaceOnUse" x="0" y="0" width="151" height="151">
<path d="M75.5 150.5C116.921 150.5 150.5 116.921 150.5 75.5C150.5 34.0786 116.921 0.5 75.5 0.5C34.0786 0.5 0.5 34.0786 0.5 75.5C0.5 116.921 34.0786 150.5 75.5 150.5Z" fill="#F5F5F6"/>
</mask>
<g mask="url(#mask0_38134_29447)">
<path d="M118.5 43.5H32.5C29.7386 43.5 27.5 45.7386 27.5 48.5V153.5C27.5 156.261 29.7386 158.5 32.5 158.5H118.5C121.261 158.5 123.5 156.261 123.5 153.5V48.5C123.5 45.7386 121.261 43.5 118.5 43.5Z" fill="white"/>
</g>
</g>
<path d="M66.5 53.5H40.5C38.8431 53.5 37.5 54.8431 37.5 56.5C37.5 58.1569 38.8431 59.5 40.5 59.5H66.5C68.1569 59.5 69.5 58.1569 69.5 56.5C69.5 54.8431 68.1569 53.5 66.5 53.5Z" fill="#E6E6E7"/>
<path d="M66.5 95.5H40.5C38.8431 95.5 37.5 96.8431 37.5 98.5C37.5 100.157 38.8431 101.5 40.5 101.5H66.5C68.1569 101.5 69.5 100.157 69.5 98.5C69.5 96.8431 68.1569 95.5 66.5 95.5Z" fill="#E6E6E7"/>
<path d="M108.5 68.5H42.5C40.2909 68.5 38.5 70.2909 38.5 72.5V82.5C38.5 84.7091 40.2909 86.5 42.5 86.5H108.5C110.709 86.5 112.5 84.7091 112.5 82.5V72.5C112.5 70.2909 110.709 68.5 108.5 68.5Z" stroke="#146DFF" stroke-width="2"/>
<path d="M108.5 109.5H42.5C39.7386 109.5 37.5 111.739 37.5 114.5V122.5C37.5 125.261 39.7386 127.5 42.5 127.5H108.5C111.261 127.5 113.5 125.261 113.5 122.5V114.5C113.5 111.739 111.261 109.5 108.5 109.5Z" fill="#E6E6E7"/>
<path d="M53.5 32.5C55.7091 32.5 57.5 30.7091 57.5 28.5C57.5 26.2909 55.7091 24.5 53.5 24.5C51.2909 24.5 49.5 26.2909 49.5 28.5C49.5 30.7091 51.2909 32.5 53.5 32.5Z" fill="white"/>
<path d="M75.5 32.5C77.7091 32.5 79.5 30.7091 79.5 28.5C79.5 26.2909 77.7091 24.5 75.5 24.5C73.2909 24.5 71.5 26.2909 71.5 28.5C71.5 30.7091 73.2909 32.5 75.5 32.5Z" fill="#146DFF"/>
<path d="M97.5 32.5C99.7091 32.5 101.5 30.7091 101.5 28.5C101.5 26.2909 99.7091 24.5 97.5 24.5C95.2909 24.5 93.5 26.2909 93.5 28.5C93.5 30.7091 95.2909 32.5 97.5 32.5Z" fill="white"/>
<path d="M86.5 88.5C89.2614 88.5 91.5 86.2614 91.5 83.5C91.5 80.7386 89.2614 78.5 86.5 78.5C83.7386 78.5 81.5 80.7386 81.5 83.5C81.5 86.2614 83.7386 88.5 86.5 88.5Z" fill="#E6E6E7"/>
<path d="M90.4071 104.87C89.6071 104.87 88.8601 104.87 88.1801 104.827C87.3425 104.771 86.5367 104.484 85.8515 103.999C85.1662 103.514 84.628 102.849 84.2961 102.078L80.0771 93.7404C79.7676 93.3801 79.6131 92.9121 79.6472 92.4384C79.6813 91.9647 79.9012 91.5236 80.2591 91.2114C80.5522 90.9757 80.918 90.8489 81.2941 90.8524C81.571 90.8604 81.8428 90.9284 82.0909 91.0517C82.339 91.175 82.5574 91.3506 82.7311 91.5664L84.6471 94.1814L84.6761 94.2154V84.2804C84.6761 83.7875 84.8719 83.3148 85.2204 82.9662C85.569 82.6177 86.0417 82.4219 86.5346 82.4219C87.0275 82.4219 87.5002 82.6177 87.8487 82.9662C88.1973 83.3148 88.3931 83.7875 88.3931 84.2804V90.7804C88.3715 90.5412 88.4 90.3001 88.4767 90.0726C88.5534 89.845 88.6767 89.6359 88.8387 89.4586C89.0007 89.2813 89.1979 89.1397 89.4176 89.0429C89.6374 88.946 89.8749 88.896 90.1151 88.896C90.3552 88.896 90.5928 88.946 90.8125 89.0429C91.0323 89.1397 91.2294 89.2813 91.3914 89.4586C91.5534 89.6359 91.6767 89.845 91.7535 90.0726C91.8302 90.3001 91.8587 90.5412 91.8371 90.7804V92.1354C91.8155 91.8962 91.844 91.6551 91.9207 91.4276C91.9974 91.2 92.1207 90.9909 92.2827 90.8136C92.4447 90.6363 92.6419 90.4947 92.8616 90.3979C93.0814 90.301 93.3189 90.251 93.5591 90.251C93.7992 90.251 94.0368 90.301 94.2565 90.3979C94.4763 90.4947 94.6734 90.6363 94.8354 90.8136C94.9974 90.9909 95.1207 91.2 95.1975 91.4276C95.2742 91.6551 95.3027 91.8962 95.2811 92.1354V93.1794C95.2595 92.9402 95.288 92.6991 95.3647 92.4716C95.4414 92.244 95.5647 92.0349 95.7267 91.8576C95.8887 91.6803 96.0859 91.5387 96.3056 91.4419C96.5254 91.345 96.7629 91.295 97.0031 91.295C97.2432 91.295 97.4808 91.345 97.7005 91.4419C97.9203 91.5387 98.1174 91.6803 98.2794 91.8576C98.4414 92.0349 98.5647 92.244 98.6415 92.4716C98.7182 92.6991 98.7467 92.9402 98.7251 93.1794V99.5164C98.6911 101.465 97.8101 104.751 94.7111 104.751C94.4861 104.761 92.5801 104.871 90.4111 104.871L90.4071 104.87Z" fill="#146DFF" stroke="white"/>
<defs>
<filter id="filter0_d_38134_29447" x="21.5" y="34.5" width="108" height="119" filterUnits="userSpaceOnUse" color-interpolation-filters="sRGB">
<feFlood flood-opacity="0" result="BackgroundImageFix"/>
<feColorMatrix in="SourceAlpha" type="matrix" values="0 0 0 0 0 0 0 0 0 0 0 0 0 0 0 0 0 0 127 0" result="hardAlpha"/>
<feOffset dy="-3"/>
<feGaussianBlur stdDeviation="3"/>
<feColorMatrix type="matrix" values="0 0 0 0 0.788235 0 0 0 0 0.803922 0 0 0 0 0.85098 0 0 0 0.349 0"/>
<feBlend mode="normal" in2="BackgroundImageFix" result="effect1_dropShadow_38134_29447"/>
<feBlend mode="normal" in="SourceGraphic" in2="effect1_dropShadow_38134_29447" result="shape"/>
</filter>
</defs>
</svg>