<svg width="20" height="20" viewBox="0 0 20 20" fill="none" xmlns="http://www.w3.org/2000/svg">
<path d="M10.4338 9.24733L10.434 9.24719C10.7958 8.89931 11.0546 8.59543 11.209 8.33569C11.3639 8.07521 11.4417 7.80415 11.4417 7.52288C11.4417 7.12657 11.3109 6.81296 11.0476 6.58526C10.7849 6.35803 10.4277 6.24583 9.97917 6.24583C9.56378 6.24583 9.19919 6.34764 8.88633 6.55199C8.57922 6.75258 8.32859 7.04444 8.13398 7.42634L7.07403 6.98637C7.30875 6.40444 7.6728 5.94743 8.16619 5.61447C8.66558 5.27746 9.27279 5.10833 9.9891 5.10833C10.7834 5.10833 11.4124 5.32226 11.879 5.74764C12.3452 6.17272 12.5792 6.74891 12.5792 7.47917C12.5792 7.86402 12.4899 8.23166 12.3111 8.5824C12.1322 8.93321 11.8129 9.33925 11.3515 9.80063C11.0073 10.1449 10.7642 10.4541 10.6236 10.7282C10.485 10.9984 10.4152 11.345 10.4126 11.7667H9.27505C9.27711 11.252 9.34284 10.8261 9.47129 10.488C9.60116 10.1463 9.92065 9.73278 10.4338 9.24733ZM3.725 16.25V16.275H3.75H16.25H16.275V16.25V3.75V3.725H16.25H3.75H3.725V3.75V16.25ZM10.4823 14.6276C10.3343 14.7759 10.1535 14.85 9.93808 14.85C9.72268 14.85 9.54159 14.7761 9.39324 14.6281C9.24491 14.4802 9.17083 14.2993 9.17083 14.0839C9.17083 13.8685 9.24473 13.6874 9.3927 13.5391C9.54066 13.3907 9.72154 13.3167 9.93692 13.3167C10.1523 13.3167 10.3334 13.3906 10.4818 13.5385C10.6301 13.6865 10.7042 13.8674 10.7042 14.0828C10.7042 14.2982 10.6303 14.4792 10.4823 14.6276ZM3.75 17.475C3.42373 17.475 3.1383 17.3529 2.89268 17.1073C2.64705 16.8617 2.525 16.5763 2.525 16.25V3.75C2.525 3.42373 2.64705 3.1383 2.89268 2.89268C3.1383 2.64705 3.42373 2.525 3.75 2.525H16.25C16.5763 2.525 16.8617 2.64705 17.1073 2.89268C17.3529 3.1383 17.475 3.42373 17.475 3.75V16.25C17.475 16.5763 17.3529 16.8617 17.1073 17.1073C16.8617 17.3529 16.5763 17.475 16.25 17.475H3.75Z" fill="white" stroke="white" stroke-width="0.05"/>
</svg>
