<svg xmlns="http://www.w3.org/2000/svg" width="16" height="16" viewBox="0 0 16 16" fill="none">
  <g clip-path="url(#clip0_29404_23138)">
    <path d="M13.0968 2.91123C12.7813 2.59572 12.2716 2.59572 11.9561 2.91123L8.00008 6.85915L4.04407 2.90314C3.72856 2.58763 3.21889 2.58763 2.90338 2.90314C2.58787 3.21865 2.58787 3.72832 2.90338 4.04383L6.85939 7.99984L2.90338 11.9558C2.58787 12.2714 2.58787 12.781 2.90338 13.0965C3.21889 13.412 3.72856 13.412 4.04407 13.0965L8.00008 9.14053L11.9561 13.0965C12.2716 13.412 12.7813 13.412 13.0968 13.0965C13.4123 12.781 13.4123 12.2714 13.0968 11.9558L9.14077 7.99984L13.0968 4.04383C13.4042 3.73641 13.4042 3.21865 13.0968 2.91123Z" fill="#E43F32"/>
  </g>
  <defs>
    <clipPath id="clip0_29404_23138">
      <rect width="16" height="16" fill="white"/>
    </clipPath>
  </defs>
</svg>