<svg xmlns="http://www.w3.org/2000/svg" width="20" height="20" viewBox="0 0 20 20" fill="none">
  <path d="M10 2.22662V0.487327C10 0.0500746 9.46 -0.163693 9.15 0.147242L6.35 2.85821C6.15 3.05254 6.15 3.35376 6.35 3.5481L9.14 6.25906C9.46 6.56028 10 6.34651 10 5.90926V4.16997C13.31 4.16997 16 6.78376 16 10C16 10.7676 15.85 11.5158 15.56 12.1863C15.41 12.5361 15.52 12.9345 15.79 13.1968C16.3 13.6924 17.16 13.5175 17.43 12.8664C17.8 11.9822 18 11.0105 18 10C18 5.70521 14.42 2.22662 10 2.22662ZM10 15.83C6.69 15.83 4 13.2162 4 10C4 9.23238 4.15 8.48419 4.44 7.81374C4.59 7.46393 4.48 7.06555 4.21 6.8032C3.7 6.30764 2.84 6.48255 2.57 7.13357C2.2 8.01779 2 8.98946 2 10C2 14.2948 5.58 17.7734 10 17.7734V19.5127C10 19.9499 10.54 20.1637 10.85 19.8528L13.64 17.1418C13.84 16.9475 13.84 16.6462 13.64 16.4519L10.85 13.7409C10.54 13.4397 10 13.6535 10 14.0907V15.83Z" fill="#0032A0"/>
</svg>