<svg xmlns="http://www.w3.org/2000/svg" width="56" height="56" viewBox="0 0 56 56" fill="none">
<rect x="4" y="4" width="48" height="48" rx="24" fill="#A9DEFF"/>
<rect x="4" y="4" width="48" height="48" rx="24" stroke="#E5F6FF" stroke-width="8"/>
<g clip-path="url(#clip0_26871_59585)">
<path d="M20 28C20 25.67 21.02 23.58 22.62 22.12L24.15 23.65C24.46 23.96 25 23.74 25 23.29V19C25 18.72 24.78 18.5 24.5 18.5H20.21C19.76 18.5 19.54 19.04 19.86 19.35L21.2 20.7C19.24 22.52 18 25.11 18 28C18 32.75 21.32 36.73 25.76 37.75C26.39 37.89 27 37.42 27 36.77C27 36.3 26.67 35.9 26.21 35.79C22.66 34.98 20 31.8 20 28ZM38 28C38 23.25 34.68 19.27 30.24 18.25C29.61 18.11 29 18.58 29 19.23C29 19.7 29.33 20.1 29.79 20.21C33.34 21.02 36 24.2 36 28C36 30.33 34.98 32.42 33.38 33.88L31.85 32.35C31.54 32.04 31 32.26 31 32.71V37C31 37.28 31.22 37.5 31.5 37.5H35.79C36.24 37.5 36.46 36.96 36.14 36.65L34.8 35.3C36.76 33.48 38 30.89 38 28Z" fill="#146DFF"/>
</g>
<defs>
<clipPath id="clip0_26871_59585">
<rect width="24" height="24" fill="white" transform="translate(16 16)"/>
</clipPath>
</defs>
</svg>