<svg xmlns="http://www.w3.org/2000/svg" width="16" height="16" viewBox="0 0 16 16" fill="none">
  <g clip-path="url(#clip0_27226_13)">
    <path d="M2.66634 8.00005C2.66634 6.44671 3.34634 5.05338 4.41301 4.08005L5.43301 5.10005C5.63967 5.30671 5.99967 5.16005 5.99967 4.86005V2.00005C5.99967 1.81338 5.85301 1.66671 5.66634 1.66671H2.80634C2.50634 1.66671 2.35967 2.02671 2.57301 2.23338L3.46634 3.13338C2.15967 4.34671 1.33301 6.07338 1.33301 8.00005C1.33301 11.1667 3.54634 13.82 6.50634 14.5C6.92634 14.5934 7.33301 14.28 7.33301 13.8467C7.33301 13.5334 7.11301 13.2667 6.80634 13.1934C4.43967 12.6534 2.66634 10.5334 2.66634 8.00005ZM14.6663 8.00005C14.6663 4.83338 12.453 2.18005 9.49301 1.50005C9.07301 1.40671 8.66634 1.72005 8.66634 2.15338C8.66634 2.46671 8.88634 2.73338 9.19301 2.80671C11.5597 3.34671 13.333 5.46671 13.333 8.00005C13.333 9.55338 12.653 10.9467 11.5863 11.92L10.5663 10.9C10.3597 10.6934 9.99967 10.84 9.99967 11.14V14C9.99967 14.1867 10.1463 14.3334 10.333 14.3334H13.193C13.493 14.3334 13.6397 13.9734 13.4263 13.7667L12.533 12.8667C13.8397 11.6534 14.6663 9.92671 14.6663 8.00005Z" fill="#6A6A70"/>
  </g>
  <defs>
    <clipPath id="clip0_27226_13">
      <rect width="16" height="16" fill="white"/>
    </clipPath>
  </defs>
</svg>