<svg width="16" height="14" viewBox="0 0 16 14" fill="none" xmlns="http://www.w3.org/2000/svg">
<path d="M15.3332 1.66509V5.66509M15.3332 5.66509H11.3332M15.3332 5.66509L12.2398 2.75842C11.5233 2.04157 10.6369 1.51789 9.6633 1.23627C8.68967 0.95465 7.66058 0.924257 6.67203 1.14793C5.68348 1.3716 4.7677 1.84205 4.01015 2.51537C3.25259 3.18869 2.67795 4.04295 2.33984 4.99842M0.666504 12.3318V8.33176M0.666504 8.33176H4.6665M0.666504 8.33176L3.75984 11.2384C4.47634 11.9553 5.36275 12.479 6.33638 12.7606C7.31 13.0422 8.3391 13.0726 9.32765 12.8489C10.3162 12.6252 11.232 12.1548 11.9895 11.4815C12.7471 10.8082 13.3217 9.9539 13.6598 8.99842" stroke="#6A6A70" stroke-width="1.3" stroke-linecap="round" stroke-linejoin="round"/>
</svg>
