<svg width="32" height="32" viewBox="0 0 32 32" fill="none" xmlns="http://www.w3.org/2000/svg">
<rect width="32" height="32" rx="16" fill="#EFF8EF"/>
<g clip-path="url(#clip0_44408_508254)">
<path d="M17.4467 9.5H11.3333C10.3239 9.5 9.5 10.3239 9.5 11.3333V20.6667C9.5 21.6761 10.3239 22.5 11.3333 22.5H20.6667C21.6761 22.5 22.5 21.6761 22.5 20.6667V14.5533C22.5 14.0696 22.3088 13.6005 21.958 13.2576L18.7424 10.0419C18.3995 9.69122 17.9304 9.5 17.4467 9.5ZM13.3333 18.5H18.6667C18.7572 18.5 18.8333 18.5761 18.8333 18.6667C18.8333 18.7572 18.7572 18.8333 18.6667 18.8333H13.3333C13.2428 18.8333 13.1667 18.7572 13.1667 18.6667C13.1667 18.5761 13.2428 18.5 13.3333 18.5ZM13.3333 15.8333H18.6667C18.7572 15.8333 18.8333 15.9095 18.8333 16C18.8333 16.0905 18.7572 16.1667 18.6667 16.1667H13.3333C13.2428 16.1667 13.1667 16.0905 13.1667 16C13.1667 15.9095 13.2428 15.8333 13.3333 15.8333ZM13.3333 13.1667H16.6667C16.7572 13.1667 16.8333 13.2428 16.8333 13.3333C16.8333 13.4239 16.7572 13.5 16.6667 13.5H13.3333C13.2428 13.5 13.1667 13.4239 13.1667 13.3333C13.1667 13.2428 13.2428 13.1667 13.3333 13.1667Z" stroke="#31A150"/>
</g>
<defs>
<clipPath id="clip0_44408_508254">
<rect width="16" height="16" fill="white" transform="translate(8 8)"/>
</clipPath>
</defs>
</svg>
