<svg width="121" height="35" viewBox="0 0 121 35" fill="none" xmlns="http://www.w3.org/2000/svg">
<g clip-path="url(#clip0_28270_353950)">
<path d="M34.409 5.94544L30.0213 13.8099C29.8437 14.1238 29.0443 15.4061 28.7689 15.6123C28.0406 16.4822 27.0369 17.0561 25.9178 17.2534C25.6513 17.3431 24.6033 17.3969 24.3102 17.3969H9.70806L0 34.8117H14.5932C15.437 34.8027 18.5102 34.6323 19.274 34.3274C22.3028 33.7087 24.9852 31.6731 26.5484 28.8662L30.9362 21.0018C31.1138 20.6879 31.9132 19.4056 32.1885 19.1994C32.9169 18.3295 33.9294 17.7556 35.0485 17.5493C35.315 17.4596 36.3542 17.4058 36.6473 17.4058H51.2493L60.9574 0H46.3731C45.5293 0.00896748 42.4561 0.179349 41.6923 0.484243C38.6547 1.09403 35.9723 3.13861 34.409 5.94544Z" fill="#FF9332"/>
<path d="M34.3558 31.5915L34.4446 31.5467C36.5052 32.3358 38.6902 32.6855 41.71 32.6855C44.9431 32.6855 46.3198 32.1654 46.3198 31.4032C46.3198 29.1703 34.2847 32.1117 34.2847 26.8387C34.2847 24.561 36.7716 23.3594 41.5324 23.3594C43.9128 23.3594 46.0978 23.6553 48.114 24.2561V26.5967L48.0252 26.6235C45.9202 25.9958 43.7618 25.664 41.5946 25.664C38.4948 25.664 37.1802 26.0497 37.1802 26.7401C37.1802 28.973 49.2065 26.1214 49.2065 31.3225C49.2065 33.8692 46.9594 34.9902 41.5235 34.9902C38.7435 34.9902 36.2121 34.6494 34.3291 34.0486V31.5915H34.3558Z" fill="#FF9332"/>
<path d="M54.1094 23.6953V34.8239H51.205V23.6953H54.1094Z" fill="#FF9332"/>
<path d="M58.8436 29.205C58.8436 31.3751 60.8151 32.6844 64.661 32.6844C65.8246 32.6844 66.9527 32.4961 68.0365 32.1732V30.1556H61.455V28.2455H70.9321V33.4825C68.7646 34.6035 66.8374 34.989 64.5457 34.989C59.1279 34.989 55.9391 32.8458 55.9391 29.1781C55.9391 25.5104 59.119 23.3672 64.3856 23.3672C66.8906 23.3672 68.969 23.8425 70.9499 24.8737V27.3667L70.8607 27.3847C68.9336 26.3175 66.864 25.6718 64.661 25.6718C60.8599 25.6898 58.8436 26.999 58.8436 29.205Z" fill="#FF9332"/>
<path d="M88.8291 23.6953V34.8239H85.4719L76.2967 26.9146V34.8239H73.3922V23.6953H76.448L85.9251 31.8377V23.6953H88.8291Z" fill="#FF9332"/>
<path d="M102.33 32.5754H94.5406L93.1637 34.8083H90.0459L97.0717 23.6797H100.065L106.736 34.8083H103.618L102.33 32.5754ZM101.015 30.3156L98.5462 26.0471L95.917 30.3156H101.015Z" fill="#FF9332"/>
<path d="M121 32.5552V34.8239H108.112V23.6953H111.016V32.5552H121Z" fill="#FF9332"/>
</g>
<defs>
<clipPath id="clip0_28270_353950">
<rect width="121" height="35" fill="white"/>
</clipPath>
</defs>
</svg>
