<svg width="26" height="28" viewBox="0 0 26 28" fill="none" xmlns="http://www.w3.org/2000/svg">
<path id="Vector" d="M2.55771 28C1.85434 28 1.25222 27.7496 0.751348 27.2487C0.250449 26.7478 0 26.1457 0 25.4423V5.42136C0 4.71799 0.250449 4.11587 0.751348 3.615C1.25222 3.1141 1.85434 2.86364 2.55771 2.86364H9.75659C9.72395 2.11308 9.97686 1.44817 10.5153 0.868919C11.0538 0.289641 11.7406 0 12.5758 0C13.411 0 14.0979 0.289641 14.6363 0.868919C15.1748 1.44817 15.4226 2.11308 15.3798 2.86364H22.5786C23.282 2.86364 23.8841 3.1141 24.385 3.615C24.8859 4.11587 25.1364 4.71799 25.1364 5.42136V25.4423C25.1364 26.1457 24.8859 26.7478 24.385 27.2487C23.8841 27.7496 23.282 28 22.5786 28H2.55771ZM6.36361 22.4869H14.9545C15.2475 22.4869 15.4931 22.3885 15.6913 22.1918C15.8895 21.9951 15.9886 21.7514 15.9886 21.4606C15.9886 21.1699 15.8895 20.9235 15.6913 20.7216C15.4931 20.5197 15.2475 20.4187 14.9545 20.4187H6.36361C6.07062 20.4187 5.82504 20.5171 5.62686 20.7138C5.42866 20.9105 5.32956 21.1542 5.32956 21.445C5.32956 21.7357 5.42866 21.9821 5.62686 22.184C5.82504 22.3859 6.07062 22.4869 6.36361 22.4869ZM6.36361 16.4659H18.7727C19.0657 16.4659 19.3113 16.3675 19.5095 16.1708C19.7077 15.9742 19.8068 15.7304 19.8068 15.4397C19.8068 15.1489 19.7077 14.9026 19.5095 14.7006C19.3113 14.4987 19.0657 14.3978 18.7727 14.3978H6.36361C6.07062 14.3978 5.82504 14.4961 5.62686 14.6928C5.42866 14.8895 5.32956 15.1332 5.32956 15.424C5.32956 15.7148 5.42866 15.9611 5.62686 16.163C5.82504 16.3649 6.07062 16.4659 6.36361 16.4659ZM6.36361 10.4449H18.7727C19.0657 10.4449 19.3113 10.3466 19.5095 10.1499C19.7077 9.95318 19.8068 9.70945 19.8068 9.41869C19.8068 9.12792 19.7077 8.88158 19.5095 8.67967C19.3113 8.47773 19.0657 8.37676 18.7727 8.37676H6.36361C6.07062 8.37676 5.82504 8.47511 5.62686 8.67183C5.42866 8.86852 5.32956 9.11225 5.32956 9.40302C5.32956 9.69378 5.42866 9.94012 5.62686 10.142C5.82504 10.3439 6.07062 10.4449 6.36361 10.4449ZM12.5682 4.13021C12.8439 4.13021 13.072 4.04006 13.2523 3.85976C13.4326 3.67945 13.5227 3.45142 13.5227 3.17566C13.5227 2.89991 13.4326 2.67187 13.2523 2.49157C13.072 2.31127 12.8439 2.22112 12.5682 2.22112C12.2924 2.22112 12.0644 2.31127 11.8841 2.49157C11.7038 2.67187 11.6136 2.89991 11.6136 3.17566C11.6136 3.45142 11.7038 3.67945 11.8841 3.85976C12.0644 4.04006 12.2924 4.13021 12.5682 4.13021Z" fill="#1DBAC4"/>
</svg>
