<svg xmlns="http://www.w3.org/2000/svg" width="16" height="16" viewBox="0 0 16 16" fill="none">
  <g clip-path="url(#clip0_30473_34682)">
    <path d="M8.66675 2C5.35342 2 2.66675 4.68667 2.66675 8H0.666748L3.33341 10.66L6.00008 8H4.00008C4.00008 5.42 6.08675 3.33333 8.66675 3.33333C11.2467 3.33333 13.3334 5.42 13.3334 8C13.3334 10.58 11.2467 12.6667 8.66675 12.6667C7.38008 12.6667 6.21342 12.14 5.37341 11.2933L4.42675 12.24C5.51341 13.3267 7.00675 14 8.66675 14C11.9801 14 14.6667 11.3133 14.6667 8C14.6667 4.68667 11.9801 2 8.66675 2ZM8.00008 5.33333V8.66667L10.8334 10.3467L11.3467 9.49333L9.00008 8.1V5.33333H8.00008Z" fill="white"/>
  </g>
  <defs>
    <clipPath id="clip0_30473_34682">
      <rect width="16" height="16" fill="white"/>
    </clipPath>
  </defs>
</svg>