<svg xmlns="http://www.w3.org/2000/svg" width="20" height="20" viewBox="0 0 20 20" fill="none">
  <g clip-path="url(#clip0_42432_135030)">
    <path d="M14.7083 5.29427C13.5 4.08594 11.8417 3.33594 10 3.33594C6.31667 3.33594 3.34167 6.31927 3.34167 10.0026C3.34167 13.6859 6.31667 16.6693 10 16.6693C13.1083 16.6693 15.7 14.5443 16.4417 11.6693H14.7083C14.025 13.6109 12.175 15.0026 10 15.0026C7.24167 15.0026 5.00001 12.7609 5.00001 10.0026C5.00001 7.24427 7.24167 5.0026 10 5.0026C11.3833 5.0026 12.6167 5.5776 13.5167 6.48594L10.8333 9.16927H16.6667V3.33594L14.7083 5.29427Z" fill="#6A6A70"/>
  </g>
  <defs>
    <clipPath id="clip0_42432_135030">
      <rect width="20" height="20" fill="white"/>
    </clipPath>
  </defs>
</svg>