<svg width="14" height="14" viewBox="0 0 14 14" fill="none" xmlns="http://www.w3.org/2000/svg">
<rect width="14" height="14" rx="7" fill="white"/>
<path d="M9.33333 8.16667C8.689 8.16667 8.16667 8.689 8.16667 9.33333C8.16667 9.97767 8.689 10.5 9.33333 10.5C9.97767 10.5 10.5 9.97767 10.5 9.33333C10.5 8.689 9.97767 8.16667 9.33333 8.16667ZM9.33333 8.16667V5.44444C9.33333 5.23816 9.25139 5.04033 9.10553 4.89447C8.95967 4.74861 8.76184 4.66667 8.55556 4.66667H7.38889M4.66667 5.83333C5.311 5.83333 5.83333 5.311 5.83333 4.66667C5.83333 4.02233 5.311 3.5 4.66667 3.5C4.02233 3.5 3.5 4.02233 3.5 4.66667C3.5 5.311 4.02233 5.83333 4.66667 5.83333ZM4.66667 5.83333V10.5" stroke="#757575" stroke-width="0.8" stroke-linecap="round" stroke-linejoin="round"/>
</svg>
