<svg width="18" height="20" viewBox="0 0 18 20" fill="none" xmlns="http://www.w3.org/2000/svg">
<mask id="path-1-inside-1_44540_115806" fill="white">
<path fill-rule="evenodd" clip-rule="evenodd" d="M8.99912 20L14.857 14.1421C16.0156 12.9835 16.8046 11.5074 17.1242 9.90041C17.4439 8.29343 17.2798 6.62774 16.6528 5.11399C16.0258 3.60025 14.9639 2.30643 13.6016 1.39614C12.2393 0.485861 10.6376 0 8.99912 0C7.36065 0 5.75897 0.485861 4.39663 1.39614C3.0343 2.30643 1.97248 3.60025 1.34546 5.11399C0.71844 6.62774 0.554378 8.29343 0.87402 9.90041C1.19366 11.5074 1.98265 12.9835 3.14122 14.1421L8.99912 20Z"/>
</mask>
<path fill-rule="evenodd" clip-rule="evenodd" d="M8.99912 20L14.857 14.1421C16.0156 12.9835 16.8046 11.5074 17.1242 9.90041C17.4439 8.29343 17.2798 6.62774 16.6528 5.11399C16.0258 3.60025 14.9639 2.30643 13.6016 1.39614C12.2393 0.485861 10.6376 0 8.99912 0C7.36065 0 5.75897 0.485861 4.39663 1.39614C3.0343 2.30643 1.97248 3.60025 1.34546 5.11399C0.71844 6.62774 0.554378 8.29343 0.87402 9.90041C1.19366 11.5074 1.98265 12.9835 3.14122 14.1421L8.99912 20Z" fill="#3F99FF"/>
<path d="M14.857 14.1421L15.5641 14.8492L15.5641 14.8492L14.857 14.1421ZM8.99912 20L8.29201 20.7071L8.99912 21.4142L9.70623 20.7071L8.99912 20ZM16.6528 5.11399L17.5767 4.73131V4.73131L16.6528 5.11399ZM13.6016 1.39614L13.046 2.22761H13.046L13.6016 1.39614ZM4.39663 1.39614L4.9522 2.22761L4.39663 1.39614ZM1.34546 5.11399L0.421581 4.73131L1.34546 5.11399ZM3.14122 14.1421L2.43411 14.8492L2.43411 14.8492L3.14122 14.1421ZM14.1499 13.435L8.29201 19.2929L9.70623 20.7071L15.5641 14.8492L14.1499 13.435ZM16.1434 9.70533C15.8624 11.1183 15.1686 12.4163 14.1499 13.435L15.5641 14.8492C16.8625 13.5508 17.7468 11.8965 18.105 10.0955L16.1434 9.70533ZM15.7289 5.49668C16.2802 6.8277 16.4245 8.29232 16.1434 9.70533L18.105 10.0955C18.4632 8.29453 18.2794 6.42778 17.5767 4.73131L15.7289 5.49668ZM13.046 2.22761C14.2439 3.02802 15.1776 4.16566 15.7289 5.49668L17.5767 4.73131C16.8739 3.03484 15.684 1.58484 14.1572 0.564674L13.046 2.22761ZM8.99912 1C10.4398 1 11.8481 1.42721 13.046 2.22761L14.1572 0.564674C12.6304 -0.45549 10.8354 -1 8.99912 -1V1ZM4.9522 2.22761C6.15009 1.42721 7.55843 1 8.99912 1V-1C7.16287 -1 5.36785 -0.45549 3.84107 0.564674L4.9522 2.22761ZM2.26934 5.49668C2.82067 4.16566 3.75431 3.02802 4.9522 2.22761L3.84107 0.564674C2.31428 1.58484 1.12429 3.03484 0.421581 4.73131L2.26934 5.49668ZM1.85481 9.70533C1.57375 8.29232 1.71801 6.8277 2.26934 5.49668L0.421581 4.73131C-0.281126 6.42778 -0.464993 8.29453 -0.106766 10.0955L1.85481 9.70533ZM3.84833 13.435C2.82962 12.4163 2.13586 11.1183 1.85481 9.70533L-0.106766 10.0955C0.25146 11.8965 1.13569 13.5508 2.43411 14.8492L3.84833 13.435ZM9.70623 19.2929L3.84833 13.435L2.43411 14.8492L8.29201 20.7071L9.70623 19.2929Z" fill="#0058FF" mask="url(#path-1-inside-1_44540_115806)"/>
</svg>
