<svg width="20" height="20" viewBox="0 0 20 20" fill="none" xmlns="http://www.w3.org/2000/svg">
<mask id="path-1-inside-1_7861_5828" fill="white">
<path fill-rule="evenodd" clip-rule="evenodd" d="M1.35234 10.2842L3.2465 4.92084C3.25586 4.89428 3.267 4.86839 3.27984 4.84334C3.5965 4.22834 4.16484 3.7575 4.7715 3.44334C5.3815 3.1275 6.09067 2.94 6.759 2.94C7.71567 2.94 8.66734 3.32334 9.3815 3.93334C9.61067 4.12834 9.82067 4.35167 9.99984 4.59834C10.1789 4.353 10.3865 4.12978 10.6182 3.93334C11.3323 3.32417 12.284 2.94 13.2407 2.94C13.909 2.94 14.6182 3.1275 15.229 3.44334C15.8348 3.7575 16.4032 4.22834 16.7198 4.84334C16.7323 4.86834 16.744 4.89417 16.7532 4.92084L18.6473 10.2842C18.8737 10.8515 18.9775 11.4603 18.9518 12.0705C18.9261 12.6808 18.7716 13.2787 18.4983 13.825C18.225 14.3713 17.8392 14.8535 17.3662 15.2401C16.8933 15.6266 16.3439 15.9086 15.7541 16.0676C15.1644 16.2266 14.5476 16.259 13.9445 16.1627C13.3413 16.0663 12.7654 15.8433 12.2545 15.5085C11.7437 15.1736 11.3095 14.7345 10.9805 14.2198C10.6515 13.7052 10.4351 13.1267 10.3457 12.5225H9.654C9.49536 13.6041 8.93343 14.5856 8.08103 15.27C7.22863 15.9544 6.14888 16.291 5.05857 16.2121C3.96827 16.1333 2.94814 15.645 2.20302 14.8451C1.4579 14.0453 1.04296 12.9931 1.0415 11.9M3.48484 8L4.40984 5.38167C4.57734 5.07917 4.90484 4.78167 5.34567 4.55417C5.79734 4.32 6.31067 4.19 6.759 4.19C7.39317 4.19 8.06234 4.45084 8.57067 4.88417C9.07734 5.31667 9.37484 5.875 9.37484 6.44584V10.2517C9.15018 9.70546 8.81615 9.21098 8.39329 8.79865C7.97044 8.38632 7.46771 8.06486 6.91601 7.85403C6.36431 7.6432 5.77532 7.54747 5.18525 7.57271C4.59518 7.59796 4.01651 7.74282 3.48484 8ZM8.3865 11.2775C8.46798 11.6736 8.47064 12.0819 8.39433 12.479C8.31802 12.8761 8.16424 13.2543 7.94177 13.592C7.49246 14.274 6.79063 14.7496 5.99067 14.9142C5.59457 14.9956 5.1863 14.9983 4.78918 14.922C4.39205 14.8457 4.01384 14.6919 3.67614 14.4694C2.99414 14.0201 2.51855 13.3183 2.354 12.5183C2.18946 11.7184 2.34944 10.8858 2.79874 10.2038C3.24805 9.5218 3.94988 9.04621 4.74984 8.88167C5.5498 8.71712 6.38236 8.8771 7.06436 9.32641C7.74637 9.77571 8.22196 10.4775 8.3865 11.2775ZM10.6248 10.2525C10.7865 9.85834 11.0048 9.49417 11.2698 9.16917C11.6812 8.66142 12.2025 8.25362 12.7943 7.97648C13.3861 7.69934 14.0331 7.56007 14.6865 7.56917C15.3202 7.57739 15.9444 7.72475 16.5148 8.00084L15.5898 5.38167C15.4223 5.07917 15.0948 4.78167 14.6548 4.55417C14.2023 4.32 13.6882 4.19 13.2407 4.19C12.6065 4.19 11.9373 4.45084 11.429 4.88417C10.9223 5.31667 10.6248 5.875 10.6248 6.44584V10.2517V10.2525ZM11.5507 11.8983C11.5637 12.7061 11.8937 13.4764 12.4695 14.0431C13.0453 14.6098 13.8207 14.9275 14.6286 14.9277C15.4365 14.9279 16.2121 14.6106 16.7882 14.0442C17.3642 13.4779 17.6947 12.7078 17.7082 11.9V11.8983C17.7082 11.8422 17.7068 11.7861 17.704 11.73C17.6607 10.9437 17.3179 10.2038 16.746 9.66239C16.1741 9.12101 15.4165 8.81926 14.629 8.81917C14.2246 8.81873 13.824 8.89808 13.4503 9.05268C13.0765 9.20728 12.737 9.43408 12.451 9.72011C12.1651 10.0061 11.9384 10.3458 11.7839 10.7195C11.6294 11.0933 11.5501 11.4939 11.5507 11.8983Z"/>
</mask>
<path fill-rule="evenodd" clip-rule="evenodd" d="M1.35234 10.2842L3.2465 4.92084C3.25586 4.89428 3.267 4.86839 3.27984 4.84334C3.5965 4.22834 4.16484 3.7575 4.7715 3.44334C5.3815 3.1275 6.09067 2.94 6.759 2.94C7.71567 2.94 8.66734 3.32334 9.3815 3.93334C9.61067 4.12834 9.82067 4.35167 9.99984 4.59834C10.1789 4.353 10.3865 4.12978 10.6182 3.93334C11.3323 3.32417 12.284 2.94 13.2407 2.94C13.909 2.94 14.6182 3.1275 15.229 3.44334C15.8348 3.7575 16.4032 4.22834 16.7198 4.84334C16.7323 4.86834 16.744 4.89417 16.7532 4.92084L18.6473 10.2842C18.8737 10.8515 18.9775 11.4603 18.9518 12.0705C18.9261 12.6808 18.7716 13.2787 18.4983 13.825C18.225 14.3713 17.8392 14.8535 17.3662 15.2401C16.8933 15.6266 16.3439 15.9086 15.7541 16.0676C15.1644 16.2266 14.5476 16.259 13.9445 16.1627C13.3413 16.0663 12.7654 15.8433 12.2545 15.5085C11.7437 15.1736 11.3095 14.7345 10.9805 14.2198C10.6515 13.7052 10.4351 13.1267 10.3457 12.5225H9.654C9.49536 13.6041 8.93343 14.5856 8.08103 15.27C7.22863 15.9544 6.14888 16.291 5.05857 16.2121C3.96827 16.1333 2.94814 15.645 2.20302 14.8451C1.4579 14.0453 1.04296 12.9931 1.0415 11.9M3.48484 8L4.40984 5.38167C4.57734 5.07917 4.90484 4.78167 5.34567 4.55417C5.79734 4.32 6.31067 4.19 6.759 4.19C7.39317 4.19 8.06234 4.45084 8.57067 4.88417C9.07734 5.31667 9.37484 5.875 9.37484 6.44584V10.2517C9.15018 9.70546 8.81615 9.21098 8.39329 8.79865C7.97044 8.38632 7.46771 8.06486 6.91601 7.85403C6.36431 7.6432 5.77532 7.54747 5.18525 7.57271C4.59518 7.59796 4.01651 7.74282 3.48484 8ZM8.3865 11.2775C8.46798 11.6736 8.47064 12.0819 8.39433 12.479C8.31802 12.8761 8.16424 13.2543 7.94177 13.592C7.49246 14.274 6.79063 14.7496 5.99067 14.9142C5.59457 14.9956 5.1863 14.9983 4.78918 14.922C4.39205 14.8457 4.01384 14.6919 3.67614 14.4694C2.99414 14.0201 2.51855 13.3183 2.354 12.5183C2.18946 11.7184 2.34944 10.8858 2.79874 10.2038C3.24805 9.5218 3.94988 9.04621 4.74984 8.88167C5.5498 8.71712 6.38236 8.8771 7.06436 9.32641C7.74637 9.77571 8.22196 10.4775 8.3865 11.2775ZM10.6248 10.2525C10.7865 9.85834 11.0048 9.49417 11.2698 9.16917C11.6812 8.66142 12.2025 8.25362 12.7943 7.97648C13.3861 7.69934 14.0331 7.56007 14.6865 7.56917C15.3202 7.57739 15.9444 7.72475 16.5148 8.00084L15.5898 5.38167C15.4223 5.07917 15.0948 4.78167 14.6548 4.55417C14.2023 4.32 13.6882 4.19 13.2407 4.19C12.6065 4.19 11.9373 4.45084 11.429 4.88417C10.9223 5.31667 10.6248 5.875 10.6248 6.44584V10.2517V10.2525ZM11.5507 11.8983C11.5637 12.7061 11.8937 13.4764 12.4695 14.0431C13.0453 14.6098 13.8207 14.9275 14.6286 14.9277C15.4365 14.9279 16.2121 14.6106 16.7882 14.0442C17.3642 13.4779 17.6947 12.7078 17.7082 11.9V11.8983C17.7082 11.8422 17.7068 11.7861 17.704 11.73C17.6607 10.9437 17.3179 10.2038 16.746 9.66239C16.1741 9.12101 15.4165 8.81926 14.629 8.81917C14.2246 8.81873 13.824 8.89808 13.4503 9.05268C13.0765 9.20728 12.737 9.43408 12.451 9.72011C12.1651 10.0061 11.9384 10.3458 11.7839 10.7195C11.6294 11.0933 11.5501 11.4939 11.5507 11.8983Z" fill="white"/>
<path d="M3.2465 4.92084L4.18943 5.25385L4.18968 5.25313L3.2465 4.92084ZM3.27984 4.84334L2.39077 4.38555L2.38992 4.38721L3.27984 4.84334ZM4.7715 3.44334L4.31172 2.55531L4.31165 2.55534L4.7715 3.44334ZM9.3815 3.93334L8.73203 4.69372L8.73345 4.69493L9.3815 3.93334ZM9.99984 4.59834L9.19075 5.18602L9.9978 6.29713L10.8075 5.18796L9.99984 4.59834ZM10.6182 3.93334L11.2649 4.69606L11.2671 4.69416L10.6182 3.93334ZM15.229 3.44334L15.6894 2.5556L15.6883 2.55505L15.229 3.44334ZM16.7198 4.84334L17.6143 4.39609L17.6089 4.38555L16.7198 4.84334ZM16.7532 4.92084L15.8075 5.24593L15.8102 5.25385L16.7532 4.92084ZM18.6473 10.2842L17.7044 10.6172L17.7111 10.6361L17.7186 10.6548L18.6473 10.2842ZM10.3457 12.5225L11.3349 12.376L11.2085 11.5225H10.3457V12.5225ZM9.654 12.5225V11.5225H8.78998L8.66459 12.3774L9.654 12.5225ZM3.48484 8L2.54195 7.6669L1.73235 9.95856L3.92029 8.90022L3.48484 8ZM4.40984 5.38167L3.535 4.89725L3.49467 4.97008L3.46695 5.04857L4.40984 5.38167ZM5.34567 4.55417L5.80427 5.44281L5.80594 5.44195L5.34567 4.55417ZM8.57067 4.88417L9.21992 4.12359L9.2194 4.12315L8.57067 4.88417ZM9.37484 10.2517L8.45001 10.6321L10.3748 10.2517H9.37484ZM8.3865 11.2775L7.40701 11.479L8.3865 11.2775ZM7.94177 13.592L8.77684 14.1422L7.94177 13.592ZM5.99067 14.9142L5.7892 13.9347L5.99067 14.9142ZM3.67614 14.4694L3.126 15.3045L3.67614 14.4694ZM10.6248 10.2525H9.62484L11.55 10.632L10.6248 10.2525ZM11.2698 9.16917L12.0449 9.80111L12.0468 9.7987L11.2698 9.16917ZM14.6865 7.56917L14.6726 8.56907L14.6735 8.56909L14.6865 7.56917ZM16.5148 8.00084L16.0792 8.90096L18.2672 9.95988L17.4578 7.66783L16.5148 8.00084ZM15.5898 5.38167L16.5328 5.04866L16.505 4.97012L16.4647 4.89725L15.5898 5.38167ZM14.6548 4.55417L14.1952 5.44229L14.1956 5.44246L14.6548 4.55417ZM11.429 4.88417L10.7803 4.12315L10.7798 4.12359L11.429 4.88417ZM11.5507 11.8983L10.5507 11.8997L10.5507 11.9071L10.5508 11.9145L11.5507 11.8983ZM17.7082 11.9L18.708 11.9167L18.7082 11.9084V11.9H17.7082ZM17.7082 11.8983L16.7082 11.8978V11.8983H17.7082ZM17.704 11.73L18.7028 11.68L18.7025 11.6751L17.704 11.73ZM14.629 8.81917L14.6279 9.81917H14.6289L14.629 8.81917ZM2.29526 10.6172L4.18943 5.25385L2.30358 4.58782L0.409415 9.95116L2.29526 10.6172ZM4.18968 5.25313C4.18409 5.26901 4.17743 5.28449 4.16975 5.29947L2.38992 4.38721C2.35656 4.45229 2.32763 4.51956 2.30333 4.58854L4.18968 5.25313ZM4.1689 5.30112C4.36148 4.9271 4.74302 4.58422 5.23136 4.33133L4.31165 2.55534C3.58666 2.93078 2.83152 3.52957 2.39077 4.38555L4.1689 5.30112ZM5.23129 4.33137C5.71406 4.08141 6.26663 3.94 6.759 3.94V1.94C5.91471 1.94 5.04895 2.1736 4.31172 2.55531L5.23129 4.33137ZM6.759 3.94C7.45775 3.94 8.18327 4.225 8.73203 4.69372L10.031 3.17295C9.15141 2.42167 7.97359 1.94 6.759 1.94V3.94ZM8.73345 4.69493C8.90584 4.84162 9.06088 5.00723 9.19075 5.18602L10.8089 4.01065C10.5805 3.69611 10.3155 3.41505 10.0296 3.17174L8.73345 4.69493ZM10.8075 5.18796C10.94 5.00648 11.0935 4.84136 11.2649 4.69606L9.97144 3.17061C9.67946 3.41819 9.41787 3.69952 9.19216 4.00872L10.8075 5.18796ZM11.2671 4.69416C11.8166 4.22549 12.5424 3.94 13.2407 3.94V1.94C12.0256 1.94 10.8481 2.42285 9.96921 3.17251L11.2671 4.69416ZM13.2407 3.94C13.733 3.94 14.2857 4.08137 14.7697 4.33162L15.6883 2.55505C14.9506 2.17364 14.085 1.94 13.2407 1.94V3.94ZM14.7687 4.33107C15.2565 4.58404 15.6381 4.927 15.8308 5.30112L17.6089 4.38555C17.1682 3.52967 16.4132 2.93096 15.6894 2.5556L14.7687 4.33107ZM15.8254 5.29055C15.8258 5.29139 15.824 5.28773 15.8209 5.28074C15.8179 5.27369 15.813 5.26183 15.8075 5.24592L17.6989 4.59576C17.6701 4.51211 17.6377 4.44309 17.6143 4.39612L15.8254 5.29055ZM15.8102 5.25385L17.7044 10.6172L19.5903 9.95116L17.6961 4.58782L15.8102 5.25385ZM17.7186 10.6548C17.8927 11.0911 17.9725 11.5592 17.9527 12.0285L19.9509 12.1126C19.9826 11.3613 19.8548 10.6119 19.5761 9.91351L17.7186 10.6548ZM17.9527 12.0285C17.933 12.4978 17.8141 12.9576 17.604 13.3776L19.3926 14.2724C19.729 13.5999 19.9193 12.8639 19.9509 12.1126L17.9527 12.0285ZM17.604 13.3776C17.3938 13.7977 17.0972 14.1685 16.7335 14.4657L17.999 16.0144C18.5813 15.5386 19.0562 14.9449 19.3926 14.2724L17.604 13.3776ZM16.7335 14.4657C16.3698 14.7629 15.9473 14.9798 15.4938 15.1021L16.0144 17.0331C16.7404 16.8374 17.4168 16.4902 17.999 16.0144L16.7335 14.4657ZM15.4938 15.1021C15.0403 15.2244 14.566 15.2493 14.1022 15.1752L13.7867 17.1501C14.5292 17.2688 15.2884 17.2289 16.0144 17.0331L15.4938 15.1021ZM14.1022 15.1752C13.6384 15.1011 13.1955 14.9296 12.8027 14.6722L11.7063 16.3448C12.3352 16.7571 13.0442 17.0315 13.7867 17.1501L14.1022 15.1752ZM12.8027 14.6722C12.4099 14.4147 12.076 14.0769 11.823 13.6812L10.1379 14.7584C10.5429 15.392 11.0774 15.9326 11.7063 16.3448L12.8027 14.6722ZM11.823 13.6812C11.57 13.2855 11.4037 12.8407 11.3349 12.376L9.35646 12.669C9.46659 13.4128 9.73292 14.1249 10.1379 14.7584L11.823 13.6812ZM10.3457 11.5225H9.654V13.5225H10.3457V11.5225ZM8.66459 12.3774C8.54259 13.2091 8.11046 13.9639 7.45496 14.4902L8.7071 16.0498C9.7564 15.2073 10.4481 13.999 10.6434 12.6676L8.66459 12.3774ZM7.45496 14.4902C6.79946 15.0165 5.96912 15.2754 5.13066 15.2148L4.98648 17.2095C6.32864 17.3066 7.6578 16.8922 8.7071 16.0498L7.45496 14.4902ZM5.13066 15.2148C4.29221 15.1541 3.50773 14.7786 2.93472 14.1635L1.47133 15.5268C2.38856 16.5114 3.64433 17.1125 4.98648 17.2095L5.13066 15.2148ZM2.93472 14.1635C2.36172 13.5484 2.04262 12.7393 2.0415 11.8987L0.0415048 11.9013C0.0432943 13.247 0.554088 14.5421 1.47133 15.5268L2.93472 14.1635ZM4.42773 8.33311L5.35273 5.71477L3.46695 5.04857L2.54195 7.6669L4.42773 8.33311ZM5.28468 5.86608C5.32935 5.78541 5.48178 5.60924 5.80427 5.44281L4.88707 3.66553C4.3279 3.9541 3.82533 4.37293 3.535 4.89725L5.28468 5.86608ZM5.80594 5.44195C6.13027 5.2738 6.48683 5.19 6.759 5.19V3.19C6.13451 3.19 5.4644 3.36621 4.8854 3.66639L5.80594 5.44195ZM6.759 5.19C7.13518 5.19 7.57856 5.35247 7.92194 5.64518L9.2194 4.12315C8.54611 3.5492 7.65116 3.19 6.759 3.19V5.19ZM7.92143 5.64475C8.26084 5.93448 8.37484 6.2333 8.37484 6.44584H10.3748C10.3748 5.51671 9.89384 4.69886 9.21992 4.12359L7.92143 5.64475ZM8.37484 6.44584V10.2517H10.3748V6.44584H8.37484ZM10.2997 9.87128C10.0231 9.19892 9.61195 8.59025 9.09144 8.08269L7.69515 9.51461C8.02035 9.83172 8.27723 10.212 8.45001 10.6321L10.2997 9.87128ZM9.09144 8.08269C8.57093 7.57514 7.95209 7.17943 7.27298 6.91991L6.55904 8.78815C6.98333 8.95029 7.36996 9.19751 7.69515 9.51461L9.09144 8.08269ZM7.27298 6.91991C6.59387 6.6604 5.86884 6.54255 5.1425 6.57363L5.22799 8.5718C5.68179 8.55238 6.13476 8.62601 6.55904 8.78815L7.27298 6.91991ZM5.1425 6.57363C4.41709 6.60467 3.70469 6.78281 3.04939 7.09979L3.92029 8.90022C4.32833 8.70284 4.77326 8.59126 5.22799 8.5718L5.1425 6.57363ZM7.40701 11.479C7.46203 11.7464 7.46382 12.0221 7.41229 12.2903L9.37636 12.6677C9.47745 12.1416 9.47393 11.6008 9.366 11.076L7.40701 11.479ZM7.41229 12.2903C7.36077 12.5585 7.25692 12.8139 7.1067 13.0419L8.77684 14.1422C9.07156 13.6948 9.27528 13.1938 9.37636 12.6677L7.41229 12.2903ZM7.1067 13.0419C6.8033 13.5024 6.32938 13.8236 5.7892 13.9347L6.19214 15.8937C7.25188 15.6757 8.18162 15.0457 8.77684 14.1422L7.1067 13.0419ZM5.7892 13.9347C5.52173 13.9897 5.24604 13.9915 4.97787 13.94L4.60048 15.904C5.12657 16.0051 5.66742 16.0016 6.19214 15.8937L5.7892 13.9347ZM4.97787 13.94C4.70971 13.8884 4.45432 13.7846 4.22629 13.6344L3.126 15.3045C3.57336 15.5992 4.07439 15.8029 4.60048 15.904L4.97787 13.94ZM4.22629 13.6344C3.76575 13.331 3.44461 12.857 3.3335 12.3169L1.37451 12.7198C1.59249 13.7795 2.22252 14.7093 3.126 15.3045L4.22629 13.6344ZM3.3335 12.3169C3.22239 11.7767 3.33041 11.2145 3.63381 10.754L1.96367 9.65367C1.36846 10.5571 1.15653 11.6601 1.37451 12.7198L3.3335 12.3169ZM3.63381 10.754C3.93721 10.2934 4.41113 9.97227 4.95131 9.86116L4.54836 7.90218C3.48863 8.12015 2.55889 8.75018 1.96367 9.65367L3.63381 10.754ZM4.95131 9.86116C5.49149 9.75005 6.05369 9.85808 6.51422 10.1615L7.61451 8.49134C6.71103 7.89612 5.6081 7.6842 4.54836 7.90218L4.95131 9.86116ZM6.51422 10.1615C6.97475 10.4649 7.2959 10.9388 7.40701 11.479L9.366 11.076C9.14802 10.0163 8.51799 9.08655 7.61451 8.49134L6.51422 10.1615ZM11.55 10.632C11.6738 10.3303 11.8411 10.051 12.0449 9.80111L10.4948 8.53723C10.1686 8.93733 9.89925 9.38634 9.69963 9.87303L11.55 10.632ZM12.0468 9.7987C12.363 9.40849 12.7635 9.09509 13.2184 8.8821L12.3702 7.07086C11.6414 7.41216 10.9995 7.91436 10.4929 8.53964L12.0468 9.7987ZM13.2184 8.8821C13.6732 8.66911 14.1704 8.56208 14.6726 8.56907L14.7004 6.56927C13.8957 6.55806 13.099 6.72957 12.3702 7.07086L13.2184 8.8821ZM14.6735 8.56909C15.1607 8.57541 15.6406 8.6887 16.0792 8.90096L16.9505 7.10071C16.2481 6.7608 15.4797 6.57937 14.6995 6.56925L14.6735 8.56909ZM17.4578 7.66783L16.5328 5.04866L14.6469 5.71468L15.5719 8.33384L17.4578 7.66783ZM16.4647 4.89725C16.1744 4.37311 15.6721 3.95438 15.1141 3.66588L14.1956 5.44246C14.5176 5.60896 14.6702 5.78523 14.715 5.86608L16.4647 4.89725ZM15.1144 3.66604C14.535 3.36618 13.8643 3.19 13.2407 3.19V5.19C13.512 5.19 13.8697 5.27382 14.1952 5.44229L15.1144 3.66604ZM13.2407 3.19C12.3485 3.19 11.4536 3.5492 10.7803 4.12315L12.0777 5.64518C12.4211 5.35247 12.8645 5.19 13.2407 5.19V3.19ZM10.7798 4.12359C10.1058 4.69886 9.62484 5.51671 9.62484 6.44584H11.6248C11.6248 6.2333 11.7388 5.93448 12.0782 5.64475L10.7798 4.12359ZM9.62484 6.44584V10.2517H11.6248V6.44584H9.62484ZM9.62484 10.2517V10.2525H11.6248V10.2517H9.62484ZM10.5508 11.9145C10.5681 12.9846 11.0053 14.005 11.7681 14.7558L13.171 13.3304C12.7822 12.9477 12.5594 12.4276 12.5505 11.8822L10.5508 11.9145ZM11.7681 14.7558C12.5308 15.5065 13.5581 15.9274 14.6283 15.9277L14.6289 13.9277C14.0834 13.9275 13.5598 13.713 13.171 13.3304L11.7681 14.7558ZM14.6283 15.9277C15.6986 15.928 16.7261 15.5076 17.4892 14.7573L16.0871 13.3312C15.6981 13.7136 15.1744 13.9278 14.6289 13.9277L14.6283 15.9277ZM17.4892 14.7573C18.2524 14.007 18.6901 12.9868 18.708 11.9167L16.7083 11.8833C16.6992 12.4287 16.4761 12.9487 16.0871 13.3312L17.4892 14.7573ZM18.7082 11.9V11.8983H16.7082V11.9H18.7082ZM18.7082 11.8988C18.7082 11.8259 18.7064 11.7529 18.7028 11.68L16.7053 11.78C16.7072 11.8192 16.7082 11.8585 16.7082 11.8978L18.7082 11.8988ZM18.7025 11.6751C18.6452 10.6334 18.1911 9.65332 17.4335 8.93616L16.0586 10.3886C16.4448 10.7542 16.6763 11.2539 16.7055 11.7849L18.7025 11.6751ZM17.4335 8.93616C16.6759 8.219 15.6723 7.81929 14.6291 7.81917L14.6289 9.81917C15.1607 9.81923 15.6723 10.023 16.0586 10.3886L17.4335 8.93616ZM14.6301 7.81917C14.0941 7.81859 13.5633 7.92375 13.068 8.12862L13.8325 9.97674C14.0847 9.87242 14.355 9.81887 14.6279 9.81917L14.6301 7.81917ZM13.068 8.12862C12.5727 8.33349 12.1228 8.63406 11.7438 9.0131L13.1582 10.4271C13.3512 10.2341 13.5803 10.0811 13.8325 9.97674L13.068 8.12862ZM11.7438 9.0131C11.3649 9.39214 11.0644 9.84221 10.8597 10.3375L12.708 11.1015C12.8123 10.8493 12.9653 10.6201 13.1582 10.4271L11.7438 9.0131ZM10.8597 10.3375C10.655 10.8329 10.5499 11.3637 10.5507 11.8997L12.5507 11.897C12.5503 11.6241 12.6038 11.3538 12.708 11.1015L10.8597 10.3375Z" fill="white" mask="url(#path-1-inside-1_7861_5828)"/>
<path d="M1.35234 10.2842C1.14629 10.7974 1.04077 11.3453 1.04151 11.8983L1.35234 10.2842Z" fill="black"/>
</svg>
