<svg width="18" height="17" viewBox="0 0 18 17" fill="none" xmlns="http://www.w3.org/2000/svg">
<path d="M5.66634 6.33337H12.333H5.66634ZM4.83301 9.66671H5.66634H4.83301ZM12.333 9.66671H13.1663H12.333Z" fill="white"/>
<path d="M5.66634 6.33337H12.333M4.83301 9.66671H5.66634M12.333 9.66671H13.1663" stroke="white" stroke-width="1.2" stroke-linecap="round" stroke-linejoin="round"/>
<path d="M1.5 13V7.50837C1.50017 7.28288 1.5461 7.05977 1.635 6.85254L3.5675 2.34421C3.69586 2.04431 3.90941 1.78868 4.18168 1.609C4.45395 1.42931 4.77295 1.33348 5.09917 1.33337H12.9008C13.227 1.33341 13.5459 1.42912 13.8182 1.60865C14.0904 1.78818 14.304 2.04363 14.4325 2.34337L16.3658 6.85171C16.4547 7.05951 16.5003 7.28321 16.5 7.50921V13M1.5 13V15C1.5 15.1326 1.55268 15.2598 1.64645 15.3536C1.74021 15.4474 1.86739 15.5 2 15.5H4.33333C4.46594 15.5 4.59312 15.4474 4.68689 15.3536C4.78066 15.2598 4.83333 15.1326 4.83333 15V13M1.5 13H4.83333M16.5 13V15C16.5 15.1326 16.4473 15.2598 16.3536 15.3536C16.2598 15.4474 16.1326 15.5 16 15.5H13.6667C13.601 15.5 13.536 15.4871 13.4753 15.462C13.4147 15.4369 13.3595 15.4 13.3131 15.3536C13.2667 15.3072 13.2299 15.252 13.2047 15.1914C13.1796 15.1307 13.1667 15.0657 13.1667 15V13M16.5 13H13.1667M4.83333 13H13.1667" stroke="white" stroke-width="1.2"/>
</svg>
