<svg width="12" height="12" viewBox="0 0 12 12" fill="none" xmlns="http://www.w3.org/2000/svg">
<path d="M1.69259 11.4737C1.38609 11.7678 0.902158 11.7678 0.595655 11.4737C0.270735 11.1619 0.270734 10.6423 0.595655 10.3306L5.10865 6L0.595654 1.66945C0.270734 1.35766 0.270735 0.838082 0.595655 0.526297C0.902158 0.232185 1.38609 0.232185 1.69259 0.526297L6.78435 5.41222C7.11848 5.73284 7.11848 6.26716 6.78435 6.58778L1.69259 11.4737ZM11.2018 11.1064C10.7609 11.1064 10.4035 10.749 10.4035 10.3082L10.4035 1.69184C10.4035 1.251 10.7609 0.893617 11.2018 0.893617C11.6426 0.893617 12 1.25099 12 1.69184L12 10.3082C12 10.749 11.6426 11.1064 11.2018 11.1064Z" fill="#262527"/>
</svg>
