<svg xmlns="http://www.w3.org/2000/svg" width="16" height="16" viewBox="0 0 16 16" fill="none">
  <g clip-path="url(#clip0_33663_50024)">
    <path d="M8.0013 9.99935C9.10587 9.99935 10.0013 9.10392 10.0013 7.99935C10.0013 6.89478 9.10587 5.99935 8.0013 5.99935C6.89673 5.99935 6.0013 6.89478 6.0013 7.99935C6.0013 9.10392 6.89673 9.99935 8.0013 9.99935Z" stroke="white" stroke-width="1.5" stroke-linecap="round" stroke-linejoin="round"/>
    <path d="M12.9346 9.99935C12.8459 10.2004 12.8194 10.4235 12.8586 10.6397C12.8978 10.856 13.0009 11.0556 13.1546 11.2127L13.1946 11.2527C13.3186 11.3765 13.4169 11.5236 13.484 11.6854C13.5511 11.8473 13.5857 12.0208 13.5857 12.196C13.5857 12.3712 13.5511 12.5447 13.484 12.7066C13.4169 12.8685 13.3186 13.0155 13.1946 13.1393C13.0708 13.2633 12.9238 13.3617 12.7619 13.4288C12.6 13.4959 12.4265 13.5304 12.2513 13.5304C12.0761 13.5304 11.9026 13.4959 11.7407 13.4288C11.5789 13.3617 11.4318 13.2633 11.308 13.1393L11.268 13.0993C11.1108 12.9457 10.9113 12.8426 10.695 12.8033C10.4788 12.7641 10.2557 12.7906 10.0546 12.8793C9.85746 12.9639 9.68929 13.1042 9.57084 13.283C9.45239 13.4619 9.38882 13.6715 9.38797 13.886V13.9993C9.38797 14.353 9.24749 14.6921 8.99744 14.9422C8.7474 15.1922 8.40826 15.3327 8.05463 15.3327C7.70101 15.3327 7.36187 15.1922 7.11183 14.9422C6.86178 14.6921 6.7213 14.353 6.7213 13.9993V13.9393C6.71614 13.7187 6.64471 13.5047 6.51631 13.3251C6.3879 13.1456 6.20846 13.0089 6.0013 12.9327C5.80022 12.8439 5.57717 12.8175 5.36091 12.8567C5.14465 12.8959 4.94509 12.999 4.78797 13.1527L4.74797 13.1927C4.62414 13.3167 4.47709 13.415 4.31522 13.4821C4.15336 13.5492 3.97986 13.5837 3.80464 13.5837C3.62941 13.5837 3.45591 13.5492 3.29405 13.4821C3.13218 13.415 2.98513 13.3167 2.8613 13.1927C2.73733 13.0689 2.63899 12.9218 2.57189 12.7599C2.50479 12.5981 2.47025 12.4246 2.47025 12.2493C2.47025 12.0741 2.50479 11.9006 2.57189 11.7388C2.63899 11.5769 2.73733 11.4298 2.8613 11.306L2.9013 11.266C3.05499 11.1089 3.15809 10.9093 3.1973 10.6931C3.23652 10.4768 3.21005 10.2538 3.1213 10.0527C3.03679 9.8555 2.89647 9.68734 2.71761 9.56889C2.53875 9.45044 2.32916 9.38687 2.11464 9.38602H2.0013C1.64768 9.38602 1.30854 9.24554 1.05849 8.99549C0.808445 8.74544 0.667969 8.4063 0.667969 8.05268C0.667969 7.69906 0.808445 7.35992 1.05849 7.10987C1.30854 6.85982 1.64768 6.71935 2.0013 6.71935H2.0613C2.28196 6.71419 2.49597 6.64276 2.6755 6.51436C2.85503 6.38595 2.99178 6.20651 3.06797 5.99935C3.15671 5.79827 3.18318 5.57522 3.14397 5.35896C3.10476 5.14269 3.00166 4.94313 2.84797 4.78602L2.80797 4.74602C2.684 4.62218 2.58565 4.47513 2.51856 4.31327C2.45146 4.1514 2.41692 3.9779 2.41692 3.80268C2.41692 3.62746 2.45146 3.45396 2.51856 3.2921C2.58565 3.13023 2.684 2.98318 2.80797 2.85935C2.9318 2.73538 3.07885 2.63703 3.24071 2.56994C3.40258 2.50284 3.57608 2.4683 3.7513 2.4683C3.92652 2.4683 4.10002 2.50284 4.26189 2.56994C4.42375 2.63703 4.5708 2.73538 4.69464 2.85935L4.73464 2.89935C4.89175 3.05304 5.09131 3.15614 5.30758 3.19535C5.52384 3.23456 5.74689 3.20809 5.94797 3.11935H6.0013C6.19848 3.03484 6.36665 2.89452 6.4851 2.71566C6.60355 2.5368 6.66711 2.32721 6.66797 2.11268V1.99935C6.66797 1.64573 6.80844 1.30659 7.05849 1.05654C7.30854 0.806491 7.64768 0.666016 8.0013 0.666016C8.35492 0.666016 8.69406 0.806491 8.94411 1.05654C9.19416 1.30659 9.33463 1.64573 9.33463 1.99935V2.05935C9.33549 2.27387 9.39906 2.48347 9.51751 2.66233C9.63596 2.84119 9.80412 2.98151 10.0013 3.06602C10.2024 3.15476 10.4254 3.18123 10.6417 3.14202C10.858 3.10281 11.0575 2.99971 11.2146 2.84602L11.2546 2.80602C11.3785 2.68205 11.5255 2.5837 11.6874 2.5166C11.8492 2.4495 12.0227 2.41497 12.198 2.41497C12.3732 2.41497 12.5467 2.4495 12.7086 2.5166C12.8704 2.5837 13.0175 2.68205 13.1413 2.80602C13.2653 2.92985 13.3636 3.0769 13.4307 3.23876C13.4978 3.40063 13.5324 3.57413 13.5324 3.74935C13.5324 3.92457 13.4978 4.09807 13.4307 4.25994C13.3636 4.4218 13.2653 4.56885 13.1413 4.69268L13.1013 4.73268C12.9476 4.8898 12.8445 5.08936 12.8053 5.30562C12.7661 5.52189 12.7926 5.74494 12.8813 5.94602V5.99935C12.9658 6.19653 13.1061 6.36469 13.285 6.48314C13.4639 6.60159 13.6734 6.66516 13.888 6.66602H14.0013C14.3549 6.66602 14.6941 6.80649 14.9441 7.05654C15.1942 7.30659 15.3346 7.64573 15.3346 7.99935C15.3346 8.35297 15.1942 8.69211 14.9441 8.94216C14.6941 9.19221 14.3549 9.33268 14.0013 9.33268H13.9413C13.7268 9.33354 13.5172 9.3971 13.3383 9.51555C13.1595 9.634 13.0191 9.80217 12.9346 9.99935Z" stroke="white" stroke-width="1.5" stroke-linecap="round" stroke-linejoin="round"/>
  </g>
  <defs>
    <clipPath id="clip0_33663_50024">
      <rect width="16" height="16" fill="white"/>
    </clipPath>
  </defs>
</svg>