<svg width="20" height="20" viewBox="0 0 20 20" fill="none" xmlns="http://www.w3.org/2000/svg">
<path d="M14.9373 17.0833V12.0833L19.104 14.5833L14.9373 17.0833ZM10.7707 17.0833V12.0833L14.9373 14.5833L10.7707 17.0833ZM8.08317 18.3333L7.6665 15.7083C7.40262 15.6111 7.12484 15.4792 6.83317 15.3125C6.5415 15.1458 6.28456 14.9722 6.06234 14.7917L3.604 15.9167L1.6665 12.5L3.9165 10.8542C3.88873 10.7292 3.87137 10.5868 3.86442 10.4271C3.85748 10.2674 3.854 10.125 3.854 9.99999C3.854 9.87499 3.85748 9.73263 3.86442 9.57291C3.87137 9.41318 3.88873 9.27082 3.9165 9.14582L1.6665 7.49999L3.604 4.08332L6.06234 5.20832C6.28456 5.02777 6.5415 4.85416 6.83317 4.68749C7.12484 4.52082 7.40262 4.39582 7.6665 4.31249L8.08317 1.66666H11.9165L12.3332 4.29166C12.5971 4.38888 12.8783 4.51735 13.1769 4.67707C13.4755 4.8368 13.729 5.01388 13.9373 5.20832L16.3957 4.08332L18.3332 7.49999L16.0832 9.10416C16.0971 9.24304 16.1075 9.39235 16.1144 9.55207C16.1214 9.71179 16.1248 9.85416 16.1248 9.97916V10.8333H14.8748V9.97916C14.8748 9.70138 14.8609 9.45485 14.8332 9.23957C14.8054 9.02429 14.7637 8.81249 14.7082 8.60416L16.6665 7.16666L15.8332 5.66666L13.6248 6.62499C13.3054 6.26388 12.9443 5.9618 12.5415 5.71874C12.1387 5.47568 11.6943 5.31943 11.2082 5.24999L10.9165 2.91666H9.08317L8.7915 5.24999C8.31928 5.34721 7.87831 5.51388 7.46859 5.74999C7.05887 5.9861 6.69428 6.27777 6.37484 6.62499L4.1665 5.66666L3.33317 7.16666L5.2915 8.60416C5.23595 8.84027 5.19081 9.07291 5.15609 9.30207C5.12137 9.53124 5.104 9.76388 5.104 9.99999C5.104 10.2361 5.12137 10.4687 5.15609 10.6979C5.19081 10.9271 5.23595 11.1597 5.2915 11.3958L3.33317 12.8333L4.1665 14.3333L6.37484 13.375C6.73595 13.7361 7.14914 14.0382 7.61442 14.2812C8.0797 14.5243 8.56928 14.7014 9.08317 14.8125V18.3333H8.08317ZM9.08317 12.5417V11.125C8.9165 10.9861 8.78456 10.8229 8.68734 10.6354C8.59012 10.4479 8.5415 10.2361 8.5415 9.99999C8.5415 9.59721 8.68387 9.25346 8.96859 8.96874C9.25331 8.68402 9.59706 8.54166 9.99984 8.54166C10.4026 8.54166 10.7464 8.68402 11.0311 8.96874C11.3158 9.25346 11.4582 9.59721 11.4582 9.99999C11.4582 10.1528 11.4373 10.3021 11.3957 10.4479C11.354 10.5937 11.2915 10.7222 11.2082 10.8333H12.5832C12.6248 10.6944 12.6561 10.559 12.6769 10.4271C12.6978 10.2951 12.7082 10.1528 12.7082 9.99999C12.7082 9.24999 12.4443 8.6111 11.9165 8.08332C11.3887 7.55554 10.7498 7.29166 9.99984 7.29166C9.24984 7.29166 8.61095 7.55554 8.08317 8.08332C7.55539 8.6111 7.2915 9.24999 7.2915 9.99999C7.2915 10.5972 7.45817 11.1215 7.7915 11.5729C8.12484 12.0243 8.55539 12.3472 9.08317 12.5417Z" fill="white"/>
</svg>
