<svg width="14" height="14" viewBox="0 0 14 14" fill="none" xmlns="http://www.w3.org/2000/svg">
<path d="M6.99594 10.4852C7.14904 10.4852 7.27872 10.4334 7.38498 10.3299C7.49124 10.2263 7.54437 10.098 7.54437 9.94487C7.54437 9.79178 7.49258 9.66211 7.38902 9.55585C7.28547 9.4496 7.15715 9.39647 7.00406 9.39647C6.85095 9.39647 6.72127 9.44824 6.61502 9.5518C6.50876 9.65536 6.45563 9.78369 6.45563 9.93678C6.45563 10.0899 6.50741 10.2195 6.61098 10.3258C6.71453 10.4321 6.84285 10.4852 6.99594 10.4852ZM6.99621 7.98225C7.1368 7.98225 7.25591 7.93434 7.35354 7.8385C7.45117 7.74268 7.49998 7.62394 7.49998 7.48227V3.86684C7.49998 3.72518 7.45243 3.60644 7.35733 3.51061C7.26222 3.41477 7.14438 3.36686 7.00379 3.36686C6.8632 3.36686 6.74409 3.41477 6.64646 3.51061C6.54883 3.60644 6.50002 3.72518 6.50002 3.86684V7.48227C6.50002 7.62394 6.54757 7.74268 6.64267 7.8385C6.73777 7.93434 6.85562 7.98225 6.99621 7.98225ZM7.0066 14C6.04362 14 5.13669 13.8178 4.28582 13.4535C3.43493 13.0891 2.69017 12.5878 2.05154 11.9494C1.4129 11.3111 0.911317 10.5669 0.54679 9.71697C0.182263 8.86702 0 7.95886 0 6.99248C0 6.02609 0.18218 5.12067 0.54654 4.2762C0.9109 3.43173 1.41225 2.69017 2.05058 2.05154C2.68893 1.4129 3.43308 0.911317 4.28303 0.546791C5.13298 0.182264 6.04114 0 7.00752 0C7.97391 0 8.87933 0.182181 9.72379 0.546541C10.5683 0.910901 11.3098 1.41225 11.9485 2.05058C12.5871 2.68893 13.0887 3.43158 13.4532 4.27853C13.8177 5.12548 14 6.03044 14 6.9934C14 7.95638 13.8178 8.86331 13.4535 9.71418C13.0891 10.5651 12.5878 11.3098 11.9494 11.9485C11.3111 12.5871 10.5684 13.0887 9.72147 13.4532C8.87452 13.8177 7.96956 14 7.0066 14Z" fill="#F77619"/>
<circle cx="7" cy="7" r="4" fill="#F4780B"/>
<path d="M8.42688 5.57312L8.46225 5.53779C8.43439 5.5099 8.4013 5.48777 8.36488 5.47267C8.32846 5.45757 8.28943 5.4498 8.25 5.4498C8.21058 5.4498 8.17154 5.45757 8.13512 5.47267C8.09871 5.48776 8.06563 5.50989 8.03777 5.53777C8.03776 5.53778 8.03776 5.53778 8.03775 5.53779L6.78777 6.78777C6.7599 6.81564 6.73779 6.84873 6.72271 6.88514C6.70762 6.92156 6.69986 6.96058 6.69986 7C6.69986 7.03941 6.70762 7.07844 6.72271 7.11486C6.73779 7.15127 6.7599 7.18436 6.78777 7.21223C6.81564 7.2401 6.84873 7.26221 6.88514 7.27729C6.92156 7.29237 6.96059 7.30014 7 7.30014C7.03942 7.30014 7.07845 7.29237 7.11486 7.27729C7.15127 7.26221 7.18436 7.2401 7.21223 7.21223L8.46221 5.96225C8.46222 5.96224 8.46222 5.96224 8.46223 5.96223C8.49011 5.93437 8.51224 5.90129 8.52733 5.86488C8.54243 5.82846 8.5502 5.78942 8.5502 5.75C8.5502 5.71058 8.54243 5.67154 8.52733 5.63512C8.51223 5.5987 8.4901 5.56561 8.46221 5.53775L8.42688 5.57312ZM8.42688 5.57312C8.40366 5.54988 8.37608 5.53144 8.34574 5.51886C8.31539 5.50628 8.28285 5.4998 8.25 5.4998C8.21715 5.4998 8.18462 5.50628 8.15427 5.51886C8.12392 5.53144 8.09634 5.54988 8.07313 5.57312L8.42688 5.92687C8.45012 5.90366 8.46856 5.87608 8.48114 5.84573C8.49372 5.81539 8.5002 5.78285 8.5002 5.75C8.5002 5.71715 8.49372 5.68461 8.48114 5.65426C8.46856 5.62391 8.45012 5.59634 8.42688 5.57312ZM7.00006 3.95H7C6.39677 3.95 5.80708 4.12888 5.30551 4.46402C4.80394 4.79916 4.41302 5.2755 4.18217 5.83281C3.95132 6.39013 3.89092 7.00338 4.00861 7.59502C4.12629 8.18667 4.41678 8.73012 4.84333 9.15667C5.26988 9.58322 5.81333 9.87371 6.40498 9.99139C6.99662 10.1091 7.60987 10.0487 8.16718 9.81783C8.7245 9.58698 9.20084 9.19606 9.53598 8.69449C9.87112 8.19292 10.05 7.60323 10.05 7V6.99994C10.0491 6.19133 9.72745 5.4161 9.15567 4.84433C8.5839 4.27255 7.80867 3.95092 7.00006 3.95ZM6.99994 9.45C6.5154 9.44999 6.04174 9.3063 5.63885 9.0371C5.23595 8.76789 4.92193 8.38525 4.7365 7.93757C4.55106 7.48989 4.50254 6.99728 4.59708 6.52203C4.69161 6.04677 4.92495 5.61023 5.26759 5.26759C5.61023 4.92495 6.04678 4.69161 6.52203 4.59708C6.99728 4.50254 7.4899 4.55106 7.93757 4.73649C8.38525 4.92193 8.76789 5.23595 9.0371 5.63885C9.3063 6.04174 9.44999 6.5154 9.45 6.99994C9.44927 7.64951 9.19091 8.27227 8.73159 8.73159C8.27227 9.19091 7.64952 9.44927 6.99994 9.45ZM6.03787 3.03787C5.98161 3.09413 5.95 3.17043 5.95 3.25C5.95 3.32956 5.98161 3.40587 6.03787 3.46213C6.09413 3.51839 6.17044 3.55 6.25 3.55H7.75C7.82957 3.55 7.90587 3.51839 7.96213 3.46213C8.01839 3.40587 8.05 3.32956 8.05 3.25C8.05 3.17044 8.01839 3.09413 7.96213 3.03787C7.90587 2.98161 7.82957 2.95 7.75 2.95H6.25C6.17044 2.95 6.09413 2.98161 6.03787 3.03787Z" fill="#F5F5F6" stroke="#F5F5F6" stroke-width="0.1"/>
</svg>
