<svg width="71" height="70" viewBox="0 0 71 70" fill="none" xmlns="http://www.w3.org/2000/svg">
<rect x="0.5" width="70" height="70" rx="35" fill="#E5F6FF"/>
<path d="M35.5 23C37.0913 23 38.6174 23.6321 39.7426 24.7574C40.8679 25.8826 41.5 27.4087 41.5 29C41.5 30.5913 40.8679 32.1174 39.7426 33.2426C38.6174 34.3679 37.0913 35 35.5 35C33.9087 35 32.3826 34.3679 31.2574 33.2426C30.1321 32.1174 29.5 30.5913 29.5 29C29.5 27.4087 30.1321 25.8826 31.2574 24.7574C32.3826 23.6321 33.9087 23 35.5 23ZM35.5 38C42.13 38 47.5 40.685 47.5 44V47H23.5V44C23.5 40.685 28.87 38 35.5 38Z" fill="#3F99FF"/>
</svg>
