<svg width="124" height="36" viewBox="0 0 124 36" fill="none" xmlns="http://www.w3.org/2000/svg">
<g clip-path="url(#clip0_2003_181652)">
<path d="M35.3853 6.11531L30.9095 14.2045C30.7283 14.5273 29.9129 15.8463 29.632 16.0584C28.889 16.9531 27.8652 17.5434 26.7236 17.7464C26.4518 17.8386 25.3827 17.8939 25.0837 17.8939H10.1886L0.285645 35.8063H15.1717C16.0325 35.7971 19.1673 35.6218 19.9465 35.3082C23.0361 34.6718 25.7723 32.578 27.3669 29.691L31.8427 21.6019C32.0239 21.279 32.8393 19.96 33.1202 19.7479C33.8632 18.8532 34.896 18.2629 36.0376 18.0507C36.3094 17.9585 37.3695 17.9031 37.6685 17.9031H52.5636L62.4665 0H47.5895C46.7288 0.00922369 43.5939 0.184473 42.8147 0.498079C39.7161 1.12529 36.9799 3.22828 35.3853 6.11531Z" fill="#FF9332"/>
<path d="M35.3308 32.4947L35.4214 32.4486C37.5234 33.2603 39.7522 33.62 42.8327 33.62C46.1307 33.62 47.535 33.085 47.535 32.301C47.535 30.0043 35.2583 33.0297 35.2583 27.6061C35.2583 25.2633 37.7952 24.0273 42.6515 24.0273C45.0797 24.0273 47.3085 24.3318 49.3652 24.9497V27.3571L49.2746 27.3848C47.1273 26.7391 44.9257 26.3978 42.7149 26.3978C39.5529 26.3978 38.212 26.7945 38.212 27.5047C38.212 29.8014 50.4796 26.8682 50.4796 32.218C50.4796 34.8375 48.1874 35.9905 42.6425 35.9905C39.8066 35.9905 37.2244 35.64 35.3036 35.022V32.4947H35.3308Z" fill="#FF9332"/>
<path d="M55.481 24.3691V35.8157H52.5183V24.3691H55.481Z" fill="#FF9332"/>
<path d="M60.3102 30.0417C60.3102 32.2739 62.3213 33.6205 66.2444 33.6205C67.4313 33.6205 68.5821 33.4268 69.6876 33.0948V31.0195H62.9741V29.0548H72.6414V34.4414C70.4303 35.5944 68.4645 35.991 66.1268 35.991C60.6002 35.991 57.3474 33.7866 57.3474 30.0141C57.3474 26.2416 60.5911 24.0371 65.9635 24.0371C68.5188 24.0371 70.6389 24.526 72.6595 25.5867V28.1509L72.5685 28.1694C70.6027 27.0717 68.4916 26.4076 66.2444 26.4076C62.367 26.426 60.3102 27.7727 60.3102 30.0417Z" fill="#FF9332"/>
<path d="M90.8976 24.3691V35.8157H87.473L78.1137 27.6804V35.8157H75.1509V24.3691H78.268L87.9353 32.7442V24.3691H90.8976Z" fill="#FF9332"/>
<path d="M104.67 33.5093H96.7239L95.3193 35.806H92.1389L99.3058 24.3594H102.359L109.164 35.806H105.983L104.67 33.5093ZM103.328 31.1849L100.81 26.7944L98.1279 31.1849H103.328Z" fill="#FF9332"/>
<path d="M123.714 33.4822V35.8157H110.568V24.3691H113.53V33.4822H123.714Z" fill="#FF9332"/>
</g>
<defs>
<clipPath id="clip0_2003_181652">
<rect width="123.429" height="36" fill="white" transform="translate(0.285645)"/>
</clipPath>
</defs>
</svg>
