<svg width="56" height="56" viewBox="0 0 56 56" fill="none" xmlns="http://www.w3.org/2000/svg">
<rect x="4" y="4" width="48" height="48" rx="24" fill="#A9DEFF"/>
<rect x="4" y="4" width="48" height="48" rx="24" stroke="#CFEFFF" stroke-width="8"/>
<path d="M31.5 15.9004C31.6594 15.9004 31.8114 15.9637 31.9238 16.0762L36.9238 21.0762C37.0363 21.1886 37.0996 21.3406 37.0996 21.5V38C37.0996 39.1583 36.1577 40.0996 35 40.0996H21C19.8423 40.0996 18.9004 39.1583 18.9004 38V18C18.9004 16.8417 19.8423 15.9004 21 15.9004H31.5ZM21 17.0996C20.5036 17.0996 20.0996 17.504 20.0996 18V38C20.0996 38.496 20.5035 38.9004 21 38.9004H35C35.4965 38.9004 35.9004 38.496 35.9004 38V22.0996H33C31.8423 22.0996 30.9004 21.1583 30.9004 20V17.0996H21ZM32.0996 20C32.0996 20.4961 32.5035 20.9004 33 20.9004H35.0527L32.0996 17.9473V20Z" fill="#146DFF" stroke="#146DFF" stroke-width="0.2"/>
<path d="M33.5 29.9004C33.8316 29.9004 34.0996 30.1684 34.0996 30.5C34.0996 30.8316 33.8316 31.0996 33.5 31.0996H26.5C26.1684 31.0996 25.9004 30.8316 25.9004 30.5C25.9004 30.1684 26.1684 29.9004 26.5 29.9004H33.5Z" fill="#146DFF" stroke="#146DFF" stroke-width="0.2"/>
<path d="M28.5 20.9004C28.8316 20.9004 29.0996 21.1684 29.0996 21.5C29.0996 21.8316 28.8316 22.0996 28.5 22.0996H22.5C22.1684 22.0996 21.9004 21.8316 21.9004 21.5C21.9004 21.1684 22.1684 20.9004 22.5 20.9004H28.5Z" fill="#146DFF" stroke="#146DFF" stroke-width="0.2"/>
<path d="M33.5 26.9004C33.8316 26.9004 34.0996 27.1684 34.0996 27.5L34.0879 27.6211C34.0319 27.8946 33.7901 28.0996 33.5 28.0996H22.5C22.1684 28.0996 21.9004 27.8316 21.9004 27.5C21.9004 27.1684 22.1684 26.9004 22.5 26.9004H33.5Z" fill="#146DFF" stroke="#146DFF" stroke-width="0.2"/>
<path d="M33.5 23.9004C33.8316 23.9004 34.0996 24.1684 34.0996 24.5C34.0996 24.8316 33.8316 25.0996 33.5 25.0996H22.5C22.1684 25.0996 21.9004 24.8316 21.9004 24.5C21.9004 24.1684 22.1684 23.9004 22.5 23.9004H33.5Z" fill="#146DFF" stroke="#146DFF" stroke-width="0.2"/>
<path d="M23.5 31.9004C23.8102 31.9004 24.2075 32.0081 24.5293 32.2617C24.8547 32.5182 25.0996 32.9216 25.0996 33.5C25.0996 33.8395 24.9824 34.2206 24.7998 34.6016C24.6292 34.9574 24.3974 35.3186 24.1416 35.6572C24.2163 35.723 24.2849 35.7792 24.3467 35.8203C24.4 35.8558 24.4436 35.8748 24.4746 35.8867H24.4756C24.4921 35.8652 24.5119 35.8362 24.5342 35.8008C24.5786 35.7302 24.6301 35.6388 24.6836 35.5391C24.7907 35.3395 24.9022 35.1117 24.9756 34.9629C25.1231 34.6636 25.2525 34.4004 25.4023 34.2139C25.5569 34.0215 25.7422 33.9004 26 33.9004C26.1468 33.9004 26.2723 33.9387 26.3799 34.0107C26.4862 34.0819 26.5701 34.1821 26.6396 34.2988C26.7765 34.5287 26.8705 34.8436 26.9707 35.1758V35.1768C27.0199 35.3416 27.0942 35.5859 27.165 35.7734C27.5755 35.4682 28.4058 34.7348 29.0791 34.0723L29.1738 33.9961C29.4078 33.8447 29.7241 33.8713 29.9277 34.0791C30.1307 34.2856 30.154 34.6022 29.998 34.834L29.9209 34.9277C28.8308 36.0012 28.154 36.5429 27.7256 36.8164C27.5111 36.9533 27.356 37.0246 27.2402 37.0615C27.1217 37.0993 27.0473 37.0996 27 37.0996C26.6407 37.0996 26.4025 36.889 26.2305 36.5986C26.0967 36.3728 25.996 36.0874 25.9033 35.791C25.7591 36.0745 25.6002 36.3599 25.4131 36.5898C25.1758 36.8815 24.8809 37.0996 24.5 37.0996C24.1365 37.0996 23.7258 36.8768 23.3477 36.5557C23.1806 36.7174 23.0162 36.8631 22.8594 36.9805C22.7518 37.061 22.6252 37.0996 22.5 37.0996C22.3411 37.0996 22.1827 37.0366 22.0664 36.915L22.0195 36.8594C21.8217 36.5947 21.8753 36.2192 22.1396 36.0205L22.373 35.8291C22.4314 35.7775 22.4885 35.7217 22.5469 35.665C22.1709 35.1266 21.9004 34.5138 21.9004 34C21.9004 33.4027 22.138 32.8805 22.4521 32.5078C22.7627 32.1395 23.1632 31.9004 23.5 31.9004ZM23.5264 33.1045C23.5112 33.1169 23.4914 33.1343 23.4688 33.1562C23.4234 33.2001 23.3674 33.2622 23.3125 33.3408C23.2026 33.4983 23.0996 33.7206 23.0996 34C23.0996 34.1936 23.1988 34.4414 23.3535 34.7021C23.5039 34.4831 23.6334 34.2679 23.7275 34.0713C23.8411 33.8343 23.9004 33.6364 23.9004 33.5C23.9004 33.2983 23.8152 33.2061 23.7314 33.1582C23.6576 33.116 23.5759 33.1056 23.5283 33.1025L23.5264 33.1045Z" fill="#146DFF" stroke="#146DFF" stroke-width="0.2"/>
</svg>
