<svg width="20" height="20" viewBox="0 0 20 20" fill="none" xmlns="http://www.w3.org/2000/svg">
<path d="M9.99999 18.3327C8.84721 18.3327 7.76388 18.1139 6.74999 17.6764C5.7361 17.2389 4.85416 16.6452 4.10416 15.8952C3.35416 15.1452 2.76041 14.2632 2.32291 13.2493C1.88541 12.2355 1.66666 11.1521 1.66666 9.99935C1.66666 8.84657 1.88541 7.76324 2.32291 6.74935C2.76041 5.73546 3.35416 4.85352 4.10416 4.10352C4.85416 3.35352 5.7361 2.75977 6.74999 2.32227C7.76388 1.88477 8.84721 1.66602 9.99999 1.66602C11.1528 1.66602 12.2361 1.88477 13.25 2.32227C14.2639 2.75977 15.1458 3.35352 15.8958 4.10352C16.6458 4.85352 17.2396 5.73546 17.6771 6.74935C18.1146 7.76324 18.3333 8.84657 18.3333 9.99935C18.3333 11.1521 18.1146 12.2355 17.6771 13.2493C17.2396 14.2632 16.6458 15.1452 15.8958 15.8952C15.1458 16.6452 14.2639 17.2389 13.25 17.6764C12.2361 18.1139 11.1528 18.3327 9.99999 18.3327ZM9.10416 17.0618V15.3535C8.61804 15.3535 8.20832 15.173 7.87499 14.8118C7.54166 14.4507 7.37499 14.0271 7.37499 13.541V12.6243L3.10416 8.35352C3.03471 8.63129 2.9861 8.9056 2.95832 9.17643C2.93055 9.44727 2.91666 9.72157 2.91666 9.99935C2.91666 11.8049 3.50346 13.3813 4.67707 14.7285C5.85068 16.0757 7.32638 16.8535 9.10416 17.0618ZM15.2292 14.8118C15.5347 14.4785 15.8021 14.1243 16.0312 13.7493C16.2604 13.3743 16.4549 12.982 16.6146 12.5723C16.7743 12.1625 16.8924 11.7424 16.9687 11.3118C17.0451 10.8813 17.0833 10.4438 17.0833 9.99935C17.0833 8.52713 16.6805 7.19032 15.875 5.98893C15.0694 4.78754 13.993 3.90907 12.6458 3.35352V3.72852C12.6458 4.21463 12.4792 4.63824 12.1458 4.99935C11.8125 5.36046 11.4028 5.54102 10.9167 5.54102H9.10416V7.35352C9.10416 7.58963 9.01041 7.78407 8.82291 7.93685C8.63541 8.08963 8.4236 8.16602 8.18749 8.16602H6.45832V9.99935H11.8333C12.0694 9.99935 12.2639 10.0896 12.4167 10.2702C12.5694 10.4507 12.6458 10.6591 12.6458 10.8952V13.541H13.5417C13.9444 13.541 14.2986 13.6591 14.6042 13.8952C14.9097 14.1313 15.118 14.4368 15.2292 14.8118Z" fill="white"/>
</svg>
