<svg width="48" height="48" viewBox="0 0 48 48" fill="none" xmlns="http://www.w3.org/2000/svg">
<circle cx="24" cy="24" r="24" fill="#E6E6E7"/>
<path d="M24.0001 34.8779C23.7279 34.8779 23.4556 34.8293 23.1834 34.732C22.9112 34.6348 22.6681 34.489 22.4542 34.2945C21.1904 33.1279 20.0723 31.9904 19.1001 30.882C18.1279 29.7737 17.3162 28.6996 16.6652 27.6597C16.0135 26.619 15.5176 25.6176 15.1777 24.6555C14.8379 23.6934 14.6675 22.7745 14.6667 21.8987C14.6667 18.982 15.6051 16.6584 17.4819 14.9279C19.3587 13.1973 21.5314 12.332 24.0001 12.332C26.4695 12.332 28.6426 13.1973 30.5194 14.9279C32.3962 16.6584 33.3342 18.982 33.3334 21.8987C33.3334 22.7737 33.1635 23.6926 32.8236 24.6555C32.4837 25.6184 31.9879 26.6198 31.3361 27.6597C30.6843 28.6996 29.8723 29.7737 28.9001 30.882C27.9279 31.9904 26.8098 33.1279 25.5459 34.2945C25.332 34.489 25.089 34.6348 24.8167 34.732C24.5445 34.8293 24.2723 34.8779 24.0001 34.8779ZM24.0001 27.4987C25.089 27.4987 26.0709 27.2315 26.9459 26.6972C27.8209 26.1629 28.5112 25.4578 29.0167 24.582C28.3362 24.0181 27.5681 23.5857 26.7126 23.2847C25.857 22.9837 24.9529 22.8328 24.0001 22.832C23.0473 22.832 22.1431 22.9829 21.2876 23.2847C20.432 23.5865 19.664 24.0189 18.9834 24.582C19.489 25.457 20.1792 26.1621 21.0542 26.6972C21.9292 27.2323 22.9112 27.4995 24.0001 27.4987ZM24.0001 21.6654C24.6417 21.6654 25.1912 21.4371 25.6486 20.9805C26.1059 20.524 26.3342 19.9745 26.3334 19.332C26.3334 18.6904 26.1051 18.1413 25.6486 17.6847C25.192 17.2281 24.6425 16.9995 24.0001 16.9987C23.3584 16.9987 22.8093 17.2274 22.3527 17.6847C21.8962 18.142 21.6675 18.6911 21.6667 19.332C21.6667 19.9737 21.8954 20.5232 22.3527 20.9805C22.8101 21.4379 23.3592 21.6661 24.0001 21.6654Z" fill="#86868B"/>
</svg>
