<svg width="20" height="20" viewBox="0 0 20 20" fill="none" xmlns="http://www.w3.org/2000/svg">
<path d="M9.99967 2.5L16.6663 7.5V17.5H3.33301V7.5L9.99967 2.5ZM10.0021 12.2917C10.6394 12.2917 11.1802 12.0686 11.6247 11.6225C12.0691 11.1765 12.2913 10.6348 12.2913 9.99754C12.2913 9.36029 12.0683 8.81944 11.6222 8.375C11.1761 7.93056 10.6345 7.70833 9.99722 7.70833C9.35997 7.70833 8.81912 7.93137 8.37467 8.37746C7.93023 8.82353 7.70801 9.36519 7.70801 10.0025C7.70801 10.6397 7.93105 11.1806 8.37713 11.625C8.8232 12.0694 9.36487 12.2917 10.0021 12.2917ZM10.0033 11.0417C9.70922 11.0417 9.46148 10.9422 9.26009 10.7432C9.0587 10.5443 8.95801 10.2978 8.95801 10.0036C8.95801 9.70955 9.05749 9.46181 9.25645 9.26042C9.45539 9.05903 9.70192 8.95833 9.99603 8.95833C10.2901 8.95833 10.5379 9.05781 10.7393 9.25677C10.9406 9.45572 11.0413 9.70224 11.0413 9.99635C11.0413 10.2905 10.9419 10.5382 10.7429 10.7396C10.544 10.941 10.2974 11.0417 10.0033 11.0417ZM9.97884 14.7917C9.21495 14.7917 8.47537 14.9167 7.76009 15.1667C7.04481 15.4167 6.38856 15.7778 5.79134 16.25H14.1872C13.5761 15.7778 12.9129 15.4167 12.1976 15.1667C11.4823 14.9167 10.7427 14.7917 9.97884 14.7917ZM4.58301 8.125V15.6458C5.33301 14.9792 6.16992 14.4618 7.09376 14.0938C8.01759 13.7257 8.97929 13.5417 9.97884 13.5417C10.9881 13.5417 11.9592 13.7292 12.8921 14.1042C13.8249 14.4792 14.6663 15 15.4163 15.6667V8.125L9.99967 4.0625L4.58301 8.125Z" fill="white"/>
</svg>
