<svg width="14" height="14" viewBox="0 0 14 14" fill="none" xmlns="http://www.w3.org/2000/svg">
<path d="M6.0413 0.72C6.61019 0.293333 7.39241 0.293333 7.9613 0.72L11.6946 3.52C12.0975 3.82217 12.3346 4.29639 12.3346 4.8V10.4C12.3346 11.2837 11.6183 12 10.7346 12H3.26797C2.38431 12 1.66797 11.2837 1.66797 10.4V4.8C1.66797 4.29639 1.90508 3.82217 2.30797 3.52L6.0413 0.72ZM7.00327 7.83333C7.51307 7.83333 7.94575 7.6549 8.3013 7.29803C8.65686 6.94118 8.83464 6.50784 8.83464 5.99803C8.83464 5.48823 8.6562 5.05556 8.29934 4.7C7.94248 4.34444 7.50915 4.16667 6.99934 4.16667C6.48954 4.16667 6.05686 4.3451 5.7013 4.70197C5.34575 5.05882 5.16797 5.49216 5.16797 6.00197C5.16797 6.51177 5.3464 6.94444 5.70327 7.3C6.06012 7.65556 6.49346 7.83333 7.00327 7.83333ZM7.00422 6.83333C6.76894 6.83333 6.57075 6.75375 6.40964 6.59458C6.24852 6.43543 6.16797 6.23821 6.16797 6.00292C6.16797 5.76764 6.24755 5.56944 6.40672 5.40833C6.56587 5.24722 6.7631 5.16667 6.99839 5.16667C7.23366 5.16667 7.43186 5.24625 7.59297 5.40542C7.75408 5.56457 7.83464 5.7618 7.83464 5.99708C7.83464 6.23236 7.75505 6.43056 7.59588 6.59167C7.43673 6.75278 7.23951 6.83333 7.00422 6.83333ZM6.98464 9.83333C6.37352 9.83333 5.78186 9.93333 5.20964 10.1333C4.63741 10.3333 4.11241 10.6222 3.63464 11H10.3513C9.86241 10.6222 9.33186 10.3333 8.75964 10.1333C8.18741 9.93333 7.59575 9.83333 6.98464 9.83333ZM3.30797 4.02C2.90508 4.32217 2.66797 4.79639 2.66797 5.3V10.5167C3.26797 9.98333 3.9375 9.56944 4.67657 9.275C5.41564 8.98056 6.18499 8.83333 6.98464 8.83333C7.79208 8.83333 8.56894 8.98333 9.31522 9.28333C10.0615 9.58333 10.7346 10 11.3346 10.5333V5.3C11.3346 4.79639 11.0975 4.32217 10.6946 4.02L7.9613 1.97C7.39241 1.54333 6.61019 1.54333 6.0413 1.97L3.30797 4.02Z" fill="#6A6A70"/>
</svg>
