<svg xmlns="http://www.w3.org/2000/svg" width="17" height="22" viewBox="0 0 17 22" fill="none">
  <mask id="path-1-inside-1_38133_156795" fill="white">
    <path d="M14.3912 15.167L8.49813 21.0601L2.60502 15.167C1.43949 14.0015 0.645759 12.5165 0.324195 10.8999C0.00263208 9.28321 0.16768 7.60752 0.798469 6.08467C1.42926 4.56183 2.49746 3.26023 3.86798 2.34448C5.23851 1.42872 6.84981 0.939941 8.49813 0.939941C10.1464 0.939941 11.7577 1.42872 13.1283 2.34448C14.4988 3.26023 15.567 4.56183 16.1978 6.08467C16.8286 7.60752 16.9936 9.28321 16.6721 10.8999C16.3505 12.5165 15.5568 14.0015 14.3912 15.167ZM8.49813 11.1259C8.98931 11.1259 9.46038 10.9308 9.8077 10.5835C10.155 10.2362 10.3501 9.76512 10.3501 9.27393C10.3501 8.78275 10.155 8.31168 9.8077 7.96436C9.46038 7.61704 8.98931 7.42192 8.49813 7.42192C8.00694 7.42192 7.53588 7.61704 7.18856 7.96436C6.84124 8.31168 6.64611 8.78275 6.64611 9.27393C6.64611 9.76512 6.84124 10.2362 7.18856 10.5835C7.53588 10.9308 8.00694 11.1259 8.49813 11.1259Z"/>
  </mask>
  <path d="M14.3912 15.167L8.49813 21.0601L2.60502 15.167C1.43949 14.0015 0.645759 12.5165 0.324195 10.8999C0.00263208 9.28321 0.16768 7.60752 0.798469 6.08467C1.42926 4.56183 2.49746 3.26023 3.86798 2.34448C5.23851 1.42872 6.84981 0.939941 8.49813 0.939941C10.1464 0.939941 11.7577 1.42872 13.1283 2.34448C14.4988 3.26023 15.567 4.56183 16.1978 6.08467C16.8286 7.60752 16.9936 9.28321 16.6721 10.8999C16.3505 12.5165 15.5568 14.0015 14.3912 15.167ZM8.49813 11.1259C8.98931 11.1259 9.46038 10.9308 9.8077 10.5835C10.155 10.2362 10.3501 9.76512 10.3501 9.27393C10.3501 8.78275 10.155 8.31168 9.8077 7.96436C9.46038 7.61704 8.98931 7.42192 8.49813 7.42192C8.00694 7.42192 7.53588 7.61704 7.18856 7.96436C6.84124 8.31168 6.64611 8.78275 6.64611 9.27393C6.64611 9.76512 6.84124 10.2362 7.18856 10.5835C7.53588 10.9308 8.00694 11.1259 8.49813 11.1259Z" fill="#E43F32"/>
  <path d="M14.3912 15.167L14.7448 15.5206L14.7448 15.5206L14.3912 15.167ZM8.49813 21.0601L8.14458 21.4137L8.49813 21.7673L8.85168 21.4137L8.49813 21.0601ZM2.60502 15.167L2.25147 15.5206L2.25147 15.5206L2.60502 15.167ZM14.0377 14.8135L8.14458 20.7066L8.85168 21.4137L14.7448 15.5206L14.0377 14.8135ZM8.85168 20.7066L2.95857 14.8135L2.25147 15.5206L8.14458 21.4137L8.85168 20.7066ZM2.95858 14.8135C1.86297 13.7179 1.11686 12.322 0.814589 10.8023L-0.166198 10.9974C0.174658 12.711 1.01601 14.2851 2.25147 15.5206L2.95858 14.8135ZM0.814589 10.8023C0.512317 9.28266 0.667463 7.7075 1.26041 6.27601L0.33653 5.89333C-0.332103 7.50754 -0.507053 9.28377 -0.166198 10.9974L0.814589 10.8023ZM1.26041 6.27601C1.85335 4.84453 2.85746 3.62103 4.14577 2.76021L3.5902 1.92874C2.13745 2.89944 1.00516 4.27912 0.33653 5.89333L1.26041 6.27601ZM4.14577 2.76021C5.43407 1.8994 6.9487 1.43994 8.49813 1.43994V0.439941C6.75092 0.439941 5.04295 0.958047 3.5902 1.92874L4.14577 2.76021ZM8.49813 1.43994C10.0476 1.43994 11.5622 1.8994 12.8505 2.76021L13.4061 1.92874C11.9533 0.958047 10.2453 0.439941 8.49813 0.439941V1.43994ZM12.8505 2.76021C14.1388 3.62103 15.1429 4.84453 15.7358 6.27601L16.6597 5.89333C15.9911 4.27912 14.8588 2.89944 13.4061 1.92874L12.8505 2.76021ZM15.7358 6.27601C16.3288 7.7075 16.4839 9.28266 16.1817 10.8023L17.1625 10.9974C17.5033 9.28376 17.3284 7.50754 16.6597 5.89333L15.7358 6.27601ZM16.1817 10.8023C15.8794 12.322 15.1333 13.7179 14.0377 14.8135L14.7448 15.5206C15.9802 14.2851 16.8216 12.711 17.1625 10.9974L16.1817 10.8023ZM8.49813 11.6259C9.12192 11.6259 9.72017 11.3781 10.1613 10.9371L9.45415 10.2299C9.20059 10.4835 8.8567 10.6259 8.49813 10.6259V11.6259ZM10.1613 10.9371C10.6023 10.496 10.8501 9.89772 10.8501 9.27393H9.85014C9.85014 9.63251 9.7077 9.9764 9.45415 10.2299L10.1613 10.9371ZM10.8501 9.27393C10.8501 8.65014 10.6023 8.05189 10.1613 7.61081L9.45415 8.31791C9.7077 8.57147 9.85014 8.91535 9.85014 9.27393H10.8501ZM10.1613 7.61081C9.72017 7.16972 9.12192 6.92192 8.49813 6.92192V7.92192C8.8567 7.92192 9.20059 8.06436 9.45415 8.31791L10.1613 7.61081ZM8.49813 6.92192C7.87434 6.92192 7.27609 7.16972 6.835 7.61081L7.54211 8.31791C7.79566 8.06436 8.13955 7.92192 8.49813 7.92192V6.92192ZM6.835 7.61081C6.39392 8.05189 6.14611 8.65014 6.14611 9.27393H7.14611C7.14611 8.91535 7.28856 8.57147 7.54211 8.31791L6.835 7.61081ZM6.14611 9.27393C6.14611 9.89772 6.39392 10.496 6.835 10.9371L7.54211 10.2299C7.28856 9.9764 7.14611 9.63251 7.14611 9.27393H6.14611ZM6.835 10.9371C7.27609 11.3781 7.87434 11.6259 8.49813 11.6259V10.6259C8.13955 10.6259 7.79566 10.4835 7.54211 10.2299L6.835 10.9371Z" fill="white" mask="url(#path-1-inside-1_38133_156795)"/>
</svg>