<svg width="18" height="22" viewBox="0 0 18 22" fill="none" xmlns="http://www.w3.org/2000/svg">
<mask id="path-1-inside-1_39719_172993" fill="white">
<path d="M14.8932 15.167L9.00008 21.0601L3.10697 15.167C1.94144 14.0015 1.14771 12.5165 0.826149 10.8999C0.504585 9.28321 0.669633 7.60752 1.30042 6.08467C1.93121 4.56183 2.99941 3.26023 4.36994 2.34448C5.74046 1.42872 7.35176 0.939941 9.00008 0.939941C10.6484 0.939941 12.2597 1.42872 13.6302 2.34448C15.0008 3.26023 16.069 4.56183 16.6997 6.08467C17.3305 7.60752 17.4956 9.28321 17.174 10.8999C16.8525 12.5165 16.0587 14.0015 14.8932 15.167ZM9.00008 11.1259C9.49127 11.1259 9.96233 10.9308 10.3097 10.5835C10.657 10.2362 10.8521 9.76512 10.8521 9.27393C10.8521 8.78275 10.657 8.31168 10.3097 7.96436C9.96233 7.61704 9.49127 7.42192 9.00008 7.42192C8.5089 7.42192 8.03783 7.61704 7.69051 7.96436C7.34319 8.31168 7.14807 8.78275 7.14807 9.27393C7.14807 9.76512 7.34319 10.2362 7.69051 10.5835C8.03783 10.9308 8.5089 11.1259 9.00008 11.1259Z"/>
</mask>
<path d="M14.8932 15.167L9.00008 21.0601L3.10697 15.167C1.94144 14.0015 1.14771 12.5165 0.826149 10.8999C0.504585 9.28321 0.669633 7.60752 1.30042 6.08467C1.93121 4.56183 2.99941 3.26023 4.36994 2.34448C5.74046 1.42872 7.35176 0.939941 9.00008 0.939941C10.6484 0.939941 12.2597 1.42872 13.6302 2.34448C15.0008 3.26023 16.069 4.56183 16.6997 6.08467C17.3305 7.60752 17.4956 9.28321 17.174 10.8999C16.8525 12.5165 16.0587 14.0015 14.8932 15.167ZM9.00008 11.1259C9.49127 11.1259 9.96233 10.9308 10.3097 10.5835C10.657 10.2362 10.8521 9.76512 10.8521 9.27393C10.8521 8.78275 10.657 8.31168 10.3097 7.96436C9.96233 7.61704 9.49127 7.42192 9.00008 7.42192C8.5089 7.42192 8.03783 7.61704 7.69051 7.96436C7.34319 8.31168 7.14807 8.78275 7.14807 9.27393C7.14807 9.76512 7.34319 10.2362 7.69051 10.5835C8.03783 10.9308 8.5089 11.1259 9.00008 11.1259Z" fill="#146DFF"/>
<path d="M14.8932 15.167L15.2467 15.5206L15.2467 15.5206L14.8932 15.167ZM9.00008 21.0601L8.64653 21.4137L9.00008 21.7673L9.35363 21.4137L9.00008 21.0601ZM3.10697 15.167L2.75342 15.5206L2.75342 15.5206L3.10697 15.167ZM14.5396 14.8135L8.64653 20.7066L9.35363 21.4137L15.2467 15.5206L14.5396 14.8135ZM9.35363 20.7066L3.46053 14.8135L2.75342 15.5206L8.64653 21.4137L9.35363 20.7066ZM3.46053 14.8135C2.36493 13.7179 1.61881 12.322 1.31654 10.8023L0.335755 10.9974C0.676611 12.711 1.51796 14.2851 2.75342 15.5206L3.46053 14.8135ZM1.31654 10.8023C1.01427 9.28266 1.16942 7.7075 1.76236 6.27601L0.838483 5.89333C0.16985 7.50754 -0.00510001 9.28377 0.335755 10.9974L1.31654 10.8023ZM1.76236 6.27601C2.35531 4.84453 3.35942 3.62103 4.64772 2.76021L4.09215 1.92874C2.6394 2.89944 1.50712 4.27912 0.838483 5.89333L1.76236 6.27601ZM4.64772 2.76021C5.93602 1.8994 7.45065 1.43994 9.00008 1.43994V0.439941C7.25287 0.439941 5.5449 0.958047 4.09215 1.92874L4.64772 2.76021ZM9.00008 1.43994C10.5495 1.43994 12.0641 1.8994 13.3524 2.76021L13.908 1.92874C12.4553 0.958047 10.7473 0.439941 9.00008 0.439941V1.43994ZM13.3524 2.76021C14.6407 3.62103 15.6449 4.84453 16.2378 6.27601L17.1617 5.89333C16.493 4.27912 15.3608 2.89944 13.908 1.92874L13.3524 2.76021ZM16.2378 6.27601C16.8307 7.7075 16.9859 9.28266 16.6836 10.8023L17.6644 10.9974C18.0053 9.28376 17.8303 7.50754 17.1617 5.89333L16.2378 6.27601ZM16.6836 10.8023C16.3814 12.322 15.6352 13.7179 14.5396 14.8135L15.2467 15.5206C16.4822 14.2851 17.3236 12.711 17.6644 10.9974L16.6836 10.8023ZM9.00008 11.6259C9.62388 11.6259 10.2221 11.3781 10.6632 10.9371L9.9561 10.2299C9.70255 10.4835 9.35866 10.6259 9.00008 10.6259V11.6259ZM10.6632 10.9371C11.1043 10.496 11.3521 9.89772 11.3521 9.27393H10.3521C10.3521 9.63251 10.2097 9.9764 9.9561 10.2299L10.6632 10.9371ZM11.3521 9.27393C11.3521 8.65014 11.1043 8.05189 10.6632 7.61081L9.9561 8.31791C10.2097 8.57147 10.3521 8.91535 10.3521 9.27393H11.3521ZM10.6632 7.61081C10.2221 7.16972 9.62388 6.92192 9.00008 6.92192V7.92192C9.35866 7.92192 9.70255 8.06436 9.9561 8.31791L10.6632 7.61081ZM9.00008 6.92192C8.37629 6.92192 7.77805 7.16972 7.33696 7.61081L8.04406 8.31791C8.29762 8.06436 8.64151 7.92192 9.00008 7.92192V6.92192ZM7.33696 7.61081C6.89587 8.05189 6.64807 8.65014 6.64807 9.27393H7.64807C7.64807 8.91535 7.79051 8.57147 8.04406 8.31791L7.33696 7.61081ZM6.64807 9.27393C6.64807 9.89772 6.89587 10.496 7.33696 10.9371L8.04406 10.2299C7.79051 9.9764 7.64807 9.63251 7.64807 9.27393H6.64807ZM7.33696 10.9371C7.77805 11.3781 8.37629 11.6259 9.00008 11.6259V10.6259C8.64151 10.6259 8.29762 10.4835 8.04406 10.2299L7.33696 10.9371Z" fill="white" mask="url(#path-1-inside-1_39719_172993)"/>
</svg>
