<svg width="16" height="16" viewBox="0 0 16 16" fill="none" xmlns="http://www.w3.org/2000/svg">
<g clip-path="url(#clip0_49419_104108)">
<path d="M9.68542 3.26908L10.7054 4.28908L8.66542 6.32908L9.67125 7.33491L11.7112 5.29491L12.7312 6.31491C12.9508 6.53449 13.3333 6.37866 13.3333 6.05991V3.02116C13.3333 2.82283 13.1775 2.66699 12.9792 2.66699H9.94042C9.62167 2.66699 9.46583 3.04949 9.68542 3.26908ZM5.39292 2.66699H2.35417C2.15583 2.66699 2 2.82283 2 3.02116V6.05991C2 6.37866 2.3825 6.53449 2.60208 6.30783L3.62208 5.28783L6.95833 8.61699V13.292C6.95833 13.6816 7.27708 14.0003 7.66667 14.0003C8.05625 14.0003 8.375 13.6816 8.375 13.292V8.33366C8.375 8.14949 8.29708 7.96533 8.16958 7.83074L4.62792 4.28199L5.64792 3.26199C5.8675 3.04949 5.71167 2.66699 5.39292 2.66699Z" fill="#6A6A70"/>
</g>
<defs>
<clipPath id="clip0_49419_104108">
<rect width="16" height="16" fill="white"/>
</clipPath>
</defs>
</svg>
