<svg width="18" height="18" viewBox="0 0 18 18" fill="none" xmlns="http://www.w3.org/2000/svg">
<rect width="18" height="18" fill="#E0E0E0"/>
<g id="Locations">
<rect width="27047" height="4790" transform="translate(-6553 -1566)" fill="#D2D2D2"/>
<g id="nurturing">
<rect width="1440" height="900" transform="translate(-611 -107)" fill="white"/>
<g id="Frame 1000006718">
<g id="Stages">
<mask id="path-1-inside-1_323_63556" fill="white">
<path d="M-135 -57H828V47H-135V-57Z"/>
</mask>
<path d="M-135 -57H828V47H-135V-57Z" fill="white"/>
<g id="Frame 1000006780">
<g id="FRONT lead stages">
<path id="Rectangle 34624200" d="M-103 9C-103 -0.941125 -94.9411 -9 -85 -9H112.625L121.75 9L112.625 27H-85C-94.9411 27 -103 18.9411 -103 9Z" fill="#31A150"/>
<g id="Group 1000002770">
<g id="Group 1000002771">
<g id="Group 1000002796">
<circle id="Ellipse 700" cx="9" cy="9" r="9" fill="white"/>
</g>
<g id="done" clip-path="url(#clip0_323_63556)">
<path id="Vector" d="M7.50044 10.7472L5.57722 8.824L5.40044 8.64723L5.22366 8.824L4.52366 9.524L4.34689 9.70078L4.52366 9.87756L7.32366 12.6776L7.50044 12.8543L7.67722 12.6776L13.6772 6.67756L13.854 6.50078L13.6772 6.324L12.9772 5.624L12.8004 5.44723L12.6237 5.624L7.50044 10.7472Z" fill="#31A150" stroke="#31A150" stroke-width="0.5"/>
</g>
</g>
</g>
</g>
</g>
<path d="M828 46H-135V48H828V46Z" fill="#E6E6E7" mask="url(#path-1-inside-1_323_63556)"/>
</g>
</g>
</g>
</g>
<defs>
<clipPath id="clip0_323_63556">
<rect width="12" height="12" fill="white" transform="translate(3 3)"/>
</clipPath>
</defs>
</svg>
