<svg width="17" height="20" viewBox="0 0 17 20" fill="none" xmlns="http://www.w3.org/2000/svg">
<path d="M8.28384 20C5.95195 19.4053 4.03781 18.0547 2.54144 15.9482C1.04506 13.8418 0.296875 11.5329 0.296875 9.02174V3.02817L8.2853 0L16.2969 3.02894V9.01408C16.2969 11.5272 15.5443 13.8378 14.0393 15.9459C12.5342 18.0539 10.6157 19.4053 8.28384 20Z" fill="#1A1A1A"/>
<path d="M5.50781 13.95V4.38965H8.86921C9.60289 4.38965 10.2107 4.52503 10.6927 4.79578C11.1746 5.06653 11.5353 5.43687 11.7748 5.9068C12.0142 6.37362 12.1339 6.89956 12.1339 7.48464C12.1339 8.07283 12.0127 8.60189 11.7701 9.07181C11.5307 9.53863 11.1685 9.90897 10.6834 10.1828C10.2015 10.4536 9.59521 10.589 8.86461 10.589H6.55307V9.36591H8.73568C9.19921 9.36591 9.57526 9.28499 9.86382 9.12316C10.1524 8.95822 10.3642 8.73415 10.4993 8.45095C10.6343 8.16775 10.7019 7.84564 10.7019 7.48464C10.7019 7.12363 10.6343 6.80309 10.4993 6.523C10.3642 6.24291 10.1508 6.0235 9.85921 5.86479C9.57066 5.70607 9.19 5.62671 8.71726 5.62671H6.93065V13.95H5.50781Z" fill="white"/>
</svg>
