<svg width="18" height="18" viewBox="0 0 18 18" fill="none" xmlns="http://www.w3.org/2000/svg">
<path d="M8.99984 0.664062C4.39984 0.664062 0.666504 4.3974 0.666504 8.9974C0.666504 13.5974 4.39984 17.3307 8.99984 17.3307C13.5998 17.3307 17.3332 13.5974 17.3332 8.9974C17.3332 4.3974 13.5998 0.664062 8.99984 0.664062ZM2.33317 8.9974C2.33317 5.31406 5.3165 2.33073 8.99984 2.33073C10.5415 2.33073 11.9582 2.85573 13.0832 3.73906L3.7415 13.0807C2.85817 11.9557 2.33317 10.5391 2.33317 8.9974ZM8.99984 15.6641C7.45817 15.6641 6.0415 15.1391 4.9165 14.2557L14.2582 4.91406C15.1415 6.03906 15.6665 7.45573 15.6665 8.9974C15.6665 12.6807 12.6832 15.6641 8.99984 15.6641Z" fill="#E43F32"/>
</svg>
