<svg xmlns="http://www.w3.org/2000/svg" width="14" height="14" viewBox="0 0 14 14" fill="none">
  <path d="M6.33398 3.66927H7.66732V5.0026H6.33398V3.66927ZM6.33398 6.33594H7.66732V10.3359H6.33398V6.33594ZM7.00065 0.335938C3.32065 0.335938 0.333984 3.3226 0.333984 7.0026C0.333984 10.6826 3.32065 13.6693 7.00065 13.6693C10.6807 13.6693 13.6673 10.6826 13.6673 7.0026C13.6673 3.3226 10.6807 0.335938 7.00065 0.335938ZM7.00065 12.3359C4.06065 12.3359 1.66732 9.94261 1.66732 7.0026C1.66732 4.0626 4.06065 1.66927 7.00065 1.66927C9.94065 1.66927 12.334 4.0626 12.334 7.0026C12.334 9.94261 9.94065 12.3359 7.00065 12.3359Z" fill="#E61A1A"/>
</svg>
