<svg width="32" height="32" viewBox="0 0 32 32" fill="none" xmlns="http://www.w3.org/2000/svg">
<rect x="0.5" y="0.5" width="31" height="31" rx="7.5" stroke="#DF372B"/>
<rect x="0.5" y="0.5" width="31" height="31" rx="7.5" fill="#E5F6FF"/>
<rect x="0.5" y="0.5" width="31" height="31" rx="7.5" stroke="#146DFF"/>
<path d="M23.3327 10.6651V14.6651M23.3327 14.6651H19.3327M23.3327 14.6651L20.2393 11.7584C19.5229 11.0416 18.6364 10.5179 17.6628 10.2363C16.6892 9.95465 15.6601 9.92426 14.6715 10.1479C13.683 10.3716 12.7672 10.842 12.0097 11.5154C11.2521 12.1887 10.6775 13.0429 10.3393 13.9984M8.66602 21.3318V17.3318M8.66602 17.3318H12.666M8.66602 17.3318L11.7593 20.2384C12.4758 20.9553 13.3623 21.479 14.3359 21.7606C15.3095 22.0422 16.3386 22.0726 17.3272 21.8489C18.3157 21.6252 19.2315 21.1548 19.989 20.4815C20.7466 19.8082 21.3212 18.9539 21.6593 17.9984" stroke="#0058FF" stroke-width="1.3" stroke-linecap="round" stroke-linejoin="round"/>
</svg>
