<svg xmlns="http://www.w3.org/2000/svg" width="20" height="20" viewBox="0 0 20 20" fill="none">
  <path d="M17.7411 4.91046L9.40778 13.2438C9.08278 13.5688 8.55779 13.5688 8.23279 13.2438L5.87445 10.8855C5.54945 10.5605 5.54945 10.0355 5.87445 9.71045C6.19945 9.38546 6.72445 9.38546 7.04945 9.71045L8.81612 11.4771L16.5578 3.73546C16.8828 3.41046 17.4078 3.41046 17.7328 3.73546C18.0661 4.06046 18.0661 4.58546 17.7411 4.91046ZM13.1411 2.28546C11.7328 1.71046 10.1328 1.51046 8.46612 1.81046C5.07445 2.41879 2.36612 5.15212 1.79112 8.54379C0.841119 14.1688 5.52445 18.9855 11.1161 18.2605C14.4161 17.8355 17.1828 15.3771 18.0495 12.1688C18.3828 10.9438 18.4161 9.76046 18.2245 8.65212C18.1161 7.98546 17.2911 7.72712 16.8078 8.20212C16.6161 8.39379 16.5328 8.67712 16.5828 8.94379C16.7661 10.0521 16.6828 11.2355 16.1495 12.4938C15.1828 14.7521 13.0828 16.4105 10.6411 16.6355C6.39112 17.0271 2.86612 13.4271 3.39112 9.15212C3.74945 6.20212 6.12445 3.80212 9.06612 3.39379C10.5078 3.19379 11.8745 3.46879 13.0411 4.06879C13.3661 4.23546 13.7578 4.17712 14.0161 3.91879C14.4161 3.51879 14.3161 2.84379 13.8161 2.58546C13.5911 2.48546 13.3661 2.37712 13.1411 2.28546Z" fill="#6A6A70"/>
</svg>