<svg xmlns="http://www.w3.org/2000/svg" width="20" height="20" viewBox="0 0 20 20" fill="none">
  <path d="M18.3349 6.66302C18.3349 6.20469 17.9599 5.82969 17.5016 5.82969H11.6682C11.2099 5.82969 10.8349 6.20469 10.8349 6.66302C10.8349 7.12135 11.2099 7.49635 11.6682 7.49635H17.5016C17.9599 7.49635 18.3349 7.12135 18.3349 6.66302ZM10.8349 13.3297C10.8349 13.788 11.2099 14.163 11.6682 14.163H17.5016C17.9599 14.163 18.3349 13.788 18.3349 13.3297C18.3349 12.8714 17.9599 12.4964 17.5016 12.4964H11.6682C11.2099 12.4964 10.8349 12.8714 10.8349 13.3297ZM8.72656 3.85469C9.05156 4.17969 9.05156 4.70469 8.72656 5.02969L5.20156 8.57135C4.87656 8.89635 4.35156 8.89635 4.01823 8.57135L2.25156 6.79635C1.92656 6.47135 1.92656 5.94635 2.25156 5.62135C2.57656 5.29635 3.10156 5.29635 3.42656 5.62135L4.6099 6.80469L7.5599 3.85469C7.87656 3.53802 8.4099 3.53802 8.72656 3.85469ZM8.7349 10.5297C9.0599 10.8547 9.0599 11.3797 8.7349 11.7047L5.2099 15.2464C4.8849 15.5714 4.3599 15.5714 4.02656 15.2464L2.25156 13.463C1.92656 13.138 1.92656 12.613 2.25156 12.288C2.57656 11.963 3.10156 11.963 3.42656 12.288L4.6099 13.4714L7.5599 10.5214C7.87656 10.2047 8.4099 10.2047 8.7349 10.5297Z" fill="white"/>
</svg>