<svg width="28" height="27" viewBox="0 0 28 27" fill="none" xmlns="http://www.w3.org/2000/svg">
<path d="M14.0001 0.164062C6.64008 0.164062 0.666748 6.1374 0.666748 13.4974C0.666748 20.8574 6.64008 26.8307 14.0001 26.8307C21.3601 26.8307 27.3334 20.8574 27.3334 13.4974C27.3334 6.1374 21.3601 0.164062 14.0001 0.164062ZM3.33341 13.4974C3.33341 7.60406 8.10675 2.83073 14.0001 2.83073C16.4667 2.83073 18.7334 3.67073 20.5334 5.08406L5.58675 20.0307C4.17341 18.2307 3.33341 15.9641 3.33341 13.4974ZM14.0001 24.1641C11.5334 24.1641 9.26675 23.3241 7.46675 21.9107L22.4134 6.96406C23.8267 8.76406 24.6667 11.0307 24.6667 13.4974C24.6667 19.3907 19.8934 24.1641 14.0001 24.1641Z" fill="#FF2626"/>
</svg>
