<svg width="56" height="56" viewBox="0 0 56 56" fill="none" xmlns="http://www.w3.org/2000/svg">
<rect x="4" y="4" width="48" height="48" rx="24" fill="#FECDCA"/>
<rect x="4" y="4" width="48" height="48" rx="24" stroke="#FBEEED" stroke-width="8"/>
<g clip-path="url(#clip0_21995_154766)">
<path d="M28 18.5C22.48 18.5 18 22.98 18 28.5C18 34.02 22.48 38.5 28 38.5C33.52 38.5 38 34.02 38 28.5C38 22.98 33.52 18.5 28 18.5ZM20 28.5C20 24.08 23.58 20.5 28 20.5C29.85 20.5 31.55 21.13 32.9 22.19L21.69 33.4C20.63 32.05 20 30.35 20 28.5ZM28 36.5C26.15 36.5 24.45 35.87 23.1 34.81L34.31 23.6C35.37 24.95 36 26.65 36 28.5C36 32.92 32.42 36.5 28 36.5Z" fill="#B32318"/>
</g>
<defs>
<clipPath id="clip0_21995_154766">
<rect width="24" height="24" fill="white" transform="translate(16 16.5)"/>
</clipPath>
</defs>
</svg>
