<svg width="46" height="46" viewBox="0 0 46 46" fill="none" xmlns="http://www.w3.org/2000/svg">
<rect x="3" y="3" width="40" height="40" rx="20" fill="#FEE4E2"/>
<rect x="3" y="3" width="40" height="40" rx="20" stroke="#FEF3F2" stroke-width="6"/>
<path d="M15.5 17.9993H17.1667M17.1667 17.9993H30.5M17.1667 17.9993V29.666C17.1667 30.108 17.3423 30.532 17.6548 30.8445C17.9674 31.1571 18.3913 31.3327 18.8333 31.3327H27.1667C27.6087 31.3327 28.0326 31.1571 28.3452 30.8445C28.6577 30.532 28.8333 30.108 28.8333 29.666V17.9993H17.1667ZM19.6667 17.9993V16.3327C19.6667 15.8907 19.8423 15.4667 20.1548 15.1542C20.4674 14.8416 20.8913 14.666 21.3333 14.666H24.6667C25.1087 14.666 25.5326 14.8416 25.8452 15.1542C26.1577 15.4667 26.3333 15.8907 26.3333 16.3327V17.9993M21.3333 22.166V27.166M24.6667 22.166V27.166" stroke="#D92D20" stroke-width="1.66667" stroke-linecap="round" stroke-linejoin="round"/>
</svg>
