<svg width="46" height="46" viewBox="0 0 46 46" fill="none" xmlns="http://www.w3.org/2000/svg">
<rect x="3" y="3" width="40" height="40" rx="20" fill="#FEF0C7"/>
<rect x="3" y="3" width="40" height="40" rx="20" stroke="#FFFAEB" stroke-width="6"/>
<path d="M22.9997 19.6657V22.999M22.9997 26.3324H23.008M21.5747 15.3824L14.5163 27.1657C14.3708 27.4177 14.2938 27.7034 14.293 27.9945C14.2922 28.2855 14.3676 28.5716 14.5117 28.8245C14.6558 29.0773 14.8636 29.288 15.1144 29.4356C15.3652 29.5832 15.6503 29.6625 15.9413 29.6657H30.058C30.349 29.6625 30.6341 29.5832 30.8849 29.4356C31.1357 29.288 31.3435 29.0773 31.4876 28.8245C31.6317 28.5716 31.7071 28.2855 31.7063 27.9945C31.7055 27.7034 31.6285 27.4177 31.483 27.1657L24.4247 15.3824C24.2761 15.1375 24.0669 14.935 23.8173 14.7944C23.5677 14.6539 23.2861 14.5801 22.9997 14.5801C22.7132 14.5801 22.4316 14.6539 22.182 14.7944C21.9324 14.935 21.7232 15.1375 21.5747 15.3824Z" stroke="#DC6803" stroke-width="1.66667" stroke-linecap="round" stroke-linejoin="round"/>
</svg>
