<svg xmlns="http://www.w3.org/2000/svg" width="12" height="12" viewBox="0 0 12 12" fill="none">
  <path d="M10.6458 2.94315L5.64584 7.94315C5.45084 8.13815 5.13584 8.13815 4.94084 7.94315L3.52584 6.52815C3.33084 6.33315 3.33084 6.01815 3.52584 5.82315C3.72084 5.62815 4.03584 5.62815 4.23084 5.82315L5.29084 6.88315L9.93584 2.23815C10.1308 2.04315 10.4458 2.04315 10.6408 2.23815C10.8408 2.43315 10.8408 2.74815 10.6458 2.94315ZM7.88584 1.36815C7.04084 1.02315 6.08084 0.903148 5.08084 1.08315C3.04584 1.44815 1.42084 3.08815 1.07584 5.12315C0.505843 8.49815 3.31584 11.3881 6.67084 10.9531C8.65084 10.6981 10.3108 9.22315 10.8308 7.29815C11.0308 6.56315 11.0508 5.85315 10.9358 5.18815C10.8708 4.78815 10.3758 4.63315 10.0858 4.91815C9.97084 5.03315 9.92084 5.20315 9.95084 5.36315C10.0608 6.02815 10.0108 6.73815 9.69084 7.49315C9.11084 8.84815 7.85084 9.84315 6.38584 9.97815C3.83584 10.2131 1.72084 8.05315 2.03584 5.48815C2.25084 3.71815 3.67584 2.27815 5.44084 2.03315C6.30584 1.91315 7.12584 2.07815 7.82584 2.43815C8.02084 2.53815 8.25584 2.50315 8.41084 2.34815C8.65084 2.10815 8.59084 1.70315 8.29084 1.54815C8.15584 1.48815 8.02084 1.42315 7.88584 1.36815Z" fill="#F4780B"/>
</svg>