<svg xmlns="http://www.w3.org/2000/svg" width="24" height="24" viewBox="0 0 24 24" fill="none">
  <path d="M4 23.1111V1.87875C4 1.62339 4.08725 1.41309 4.26176 1.24784C4.43627 1.08262 4.6525 1 4.91047 1C5.16843 1 5.38354 1.08693 5.5558 1.2608C5.72806 1.43464 5.81419 1.65008 5.81419 1.9071V3.26781H19.8506C20.2489 3.26781 20.5488 3.42583 20.7501 3.74186C20.9514 4.05792 20.9838 4.39707 20.8471 4.75932L19.2858 8.68217L20.8471 12.605C20.9838 12.9673 20.9514 13.3064 20.7501 13.6225C20.5488 13.9385 20.2489 14.0965 19.8506 14.0965H5.81419V23.1111L4 23.1111ZM12.2208 10.6948C12.7906 10.6948 13.2685 10.5018 13.6545 10.1159C14.0404 9.72993 14.2334 9.25203 14.2334 8.68217C14.2334 8.11231 14.0404 7.6344 13.6545 7.24846C13.2685 6.8625 12.7906 6.66952 12.2208 6.66952C11.6509 6.66952 11.173 6.8625 10.7871 7.24846C10.4011 7.6344 10.2081 8.11231 10.2081 8.68217C10.2081 9.25203 10.4011 9.72993 10.7871 10.1159C11.173 10.5018 11.6509 10.6948 12.2208 10.6948ZM5.81419 12.2823H18.7582L17.3168 8.68217L18.7582 5.082H5.81419V12.2823Z" fill="#6A6A70"/>
</svg>