<svg width="14" height="14" viewBox="0 0 14 14" fill="none" xmlns="http://www.w3.org/2000/svg">
<path d="M6.99594 10.4852C7.14904 10.4852 7.27872 10.4334 7.38498 10.3299C7.49124 10.2263 7.54437 10.098 7.54437 9.94487C7.54437 9.79178 7.49258 9.66211 7.38902 9.55585C7.28547 9.4496 7.15715 9.39647 7.00406 9.39647C6.85095 9.39647 6.72127 9.44824 6.61502 9.5518C6.50876 9.65536 6.45563 9.78369 6.45563 9.93678C6.45563 10.0899 6.50741 10.2195 6.61098 10.3258C6.71453 10.4321 6.84285 10.4852 6.99594 10.4852ZM6.99621 7.98225C7.1368 7.98225 7.25591 7.93434 7.35354 7.8385C7.45117 7.74268 7.49998 7.62394 7.49998 7.48227V3.86684C7.49998 3.72518 7.45243 3.60644 7.35733 3.51061C7.26222 3.41477 7.14438 3.36686 7.00379 3.36686C6.8632 3.36686 6.74409 3.41477 6.64646 3.51061C6.54883 3.60644 6.50002 3.72518 6.50002 3.86684V7.48227C6.50002 7.62394 6.54757 7.74268 6.64267 7.8385C6.73777 7.93434 6.85562 7.98225 6.99621 7.98225ZM7.0066 14C6.04362 14 5.13669 13.8178 4.28582 13.4535C3.43493 13.0891 2.69017 12.5878 2.05154 11.9494C1.4129 11.3111 0.911317 10.5669 0.54679 9.71697C0.182263 8.86702 0 7.95886 0 6.99248C0 6.02609 0.18218 5.12067 0.54654 4.2762C0.9109 3.43173 1.41225 2.69017 2.05058 2.05154C2.68893 1.4129 3.43308 0.911317 4.28303 0.546791C5.13298 0.182264 6.04114 0 7.00752 0C7.97391 0 8.87933 0.182181 9.72379 0.546541C10.5683 0.910901 11.3098 1.41225 11.9485 2.05058C12.5871 2.68893 13.0887 3.43158 13.4532 4.27853C13.8177 5.12548 14 6.03044 14 6.9934C14 7.95638 13.8178 8.86331 13.4535 9.71418C13.0891 10.5651 12.5878 11.3098 11.9494 11.9485C11.3111 12.5871 10.5684 13.0887 9.72147 13.4532C8.87452 13.8177 7.96956 14 7.0066 14Z" fill="#E43F32"/>
</svg>
