<svg width="20" height="20" viewBox="0 0 20 20" fill="none" xmlns="http://www.w3.org/2000/svg">
<g clip-path="url(#clip0_43513_253)">
<rect width="20" height="20" rx="10" fill="#E6E6E7"/>
<line x1="53.4142" y1="-4.58579" x2="-31.5858" y2="80.4142" stroke="#FFD9D6" stroke-width="4"/>
<line x1="70.4142" y1="-4.58579" x2="-14.5858" y2="80.4142" stroke="#FFD9D6" stroke-width="4"/>
<line x1="87.4142" y1="-4.58579" x2="2.41422" y2="80.4142" stroke="#FFD9D6" stroke-width="4"/>
<line x1="104.414" y1="-4.58579" x2="19.4142" y2="80.4142" stroke="#FFD9D6" stroke-width="4"/>
<path d="M9.99594 13.4852C10.149 13.4852 10.2787 13.4334 10.385 13.3299C10.4912 13.2263 10.5444 13.098 10.5444 12.9449C10.5444 12.7918 10.4926 12.6621 10.389 12.5559C10.2855 12.4496 10.1571 12.3965 10.0041 12.3965C9.85095 12.3965 9.72127 12.4482 9.61502 12.5518C9.50876 12.6554 9.45563 12.7837 9.45563 12.9368C9.45563 13.0899 9.50741 13.2195 9.61098 13.3258C9.71453 13.4321 9.84285 13.4852 9.99594 13.4852ZM9.99621 10.9823C10.1368 10.9823 10.2559 10.9343 10.3535 10.8385C10.4512 10.7427 10.5 10.6239 10.5 10.4823V6.86684C10.5 6.72518 10.4524 6.60644 10.3573 6.51061C10.2622 6.41477 10.1444 6.36686 10.0038 6.36686C9.8632 6.36686 9.74409 6.41477 9.64646 6.51061C9.54883 6.60644 9.50002 6.72518 9.50002 6.86684V10.4823C9.50002 10.6239 9.54757 10.7427 9.64267 10.8385C9.73777 10.9343 9.85562 10.9823 9.99621 10.9823ZM10.0066 17C9.04362 17 8.13669 16.8178 7.28582 16.4535C6.43493 16.0891 5.69017 15.5878 5.05154 14.9494C4.4129 14.3111 3.91132 13.5669 3.54679 12.717C3.18226 11.867 3 10.9589 3 9.99248C3 9.02609 3.18218 8.12067 3.54654 7.2762C3.9109 6.43173 4.41225 5.69017 5.05058 5.05154C5.68893 4.4129 6.43308 3.91132 7.28303 3.54679C8.13298 3.18226 9.04114 3 10.0075 3C10.9739 3 11.8793 3.18218 12.7238 3.54654C13.5683 3.9109 14.3098 4.41225 14.9485 5.05058C15.5871 5.68893 16.0887 6.43158 16.4532 7.27853C16.8177 8.12548 17 9.03044 17 9.9934C17 10.9564 16.8178 11.8633 16.4535 12.7142C16.0891 13.5651 15.5878 14.3098 14.9494 14.9485C14.3111 15.5871 13.5684 16.0887 12.7215 16.4532C11.8745 16.8177 10.9696 17 10.0066 17Z" fill="#E43F32"/>
</g>
<defs>
<clipPath id="clip0_43513_253">
<rect width="20" height="20" rx="10" fill="white"/>
</clipPath>
</defs>
</svg>
