<svg width="32" height="32" viewBox="0 0 32 32" fill="none" xmlns="http://www.w3.org/2000/svg">
<rect width="32" height="32" rx="10.6667" fill="#FEF0C7"/>
<path d="M15.996 20.199C16.2128 20.199 16.396 20.1256 16.5453 19.979C16.6946 19.8323 16.7693 19.6505 16.7693 19.4336C16.7693 19.2167 16.6959 19.0337 16.5491 18.8845C16.4024 18.7352 16.2207 18.6605 16.004 18.6605C15.7871 18.6605 15.604 18.7338 15.4546 18.8805C15.3053 19.0272 15.2306 19.209 15.2306 19.4258C15.2306 19.6427 15.304 19.8258 15.4508 19.975C15.5975 20.1243 15.7792 20.199 15.996 20.199ZM16.0228 16.9443C16.223 16.9443 16.3951 16.8721 16.5393 16.7276C16.6834 16.5832 16.7555 16.411 16.7555 16.211V12.2314C16.7555 12.0314 16.6832 11.8592 16.5386 11.7147C16.394 11.5703 16.2217 11.4981 16.0215 11.4981C15.8214 11.4981 15.6492 11.5703 15.5051 11.7147C15.3609 11.8592 15.2888 12.0314 15.2888 12.2314V16.211C15.2888 16.411 15.3611 16.5832 15.5057 16.7276C15.6503 16.8721 15.8227 16.9443 16.0228 16.9443ZM10.1915 23.6878C9.61877 23.6878 9.13996 23.4954 8.75507 23.1105C8.37018 22.7256 8.17773 22.2468 8.17773 21.6741V10.1016C8.17773 9.52888 8.37018 9.05007 8.75507 8.66518C9.13996 8.28029 9.61877 8.08785 10.1915 8.08785H13.836C13.9031 7.6194 14.1375 7.19859 14.5393 6.8254C14.9409 6.45222 15.4306 6.26562 16.0084 6.26562C16.5862 6.26562 17.076 6.45222 17.4777 6.8254C17.8795 7.19859 18.1083 7.6194 18.164 8.08785H21.8084C22.3811 8.08785 22.86 8.28029 23.2448 8.66518C23.6297 9.05007 23.8222 9.52888 23.8222 10.1016V21.6741C23.8222 22.2468 23.6297 22.7256 23.2448 23.1105C22.86 23.4954 22.3811 23.6878 21.8084 23.6878H10.1915ZM10.1915 22.2212H21.8084C21.9453 22.2212 22.0707 22.1642 22.1846 22.0503C22.2985 21.9364 22.3555 21.811 22.3555 21.6741V10.1016C22.3555 9.96474 22.2985 9.83933 22.1846 9.7254C22.0707 9.61148 21.9453 9.55451 21.8084 9.55451H10.1915C10.0546 9.55451 9.92922 9.61148 9.81529 9.7254C9.70136 9.83933 9.6444 9.96474 9.6444 10.1016V21.6741C9.6444 21.811 9.70136 21.9364 9.81529 22.0503C9.92922 22.1642 10.0546 22.2212 10.1915 22.2212ZM16 8.9254C16.1925 8.9254 16.3518 8.86244 16.4777 8.73651C16.6037 8.61059 16.6666 8.45133 16.6666 8.25874C16.6666 8.06614 16.6037 7.90688 16.4777 7.78096C16.3518 7.65503 16.1925 7.59207 16 7.59207C15.8074 7.59207 15.6481 7.65503 15.5222 7.78096C15.3963 7.90688 15.3333 8.06614 15.3333 8.25874C15.3333 8.45133 15.3963 8.61059 15.5222 8.73651C15.6481 8.86244 15.8074 8.9254 16 8.9254Z" fill="#F4780B"/>
</svg>
