<svg xmlns="http://www.w3.org/2000/svg" width="27" height="26" viewBox="0 0 27 26" fill="none">
<rect x="0.332031" y="2" width="24" height="24" rx="12" fill="#b32318"/>
<path d="M8.73359 17.5992V18.1992C8.73359 18.3692 8.67609 18.5117 8.56109 18.6267C8.44609 18.7417 8.30359 18.7992 8.13359 18.7992H7.53359C7.36359 18.7992 7.22109 18.7417 7.10609 18.6267C6.99109 18.5117 6.93359 18.3692 6.93359 18.1992V13.3992L8.19359 9.79922C8.25359 9.61922 8.36109 9.47422 8.51609 9.36422C8.67109 9.25422 8.84359 9.19922 9.03359 9.19922H15.6336C15.8236 9.19922 15.9961 9.25422 16.1511 9.36422C16.3061 9.47422 16.4136 9.61922 16.4736 9.79922L17.7336 13.3992V18.1992C17.7336 18.3692 17.6761 18.5117 17.5611 18.6267C17.4461 18.7417 17.3036 18.7992 17.1336 18.7992H16.5336C16.3636 18.7992 16.2211 18.7417 16.1061 18.6267C15.9911 18.5117 15.9336 18.3692 15.9336 18.1992V17.5992H8.73359ZM8.61359 12.1992H16.0536L15.4236 10.3992H9.24359L8.61359 12.1992ZM9.63359 15.7992C9.88359 15.7992 10.0961 15.7117 10.2711 15.5367C10.4461 15.3617 10.5336 15.1492 10.5336 14.8992C10.5336 14.6492 10.4461 14.4367 10.2711 14.2617C10.0961 14.0867 9.88359 13.9992 9.63359 13.9992C9.38359 13.9992 9.17109 14.0867 8.99609 14.2617C8.82109 14.4367 8.73359 14.6492 8.73359 14.8992C8.73359 15.1492 8.82109 15.3617 8.99609 15.5367C9.17109 15.7117 9.38359 15.7992 9.63359 15.7992ZM15.0336 15.7992C15.2836 15.7992 15.4961 15.7117 15.6711 15.5367C15.8461 15.3617 15.9336 15.1492 15.9336 14.8992C15.9336 14.6492 15.8461 14.4367 15.6711 14.2617C15.4961 14.0867 15.2836 13.9992 15.0336 13.9992C14.7836 13.9992 14.5711 14.0867 14.3961 14.2617C14.2211 14.4367 14.1336 14.6492 14.1336 14.8992C14.1336 15.1492 14.2211 15.3617 14.3961 15.5367C14.5711 15.7117 14.7836 15.7992 15.0336 15.7992Z" fill="white"/>
<rect x="17.0328" y="0.700781" width="9.8" height="9.8" rx="4.9" fill="white"/>
<rect x="17.0328" y="0.700781" width="9.8" height="9.8" rx="4.9" stroke="#b32318" stroke-width="0.2"/>
<path d="M21.3345 8.60156V2.60156H22.5283V8.60156H21.3345ZM18.9336 6.19624V5.00245H24.9336V6.19624H18.9336Z" fill="#b32318"/>
</svg>