<svg width="28" height="26" viewBox="0 0 28 26" fill="none" xmlns="http://www.w3.org/2000/svg">
<rect x="0.5" y="2" width="24" height="24" rx="12" fill="#E43F32"/>
<path d="M12.4992 13.9992C11.8392 13.9992 11.2742 13.7642 10.8042 13.2942C10.3342 12.8242 10.0992 12.2592 10.0992 11.5992C10.0992 10.9392 10.3342 10.3742 10.8042 9.90422C11.2742 9.43422 11.8392 9.19922 12.4992 9.19922C13.1592 9.19922 13.7242 9.43422 14.1942 9.90422C14.6642 10.3742 14.8992 10.9392 14.8992 11.5992C14.8992 12.2592 14.6642 12.8242 14.1942 13.2942C13.7242 13.7642 13.1592 13.9992 12.4992 13.9992ZM7.69922 18.7992V17.1192C7.69922 16.7792 7.78672 16.4667 7.96172 16.1817C8.13672 15.8967 8.36922 15.6792 8.65922 15.5292C9.27922 15.2192 9.90922 14.9867 10.5492 14.8317C11.1892 14.6767 11.8392 14.5992 12.4992 14.5992C13.1592 14.5992 13.8092 14.6767 14.4492 14.8317C15.0892 14.9867 15.7192 15.2192 16.3392 15.5292C16.6292 15.6792 16.8617 15.8967 17.0367 16.1817C17.2117 16.4667 17.2992 16.7792 17.2992 17.1192V18.7992H7.69922Z" fill="white"/>
<rect x="17.2008" y="0.700781" width="9.8" height="9.8" rx="4.9" fill="white"/>
<rect x="17.2008" y="0.700781" width="9.8" height="9.8" rx="4.9" stroke="#E43F32" stroke-width="0.2"/>
<path d="M21.5024 8.60156V2.60156H22.6962V8.60156H21.5024ZM19.1016 6.19624V5.00245H25.1016V6.19624H19.1016Z" fill="#E43F32"/>
</svg>
