<svg xmlns="http://www.w3.org/2000/svg" width="16" height="20" viewBox="0 0 16 20" fill="none">
  <mask id="path-1-inside-1_41184_109401" fill="white">
    <path d="M13.6569 14.1419L8 19.9997L2.34311 14.1419C1.2243 12.9833 0.462388 11.5072 0.153714 9.90027C-0.15496 8.29331 0.00347275 6.62765 0.608976 5.11392C1.21448 3.6002 2.23986 2.30639 3.55545 1.39612C4.87104 0.485855 6.41775 0 8 0C9.58224 0 11.129 0.485855 12.4445 1.39612C13.7601 2.30639 14.7855 3.6002 15.391 5.11392C15.9965 6.62765 16.155 8.29331 15.8463 9.90027C15.5376 11.5072 14.7757 12.9833 13.6569 14.1419ZM8 10.125C8.47149 10.125 8.92368 9.93105 9.25708 9.58581C9.59047 9.24057 9.77777 8.77232 9.77777 8.28408C9.77777 7.79584 9.59047 7.32759 9.25708 6.98235C8.92368 6.63711 8.47149 6.44316 8 6.44316C7.5285 6.44316 7.07632 6.63711 6.74292 6.98235C6.40952 7.32759 6.22222 7.79584 6.22222 8.28408C6.22222 8.77232 6.40952 9.24057 6.74292 9.58581C7.07632 9.93105 7.5285 10.125 8 10.125Z"/>
  </mask>
  <path d="M13.6569 14.1419L8 19.9997L2.34311 14.1419C1.2243 12.9833 0.462388 11.5072 0.153714 9.90027C-0.15496 8.29331 0.00347275 6.62765 0.608976 5.11392C1.21448 3.6002 2.23986 2.30639 3.55545 1.39612C4.87104 0.485855 6.41775 0 8 0C9.58224 0 11.129 0.485855 12.4445 1.39612C13.7601 2.30639 14.7855 3.6002 15.391 5.11392C15.9965 6.62765 16.155 8.29331 15.8463 9.90027C15.5376 11.5072 14.7757 12.9833 13.6569 14.1419ZM8 10.125C8.47149 10.125 8.92368 9.93105 9.25708 9.58581C9.59047 9.24057 9.77777 8.77232 9.77777 8.28408C9.77777 7.79584 9.59047 7.32759 9.25708 6.98235C8.92368 6.63711 8.47149 6.44316 8 6.44316C7.5285 6.44316 7.07632 6.63711 6.74292 6.98235C6.40952 7.32759 6.22222 7.79584 6.22222 8.28408C6.22222 8.77232 6.40952 9.24057 6.74292 9.58581C7.07632 9.93105 7.5285 10.125 8 10.125Z" fill="#E43F32"/>
  <path d="M13.6569 14.1419L14.3762 14.8366L14.3762 14.8366L13.6569 14.1419ZM8 19.9997L7.28066 20.6944L8 21.4393L8.71933 20.6944L8 19.9997ZM2.34311 14.1419L1.62377 14.8366L1.62378 14.8366L2.34311 14.1419ZM15.8463 9.90027L16.8283 10.0889L15.8463 9.90027ZM12.9375 13.4472L7.28066 19.3051L8.71933 20.6944L14.3762 14.8366L12.9375 13.4472ZM8.71933 19.3051L3.06245 13.4472L1.62378 14.8366L7.28066 20.6944L8.71933 19.3051ZM3.06245 13.4472C2.08073 12.4306 1.40845 11.1312 1.13576 9.71164L-0.828333 10.0889C-0.483671 11.8832 0.367876 13.536 1.62377 14.8366L3.06245 13.4472ZM1.13576 9.71164C0.86305 8.29189 1.00331 6.82065 1.53745 5.48532L-0.319498 4.74252C-0.996362 6.43465 -1.17297 8.29472 -0.828333 10.0889L1.13576 9.71164ZM1.53745 5.48532C2.07149 4.15025 2.9736 3.01474 4.12444 2.21847L2.98646 0.573779C1.50611 1.59805 0.357471 3.05014 -0.319498 4.74252L1.53745 5.48532ZM4.12444 2.21847C5.27482 1.42251 6.62347 1 8 1V-1C6.21204 -1 4.46726 -0.4508 2.98646 0.573779L4.12444 2.21847ZM8 1C9.37653 1 10.7252 1.42251 11.8756 2.21847L13.0135 0.573779C11.5327 -0.4508 9.78796 -1 8 -1V1ZM11.8756 2.21847C13.0264 3.01474 13.9285 4.15025 14.4625 5.48532L16.3195 4.74252C15.6425 3.05014 14.4939 1.59805 13.0135 0.573779L11.8756 2.21847ZM14.4625 5.48532C14.9967 6.82065 15.1369 8.29189 14.8642 9.71164L16.8283 10.0889C17.173 8.29472 16.9964 6.43465 16.3195 4.74252L14.4625 5.48532ZM14.8642 9.71164C14.5916 11.1312 13.9193 12.4306 12.9375 13.4472L14.3762 14.8366C15.6321 13.536 16.4837 11.8832 16.8283 10.0889L14.8642 9.71164ZM8 11.125C8.7482 11.125 9.45838 10.8169 9.97641 10.2805L8.53774 8.89115C8.38897 9.0452 8.19479 9.125 8 9.125V11.125ZM9.97641 10.2805C10.4933 9.74523 10.7778 9.0265 10.7778 8.28408H8.77777C8.77777 8.51815 8.68765 8.73591 8.53774 8.89115L9.97641 10.2805ZM10.7778 8.28408C10.7778 7.54166 10.4933 6.82293 9.97641 6.28769L8.53774 7.67701C8.68765 7.83225 8.77777 8.05001 8.77777 8.28408H10.7778ZM9.97641 6.28769C9.45838 5.75126 8.7482 5.44316 8 5.44316V7.44316C8.19479 7.44316 8.38897 7.52296 8.53774 7.67701L9.97641 6.28769ZM8 5.44316C7.2518 5.44316 6.54161 5.75126 6.02358 6.28769L7.46226 7.67701C7.61102 7.52296 7.80521 7.44316 8 7.44316V5.44316ZM6.02358 6.28769C5.5067 6.82293 5.22222 7.54166 5.22222 8.28408H7.22222C7.22222 8.05001 7.31234 7.83225 7.46226 7.67701L6.02358 6.28769ZM5.22222 8.28408C5.22222 9.0265 5.5067 9.74523 6.02358 10.2805L7.46226 8.89115C7.31234 8.73591 7.22222 8.51815 7.22222 8.28408H5.22222ZM6.02358 10.2805C6.54161 10.8169 7.2518 11.125 8 11.125V9.125C7.80521 9.125 7.61102 9.0452 7.46226 8.89115L6.02358 10.2805Z" fill="#B32318" mask="url(#path-1-inside-1_41184_109401)"/>
</svg>