<svg xmlns="http://www.w3.org/2000/svg" width="27" height="26" viewBox="0 0 27 26" fill="none">
<rect x="0.332031" y="2" width="24" height="24" rx="12" fill="#b32318"/>
<path d="M12.3312 13.9992C11.6712 13.9992 11.1062 13.7642 10.6362 13.2942C10.1662 12.8242 9.93125 12.2592 9.93125 11.5992C9.93125 10.9392 10.1662 10.3742 10.6362 9.90422C11.1062 9.43422 11.6712 9.19922 12.3312 9.19922C12.9912 9.19922 13.5562 9.43422 14.0262 9.90422C14.4962 10.3742 14.7312 10.9392 14.7312 11.5992C14.7312 12.2592 14.4962 12.8242 14.0262 13.2942C13.5562 13.7642 12.9912 13.9992 12.3312 13.9992ZM7.53125 18.7992V17.1192C7.53125 16.7792 7.61875 16.4667 7.79375 16.1817C7.96875 15.8967 8.20125 15.6792 8.49125 15.5292C9.11125 15.2192 9.74125 14.9867 10.3812 14.8317C11.0212 14.6767 11.6712 14.5992 12.3312 14.5992C12.9912 14.5992 13.6412 14.6767 14.2812 14.8317C14.9212 14.9867 15.5512 15.2192 16.1712 15.5292C16.4612 15.6792 16.6937 15.8967 16.8687 16.1817C17.0437 16.4667 17.1312 16.7792 17.1312 17.1192V18.7992H7.53125Z" fill="white"/>
<rect x="17.0328" y="0.700781" width="9.8" height="9.8" rx="4.9" fill="white"/>
<rect x="17.0328" y="0.700781" width="9.8" height="9.8" rx="4.9" stroke="#b32318" stroke-width="0.2"/>
<path d="M21.3345 8.60156V2.60156H22.5283V8.60156H21.3345ZM18.9336 6.19624V5.00245H24.9336V6.19624H18.9336Z" fill="#b32318"/>
</svg>