<svg width="27" height="26" viewBox="0 0 27 26" fill="none" xmlns="http://www.w3.org/2000/svg">
<rect y="2" width="24" height="24" rx="12" fill="#E43F32"/>
<path fill-rule="evenodd" clip-rule="evenodd" d="M15.3934 16.4853L11.9992 20L8.60509 16.4853C7.9338 15.7901 7.47665 14.9044 7.29145 13.9402C7.10624 12.9761 7.2013 11.9766 7.5646 11.0684C7.92791 10.1601 8.54313 9.38386 9.33249 8.83769C10.1218 8.29152 11.0499 8 11.9992 8C12.9486 8 13.8766 8.29152 14.6659 8.83769C15.4553 9.38386 16.0705 10.1601 16.4338 11.0684C16.7971 11.9766 16.8922 12.9761 16.707 13.9402C16.5218 14.9044 16.0646 15.7901 15.3934 16.4853ZM11.9992 14.0751C12.2821 14.0751 12.5534 13.9587 12.7535 13.7516C12.9535 13.5444 13.0659 13.2635 13.0659 12.9705C13.0659 12.6776 12.9535 12.3966 12.7535 12.1895C12.5534 11.9823 12.2821 11.866 11.9992 11.866C11.7163 11.866 11.445 11.9823 11.245 12.1895C11.0449 12.3966 10.9326 12.6776 10.9326 12.9705C10.9326 13.2635 11.0449 13.5444 11.245 13.7516C11.445 13.9587 11.7163 14.0751 11.9992 14.0751Z" fill="white"/>
<rect x="16.7008" y="0.700049" width="9.8" height="9.8" rx="4.9" fill="white"/>
<rect x="16.7008" y="0.700049" width="9.8" height="9.8" rx="4.9" stroke="#E43F32" stroke-width="0.2"/>
<path d="M21.0024 8.6001V2.6001H22.1962V8.6001H21.0024ZM18.6016 6.19477V5.00099H24.6016V6.19477H18.6016Z" fill="#E43F32"/>
</svg>
