<svg width="23" height="22" viewBox="0 0 23 22" fill="none" xmlns="http://www.w3.org/2000/svg">
<rect x="0.666016" y="2" width="20" height="20" rx="10" fill="#D9534F"/>
<path d="M10.666 12C10.116 12 9.64518 11.8042 9.25352 11.4125C8.86185 11.0208 8.66602 10.55 8.66602 10C8.66602 9.45 8.86185 8.97917 9.25352 8.5875C9.64518 8.19583 10.116 8 10.666 8C11.216 8 11.6868 8.19583 12.0785 8.5875C12.4702 8.97917 12.666 9.45 12.666 10C12.666 10.55 12.4702 11.0208 12.0785 11.4125C11.6868 11.8042 11.216 12 10.666 12ZM6.66602 16V14.6C6.66602 14.3167 6.73893 14.0562 6.88477 13.8187C7.0306 13.5812 7.22435 13.4 7.46602 13.275C7.98268 13.0167 8.50768 12.8229 9.04102 12.6937C9.57435 12.5646 10.116 12.5 10.666 12.5C11.216 12.5 11.7577 12.5646 12.291 12.6937C12.8243 12.8229 13.3493 13.0167 13.866 13.275C14.1077 13.4 14.3014 13.5812 14.4473 13.8187C14.5931 14.0562 14.666 14.3167 14.666 14.6V16H6.66602Z" fill="white"/>
<rect x="14.566" y="0.9" width="8.2" height="8.2" rx="4.1" fill="white"/>
<rect x="14.566" y="0.9" width="8.2" height="8.2" rx="4.1" stroke="#D9534F" stroke-width="0.2"/>
<path d="M18.0669 8V2H19.2607V8H18.0669ZM15.666 5.59467V4.40089H21.666V5.59467H15.666Z" fill="#D9534F"/>
</svg>
