<svg width="32" height="32" viewBox="0 0 32 32" fill="none" xmlns="http://www.w3.org/2000/svg">
<rect width="32" height="32" rx="4" fill="#F5F5F6"/>
<path d="M11.8006 17.1984C11.6415 17.1984 11.4888 17.2617 11.3763 17.3742C11.2638 17.4867 11.2006 17.6393 11.2006 17.7984V20.1984C11.2006 20.3576 11.2638 20.5102 11.3763 20.6227C11.4888 20.7352 11.6415 20.7984 11.8006 20.7984C11.9597 20.7984 12.1123 20.7352 12.2249 20.6227C12.3374 20.5102 12.4006 20.3576 12.4006 20.1984V19.9992H12.8014C13.1728 19.9992 13.529 19.8517 13.7916 19.5891C14.0542 19.3264 14.2018 18.9702 14.2018 18.5988C14.2018 18.2274 14.0542 17.8712 13.7916 17.6086C13.529 17.346 13.1728 17.1984 12.8014 17.1984H11.8006ZM12.8014 18.7992H12.4006V18.3984H12.8002C12.8533 18.3984 12.9043 18.4196 12.9419 18.4571C12.9795 18.4947 13.0006 18.5457 13.0006 18.5988C13.0006 18.652 12.9795 18.703 12.9419 18.7405C12.9043 18.7781 12.8545 18.7992 12.8014 18.7992ZM18.4006 17.7972C18.4009 17.6383 18.4643 17.486 18.5767 17.3737C18.6892 17.2615 18.8417 17.1984 19.0006 17.1984H20.1994C20.3585 17.1984 20.5111 17.2617 20.6237 17.3742C20.7362 17.4867 20.7994 17.6393 20.7994 17.7984C20.7994 17.9576 20.7362 18.1102 20.6237 18.2227C20.5111 18.3352 20.3585 18.3984 20.1994 18.3984H19.6006V18.8004H20.2006C20.3597 18.8004 20.5123 18.8637 20.6249 18.9762C20.7374 19.0887 20.8006 19.2413 20.8006 19.4004C20.8006 19.5596 20.7374 19.7122 20.6249 19.8247C20.5123 19.9372 20.3597 20.0004 20.2006 20.0004H19.6006L19.6018 20.1972C19.6019 20.276 19.5866 20.3541 19.5566 20.4269C19.5266 20.4998 19.4825 20.566 19.4269 20.6219C19.3146 20.7346 19.1621 20.7981 19.003 20.7984C18.8439 20.7988 18.6911 20.7358 18.5784 20.6236C18.4656 20.5113 18.4021 20.3588 18.4018 20.1996L18.4006 19.3992V17.7972ZM15.4006 17.1984C15.2415 17.1984 15.0888 17.2617 14.9763 17.3742C14.8638 17.4867 14.8006 17.6393 14.8006 17.7984V20.1984C14.8006 20.3576 14.8638 20.5102 14.9763 20.6227C15.0888 20.7352 15.2415 20.7984 15.4006 20.7984H16.003C16.4804 20.7984 16.9382 20.6088 17.2758 20.2712C17.6133 19.9337 17.803 19.4758 17.803 18.9984C17.803 18.521 17.6133 18.0632 17.2758 17.7256C16.9382 17.3881 16.4804 17.1984 16.003 17.1984H15.4006ZM16.0006 19.5984V18.3984H16.003C16.1621 18.3984 16.3147 18.4617 16.4273 18.5742C16.5398 18.6867 16.603 18.8393 16.603 18.9984C16.603 19.1576 16.5398 19.3102 16.4273 19.4227C16.3147 19.5352 16.1621 19.5984 16.003 19.5984H16.0006ZM8.80179 8.79844C8.80179 8.16192 9.05464 7.55147 9.50473 7.10138C9.95482 6.65129 10.5653 6.39844 11.2018 6.39844H16.7038C16.9403 6.39849 17.1745 6.44515 17.3929 6.53574C17.6114 6.62634 17.8099 6.7591 17.977 6.92644L22.6738 11.6232C23.0114 11.9605 23.2014 12.418 23.2018 12.8952V14.8968C23.5522 15.0213 23.8555 15.2513 24.07 15.5551C24.2844 15.8589 24.3995 16.2217 24.3994 16.5936V21.3972C24.3995 21.7691 24.2844 22.1319 24.07 22.4358C23.8555 22.7396 23.5522 22.9696 23.2018 23.094V23.1984C23.2018 23.835 22.9489 24.4454 22.4988 24.8955C22.0488 25.3456 21.4383 25.5984 20.8018 25.5984H11.2006C10.5641 25.5984 9.95362 25.3456 9.50353 24.8955C9.05344 24.4454 8.80059 23.835 8.80059 23.1984V23.094C8.44988 22.97 8.1462 22.7404 7.93131 22.4368C7.71643 22.1332 7.60089 21.7704 7.60059 21.3984V16.5948C7.60064 16.2227 7.71606 15.8596 7.93097 15.5558C8.14587 15.2519 8.44969 15.0221 8.80059 14.898L8.80179 8.79844ZM22.0018 13.5984H17.8018C17.5653 13.5986 17.3311 13.5522 17.1126 13.4618C16.8941 13.3714 16.6955 13.2388 16.5282 13.0717C16.3609 12.9045 16.2283 12.706 16.1377 12.4875C16.0472 12.2691 16.0006 12.0349 16.0006 11.7984V7.59844H11.2006C10.8823 7.59844 10.5771 7.72487 10.3521 7.94991C10.127 8.17495 10.0006 8.48018 10.0006 8.79844V14.7936H22.0006V13.5984H22.0018ZM10.0006 23.1972C10.0004 23.3549 10.0314 23.5111 10.0916 23.6568C10.1518 23.8026 10.2402 23.935 10.3516 24.0465C10.4631 24.1581 10.5954 24.2466 10.7411 24.307C10.8868 24.3674 11.0429 24.3984 11.2006 24.3984H20.8006C20.9583 24.3984 21.1144 24.3674 21.2601 24.307C21.4058 24.2466 21.5381 24.1581 21.6495 24.0465C21.761 23.935 21.8494 23.8026 21.9096 23.6568C21.9698 23.5111 22.0007 23.3549 22.0006 23.1972H10.0006ZM17.2006 7.84684V11.7984C17.2006 11.9576 17.2638 12.1102 17.3763 12.2227C17.4888 12.3352 17.6415 12.3984 17.8006 12.3984H21.751L17.2006 7.84684ZM9.40299 15.9936C9.24386 15.9936 9.09124 16.0569 8.97872 16.1694C8.8662 16.2819 8.80299 16.4345 8.80299 16.5936V21.3972C8.80299 21.5564 8.8662 21.709 8.97872 21.8215C9.09124 21.934 9.24386 21.9972 9.40299 21.9972H22.5994C22.7585 21.9972 22.9111 21.934 23.0237 21.8215C23.1362 21.709 23.1994 21.5564 23.1994 21.3972V16.5936C23.1994 16.4345 23.1362 16.2819 23.0237 16.1694C22.9111 16.0569 22.7585 15.9936 22.5994 15.9936H9.40299Z" fill="#E43F32"/>
</svg>
