<svg width="14" height="14" viewBox="0 0 14 14" fill="none" xmlns="http://www.w3.org/2000/svg">
<path d="M6.00444 8.07398L4.71744 6.80623C4.61094 6.69972 4.49629 6.64523 4.37351 6.64277C4.25073 6.64029 4.13362 6.69478 4.02218 6.80623C3.91075 6.91767 3.85503 7.03674 3.85503 7.16346C3.85503 7.29018 3.91075 7.40926 4.02218 7.52069L5.57544 9.07395C5.70167 9.20018 5.84467 9.2633 6.00444 9.2633C6.1642 9.2633 6.30719 9.20018 6.43342 9.07395L9.96301 5.54436C10.0695 5.43786 10.124 5.32001 10.1265 5.19082C10.1289 5.06163 10.0745 4.94131 9.96301 4.82988C9.85157 4.71844 9.7357 4.66272 9.61539 4.66272C9.49508 4.66272 9.37921 4.71844 9.26777 4.82988L6.00444 8.07398ZM7.00129 14C6.04185 14 5.13669 13.8178 4.28582 13.4535C3.43493 13.0891 2.69017 12.5878 2.05154 11.9494C1.4129 11.3111 0.911317 10.5667 0.54679 9.71616C0.182263 8.86568 0 7.96073 0 7.00129C0 6.02903 0.18218 5.12067 0.54654 4.2762C0.9109 3.43173 1.41225 2.69017 2.05058 2.05154C2.68893 1.4129 3.43335 0.911317 4.28384 0.546791C5.13432 0.182264 6.03927 0 6.99871 0C7.97097 0 8.87933 0.182181 9.7238 0.546541C10.5683 0.910901 11.3098 1.41225 11.9485 2.05058C12.5871 2.68893 13.0887 3.43014 13.4532 4.27422C13.8177 5.11829 14 6.02645 14 6.99871C14 7.95815 13.8178 8.86331 13.4535 9.71418C13.0891 10.5651 12.5878 11.3098 11.9494 11.9485C11.3111 12.5871 10.5699 13.0887 9.72578 13.4532C8.88171 13.8177 7.97355 14 7.00129 14Z" fill="#0FAA28"/>
</svg>
