<svg xmlns="http://www.w3.org/2000/svg" width="15" height="14" viewBox="0 0 15 14" fill="none">
  <path d="M7.85239 10.4852C8.00549 10.4852 8.13517 10.4334 8.24143 10.3299C8.34768 10.2263 8.40081 10.098 8.40081 9.94487C8.40081 9.79178 8.34903 9.66211 8.24546 9.55585C8.14191 9.4496 8.01359 9.39647 7.8605 9.39647C7.7074 9.39647 7.57772 9.44824 7.47146 9.5518C7.36521 9.65536 7.31208 9.78369 7.31208 9.93678C7.31208 10.0899 7.36386 10.2195 7.46742 10.3258C7.57098 10.4321 7.6993 10.4852 7.85239 10.4852ZM7.85266 7.98225C7.99325 7.98225 8.11236 7.93434 8.20998 7.8385C8.30761 7.74268 8.35643 7.62394 8.35643 7.48227V3.86684C8.35643 3.72518 8.30888 3.60644 8.21377 3.51061C8.11867 3.41477 8.00082 3.36686 7.86023 3.36686C7.71964 3.36686 7.60053 3.41477 7.5029 3.51061C7.40528 3.60644 7.35646 3.72518 7.35646 3.86684V7.48227C7.35646 7.62394 7.40401 7.74268 7.49912 7.8385C7.59422 7.93434 7.71207 7.98225 7.85266 7.98225ZM7.86304 14C6.90006 14 5.99314 13.8178 5.14226 13.4535C4.29138 13.0891 3.54662 12.5878 2.90799 11.9494C2.26935 11.3111 1.76776 10.5669 1.40324 9.71697C1.03871 8.86702 0.856445 7.95886 0.856445 6.99248C0.856445 6.02609 1.03863 5.12067 1.40299 4.2762C1.76735 3.43173 2.26869 2.69017 2.90703 2.05154C3.54538 1.4129 4.28952 0.911317 5.13948 0.546791C5.98943 0.182264 6.89759 0 7.86396 0C8.83035 0 9.73578 0.182181 10.5802 0.546541C11.4247 0.910901 12.1663 1.41225 12.8049 2.05058C13.4435 2.68893 13.9451 3.43158 14.3097 4.27853C14.6742 5.12548 14.8564 6.03044 14.8564 6.9934C14.8564 7.95638 14.6743 8.86331 14.3099 9.71418C13.9455 10.5651 13.4442 11.3098 12.8059 11.9485C12.1675 12.5871 11.4249 13.0887 10.5779 13.4532C9.73096 13.8177 8.826 14 7.86304 14Z" fill="#F77619"/>
</svg>