<svg width="10" height="10" viewBox="0 0 10 10" fill="none" xmlns="http://www.w3.org/2000/svg">
<path d="M9.00065 5.66927H5.66732V9.0026C5.66732 9.36927 5.36732 9.66927 5.00065 9.66927C4.63398 9.66927 4.33398 9.36927 4.33398 9.0026V5.66927H1.00065C0.633984 5.66927 0.333984 5.36927 0.333984 5.0026C0.333984 4.63594 0.633984 4.33594 1.00065 4.33594H4.33398V1.0026C4.33398 0.635938 4.63398 0.335938 5.00065 0.335938C5.36732 0.335938 5.66732 0.635938 5.66732 1.0026V4.33594H9.00065C9.36732 4.33594 9.66732 4.63594 9.66732 5.0026C9.66732 5.36927 9.36732 5.66927 9.00065 5.66927Z" fill="white"/>
</svg>
