<svg width="14" height="14" viewBox="0 0 14 14" fill="none" xmlns="http://www.w3.org/2000/svg">
<rect width="14" height="14" rx="7" fill="white"/>
<g clip-path="url(#clip0_42728_73266)">
<path d="M9.69111 4.67012C9.61333 4.44068 9.39556 4.27734 9.13889 4.27734H4.86111C4.60444 4.27734 4.39056 4.44068 4.30889 4.67012L3.5 6.99957V10.1107C3.5 10.3246 3.675 10.4996 3.88889 10.4996H4.27778C4.49167 10.4996 4.66667 10.3246 4.66667 10.1107V9.72179H9.33333V10.1107C9.33333 10.3246 9.50833 10.4996 9.72222 10.4996H10.1111C10.325 10.4996 10.5 10.3246 10.5 10.1107V6.99957L9.69111 4.67012ZM4.99722 5.05512H8.99889L9.41889 6.26457H4.57722L4.99722 5.05512ZM9.72222 8.94401H4.27778V6.99957H9.72222V8.94401Z" fill="#6A6A70"/>
<path d="M5.2513 8.55534C5.57347 8.55534 5.83464 8.29417 5.83464 7.97201C5.83464 7.64984 5.57347 7.38867 5.2513 7.38867C4.92914 7.38867 4.66797 7.64984 4.66797 7.97201C4.66797 8.29417 4.92914 8.55534 5.2513 8.55534Z" fill="#6A6A70"/>
<path d="M8.7513 8.55534C9.07347 8.55534 9.33464 8.29417 9.33464 7.97201C9.33464 7.64984 9.07347 7.38867 8.7513 7.38867C8.42914 7.38867 8.16797 7.64984 8.16797 7.97201C8.16797 8.29417 8.42914 8.55534 8.7513 8.55534Z" fill="#6A6A70"/>
</g>
<defs>
<clipPath id="clip0_42728_73266">
<rect width="9.33333" height="9.33333" fill="white" transform="translate(2.33398 2.33301)"/>
</clipPath>
</defs>
</svg>
