<svg xmlns="http://www.w3.org/2000/svg" width="20" height="20" viewBox="0 0 20 20" fill="none">
  <path d="M13.3888 7.49593C13.4485 7.43831 13.4962 7.36936 13.529 7.29313C13.5618 7.21689 13.579 7.13489 13.5798 7.0519C13.5806 6.96891 13.5648 6.88661 13.5334 6.80978C13.502 6.73296 13.4556 6.66315 13.397 6.60444C13.3383 6.54573 13.2686 6.49929 13.1918 6.46783C13.115 6.43637 13.0327 6.42051 12.9497 6.4212C12.8667 6.42188 12.7847 6.43908 12.7084 6.4718C12.6322 6.50452 12.5632 6.5521 12.5055 6.61177L10.0005 9.11593L7.49632 6.61177C7.4391 6.55036 7.3701 6.50111 7.29343 6.46695C7.21677 6.43279 7.13401 6.41442 7.05009 6.41294C6.96617 6.41146 6.88281 6.4269 6.80499 6.45833C6.72716 6.48976 6.65647 6.53655 6.59712 6.5959C6.53777 6.65525 6.49098 6.72594 6.45955 6.80377C6.42812 6.88159 6.41268 6.96495 6.41416 7.04887C6.41564 7.13279 6.43401 7.21555 6.46817 7.29221C6.50233 7.36888 6.55158 7.43788 6.61299 7.4951L9.11549 10.0001L6.61132 12.5043C6.50092 12.6227 6.44082 12.7795 6.44367 12.9414C6.44653 13.1033 6.51212 13.2578 6.62663 13.3723C6.74115 13.4868 6.89563 13.5524 7.05755 13.5552C7.21947 13.5581 7.37617 13.498 7.49465 13.3876L10.0005 10.8834L12.5047 13.3884C12.6231 13.4988 12.7798 13.5589 12.9418 13.5561C13.1037 13.5532 13.2582 13.4876 13.3727 13.3731C13.4872 13.2586 13.5528 13.1041 13.5556 12.9422C13.5585 12.7803 13.4984 12.6236 13.388 12.5051L10.8855 10.0001L13.3888 7.49593Z" fill="#5B5B5F"/>
</svg>